<svg xmlns="http://www.w3.org/2000/svg" viewBox="0 0 23 23"><defs><style>.cls-1{fill:#d0deee;isolation:isolate;opacity:0.5;}.cls-1,.cls-2{fill-rule:evenodd;}.cls-2{fill:#ccc;}</style></defs><g id="图层_2" data-name="图层 2"><g id="图层_1-2" data-name="图层 1"><path id="矩形_7" data-name="矩形 7" class="cls-1" d="M4,23H19a4,4,0,0,0,4-4V4a4,4,0,0,0-4-4H4A4,4,0,0,0,0,4V19A4,4,0,0,0,4,23Z"/><path id="矩形_1" data-name="矩形 1" class="cls-2" d="M4,8.5H7a1,1,0,0,0,1-1v-2a1,1,0,0,0-1-1H4a1,1,0,0,0-1,1v2A1,1,0,0,0,4,8.5Z"/><path id="矩形_1-2" data-name="矩形 1" class="cls-2" d="M4,13.5H7a1,1,0,0,0,1-1v-2a1,1,0,0,0-1-1H4a1,1,0,0,0-1,1v2A1,1,0,0,0,4,13.5Z"/><path id="矩形_1-3" data-name="矩形 1" class="cls-2" d="M4,18.5H7a1,1,0,0,0,1-1v-2a1,1,0,0,0-1-1H4a1,1,0,0,0-1,1v2A1,1,0,0,0,4,18.5Z"/><path id="矩形_1-4" data-name="矩形 1" class="cls-2" d="M10,8.5h3a1,1,0,0,0,1-1v-2a1,1,0,0,0-1-1H10a1,1,0,0,0-1,1v2A1,1,0,0,0,10,8.5Z"/><path id="矩形_1-5" data-name="矩形 1" class="cls-2" d="M16,8.5h3a1,1,0,0,0,1-1v-2a1,1,0,0,0-1-1H16a1,1,0,0,0-1,1v2A1,1,0,0,0,16,8.5Z"/><path id="矩形_1-6" data-name="矩形 1" class="cls-2" d="M10,13.5h3a1,1,0,0,0,1-1v-2a1,1,0,0,0-1-1H10a1,1,0,0,0-1,1v2A1,1,0,0,0,10,13.5Z"/><path id="矩形_1-7" data-name="矩形 1" class="cls-2" d="M10,18.5h3a1,1,0,0,0,1-1v-2a1,1,0,0,0-1-1H10a1,1,0,0,0-1,1v2A1,1,0,0,0,10,18.5Z"/><path id="矩形_1-8" data-name="矩形 1" class="cls-2" d="M16,13.5h3a1,1,0,0,0,1-1v-2a1,1,0,0,0-1-1H16a1,1,0,0,0-1,1v2A1,1,0,0,0,16,13.5Z"/><path id="矩形_1-9" data-name="矩形 1" class="cls-2" d="M16,18.5h3a1,1,0,0,0,1-1v-2a1,1,0,0,0-1-1H16a1,1,0,0,0-1,1v2A1,1,0,0,0,16,18.5Z"/></g></g></svg>