<svg xmlns="http://www.w3.org/2000/svg" viewBox="0 0 23 23"><defs><style>.cls-1{fill:#d0deee;isolation:isolate;opacity:0.5;}.cls-1,.cls-2{fill-rule:evenodd;}.cls-2{fill:#ccc;}</style></defs><g id="图层_2" data-name="图层 2"><g id="图层_1-2" data-name="图层 1"><path id="矩形_7" data-name="矩形 7" class="cls-1" d="M4,23H19a4,4,0,0,0,4-4V4a4,4,0,0,0-4-4H4A4,4,0,0,0,0,4V19A4,4,0,0,0,4,23Z"/><path id="减去顶层" class="cls-2" d="M9.19,14.36h4.62a.82.82,0,0,1,.82.82h0a.82.82,0,0,0,.82.82H19a1,1,0,0,0,1-1V8a1,1,0,0,0-1-1H4A1,1,0,0,0,3,8v7a1,1,0,0,0,1,1H7.55a.82.82,0,0,0,.82-.82h0A.82.82,0,0,1,9.19,14.36Z"/></g></g></svg>