<svg xmlns="http://www.w3.org/2000/svg" xmlns:xlink="http://www.w3.org/1999/xlink" viewBox="0 0 44.73 43.1"><defs><style>.cls-1,.cls-3{fill:#fff;}.cls-2{mask:url(#mask);}.cls-3{fill-rule:evenodd;}.cls-4{mask:url(#mask-2);}</style><mask id="mask" x="11.96" y="6.5" width="19.32" height="30.85" maskUnits="userSpaceOnUse"><g id="bg-mask-1"><rect id="path_1" data-name="path 1" class="cls-1" x="11.96" y="6.5" width="19" height="30"/></g></mask><mask id="mask-2" x="27.82" y="25.59" width="16.91" height="16.98" maskUnits="userSpaceOnUse"><g id="bg-mask-2"><rect id="path_2" data-name="path 2" class="cls-1" x="27.82" y="25.59" width="16.91" height="16.98"/></g></mask></defs><g id="图层_2" data-name="图层 2"><g id="图层_1-2" data-name="图层 1"><path id="路径_1" data-name="路径 1" class="cls-1" d="M21.52,43.1A21.49,21.49,0,0,1,0,21.61,21.6,21.6,0,0,1,21.52,0,21.6,21.6,0,0,1,43,21.61a1.36,1.36,0,0,1,0,.2A.64.64,0,0,1,43,22a.76.76,0,0,1-.09.18l-.12.15-.15.12-.18.09-.18.06-.2,0-.2,0-.18-.06-.18-.09-.15-.12a1.58,1.58,0,0,1-.12-.15.76.76,0,0,1-.09-.18.64.64,0,0,1-.06-.18,1.36,1.36,0,0,1,0-.2A19.41,19.41,0,0,0,35,7.4a19.43,19.43,0,0,0-26.88,0A19.41,19.41,0,0,0,2,21.61,19.16,19.16,0,0,0,7.75,35.43,19.24,19.24,0,0,0,21.52,41.1l.2,0,.18.06a.76.76,0,0,1,.18.09l.15.12.12.15a.76.76,0,0,1,.09.18.64.64,0,0,1,.06.18,1,1,0,0,1,0,.4.64.64,0,0,1-.06.18.76.76,0,0,1-.09.18l-.12.15-.15.12L21.9,43l-.18.06Z"/><g class="cls-2"><path id="路径_1-2" data-name="路径 1" class="cls-3" d="M31.2,19.78a.82.82,0,0,0-.7-.35H23.39L26.07,7.72a.78.78,0,0,0-.47-.82.9.9,0,0,0-.93.23L12.78,23.52a2.26,2.26,0,0,0-.12.94.82.82,0,0,0,.7.35h7.23L17.91,36.52c-.12.24,0,.35.11.59a.88.88,0,0,0,.59.23.63.63,0,0,0,.58-.35L31.08,20.6A.71.71,0,0,0,31.2,19.78Z"/></g><g class="cls-4"><path id="分组_1" data-name="分组 1" class="cls-3" d="M42.4,42.57H30a2.22,2.22,0,0,1-2.22-2.23V29A2.22,2.22,0,0,1,30,26.76H31.2v-.94a.26.26,0,0,1,.23-.23h.7a.26.26,0,0,1,.24.23v.94h7.81v-.94a.26.26,0,0,1,.23-.23h.7a.26.26,0,0,1,.24.23v.94h1.16A2.22,2.22,0,0,1,44.73,29V40.34A2.32,2.32,0,0,1,42.4,42.57Zm.34-14.75H41.57v.94a.25.25,0,0,1-.23.23h-.7a.25.25,0,0,1-.23-.23v-.94H32.48v.94a.26.26,0,0,1-.24.23h-.69a.26.26,0,0,1-.24-.23v-.94H30.15A1.18,1.18,0,0,0,29,29v1.17H43.9V29A1.17,1.17,0,0,0,42.74,27.82ZM28.87,31.21v9A1.17,1.17,0,0,0,30,41.4H42.51a1.08,1.08,0,0,0,1.05-1.17v-9Z"/></g></g></g></svg>