<svg xmlns="http://www.w3.org/2000/svg" xmlns:xlink="http://www.w3.org/1999/xlink" viewBox="0 0 150 118.23"><defs><style>.cls-1,.cls-11,.cls-12,.cls-13,.cls-2,.cls-3,.cls-4,.cls-5,.cls-6,.cls-7,.cls-8,.cls-9{fill-rule:evenodd;}.cls-1{fill:url(#未命名的渐变_172);}.cls-2{fill:url(#未命名的渐变_149);}.cls-3{fill:url(#未命名的渐变_148);}.cls-4{fill:url(#未命名的渐变_145);}.cls-5{fill:url(#未命名的渐变_145-2);}.cls-6{fill:url(#未命名的渐变_144);}.cls-7{fill:url(#未命名的渐变_142);}.cls-8{fill:url(#未命名的渐变_141);}.cls-9{fill:#064ebf;}.cls-10{fill:#0f68d0;}.cls-11{fill:url(#未命名的渐变_140);}.cls-12{fill:#0f6b9c;}.cls-13{fill:url(#未命名的渐变_139);}</style><linearGradient id="未命名的渐变_172" x1="-855.16" y1="-1427.39" x2="-854.15" y2="-1427.39" gradientTransform="matrix(120, 0, 0, -20.29, 102634.99, -28853.7)" gradientUnits="userSpaceOnUse"><stop offset="0" stop-color="#022c8f"/><stop offset="0.5" stop-color="#02339e"/><stop offset="1" stop-color="#05308e"/></linearGradient><linearGradient id="未命名的渐变_149" x1="-855.16" y1="-1427.39" x2="-854.15" y2="-1427.39" gradientTransform="matrix(120, 0, 0, -20.29, 102634.99, -28853.7)" gradientUnits="userSpaceOnUse"><stop offset="0.27" stop-color="#022c8f" stop-opacity="0"/><stop offset="0.5" stop-color="#2b5cc7"/><stop offset="0.7" stop-color="#05308e" stop-opacity="0"/></linearGradient><radialGradient id="未命名的渐变_148" cx="-804.1" cy="-1329.72" r="1.38" gradientTransform="matrix(0, 32.65, 58.26, 0, 77544.6, 26347.94)" gradientUnits="userSpaceOnUse"><stop offset="0" stop-color="#3ac8f4"/><stop offset="1" stop-color="#033fa1"/></radialGradient><linearGradient id="未命名的渐变_145" x1="-855.04" y1="-1393.71" x2="-854.84" y2="-1394.12" gradientTransform="matrix(129.45, 0, 0, -32.65, 110751.23, -45416.3)" gradientUnits="userSpaceOnUse"><stop offset="0" stop-color="#02319e" stop-opacity="0.64"/><stop offset="1" stop-color="#1a9acd" stop-opacity="0"/></linearGradient><linearGradient id="未命名的渐变_145-2" x1="-854.93" y1="-1393.73" x2="-855.24" y2="-1394" xlink:href="#未命名的渐变_145"/><linearGradient id="未命名的渐变_144" x1="-855.03" y1="-1393.14" x2="-855" y2="-1393.79" gradientTransform="matrix(129.45, 0, 0, -32.65, 110751.23, -45416.3)" gradientUnits="userSpaceOnUse"><stop offset="0.22" stop-color="#247bcb"/><stop offset="0.83" stop-color="#247bcb" stop-opacity="0"/></linearGradient><radialGradient id="未命名的渐变_142" cx="-777.7" cy="-1331.96" r="0.38" gradientTransform="matrix(0, 22.06, 75.89, 0, 101151.8, 17229.66)" gradientUnits="userSpaceOnUse"><stop offset="0.49" stop-color="#96dced"/><stop offset="1" stop-color="#30dbdd"/></radialGradient><linearGradient id="未命名的渐变_141" x1="-854.25" y1="-1384.54" x2="-853.26" y2="-1384.54" gradientTransform="matrix(99.71, 0, 0, -39.33, 85202.99, -54378.93)" gradientUnits="userSpaceOnUse"><stop offset="0.07" stop-color="#012981"/><stop offset="0.21" stop-color="#0545a3"/><stop offset="0.37" stop-color="#02237b"/><stop offset="0.57" stop-color="#02247c"/><stop offset="0.79" stop-color="#064fab"/><stop offset="0.93" stop-color="#022f86"/></linearGradient><radialGradient id="未命名的渐变_140" cx="-825.19" cy="-1334.88" r="1" gradientTransform="matrix(0, 52.94, 152.67, 0, 203872.58, 43702.98)" gradientUnits="userSpaceOnUse"><stop offset="0.45" stop-color="#36cfdb" stop-opacity="0"/><stop offset="0.93" stop-color="#36cfdb" stop-opacity="0.41"/></radialGradient><linearGradient id="未命名的渐变_139" x1="-850.99" y1="-1368.8" x2="-850.22" y2="-1369.8" gradientTransform="matrix(61.93, 0, 0, -59.12, 52748.08, -80920.74)" gradientUnits="userSpaceOnUse"><stop offset="0" stop-color="#339bda"/><stop offset="1" stop-color="#33eef9"/></linearGradient></defs><g id="图层_2" data-name="图层 2"><g id="图层_1-2" data-name="图层 1"><g id="Rectangle_54" data-name="Rectangle 54"><path id="Rectangle_54-2" data-name="Rectangle 54" class="cls-1" d="M15.64,106.37C15,105.88,29.12,118.23,75,118.23c42.13,0,57.48-10.41,59.71-12.12a.75.75,0,0,0,.29-.61V97.94s-21.62,12.35-60,12.35S15,97.94,15,97.94v7.14A1.57,1.57,0,0,0,15.64,106.37Z"/></g><g id="Rectangle_56" data-name="Rectangle 56"><path id="Rectangle_56-2" data-name="Rectangle 56" class="cls-2" d="M15.64,106.37C15,105.88,29.12,118.23,75,118.23c42.13,0,57.48-10.41,59.71-12.12a.75.75,0,0,0,.29-.61V97.94s-21.62,12.35-60,12.35S15,97.94,15,97.94v7.14A1.57,1.57,0,0,0,15.64,106.37Z"/></g><path id="Rectangle_55" data-name="Rectangle 55" class="cls-3" d="M12.63,98.92C7.94,97.06,37.94,110.3,75,110.3c29.05,0,53.76-8.13,63.09-11.65a2.86,2.86,0,0,0,1-4.67L123.43,77.65S109.41,90.89,75,90.89,26.57,77.65,26.57,77.65L11.43,93.43A3.36,3.36,0,0,0,12.63,98.92Z"/><path id="Rectangle_55-2" data-name="Rectangle 55" class="cls-4" d="M12.63,98.92C7.94,97.06,37.94,110.3,75,110.3c29.05,0,53.76-8.13,63.09-11.65a2.86,2.86,0,0,0,1-4.67L123.43,77.65S109.41,90.89,75,90.89,26.57,77.65,26.57,77.65L11.43,93.43A3.36,3.36,0,0,0,12.63,98.92Z"/><path id="Rectangle_55-3" data-name="Rectangle 55" class="cls-5" d="M12.63,98.92C7.94,97.06,37.94,110.3,75,110.3c29.05,0,53.76-8.13,63.09-11.65a2.86,2.86,0,0,0,1-4.67L123.43,77.65S109.41,90.89,75,90.89,26.57,77.65,26.57,77.65L11.43,93.43A3.36,3.36,0,0,0,12.63,98.92Z"/><path id="Rectangle_55-4" data-name="Rectangle 55" class="cls-6" d="M12.63,98.92C7.94,97.06,37.94,110.3,75,110.3c29.05,0,53.76-8.13,63.09-11.65a2.86,2.86,0,0,0,1-4.67L123.43,77.65S109.41,90.89,75,90.89,26.57,77.65,26.57,77.65L11.43,93.43A3.36,3.36,0,0,0,12.63,98.92Z"/><path id="Ellipse_1817" data-name="Ellipse 1817" class="cls-7" d="M74.12,60c-21,0-37.94,4.94-37.94,11s17,11,37.94,11,37.94-4.94,37.94-11S95.07,60,74.12,60Z"/><g id="Vector"><path id="Vector-2" data-name="Vector" class="cls-8" d="M97.33,92.56l.28-6.75-7.33,1.08Zm-7.25,1.15,7.25-1.15-7-5.67Zm-7.55-6.15,7.55,6.15.2-6.82ZM104,91l-6.36-5.19-.28,6.75ZM66.6,87.56l8,7.09V87.78Zm8,7.09,7.86-.24-7.86-6.63Zm7.86-.24.1-6.85-8,.22Zm0,0,7.65-.7-7.55-6.15ZM44.38,65.67l-.28-5.19-2.61,1.33Zm-2.59,1.41,2.59-1.41-2.89-3.86Zm-2.46-3.84,2.46,3.84-.3-5.27Zm8.07,1.15-3.3-3.91.28,5.19Zm74.15,17.38.53-6.15L119.32,78Zm-2.74,2.54,2.74-2.54L119.32,78Zm-3.45-4,3.45,4,.51-6.29Zm7.86-1.13-1.14-3.6-.53,6.15Zm-92.9,5.09-3.27-8.69.53,6.15Zm-3.27-8.69-1.66-2.39,2.19,8.54Zm-1.66-2.39.52,6,1.67,2.55Zm-.68-2.36.52,5.85.68,2.5Zm.68,2.36-.68-2.36,1.2,8.35ZM45.16,91l6.64,1.56-7-8.23Zm6.64,1.56-.28-6.75-6.73-1.48Zm-13-10.06L45.16,91l-.37-6.67Zm0,0,.43,6.56L45.16,91Zm76.06,4.28,3.92-2.47-3.45-4ZM110.3,82.5l4.59,4.28.47-6.43Zm0,0-.43,6.56,5-2.28ZM86.78,60.91l4,.59L86.89,56Zm4,.59.14-4.93-4-.55Zm-7.92-5.87,4,5.28L86.89,56Zm0,0-.07,4.86,4,.42Zm26.65,13,1.64,1.64-1.31-7Zm1.64,1.64.35-5.47-1.66-1.53Zm-3.47-8.43,1.83,6.79.33-5.36Zm0,0-.3,5.27,2.13,1.52ZM59.05,93.71l7.65.7-7.85-7.52Zm7.65.7-.1-6.85-7.75-.67Zm-15.18-8.6,7.53,7.9-.2-6.82Zm0,0,.28,6.75,7.25,1.15ZM58.39,61.5l4-.59-4.1-4.34Zm4-.59L62.24,56l-4,.55Zm-8-3.61,4,4.2-.14-4.93Zm8,3.61,4-.42L62.24,56Zm4-.42-.07-4.86L62.24,56Zm28.21,1.78-3.71-5.7-.14,4.93Zm-40.22-5,.17,5,3.85-.77ZM34.24,86.78l5,2.28-5.49-8.71ZM29.81,78l4.43,8.76-.47-6.43Zm9.45,11-.43-6.56-5.06-2.15ZM29.81,78l.51,6.29,3.92,2.47ZM74.57,94.65l-8-7.09.1,6.85ZM105,60.48l-3-1.2,2.77,6.39Zm-3-1.2-.25,5.11,3,1.28Zm5.36,7.8L105,60.48l-.28,5.19Zm-8.83-8.87-.21,5,3.43,1.15ZM102,59.28l-3.47-1.07,3.22,6.18Zm5.36,7.8.3-5.27L105,60.48Zm15.88,12.14.52-6-1.66,2.39Zm-10.47-5.45-.16-7.37L112.22,72Zm-1.29-9-.35,5.47L112.22,72Zm1.13,1.63-1.13-1.63.76,7.2Zm-18-4.13.17-5-3.88-.73Zm3.71,1L94.76,57.3l-.17,5ZM38,70.24l1.64-1.64-2-3.83Zm1.64-1.64-.33-5.36-1.66,1.53Zm-3.12-2.2L38,70.24l-.35-5.47Zm0,0L36.91,72,38,70.24ZM98.3,63.24l.21-5-3.75-.91Zm-.69,22.57L104,91l.37-6.67Zm12.26,3.25.43-6.56-6,1.83ZM104,91l5.9-1.94-5.53-4.73ZM47.4,64.39l3.43-1.15-3.68-4Zm3.43-1.15-.21-5-3.47,1.07ZM44.1,60.48l3.3,3.91-.25-5.11ZM78.71,55.4l4,5.09.07-4.86Zm0,0,0,4.85,4.08.24ZM27.05,75.62l3.27,8.69L29.81,78ZM54.54,62.27l-3.92-4.06.21,5ZM123.9,76.72l.52-5.85-.68,2.36Zm-.68,2.5.68-2.5-.16-3.49ZM54.54,62.27l-.17-5-3.75.91Zm58.21,11.5.39-5.67-.55-1.7ZM70.46,60.25l-4.15-4.62.07,4.86Zm0-4.85-4.11.23,4.15,4.62Zm4.15,4.76L70.42,55.4l0,4.85ZM41.79,67.08l-2.46-3.84.33,5.36Zm70.87,8.56.48-7.54-.39,5.67ZM74.57,60.16V55.32l-4.15.08ZM36.08,69.85l.3,3.92L36,68.1Zm.3,3.92.53-1.8L36,68.1Zm.53-1.8-.37-5.57L36,68.1Zm-.44,3.67-.09-1.87-.3-3.92Zm38.1-15.48,4.1.09-4.1-4.93Zm4.1.09,0-4.85-4.14-.08Zm34,15.39.39-5.79.09-1.75Z"/></g><path id="Vector-3" data-name="Vector" class="cls-9" d="M80.43,82.13l5.73-.46,5.46-.76,5.07-1,4.57-1.3,4-1.54,3.2-1.7,2.33-1.76,1.53-1.79.77-1.78.09-1.76-.55-1.69-1.13-1.63-1.66-1.53L107.64,62,105,60.63l-3-1.2-3.47-1.07-3.75-.91-3.88-.73-4-.56-4.07-.39-4.11-.23-4.14-.07-4.15.07-4.11.23-4.07.39-4,.56-3.88.73-3.75.91-3.47,1.07-3,1.2L41.49,62l-2.16,1.44-1.66,1.53-1.13,1.63L36,68.24,36.08,70l.77,1.78,1.53,1.79,2.33,1.76,3.2,1.7,4,1.54,4.57,1.3,5.07,1,5.46.76,5.73.46,5.87.16Zm23.85-25.75,4.43,1.3,4,1.47,3.47,1.62,2.95,1.78,2.36,1.93,1.73,2.07,1,2.18.22,2.29-.68,2.35-1.66,2.4-2.76,2.39-4,2.34-5.06,2.14-6,1.84L97.61,86,90.28,87l-7.75.67-8,.22-8-.22L58.85,87,51.52,86l-6.73-1.48-6-1.84L33.77,80.5l-4-2.34-2.76-2.39-1.66-2.4L24.71,71l.22-2.29,1-2.18,1.73-2.07L30,62.55,33,60.77l3.47-1.62,4-1.47,4.43-1.3,4.73-1.09,4.86-.87,5-.65,5-.47L69.48,53l5.09-.09,5.08.09,5.07.27,5,.47,5,.65,4.86.87Z"/><path id="Vector-4" data-name="Vector" class="cls-10" d="M80.36,81.25l5.73-.46.07.88L86,80.8,91.5,80l.12.87-.18-.86,5.07-1,.18.86L96.45,79l4.57-1.3.24.85-.32-.82,4-1.54.32.82-.41-.78,3.2-1.7.41.78-.53-.7,2.33-1.76.53.7-.67-.57,1.53-1.79.67.57-.81-.35.77-1.78.81.35-.88,0,.09-1.76.88,0-.84.27-.55-1.69.84-.27-.73.5-1.13-1.63.73-.5-.6.65L109.2,64l.6-.65-.49.73-2.16-1.44.49-.73-.4.79-2.61-1.32.4-.79-.32.82-3-1.2.32-.82-.26.84L98.25,59.2l.26-.84-.21.86-3.75-.91.21-.86-.16.87-3.88-.73.16-.87-.12.87-4-.56.12-.87-.08.88-4.07-.39.08-.88,0,.88-4.11-.23,0-.88v.88l-4.14-.07v0l-4.15.07v-.88l0,.88-4.11.23,0-.88.08.88L62.32,57l-.08-.88.12.87-4,.56-.12-.87.16.87-3.88.73-.16-.87.21.86-3.75.91-.21-.86.26.84-3.47,1.07-.26-.84.32.82-3,1.2-.32-.82.4.79-2.61,1.32-.4-.79.49.73-2.16,1.44-.49-.73.6.65-1.66,1.53-.6-.65.73.5-1.13,1.63-.73-.5.84.27-.55,1.69L36,68.24l.88,0L37,70l-.88,0,.81-.35.77,1.78-.81.35.67-.57L39.05,73l-.67.57.53-.7,2.33,1.76-.53.7.41-.78,3.2,1.7-.41.78.32-.82,4,1.54-.32.82.24-.85L52.68,79l-.24.85.18-.86,5.07,1-.18.86.12-.87,5.46.76-.12.87.07-.88,5.73.46-.07.88,0-.88,5.87.16,0,.88,0-.88,5.86-.16,0,.88ZM80.48,83l-5.91.16L68.65,83l-5.78-.46-5.51-.77-5.13-1-4.64-1.32-4.05-1.58-3.31-1.75-2.46-1.86-1.68-2-.88-2-.11-2.08.64-2L37,64.34l1.78-1.65L41,61.19l2.7-1.37,3.12-1.22,3.53-1.09,3.79-.92,3.93-.74,4-.57,4.1-.39,4.15-.23,4.18-.07,4.17.07,4.15.23,4.1.39,4,.57,3.93.74,3.79.92,3.53,1.09,3.12,1.22,2.7,1.37,2.26,1.5,1.78,1.65,1.26,1.81.64,2-.11,2.08-.88,2-1.68,2-2.46,1.86-3.31,1.75-4,1.58L96.9,80.73l-5.13,1-5.51.77L80.5,83ZM99.39,56.16l-4.86-.87.16-.87-.11.87-5-.65.11-.87-.08.88-5-.47.08-.88,0,.88-5.07-.27.05-.88,0,.88-5.08-.09,0-.88,0,.88-5.09.09,0-.88,0,.88-5.07.27,0-.88.08.88-5,.47-.08-.88.11.87-5,.65-.11-.87.16.87-4.86.87-.16-.87.2.86-4.73,1.09-.2-.86.25.85-4.43,1.3-.25-.85.31.83-4,1.47-.31-.83.37.8-3.47,1.62-.37-.8.46.76-2.95,1.78L30,62.55l.56.68-2.36,1.93-.56-.68.68.57-1.73,2.07-.68-.57.8.37-1,2.18-.8-.37.88.08-.22,2.29L24.71,71l.85-.25.68,2.35-.85.25.73-.5,1.66,2.4-.73.5.58-.67,2.76,2.39-.58.67.45-.76,4,2.34-.45.76.34-.81,5.06,2.14-.34.81.26-.84,6,1.84-.26.84.19-.86,6.73,1.48-.19.86.13-.87L59,86.17l-.13.87.08-.88,7.75.67-.08.88,0-.88,8,.22,0,.88,0-.88,8-.22,0,.88-.08-.88,7.75-.67.08.88-.13-.87,7.33-1.08.13.87-.19-.86,6.73-1.48.19.86-.26-.84,6-1.84.26.84-.34-.81L115,79.69l.34.81-.45-.76,4-2.34.45.76-.58-.67,2.76-2.39.58.67-.73-.5,1.66-2.4.73.5-.85-.25.68-2.35.85.25-.88.08-.22-2.29.88-.08-.8.37-1-2.18.8-.37-.68.57-1.73-2.07.68-.57-.56.68-2.36-1.93.56-.68-.46.76-3-1.78.46-.76-.37.8L112.31,60l.37-.8-.31.83-4-1.47.31-.83-.25.85L104,57.23l.25-.85-.2.86-4.73-1.09.2-.86Zm.34-1.73,4.77,1.1L109,56.84l4,1.5L116.57,60l3,1.84,2.47,2,1.86,2.22,1.12,2.43.25,2.6-.76,2.65-1.81,2.61-2.9,2.52-4.08,2.41-5.16,2.18-6,1.86-6.8,1.5-7.39,1.09-7.8.67-8,.22-8-.22-7.8-.67-7.39-1.09-6.8-1.5-6-1.86-5.16-2.18-4.08-2.41-2.9-2.52-1.81-2.61-.76-2.65.25-2.6,1.12-2.43,1.86-2.22,2.47-2,3-1.84,3.55-1.65,4-1.5,4.49-1.31,4.77-1.1,4.9-.88,5-.66,5.06-.47,5.1-.27,5.12-.09,5.11.09,5.1.27,5.06.47,5,.66,4.88.87Z"/><g id="Rectangle_56-3" data-name="Rectangle 56"><path id="Rectangle_56-4" data-name="Rectangle 56" class="cls-11" d="M36.62,70.59h76.32L150,17.65H0Z"/></g><path id="Vector-5" data-name="Vector" class="cls-12" d="M51.32,44.35a1.33,1.33,0,0,0,1.41,1.41h5.63a1.4,1.4,0,0,0,1-.39,1.39,1.39,0,0,0,.39-1V41.54a1.33,1.33,0,0,0-1.41-1.41H52.73a1.4,1.4,0,0,0-1,.39,1.37,1.37,0,0,0-.39,1Zm8.06-21.5a1.4,1.4,0,0,0,.39-1V19a1.33,1.33,0,0,0-1.41-1.4H52.73a1.44,1.44,0,0,0-1,.38,1.4,1.4,0,0,0-.39,1v2.82a1.34,1.34,0,0,0,1.41,1.41h5.63A1.4,1.4,0,0,0,59.38,22.85ZM82.29,57V17.61H93.55a5.65,5.65,0,0,1,5.63,5.63V57H102a1.33,1.33,0,0,1,1.41,1.41v2.81A1.34,1.34,0,0,1,102,62.65H42.88a1.33,1.33,0,0,1-1.41-1.41V58.43a1.37,1.37,0,0,1,.39-1,1.39,1.39,0,0,1,1-.39h2.81V9.16a5.65,5.65,0,0,1,5.63-5.63H73.84a5.64,5.64,0,0,1,5.63,5.63V57ZM93.55,34.5a1.4,1.4,0,0,0,1-.39,1.45,1.45,0,0,0,.39-1V30.27a1.33,1.33,0,0,0-1.41-1.4H87.92a1.42,1.42,0,0,0-1,.38,1.4,1.4,0,0,0-.39,1v2.82a1.33,1.33,0,0,0,1.41,1.41ZM66.8,40.13a1.32,1.32,0,0,0-1.4,1.41v2.81a1.33,1.33,0,0,0,1.4,1.41h5.64a1.4,1.4,0,0,0,1-.39,1.42,1.42,0,0,0,.38-1V41.54a1.33,1.33,0,0,0-1.4-1.41Zm0-11.26a1.31,1.31,0,0,0-1.4,1.4v2.82a1.33,1.33,0,0,0,1.4,1.41h5.64a1.4,1.4,0,0,0,1-.39,1.44,1.44,0,0,0,.38-1V30.27a1.32,1.32,0,0,0-1.4-1.4ZM51.32,33.09a1.34,1.34,0,0,0,1.41,1.41h5.63a1.34,1.34,0,0,0,1.41-1.41V30.27a1.33,1.33,0,0,0-1.41-1.4H52.73a1.44,1.44,0,0,0-1,.38,1.4,1.4,0,0,0-.39,1ZM95,41.54a1.33,1.33,0,0,0-1.41-1.41H87.92a1.39,1.39,0,0,0-1,.39,1.37,1.37,0,0,0-.39,1v2.81a1.33,1.33,0,0,0,1.41,1.41h5.63a1.4,1.4,0,0,0,1-.39,1.43,1.43,0,0,0,.39-1ZM73.84,19a1.32,1.32,0,0,0-1.4-1.4H66.8A1.31,1.31,0,0,0,65.4,19v2.82a1.33,1.33,0,0,0,1.4,1.41h5.64a1.4,1.4,0,0,0,1-.39,1.44,1.44,0,0,0,.38-1Z"/><path id="_2_3" data-name="2 3" class="cls-12" d="M97.08,14.08l-3.53,3.53a5.64,5.64,0,0,1,5.63,5.63l3.53-3.53A5.64,5.64,0,0,0,97.08,14.08Z"/><path id="_7_8" data-name="7 8" class="cls-12" d="M77.37,0,73.84,3.53a5.64,5.64,0,0,1,5.63,5.63L83,5.63A5.64,5.64,0,0,0,77.37,0Z"/><path id="_3_4" data-name="3 4" class="cls-12" d="M85.82,14.08l-3.53,3.53H93.55l3.53-3.53Z"/><path id="_81_82" data-name="81 82" class="cls-12" d="M93.55,28.87A1.33,1.33,0,0,1,95,30.28l3.53-3.53a1.33,1.33,0,0,0-1.41-1.41Z"/><path id="_82_75" data-name="82 75" class="cls-12" d="M95,30.27v2.81l3.53-3.53V26.74Z"/><path id="_80_81" data-name="80 81" class="cls-12" d="M87.92,28.87h5.63l3.53-3.53H91.45Z"/><path id="_75_100" data-name="75 100" class="cls-12" d="M95,33.09a1.4,1.4,0,0,1-.39,1l3.53-3.53a1.4,1.4,0,0,0,.39-1Z"/><path id="_100_76" data-name="100 76" class="cls-12" d="M98.1,30.58l-3.53,3.53a1.4,1.4,0,0,1-1,.39L97.08,31A1.4,1.4,0,0,0,98.1,30.58Z"/><path id="_8_9" data-name="8 9" class="cls-12" d="M54.85,0,51.32,3.53H73.84L77.37,0Z"/><path id="_1_2" data-name="1 2" class="cls-12" d="M102.71,19.71l-3.53,3.53V57l3.53-3.53Z"/><path id="_101_80" data-name="101 80" class="cls-12" d="M90.43,25.73a1.4,1.4,0,0,1,1-.39l-3.53,3.53a1.4,1.4,0,0,0-1,.39Z"/><path id="_79_101" data-name="79 101" class="cls-12" d="M90.43,25.72,86.9,29.25a1.4,1.4,0,0,0-.39,1L90,26.74A1.4,1.4,0,0,1,90.43,25.72Z"/><path id="_76_77" data-name="76 77" class="cls-12" d="M91.45,31,87.92,34.5h5.63L97.08,31Z"/><path id="_65_66" data-name="65 66" class="cls-12" d="M72.44,17.61A1.33,1.33,0,0,1,73.85,19l3.53-3.53A1.33,1.33,0,0,0,76,14.08Z"/><path id="_78_79" data-name="78 79" class="cls-12" d="M90,26.74l-3.53,3.53v2.81L90,29.55Z"/><path id="_77_78" data-name="77 78" class="cls-12" d="M90,29.56l-3.53,3.53a1.33,1.33,0,0,0,1.41,1.41L91.45,31A1.33,1.33,0,0,1,90,29.56Z"/><path id="_66_59" data-name="66 59" class="cls-12" d="M73.84,19v2.81l3.53-3.53V15.48Z"/><path id="_73_74" data-name="73 74" class="cls-12" d="M93.55,40.13A1.33,1.33,0,0,1,95,41.54L98.49,38a1.33,1.33,0,0,0-1.41-1.41Z"/><path id="_64_65" data-name="64 65" class="cls-12" d="M66.81,17.61h5.63L76,14.08H70.34Z"/><path id="_74_67" data-name="74 67" class="cls-12" d="M95,41.53v2.81l3.53-3.53V38Z"/><path id="_59_96" data-name="59 96" class="cls-12" d="M73.85,21.83a1.4,1.4,0,0,1-.39,1L77,19.32a1.4,1.4,0,0,0,.39-1Z"/><path id="_72_73" data-name="72 73" class="cls-12" d="M87.92,40.13h5.63l3.53-3.53H91.45Z"/><path id="_96_60" data-name="96 60" class="cls-12" d="M77,19.32l-3.53,3.53a1.4,1.4,0,0,1-1,.39L76,19.71A1.4,1.4,0,0,0,77,19.32Z"/><path id="_67_98" data-name="67 98" class="cls-12" d="M95,44.35a1.4,1.4,0,0,1-.39,1l3.53-3.53a1.4,1.4,0,0,0,.39-1Z"/><path id="_98_68" data-name="98 68" class="cls-12" d="M98.1,41.84l-3.53,3.53a1.4,1.4,0,0,1-1,.39l3.53-3.53A1.4,1.4,0,0,0,98.1,41.84Z"/><path id="_97_64" data-name="97 64" class="cls-12" d="M69.32,14.47a1.4,1.4,0,0,1,1-.39l-3.53,3.53a1.4,1.4,0,0,0-1,.39Z"/><path id="_63_97" data-name="63 97" class="cls-12" d="M69.32,14.46,65.79,18a1.4,1.4,0,0,0-.39,1l3.53-3.53A1.4,1.4,0,0,1,69.32,14.46Z"/><path id="_99_72" data-name="99 72" class="cls-12" d="M90.43,37a1.4,1.4,0,0,1,1-.39l-3.53,3.53a1.4,1.4,0,0,0-1,.39Z"/><path id="_60_61" data-name="60 61" class="cls-12" d="M70.34,19.71l-3.53,3.53h5.63L76,19.71Z"/><path id="_6_7" data-name="6 7" class="cls-12" d="M83,5.63,79.47,9.16V57L83,53.49Z"/><path id="_71_99" data-name="71 99" class="cls-12" d="M90.43,37,86.9,40.51a1.4,1.4,0,0,0-.39,1L90,38A1.4,1.4,0,0,1,90.43,37Z"/><path id="_9_83" data-name="9 83" class="cls-12" d="M50.88,1.65,47.35,5.18a5.62,5.62,0,0,1,4-1.65L54.86,0A5.62,5.62,0,0,0,50.88,1.65Z"/><path id="_62_63" data-name="62 63" class="cls-12" d="M68.93,15.48,65.4,19v2.81l3.53-3.53Z"/><path id="_4_5" data-name="4 5" class="cls-12" d="M82.29,17.61V57l3.53-3.53V14.08Z"/><path id="_68_69" data-name="68 69" class="cls-12" d="M91.45,42.23l-3.53,3.53h5.63l3.53-3.53Z"/><path id="_18_0" data-name="18 0" class="cls-12" d="M105.53,53.49,102,57a1.33,1.33,0,0,1,1.41,1.41l3.53-3.53A1.33,1.33,0,0,0,105.53,53.49Z"/><path id="_61_62" data-name="61 62" class="cls-12" d="M68.93,18.3,65.4,21.83a1.33,1.33,0,0,0,1.41,1.41l3.53-3.53A1.33,1.33,0,0,1,68.93,18.3Z"/><path id="_57_58" data-name="57 58" class="cls-12" d="M72.44,28.87a1.33,1.33,0,0,1,1.41,1.41l3.53-3.53A1.33,1.33,0,0,0,76,25.34Z"/><path id="_70_71" data-name="70 71" class="cls-12" d="M90,38l-3.53,3.53v2.81L90,40.81Z"/><path id="_0_1" data-name="0 1" class="cls-12" d="M102.71,53.49,99.18,57H102l3.53-3.53Z"/><path id="_17_18" data-name="17 18" class="cls-12" d="M106.93,54.9l-3.53,3.53v2.81l3.53-3.53Z"/><path id="_58_51" data-name="58 51" class="cls-12" d="M73.84,30.27v2.81l3.53-3.53V26.74Z"/><path id="_69_70" data-name="69 70" class="cls-12" d="M90,40.82l-3.53,3.53a1.33,1.33,0,0,0,1.41,1.41l3.53-3.53A1.33,1.33,0,0,1,90,40.82Z"/><path id="_85_17" data-name="85 17" class="cls-12" d="M106.55,58.73,103,62.26a1.4,1.4,0,0,0,.39-1l3.53-3.53A1.4,1.4,0,0,1,106.55,58.73Z"/><path id="_41_42" data-name="41 42" class="cls-12" d="M58.36,17.61A1.33,1.33,0,0,1,59.77,19l3.53-3.53a1.33,1.33,0,0,0-1.41-1.41Z"/><path id="_56_57" data-name="56 57" class="cls-12" d="M66.81,28.87h5.63L76,25.34H70.34Z"/><path id="_51_94" data-name="51 94" class="cls-12" d="M73.85,33.09a1.4,1.4,0,0,1-.39,1L77,30.58a1.4,1.4,0,0,0,.39-1Z"/><path id="_16_85" data-name="16 85" class="cls-12" d="M102,62.65a1.4,1.4,0,0,0,1-.39l3.53-3.53a1.4,1.4,0,0,1-1,.39Z"/><path id="_83_10" data-name="83 10" class="cls-12" d="M50.87,1.65a5.62,5.62,0,0,0-1.65,4L45.69,9.16a5.62,5.62,0,0,1,1.65-4Z"/><path id="_42_35" data-name="42 35" class="cls-12" d="M59.77,19v2.81l3.53-3.53V15.48Z"/><path id="_94_52" data-name="94 52" class="cls-12" d="M77,30.58l-3.53,3.53a1.4,1.4,0,0,1-1,.39L76,31A1.4,1.4,0,0,0,77,30.58Z"/><path id="_40_41" data-name="40 41" class="cls-12" d="M52.73,17.61h5.63l3.53-3.53H56.26Z"/><path id="_35_90" data-name="35 90" class="cls-12" d="M59.77,21.83a1.4,1.4,0,0,1-.39,1l3.53-3.53a1.4,1.4,0,0,0,.39-1Z"/><path id="_95_56" data-name="95 56" class="cls-12" d="M69.32,25.73a1.4,1.4,0,0,1,1-.39l-3.53,3.53a1.4,1.4,0,0,0-1,.39Z"/><path id="_90_36" data-name="90 36" class="cls-12" d="M62.91,19.32l-3.53,3.53a1.4,1.4,0,0,1-1,.39l3.53-3.53A1.4,1.4,0,0,0,62.91,19.32Z"/><path id="_55_95" data-name="55 95" class="cls-12" d="M69.32,25.72l-3.53,3.53a1.4,1.4,0,0,0-.39,1l3.53-3.53A1.4,1.4,0,0,1,69.32,25.72Z"/><path id="_52_53" data-name="52 53" class="cls-12" d="M70.34,31,66.81,34.5h5.63L76,31Z"/><path id="_91_40" data-name="91 40" class="cls-12" d="M55.24,14.47a1.4,1.4,0,0,1,1-.39l-3.53,3.53a1.4,1.4,0,0,0-1,.39Z"/><path id="_54_55" data-name="54 55" class="cls-12" d="M68.93,26.74,65.4,30.27v2.81l3.53-3.53Z"/><path id="_39_91" data-name="39 91" class="cls-12" d="M55.24,14.46,51.71,18a1.4,1.4,0,0,0-.39,1l3.53-3.53A1.4,1.4,0,0,1,55.24,14.46Z"/><path id="_36_37" data-name="36 37" class="cls-12" d="M56.26,19.71l-3.53,3.53h5.63l3.53-3.53Z"/><path id="_53_54" data-name="53 54" class="cls-12" d="M68.93,29.56,65.4,33.09a1.33,1.33,0,0,0,1.41,1.41L70.34,31A1.33,1.33,0,0,1,68.93,29.56Z"/><path id="_49_50" data-name="49 50" class="cls-12" d="M72.44,40.13a1.33,1.33,0,0,1,1.41,1.41L77.38,38A1.33,1.33,0,0,0,76,36.6Z"/><path id="_38_39" data-name="38 39" class="cls-12" d="M54.85,15.48,51.32,19v2.81l3.53-3.53Z"/><path id="_50_43" data-name="50 43" class="cls-12" d="M73.84,41.53v2.81l3.53-3.53V38Z"/><path id="_37_38" data-name="37 38" class="cls-12" d="M54.85,18.3l-3.53,3.53a1.33,1.33,0,0,0,1.41,1.41l3.53-3.53A1.33,1.33,0,0,1,54.85,18.3Z"/><path id="_33_34" data-name="33 34" class="cls-12" d="M58.36,28.87a1.33,1.33,0,0,1,1.41,1.41l3.53-3.53a1.33,1.33,0,0,0-1.41-1.41Z"/><path id="_48_49" data-name="48 49" class="cls-12" d="M66.81,40.13h5.63L76,36.6H70.34Z"/><path id="_43_92" data-name="43 92" class="cls-12" d="M73.85,44.35a1.4,1.4,0,0,1-.39,1L77,41.84a1.4,1.4,0,0,0,.39-1Z"/><path id="_34_27" data-name="34 27" class="cls-12" d="M59.77,30.27v2.81l3.53-3.53V26.74Z"/><path id="_92_44" data-name="92 44" class="cls-12" d="M77,41.84l-3.53,3.53a1.4,1.4,0,0,1-1,.39L76,42.23A1.4,1.4,0,0,0,77,41.84Z"/><path id="_32_33" data-name="32 33" class="cls-12" d="M52.73,28.87h5.63l3.53-3.53H56.26Z"/><path id="_27_88" data-name="27 88" class="cls-12" d="M59.77,33.09a1.4,1.4,0,0,1-.39,1l3.53-3.53a1.4,1.4,0,0,0,.39-1Z"/><path id="_93_48" data-name="93 48" class="cls-12" d="M69.32,37a1.4,1.4,0,0,1,1-.39l-3.53,3.53a1.4,1.4,0,0,0-1,.39Z"/><path id="_88_28" data-name="88 28" class="cls-12" d="M62.91,30.58l-3.53,3.53a1.4,1.4,0,0,1-1,.39L61.89,31A1.4,1.4,0,0,0,62.91,30.58Z"/><path id="_47_93" data-name="47 93" class="cls-12" d="M69.32,37l-3.53,3.53a1.4,1.4,0,0,0-.39,1L68.93,38A1.4,1.4,0,0,1,69.32,37Z"/><path id="_44_45" data-name="44 45" class="cls-12" d="M70.34,42.23l-3.53,3.53h5.63L76,42.23Z"/><path id="_5_6" data-name="5 6" class="cls-12" d="M83,53.49,79.47,57h2.81l3.53-3.53Z"/><path id="_89_32" data-name="89 32" class="cls-12" d="M55.24,25.73a1.4,1.4,0,0,1,1-.39l-3.53,3.53a1.4,1.4,0,0,0-1,.39Z"/><path id="_46_47" data-name="46 47" class="cls-12" d="M68.93,38,65.4,41.53v2.81l3.53-3.53Z"/><path id="_31_89" data-name="31 89" class="cls-12" d="M55.24,25.72l-3.53,3.53a1.4,1.4,0,0,0-.39,1l3.53-3.53A1.4,1.4,0,0,1,55.24,25.72Z"/><path id="_28_29" data-name="28 29" class="cls-12" d="M56.26,31,52.73,34.5h5.63L61.89,31Z"/><path id="_45_46" data-name="45 46" class="cls-12" d="M68.93,40.82,65.4,44.35a1.33,1.33,0,0,0,1.41,1.41l3.53-3.53A1.33,1.33,0,0,1,68.93,40.82Z"/><path id="_30_31" data-name="30 31" class="cls-12" d="M54.85,26.74l-3.53,3.53v2.81l3.53-3.53Z"/><path id="_29_30" data-name="29 30" class="cls-12" d="M54.85,29.56l-3.53,3.53a1.33,1.33,0,0,0,1.41,1.41L56.26,31A1.33,1.33,0,0,1,54.85,29.56Z"/><path id="_25_26" data-name="25 26" class="cls-12" d="M58.36,40.13a1.33,1.33,0,0,1,1.41,1.41L63.3,38a1.33,1.33,0,0,0-1.41-1.41Z"/><path id="_26_19" data-name="26 19" class="cls-12" d="M59.77,41.53v2.81l3.53-3.53V38Z"/><path id="_24_25" data-name="24 25" class="cls-12" d="M52.73,40.13h5.63l3.53-3.53H56.26Z"/><path id="_19_86" data-name="19 86" class="cls-12" d="M59.77,44.35a1.4,1.4,0,0,1-.39,1l3.53-3.53a1.4,1.4,0,0,0,.39-1Z"/><path id="_86_20" data-name="86 20" class="cls-12" d="M62.91,41.84l-3.53,3.53a1.4,1.4,0,0,1-1,.39l3.53-3.53A1.4,1.4,0,0,0,62.91,41.84Z"/><path id="_10_11" data-name="10 11" class="cls-12" d="M45.69,9.16V57l3.53-3.53V5.63Z"/><path id="_87_24" data-name="87 24" class="cls-12" d="M55.24,37a1.4,1.4,0,0,1,1-.39l-3.53,3.53a1.4,1.4,0,0,0-1,.39Z"/><path id="_23_87" data-name="23 87" class="cls-12" d="M55.24,37l-3.53,3.53a1.4,1.4,0,0,0-.39,1L54.85,38A1.4,1.4,0,0,1,55.24,37Z"/><path id="_20_21" data-name="20 21" class="cls-12" d="M56.26,42.23l-3.53,3.53h5.63l3.53-3.53Z"/><path id="_15_16" data-name="15 16" class="cls-12" d="M42.88,62.65H102l3.53-3.53H46.41Z"/><path id="_22_23" data-name="22 23" class="cls-12" d="M54.85,38l-3.53,3.53v2.81l3.53-3.53Z"/><path id="_21_22" data-name="21 22" class="cls-12" d="M54.85,40.82l-3.53,3.53a1.33,1.33,0,0,0,1.41,1.41l3.53-3.53A1.33,1.33,0,0,1,54.85,40.82Z"/><path id="_11_12" data-name="11 12" class="cls-12" d="M46.41,53.49,42.88,57h2.81l3.53-3.53Z"/><path id="_12_84" data-name="12 84" class="cls-12" d="M45.39,53.88l-3.53,3.53a1.4,1.4,0,0,1,1-.39l3.53-3.53A1.4,1.4,0,0,0,45.39,53.88Z"/><path id="_84_13" data-name="84 13" class="cls-12" d="M45.39,53.87a1.4,1.4,0,0,0-.39,1l-3.53,3.53a1.4,1.4,0,0,1,.39-1Z"/><path id="_13_14" data-name="13 14" class="cls-12" d="M41.47,58.43v2.81L45,57.71V54.9Z"/><path id="_14_15" data-name="14 15" class="cls-12" d="M41.47,61.24a1.33,1.33,0,0,0,1.41,1.41l3.53-3.53A1.33,1.33,0,0,1,45,57.71Z"/><path id="Vector-6" data-name="Vector" class="cls-13" d="M90.92,40.82a1.33,1.33,0,0,0,1.41,1.41H98a1.33,1.33,0,0,0,1.41-1.41V38A1.33,1.33,0,0,0,98,36.6H92.33A1.33,1.33,0,0,0,90.92,38ZM78.25,29.56V26.74a1.32,1.32,0,0,0-1.4-1.4H71.21a1.32,1.32,0,0,0-1.4,1.4v2.82A1.33,1.33,0,0,0,71.21,31h5.64A1.33,1.33,0,0,0,78.25,29.56ZM64.18,40.82V38a1.33,1.33,0,0,0-1.41-1.41H57.14A1.33,1.33,0,0,0,55.73,38v2.81a1.33,1.33,0,0,0,1.41,1.41h5.63A1.33,1.33,0,0,0,64.18,40.82ZM92.33,31H98a1.34,1.34,0,0,0,1.41-1.41V26.74A1.33,1.33,0,0,0,98,25.34H92.33a1.33,1.33,0,0,0-1.41,1.4v2.82A1.33,1.33,0,0,0,92.33,31ZM83.88,5.63V53.49H86.7V14.08H98a5.65,5.65,0,0,1,5.63,5.63V53.49h2.81a1.33,1.33,0,0,1,1.41,1.41v2.81a1.33,1.33,0,0,1-1.41,1.41H47.29a1.33,1.33,0,0,1-1.41-1.41V54.9a1.33,1.33,0,0,1,1.41-1.41H50.1V5.63A5.65,5.65,0,0,1,55.73,0H78.25A5.64,5.64,0,0,1,83.88,5.63Zm-5.63,9.85a1.32,1.32,0,0,0-1.4-1.4H71.21a1.32,1.32,0,0,0-1.4,1.4V18.3a1.33,1.33,0,0,0,1.4,1.41h5.64a1.33,1.33,0,0,0,1.4-1.41ZM55.73,29.56A1.34,1.34,0,0,0,57.14,31h5.63a1.34,1.34,0,0,0,1.41-1.41V26.74a1.33,1.33,0,0,0-1.41-1.4H57.14a1.33,1.33,0,0,0-1.41,1.4ZM69.81,38v2.81a1.33,1.33,0,0,0,1.4,1.41h5.64a1.33,1.33,0,0,0,1.4-1.41V38a1.33,1.33,0,0,0-1.4-1.41H71.21A1.33,1.33,0,0,0,69.81,38Zm-7-18.3a1.34,1.34,0,0,0,1.41-1.41V15.48a1.33,1.33,0,0,0-1.41-1.4H57.14a1.33,1.33,0,0,0-1.41,1.4V18.3a1.34,1.34,0,0,0,1.41,1.41Z"/></g></g></svg>