<svg xmlns="http://www.w3.org/2000/svg" xmlns:xlink="http://www.w3.org/1999/xlink" viewBox="0 0 18 18"><defs><style>.cls-1,.cls-5{fill:#fff;}.cls-2{fill:#023164;}.cls-2,.cls-5,.cls-6{fill-rule:evenodd;}.cls-3{opacity:0.75;}.cls-4{mask:url(#mask);}.cls-6{fill:#66e1df;}</style><mask id="mask" x="0" y="0" width="18" height="18" maskUnits="userSpaceOnUse"><g id="mask-24"><path class="cls-1" d="M2,18H16a2,2,0,0,0,2-2V2a2,2,0,0,0-2-2H2A2,2,0,0,0,0,2V16A2,2,0,0,0,2,18Z"/></g></mask></defs><g id="图层_2" data-name="图层 2"><g id="图层_1-2" data-name="图层 1"><path id="矩形_10" data-name="矩形 10" class="cls-2" d="M2,18H16a2,2,0,0,0,2-2V2a2,2,0,0,0-2-2H2A2,2,0,0,0,0,2V16A2,2,0,0,0,2,18Z"/><g class="cls-3"><g class="cls-4"><path id="矩形_10-2" data-name="矩形 10" class="cls-2" d="M2,18H16a2,2,0,0,0,2-2V2a2,2,0,0,0-2-2H2A2,2,0,0,0,0,2V16A2,2,0,0,0,2,18Z"/></g><g class="cls-4"><g id="减去顶层"><path id="减去顶层-2" data-name="减去顶层" class="cls-5" d="M5.27,18H2a2,2,0,0,1-2-2V12.73ZM18,12.73V16a2,2,0,0,1-2,2H12.73ZM12.73,0H16a2,2,0,0,1,2,2V5.27ZM5.27,0,0,5.27V2A2,2,0,0,1,2,0Z"/></g></g></g><g id="圆形_3" data-name="圆形 3"><path id="圆形_3-2" data-name="圆形 3" class="cls-6" d="M9,14A5,5,0,1,0,4,9,5,5,0,0,0,9,14Z"/></g></g></g></svg>