<svg xmlns="http://www.w3.org/2000/svg" xmlns:xlink="http://www.w3.org/1999/xlink" viewBox="0 0 29 49"><defs><style>.cls-1{fill:#66e1df;}.cls-2{fill-rule:evenodd;fill:url(#未命名的渐变_14);}</style><radialGradient id="未命名的渐变_14" cx="-7186.41" cy="1083.65" r="0.6" gradientTransform="matrix(-44, 0, 0, 58.08, -316187.25, -62914.02)" gradientUnits="userSpaceOnUse"><stop offset="0" stop-color="#004e8a"/><stop offset="1" stop-color="#4dabaf"/></radialGradient></defs><g id="图层_2" data-name="图层 2"><g id="图层_1-2" data-name="图层 1"><path id="减去顶层" class="cls-1" d="M20.06,49H.4L.31,49l-.09,0-.07-.07-.07-.07,0-.09,0-.09a.34.34,0,0,1,0-.1V.5A.34.34,0,0,1,0,.4L0,.31l0-.09L.15.15.22.08.31,0,.4,0H28.6l.09,0,.09,0,.07.07.07.07,0,.09L29,.4a.34.34,0,0,1,0,.1V39.88a.41.41,0,0,1,0,.19.44.44,0,0,1-.1.16l-8.45,8.62a.46.46,0,0,1-.16.11.43.43,0,0,1-.19,0Zm0-1v.5l-.36-.35,8.44-8.62.36.35H28V.5h.5V1H.5V.5H1v48H.5V48Z"/><path id="减去顶层-2" data-name="减去顶层" class="cls-2" d="M19.26,46.5H2.5V2.5h24V38.6Z"/></g></g></svg>