<svg xmlns="http://www.w3.org/2000/svg" xmlns:xlink="http://www.w3.org/1999/xlink" viewBox="0 0 107.44 87"><defs><style>.cls-1{fill:url(#未命名的渐变_91);}.cls-2{fill:url(#未命名的渐变_90);}.cls-3{fill:url(#未命名的渐变_89);}.cls-4{fill:url(#未命名的渐变_88);}.cls-5{fill:url(#未命名的渐变_87);}.cls-6{fill:url(#未命名的渐变_86);}.cls-10,.cls-11,.cls-12,.cls-13,.cls-14,.cls-15,.cls-17,.cls-18,.cls-19,.cls-7,.cls-8,.cls-9{fill-rule:evenodd;}.cls-7{fill:url(#未命名的渐变_84);}.cls-8{fill:url(#未命名的渐变_83);}.cls-9{fill:url(#未命名的渐变_82);}.cls-10{fill:url(#未命名的渐变_81);}.cls-11{fill:url(#未命名的渐变_81-2);}.cls-12{fill:url(#未命名的渐变_80);}.cls-13{fill:url(#未命名的渐变_79);}.cls-14{fill:url(#未命名的渐变_78);}.cls-15{fill:#064ebf;}.cls-16{fill:#0f68d0;}.cls-17{fill:url(#未命名的渐变_77);}.cls-18{fill:#159aff;}.cls-19{fill:#66e1df;}</style><linearGradient id="未命名的渐变_91" x1="-1169.38" y1="3437.84" x2="-1169.38" y2="3437.57" gradientTransform="matrix(107.44, 0, 0, -50.48, 125691.95, 173603.68)" gradientUnits="userSpaceOnUse"><stop offset="0" stop-color="#5c689e" stop-opacity="0.1"/><stop offset="1" stop-color="#78ffff" stop-opacity="0"/></linearGradient><linearGradient id="未命名的渐变_90" x1="-1169.56" y1="3438.08" x2="-1169.15" y2="3437.53" gradientTransform="matrix(107.44, 0, 0, -50.48, 125691.95, 173603.68)" gradientUnits="userSpaceOnUse"><stop offset="0" stop-color="#5c689e" stop-opacity="0.1"/><stop offset="1" stop-color="#78ffff" stop-opacity="0.17"/></linearGradient><linearGradient id="未命名的渐变_89" x1="-1168.03" y1="3451.01" x2="-1169" y2="3451.11" gradientTransform="matrix(97.44, 0, 0, -40.48, 113915.22, 139760.81)" gradientUnits="userSpaceOnUse"><stop offset="0" stop-color="#0082ff" stop-opacity="0.25"/><stop offset="1" stop-color="#0082ff" stop-opacity="0.36"/></linearGradient><linearGradient id="未命名的渐变_88" x1="-1168.53" y1="3451.56" x2="-1168.52" y2="3450.56" gradientTransform="matrix(97.44, 0, 0, -40.48, 113915.22, 139760.81)" gradientUnits="userSpaceOnUse"><stop offset="0" stop-color="#0082ff"/><stop offset="0.25" stop-color="#66adff" stop-opacity="0"/><stop offset="0.66" stop-color="#4aa4ff" stop-opacity="0"/><stop offset="1" stop-color="#159aff"/></linearGradient><linearGradient id="未命名的渐变_87" x1="-1168.03" y1="3451.01" x2="-1169" y2="3451.11" gradientTransform="matrix(97.44, 0, 0, -40.48, 113915.22, 139760.81)" gradientUnits="userSpaceOnUse"><stop offset="0" stop-color="#fff"/><stop offset="1" stop-color="#fff"/></linearGradient><linearGradient id="未命名的渐变_86" x1="-1168.53" y1="3451.56" x2="-1168.52" y2="3450.56" gradientTransform="matrix(97.44, 0, 0, -40.48, 113915.22, 139760.81)" gradientUnits="userSpaceOnUse"><stop offset="0" stop-color="#0082ff"/><stop offset="0.25" stop-color="#fff"/><stop offset="0.5" stop-color="#fff"/><stop offset="0.66" stop-color="#fff"/><stop offset="1" stop-color="#159aff"/></linearGradient><linearGradient id="未命名的渐变_84" x1="-1166.57" y1="3592.38" x2="-1165.55" y2="3592.38" gradientTransform="matrix(76.8, 0, 0, -12.99, 89608.43, 46729.33)" gradientUnits="userSpaceOnUse"><stop offset="0" stop-color="#022c8f"/><stop offset="0.5" stop-color="#02339e"/><stop offset="1" stop-color="#05308e"/></linearGradient><linearGradient id="未命名的渐变_83" x1="-1166.57" y1="3592.38" x2="-1165.55" y2="3592.38" gradientTransform="matrix(76.8, 0, 0, -12.99, 89608.43, 46729.33)" gradientUnits="userSpaceOnUse"><stop offset="0.27" stop-color="#022c8f" stop-opacity="0"/><stop offset="0.5" stop-color="#2b5cc7"/><stop offset="0.7" stop-color="#05308e" stop-opacity="0"/></linearGradient><radialGradient id="未命名的渐变_82" cx="-1307.01" cy="3408.69" r="1.38" gradientTransform="matrix(0, 20.9, 36.51, 0, -124396.48, 27371.82)" gradientUnits="userSpaceOnUse"><stop offset="0" stop-color="#3ac8f4"/><stop offset="1" stop-color="#033fa1"/></radialGradient><linearGradient id="未命名的渐变_81" x1="-1166.74" y1="3513.79" x2="-1166.54" y2="3513.39" gradientTransform="matrix(81.12, 0, 0, -20.9, 94696.2, 73490)" gradientUnits="userSpaceOnUse"><stop offset="0" stop-color="#02319e" stop-opacity="0.64"/><stop offset="1" stop-color="#1a9acd" stop-opacity="0"/></linearGradient><linearGradient id="未命名的渐变_81-2" x1="-1166.63" y1="3513.78" x2="-1166.94" y2="3513.51" xlink:href="#未命名的渐变_81"/><linearGradient id="未命名的渐变_80" x1="-1166.73" y1="3514.37" x2="-1166.7" y2="3513.72" gradientTransform="matrix(81.12, 0, 0, -20.9, 94696.2, 73490)" gradientUnits="userSpaceOnUse"><stop offset="0.22" stop-color="#247bcb"/><stop offset="0.83" stop-color="#247bcb" stop-opacity="0"/></linearGradient><radialGradient id="未命名的渐变_79" cx="-1369.12" cy="3402.52" r="0.38" gradientTransform="matrix(0, 14.12, 48.56, 0, -165186.94, 19374.19)" gradientUnits="userSpaceOnUse"><stop offset="0.49" stop-color="#96dced"/><stop offset="1" stop-color="#30dbdd"/></radialGradient><linearGradient id="未命名的渐变_78" x1="-1164.2" y1="3491.68" x2="-1163.21" y2="3491.68" gradientTransform="matrix(63.81, 0, 0, -25.17, 74309.74, 87928.58)" gradientUnits="userSpaceOnUse"><stop offset="0.07" stop-color="#012981"/><stop offset="0.21" stop-color="#0545a3"/><stop offset="0.37" stop-color="#02237b"/><stop offset="0.57" stop-color="#02247c"/><stop offset="0.79" stop-color="#064fab"/><stop offset="0.93" stop-color="#022f86"/></linearGradient><radialGradient id="未命名的渐变_77" cx="-1257.46" cy="3393.91" r="1" gradientTransform="matrix(0, 33.88, 97.71, 0, -331563.15, 42609.18)" gradientUnits="userSpaceOnUse"><stop offset="0.45" stop-color="#36cfdb" stop-opacity="0"/><stop offset="0.93" stop-color="#36cfdb" stop-opacity="0.41"/></radialGradient></defs><g id="图层_2" data-name="图层 2"><g id="图层_1-2" data-name="图层 1"><path id="椭圆形" class="cls-1" d="M93.44,61.76c0-.07,0,0,0,0-.08-.78-.09-.8-1.75-2.22a25.94,25.94,0,0,0-8-4.33c-7.77-2.93-18-4.66-29.95-4.66s-22.18,1.73-29.95,4.66a25.94,25.94,0,0,0-8,4.33C14.09,60.93,14.08,61,14,61.73c0,.07,0,0,0,0s0,0,0,0c.08.78.09.8,1.75,2.22a25.94,25.94,0,0,0,8,4.33c7.77,2.93,18,4.66,30,4.66s22.18-1.73,30-4.66a25.94,25.94,0,0,0,8-4.33c1.66-1.42,1.67-1.44,1.75-2.22C93.45,61.72,93.44,61.83,93.44,61.76Zm14,0c0,.42,0,1-.07,1.42-.41,4.08-3.33,8.69-6.58,11.47a42.81,42.81,0,0,1-12.18,6.79C79.57,84.84,66.9,87,53.72,87s-25.85-2.16-34.89-5.56A42.81,42.81,0,0,1,6.65,74.65C3.4,71.87.48,67.26.07,63.18c0-.41-.07-1-.07-1.42s0-1,.07-1.42c.41-4.08,3.33-8.69,6.58-11.47a42.81,42.81,0,0,1,12.18-6.79c9-3.4,21.71-5.56,34.89-5.56s25.86,2.16,34.89,5.56a42.81,42.81,0,0,1,12.18,6.79c3.25,2.78,6.17,7.39,6.58,11.47C107.41,60.75,107.44,61.34,107.44,61.76Z"/><path id="椭圆形-2" data-name="椭圆形" class="cls-2" d="M93.44,61.76c0-.07,0,0,0,0-.08-.78-.09-.8-1.75-2.22a25.94,25.94,0,0,0-8-4.33c-7.77-2.93-18-4.66-29.95-4.66s-22.18,1.73-29.95,4.66a25.94,25.94,0,0,0-8,4.33C14.09,60.93,14.08,61,14,61.73c0,.07,0,0,0,0s0,0,0,0c.08.78.09.8,1.75,2.22a25.94,25.94,0,0,0,8,4.33c7.77,2.93,18,4.66,30,4.66s22.18-1.73,30-4.66a25.94,25.94,0,0,0,8-4.33c1.66-1.42,1.67-1.44,1.75-2.22C93.45,61.72,93.44,61.83,93.44,61.76Zm14,0c0,.42,0,1-.07,1.42-.41,4.08-3.33,8.69-6.58,11.47a42.81,42.81,0,0,1-12.18,6.79C79.57,84.84,66.9,87,53.72,87s-25.85-2.16-34.89-5.56A42.81,42.81,0,0,1,6.65,74.65C3.4,71.87.48,67.26.07,63.18c0-.41-.07-1-.07-1.42s0-1,.07-1.42c.41-4.08,3.33-8.69,6.58-11.47a42.81,42.81,0,0,1,12.18-6.79c9-3.4,21.71-5.56,34.89-5.56s25.86,2.16,34.89,5.56a42.81,42.81,0,0,1,12.18,6.79c3.25,2.78,6.17,7.39,6.58,11.47C107.41,60.75,107.44,61.34,107.44,61.76Z"/><path id="椭圆形-3" data-name="椭圆形" class="cls-3" d="M98.44,61.76a4.53,4.53,0,0,0,0-.52c-.19-2-1.24-3.62-3.47-5.53a32,32,0,0,0-9.5-5.21c-8.23-3.1-19.3-5-31.72-5S30.23,47.4,22,50.5a32,32,0,0,0-9.5,5.21C10.27,57.62,9.22,59.27,9,61.24a4.52,4.52,0,0,0,0,1c.19,2,1.24,3.62,3.47,5.53A32,32,0,0,0,22,73c8.23,3.1,19.3,5,31.72,5s23.49-1.88,31.72-5a32,32,0,0,0,9.5-5.21c2.23-1.91,3.28-3.56,3.47-5.53A4.53,4.53,0,0,0,98.44,61.76Zm4,0c0,.29,0,.63,0,.92-.29,2.91-2.17,5.87-4.85,8.17a36.63,36.63,0,0,1-10.7,5.91C78.26,80,66.48,82,53.72,82S29.18,80,20.6,76.76A36.63,36.63,0,0,1,9.9,70.85c-2.68-2.3-4.56-5.26-4.85-8.17,0-.29,0-.63,0-.92s0-.63,0-.92C5.34,57.93,7.22,55,9.9,52.67a36.63,36.63,0,0,1,10.7-5.91c8.58-3.23,20.36-5.24,33.12-5.24s24.54,2,33.12,5.24a36.63,36.63,0,0,1,10.7,5.91c2.68,2.3,4.56,5.26,4.85,8.17C102.42,61.13,102.44,61.47,102.44,61.76Z"/><path id="椭圆形-4" data-name="椭圆形" class="cls-4" d="M98.44,61.76a4.53,4.53,0,0,0,0-.52c-.19-2-1.24-3.62-3.47-5.53a32,32,0,0,0-9.5-5.21c-8.23-3.1-19.3-5-31.72-5S30.23,47.4,22,50.5a32,32,0,0,0-9.5,5.21C10.27,57.62,9.22,59.27,9,61.24a4.52,4.52,0,0,0,0,1c.19,2,1.24,3.62,3.47,5.53A32,32,0,0,0,22,73c8.23,3.1,19.3,5,31.72,5s23.49-1.88,31.72-5a32,32,0,0,0,9.5-5.21c2.23-1.91,3.28-3.56,3.47-5.53A4.53,4.53,0,0,0,98.44,61.76Zm4,0c0,.29,0,.63,0,.92-.29,2.91-2.17,5.87-4.85,8.17a36.63,36.63,0,0,1-10.7,5.91C78.26,80,66.48,82,53.72,82S29.18,80,20.6,76.76A36.63,36.63,0,0,1,9.9,70.85c-2.68-2.3-4.56-5.26-4.85-8.17,0-.29,0-.63,0-.92s0-.63,0-.92C5.34,57.93,7.22,55,9.9,52.67a36.63,36.63,0,0,1,10.7-5.91c8.58-3.23,20.36-5.24,33.12-5.24s24.54,2,33.12,5.24a36.63,36.63,0,0,1,10.7,5.91c2.68,2.3,4.56,5.26,4.85,8.17C102.42,61.13,102.44,61.47,102.44,61.76Z"/><g id="椭圆形-5" data-name="椭圆形"><path id="椭圆形-6" data-name="椭圆形" class="cls-5" d="M98.44,61.76a4.53,4.53,0,0,0,0-.52c-.19-2-1.24-3.62-3.47-5.53a32,32,0,0,0-9.5-5.21c-8.23-3.1-19.3-5-31.72-5S30.23,47.4,22,50.5a32,32,0,0,0-9.5,5.21C10.27,57.62,9.22,59.27,9,61.24a4.52,4.52,0,0,0,0,1c.19,2,1.24,3.62,3.47,5.53A32,32,0,0,0,22,73c8.23,3.1,19.3,5,31.72,5s23.49-1.88,31.72-5a32,32,0,0,0,9.5-5.21c2.23-1.91,3.28-3.56,3.47-5.53A4.53,4.53,0,0,0,98.44,61.76Zm4,0c0,.29,0,.63,0,.92-.29,2.91-2.17,5.87-4.85,8.17a36.63,36.63,0,0,1-10.7,5.91C78.26,80,66.48,82,53.72,82S29.18,80,20.6,76.76A36.63,36.63,0,0,1,9.9,70.85c-2.68-2.3-4.56-5.26-4.85-8.17,0-.29,0-.63,0-.92s0-.63,0-.92C5.34,57.93,7.22,55,9.9,52.67a36.63,36.63,0,0,1,10.7-5.91c8.58-3.23,20.36-5.24,33.12-5.24s24.54,2,33.12,5.24a36.63,36.63,0,0,1,10.7,5.91c2.68,2.3,4.56,5.26,4.85,8.17C102.42,61.13,102.44,61.47,102.44,61.76Z"/><path id="椭圆形-7" data-name="椭圆形" class="cls-6" d="M98.44,61.76a4.53,4.53,0,0,0,0-.52c-.19-2-1.24-3.62-3.47-5.53a32,32,0,0,0-9.5-5.21c-8.23-3.1-19.3-5-31.72-5S30.23,47.4,22,50.5a32,32,0,0,0-9.5,5.21C10.27,57.62,9.22,59.27,9,61.24a4.52,4.52,0,0,0,0,1c.19,2,1.24,3.62,3.47,5.53A32,32,0,0,0,22,73c8.23,3.1,19.3,5,31.72,5s23.49-1.88,31.72-5a32,32,0,0,0,9.5-5.21c2.23-1.91,3.28-3.56,3.47-5.53A4.53,4.53,0,0,0,98.44,61.76Zm4,0c0,.29,0,.63,0,.92-.29,2.91-2.17,5.87-4.85,8.17a36.63,36.63,0,0,1-10.7,5.91C78.26,80,66.48,82,53.72,82S29.18,80,20.6,76.76A36.63,36.63,0,0,1,9.9,70.85c-2.68-2.3-4.56-5.26-4.85-8.17,0-.29,0-.63,0-.92s0-.63,0-.92C5.34,57.93,7.22,55,9.9,52.67a36.63,36.63,0,0,1,10.7-5.91c8.58-3.23,20.36-5.24,33.12-5.24s24.54,2,33.12,5.24a36.63,36.63,0,0,1,10.7,5.91c2.68,2.3,4.56,5.26,4.85,8.17C102.42,61.13,102.44,61.47,102.44,61.76Z"/></g><g id="Rectangle_54" data-name="Rectangle 54"><path id="Rectangle_54-2" data-name="Rectangle 54" class="cls-7" d="M16,63.36c-.64-.48,8.4,7.43,37.76,7.43,26.31,0,36.3-6.35,38.09-7.67a.78.78,0,0,0,.31-.63V57.8s-13.84,7.9-38.4,7.9-38.4-7.9-38.4-7.9v4.28A1.54,1.54,0,0,0,16,63.36Z"/></g><g id="Rectangle_56" data-name="Rectangle 56"><path id="Rectangle_56-2" data-name="Rectangle 56" class="cls-8" d="M16,63.36c-.64-.48,8.4,7.43,37.76,7.43,26.31,0,36.3-6.35,38.09-7.67a.78.78,0,0,0,.31-.63V57.8s-13.84,7.9-38.4,7.9-38.4-7.9-38.4-7.9v4.28A1.54,1.54,0,0,0,16,63.36Z"/></g><path id="Rectangle_55" data-name="Rectangle 55" class="cls-9" d="M15.51,59.05a114.14,114.14,0,0,0,38.21,6.67,119.57,119.57,0,0,0,38.87-6.91,2.86,2.86,0,0,0,1-4.69l-8.92-9.3s-9,8.47-31,8.47-31-8.47-31-8.47l-8.43,8.79A3.32,3.32,0,0,0,15.51,59.05Z"/><path id="Rectangle_55-2" data-name="Rectangle 55" class="cls-10" d="M15.51,59.05a114.14,114.14,0,0,0,38.21,6.67,119.57,119.57,0,0,0,38.87-6.91,2.86,2.86,0,0,0,1-4.69l-8.92-9.3s-9,8.47-31,8.47-31-8.47-31-8.47l-8.43,8.79A3.32,3.32,0,0,0,15.51,59.05Z"/><path id="Rectangle_55-3" data-name="Rectangle 55" class="cls-11" d="M15.51,59.05a114.14,114.14,0,0,0,38.21,6.67,119.57,119.57,0,0,0,38.87-6.91,2.86,2.86,0,0,0,1-4.69l-8.92-9.3s-9,8.47-31,8.47-31-8.47-31-8.47l-8.43,8.79A3.32,3.32,0,0,0,15.51,59.05Z"/><path id="Rectangle_55-4" data-name="Rectangle 55" class="cls-12" d="M15.51,59.05a114.14,114.14,0,0,0,38.21,6.67,119.57,119.57,0,0,0,38.87-6.91,2.86,2.86,0,0,0,1-4.69l-8.92-9.3s-9,8.47-31,8.47-31-8.47-31-8.47l-8.43,8.79A3.32,3.32,0,0,0,15.51,59.05Z"/><path id="Ellipse_1817" data-name="Ellipse 1817" class="cls-13" d="M53.16,33.52c-13.41,0-24.28,3.16-24.28,7.06s10.87,7.06,24.28,7.06,24.28-3.16,24.28-7.06S66.57,33.52,53.16,33.52Z"/><g id="Vector"><path id="Vector-2" data-name="Vector" class="cls-14" d="M68,54.37,68.19,50l-4.7.7Zm-4.63.73L68,54.37l-4.51-3.63Zm-4.84-3.94,4.84,3.94.12-4.36Zm13.73,2.2L68.19,50,68,54.37Zm-23.92-2.2,5.1,4.54V51.31Zm5.1,4.54,5-.15-5-4.24Zm5-.15.06-4.39-5.09.15Zm0,0,4.9-.45-4.84-3.94ZM34.12,37.15l-.18-3.32-1.67.85Zm-1.66.9,1.66-.9-1.85-2.47ZM30.89,35.6l1.57,2.45-.19-3.37Zm5.16.73-2.11-2.5.18,3.32ZM83.51,47.46l.34-3.94-1.77,1.54Zm-1.76,1.62,1.76-1.62-1.43-2.4Zm-2.2-2.53,2.2,2.53.33-4Zm5-.72-.72-2.31-.34,3.94ZM25.12,49.08,23,43.52l.34,3.94ZM23,43.52,22,42l1.41,5.47ZM22,42l.34,3.84,1.07,1.63Zm-.43-1.51.33,3.75.44,1.6ZM22,42l-.43-1.51.77,5.35ZM34.62,53.36l4.25,1L34.38,49.1Zm4.25,1L38.69,50l-4.31-.94Zm-8.3-6.45,4,5.44-.24-4.26Zm0,0,.27,4.2,3.78,1.24Zm48.67,2.75,2.51-1.59-2.2-2.53Zm-2.93-2.75,2.93,2.75.31-4.12Zm0,0L76,52.12l3.21-1.45ZM61.26,34.11l2.53.37L61.32,31Zm2.53.37.09-3.15L61.32,31Zm-5.07-3.75,2.54,3.38L61.32,31Zm0,0,0,3.11,2.58.27ZM75.78,39l1,1L76,35.6Zm1,1,.22-3.5L76,35.6Zm-2.22-5.4L75.78,39,76,35.6Zm0,0-.2,3.37,1.37,1ZM43.51,55.1l4.89.45-5-4.81Zm4.89.45-.06-4.39-5-.42ZM38.69,50l4.82,5.06-.13-4.36Zm0,0,.18,4.33,4.64.73Zm4.4-15.56,2.53-.37L43,31.33Zm2.53-.37L45.55,31,43,31.33ZM40.51,31.8l2.58,2.68L43,31.33Zm5.11,2.31,2.58-.27L45.55,31Zm2.58-.27-.05-3.11-2.6.25Zm18,1.14-2.37-3.65-.09,3.15ZM40.51,31.8,40.62,35l2.47-.5ZM27.63,50.67l3.21,1.45-3.51-5.57ZM24.8,45.06l2.83,5.61-.3-4.12Zm6,7.06-.27-4.2-3.24-1.37Zm-6-7.06.32,4,2.51,1.59ZM53.44,55.7l-5.1-4.54.06,4.39ZM72.93,33.83l-2-.76,1.78,4.08Zm-2-.76-.16,3.26,1.94.82Zm3.43,5-1.48-4.22-.17,3.32Zm-5.65-5.67-.13,3.22,2.19.73Zm2.22.69-2.22-.69,2.06,3.95Zm3.43,5,.2-3.37-1.68-.85Zm10.16,7.78L84.91,42l-1.06,1.53Zm-6.69-3.49-.1-4.72-.24,3.56Zm-.83-5.76-.22,3.5.71,1.1Zm.73,1-.73-1,.49,4.6ZM66.25,35l.11-3.18-2.48-.47Zm2.38.62-2.27-3.8L66.25,35ZM30.05,40.08l1.05-1-1.28-2.45Zm1.05-1-.21-3.43-1.07,1Zm-2-1.41.95,2.46-.23-3.5Zm0,0,.24,3.56.71-1.1Zm39.53-2,.13-3.22-2.4-.58ZM68.19,50l4.07,3.32.23-4.26ZM76,52.12l.28-4.2L72.49,49.1Zm-3.77,1.24L76,52.12l-3.54-3Zm-36.21-17,2.2-.73-2.36-2.53Zm2.2-.73-.14-3.22-2.22.69Zm-4.31-1.77,2.11,2.5-.16-3.26Zm22.15-3.25,2.59,3.26,0-3.11Zm0,0,0,3.1,2.61.16ZM23,43.52l2.09,5.56-.32-4ZM40.62,35l-2.51-2.6.14,3.22ZM85,44.23l.33-3.75L84.91,42Zm-.44,1.6.44-1.6L84.91,42ZM40.62,35l-.11-3.18-2.4.58Zm37.26,7.36.25-3.63-.35-1.09ZM50.81,33.68l-2.66-2.95.05,3.11Zm0-3.1-2.64.15,2.66,2.95Zm2.65,3.05-2.65-3.05,0,3.1Zm-21,4.42L30.89,35.6,31.1,39Zm45.36,5.48.31-4.82-.25,3.63Zm-24.38-9.9v-3.1l-2.65,0ZM28.8,39.83l.2,2.51-.25-3.63Zm.2,2.51.34-1.16-.59-2.47Zm.34-1.16-.24-3.56-.35,1.09Zm-.28,2.35L29,42.34l-.2-2.51Zm24.38-9.9,2.63,0-2.63-3.15Zm2.63,0,0-3.1-2.65,0Zm21.75,9.85.25-3.7.06-1.12Z"/></g><path id="Vector-3" data-name="Vector" class="cls-15" d="M57.19,47.68l3.67-.29,3.49-.49,3.25-.66,2.92-.84,2.54-1,2-1.09,1.5-1.13,1-1.14.5-1.14.06-1.13-.35-1.08-.73-1-1.06-1-1.38-.92-1.68-.85-2-.77-2.22-.68-2.4-.59-2.48-.46-2.56-.36-2.6-.25-2.63-.14-2.65-.05-2.65.05-2.64.14-2.6.25L43,31.42l-2.49.46-2.4.59-2.22.68-2,.77-1.67.85-1.38.92-1.07,1-.72,1-.35,1.08.05,1.13.5,1.14,1,1.14,1.49,1.13,2,1.09,2.54,1,2.93.84,3.24.66,3.49.49,3.67.29,3.76.1ZM72.45,31.2l2.84.83,2.54.94,2.22,1,1.89,1.14,1.51,1.24,1.11,1.32.65,1.4.13,1.46-.43,1.51-1.06,1.53-1.77,1.53-2.53,1.5L76.31,48l-3.82,1.17-4.3,1-4.7.7-5,.42-5.09.14-5.1-.14-5-.42-4.69-.7-4.31-1L30.57,48l-3.24-1.37-2.53-1.5L23,43.61,22,42.08l-.43-1.51.14-1.46.65-1.4,1.1-1.32,1.52-1.24L26.82,34l2.23-1L31.58,32l2.84-.83,3-.7L40.56,30l3.17-.42,3.21-.3,3.24-.17L53.44,29l3.25.06,3.24.17,3.22.3,3.17.42,3.1.55Z"/><path id="Vector-4" data-name="Vector" class="cls-16" d="M57.12,46.81l3.67-.29.07.87-.12-.87L64.23,46l.12.87L64.18,46l3.25-.66.17.86-.24-.84,2.92-.84.24.84-.31-.82,2.54-1,.31.82-.41-.77,2-1.09.41.77-.53-.7,1.5-1.13.53.7-.67-.57,1-1.14.67.57-.8-.35.5-1.14.8.35-.88,0,.06-1.13.88,0-.84.28L76.94,38l.84-.28-.72.51-.73-1,.72-.51-.59.65-1.06-1,.59-.65-.49.74-1.38-.92.49-.74-.39.79-1.68-.85.39-.79-.32.83-2-.77.32-.83-.25.85-2.22-.68.25-.85-.21.86-2.4-.59.21-.86-.16.87-2.48-.46.16-.87-.12.88-2.56-.36.12-.88-.08.88-2.6-.25.08-.88,0,.89-2.63-.14,0-.89v.89l-2.65,0v-.89l0,.89-2.65,0,0-.89.05.89-2.64.14-.05-.89.09.88-2.6.25-.09-.88.13.88-2.55.36L43,31.42l.16.87-2.49.46-.16-.87.21.86-2.4.59-.21-.86.26.85L36.15,34l-.26-.85.33.83-1.95.77-.33-.83.4.79-1.67.85-.4-.79.49.74-1.38.92-.49-.74.6.66-1.07,1-.6-.66.73.51-.72,1-.73-.51.84.28-.35,1.08-.84-.28.89,0,.05,1.13-.89,0,.81-.35.5,1.14-.81.35.67-.57,1,1.14-.67.57.54-.7,1.49,1.13-.54.7.42-.77,2,1.09-.42.77.32-.82,2.54,1-.32.82.25-.84,2.93.84-.25.84.18-.86L42.7,46l-.18.86.13-.87,3.49.49-.13.87.07-.87,3.67.29-.07.87,0-.88,3.76.1,0,.88,0-.88,3.75-.1,0,.88Zm.12,1.76-3.8.1-3.8-.1-3.72-.3-3.55-.5-3.3-.67-3-.86-2.62-1L31.3,44.08l-1.62-1.23-1.13-1.31-.62-1.41-.06-1.46.43-1.35.86-1.23L30.35,35l1.48-1,1.75-.89,2-.8,2.28-.7,2.45-.6,2.53-.47,2.59-.36,2.64-.26,2.67-.14,2.68-.05,2.69.05,2.66.14,2.64.26,2.6.36,2.52.47,2.45.6,2.28.7,2,.8,1.76.89,1.48,1,1.18,1.09.86,1.23L79,38.68,79,40.13l-.62,1.41-1.12,1.31-1.63,1.23-2.15,1.15-2.62,1-3,.86-3.31.67-3.54.5-3.7.29Zm12-17.2-3.1-.55.15-.87-.11.88L63,30.41l.11-.88-.08.88-3.22-.3.08-.88,0,.89L56.65,30l0-.89V30l-3.25-.06V29l0,.89L50.2,30l0-.89,0,.89L47,30.12l-.05-.89.09.88-3.21.3-.09-.88.12.88-3.17.42L40.56,30l.16.87-3.11.55-.16-.87.2.86-3,.7-.2-.86.25.85-2.84.83L31.58,32l.31.83-2.53.94L29.05,33l.38.8-2.23,1-.38-.8.46.76L25.4,35.91l-.46-.76.56.69L24,37.08l-.56-.69.68.57L23,38.28l-.68-.57.8.38-.65,1.4-.8-.38.88.09-.14,1.46-.88-.09.85-.24.43,1.51-.85.24.73-.5,1.07,1.53-.73.5.58-.66,1.77,1.53-.58.66.45-.75,2.53,1.5-.45.75.35-.81,3.24,1.37-.35.81.26-.84,3.81,1.17-.26.84.19-.86,4.31,1-.19.86.13-.87,4.69.7-.13.87.08-.87,5,.42-.08.87,0-.88,5.1.14,0,.88,0-.88,5.09-.14,0,.88-.07-.87,5-.42.07.87L63.36,50l4.7-.7.13.87L68,49.27l4.3-1,.19.86-.25-.84,3.82-1.17.25.84L76,47.2l3.24-1.37.34.81-.45-.75,2.53-1.5.45.75-.57-.66L83.28,43l.57.66-.72-.5,1.06-1.53.72.5-.84-.24.43-1.51.84.24-.87.08-.13-1.46.87-.08-.8.38-.65-1.4.8-.38-.67.57L82.78,37l.67-.57-.56.69-1.51-1.24.56-.69-.45.76L79.6,34.77l.45-.76-.37.8-2.22-1,.37-.8-.3.83L75,32.86l.3-.83-.24.85-2.84-.83.24-.85-.19.86-3-.7.19-.86Zm.33-1.73,3.08.71,2.89.85,2.61,1,2.29,1.08,2,1.19,1.63,1.33,1.24,1.48.76,1.64.16,1.78-.52,1.81-1.2,1.74L82.6,45.86,80,47.43l-3.33,1.42L72.72,50l-4.37,1-4.75.71-5,.43-5.14.14-5.15-.14-5-.43L38.53,51l-4.37-1-3.89-1.19-3.33-1.42-2.65-1.57-1.92-1.65-1.21-1.74-.52-1.81.17-1.78.76-1.64,1.23-1.48,1.63-1.33,2-1.19,2.3-1.08,2.6-1,2.89-.85,3.08-.71,3.15-.56,3.21-.42,3.24-.31,3.27-.17,3.29-.06,3.29.06,3.27.17,3.25.31,3.21.42,3.12.56Z"/><g id="Rectangle_56-3" data-name="Rectangle 56"><path id="Rectangle_56-4" data-name="Rectangle 56" class="cls-17" d="M29.16,40.3H78L101.72,6.42h-96Z"/></g><path id="路径_1" data-name="路径 1" class="cls-18" d="M50.73,26.09v7.42h-8v4.25H62.81V33.51H54.75V26.09Z"/><path id="路径_2" data-name="路径 2" class="cls-18" d="M39.05,19.2l-1.39,6.19h-4A2.07,2.07,0,0,1,32,24.57a2.09,2.09,0,0,1-.33-1.81l1-3.56Z"/><path id="路径_3" data-name="路径 3" class="cls-18" d="M41.12,19.2l-1.39,6.19h12V19.2Z"/><path id="路径_4" data-name="路径 4" class="cls-18" d="M53.75,19.2v6.19H67.06L65.67,19.2Z"/><path id="路径_5" data-name="路径 5" class="cls-18" d="M67.74,19.2l1.39,6.19H72.5a2.07,2.07,0,0,0,1.64-.82,2.09,2.09,0,0,0,.33-1.81l-1-3.56Z"/><path id="路径_6" data-name="路径 6" class="cls-18" d="M34.46,13l-1.17,4.12h6.22L40.44,13Z"/><path id="路径_7" data-name="路径 7" class="cls-18" d="M42.51,13l-.93,4.12H51.74V13Z"/><path id="路径_8" data-name="路径 8" class="cls-18" d="M64.28,13H53.75v4.12H65.21L64.28,13Z"/><path id="路径_9" data-name="路径 9" class="cls-18" d="M66.35,13l.93,4.12h5.59L71.7,13Z"/><path id="路径_10" data-name="路径 10" class="cls-18" d="M41.83,6.83H36.22L35.05,11H40.9l.93-4.12Z"/><path id="路径_11" data-name="路径 11" class="cls-18" d="M43.9,6.83,43,11h8.77V6.83Z"/><path id="路径_12" data-name="路径 12" class="cls-18" d="M53.75,6.83V11H63.82L62.9,6.83Z"/><path id="路径_13" data-name="路径 13" class="cls-18" d="M65,6.83,65.89,11h5.22L69.93,6.83Z"/><path id="路径_14" data-name="路径 14" class="cls-18" d="M43.21.64H39.52a2,2,0,0,0-2,1.49l-.75,2.63h5.48L43.21.64Z"/><path id="路径_15" data-name="路径 15" class="cls-18" d="M45.29.64l-.93,4.12h7.38V.64Z"/><path id="路径_16" data-name="路径 16" class="cls-18" d="M53.75.64V4.76h8.68L61.51.64Z"/><path id="路径_17" data-name="路径 17" class="cls-18" d="M63.57.64l.93,4.12h4.85L68.6,2.13a2.06,2.06,0,0,0-2-1.49Z"/><path id="路径_1-2" data-name="路径 1" class="cls-19" d="M52,25.45v7.42H44v4.25H64.09V32.87H56V25.45Z"/><path id="路径_2-2" data-name="路径 2" class="cls-19" d="M40.33,18.56l-1.39,6.19h-4a2.07,2.07,0,0,1-1.64-.82A2.09,2.09,0,0,1,33,22.12l1-3.56Z"/><path id="路径_3-2" data-name="路径 3" class="cls-19" d="M42.4,18.56,41,24.75H53V18.56Z"/><path id="路径_4-2" data-name="路径 4" class="cls-19" d="M55,18.56v6.19H68.34L67,18.56Z"/><path id="路径_5-2" data-name="路径 5" class="cls-19" d="M69,18.56l1.39,6.19h3.37a2.07,2.07,0,0,0,1.64-.82,2.09,2.09,0,0,0,.33-1.81l-1-3.56Z"/><path id="路径_6-2" data-name="路径 6" class="cls-19" d="M35.74,12.37l-1.17,4.12h6.22l.93-4.12Z"/><path id="路径_7-2" data-name="路径 7" class="cls-19" d="M43.79,12.37l-.93,4.12H53V12.37Z"/><path id="路径_8-2" data-name="路径 8" class="cls-19" d="M65.56,12.37H55v4.12H66.49l-.93-4.12Z"/><path id="路径_9-2" data-name="路径 9" class="cls-19" d="M67.63,12.37l.93,4.12h5.59L73,12.37Z"/><path id="路径_10-2" data-name="路径 10" class="cls-19" d="M43.11,6.19H37.5l-1.17,4.12h5.85l.93-4.12Z"/><path id="路径_11-2" data-name="路径 11" class="cls-19" d="M45.18,6.19l-.93,4.12H53V6.19Z"/><path id="路径_12-2" data-name="路径 12" class="cls-19" d="M55,6.19v4.12H65.1l-.92-4.12Z"/><path id="路径_13-2" data-name="路径 13" class="cls-19" d="M66.24,6.19l.93,4.12h5.22L71.21,6.19Z"/><path id="路径_14-2" data-name="路径 14" class="cls-19" d="M44.49,0H40.8a2,2,0,0,0-2,1.49l-.75,2.63h5.48L44.49,0Z"/><path id="路径_15-2" data-name="路径 15" class="cls-19" d="M46.57,0l-.93,4.12H53V0Z"/><path id="路径_16-2" data-name="路径 16" class="cls-19" d="M55,0V4.12h8.68L62.79,0Z"/><path id="路径_17-2" data-name="路径 17" class="cls-19" d="M64.85,0l.93,4.12h4.85l-.75-2.63a2.06,2.06,0,0,0-2-1.49Z"/></g></g></svg>