<svg xmlns="http://www.w3.org/2000/svg" viewBox="0 0 25 25"><defs><style>.cls-1{fill:#fff;}.cls-1,.cls-3{fill-rule:evenodd;}.cls-2,.cls-3{fill:#159aff;}</style></defs><g id="图层_2" data-name="图层 2"><g id="图层_1-2" data-name="图层 1"><path id="矩形_7" data-name="矩形 7" class="cls-1" d="M5,24H20a4,4,0,0,0,4-4V5a4,4,0,0,0-4-4H5A4,4,0,0,0,1,5V20A4,4,0,0,0,5,24Z"/><path id="矩形_7-2" data-name="矩形 7" class="cls-2" d="M5,23H20a3,3,0,0,0,3-3V5a3,3,0,0,0-3-3H5A3,3,0,0,0,2,5V20A3,3,0,0,0,5,23Zm0,2a5,5,0,0,1-5-5V5A5,5,0,0,1,5,0H20a5,5,0,0,1,5,5V20a5,5,0,0,1-5,5Z"/><path id="矩形_1" data-name="矩形 1" class="cls-3" d="M5.29,9.69h6a1,1,0,0,0,1-1V7a1,1,0,0,0-1-1h-6a1,1,0,0,0-1,1V8.69A1,1,0,0,0,5.29,9.69Z"/><path id="矩形_1-2" data-name="矩形 1" class="cls-3" d="M5.29,14.38h6a1,1,0,0,0,1-1V11.69a1,1,0,0,0-1-1h-6a1,1,0,0,0-1,1v1.69A1,1,0,0,0,5.29,14.38Z"/><path id="矩形_1-3" data-name="矩形 1" class="cls-3" d="M5.29,19.07h6a1,1,0,0,0,1-1V16.38a1,1,0,0,0-1-1h-6a1,1,0,0,0-1,1v1.69A1,1,0,0,0,5.29,19.07Z"/><path id="矩形_1-4" data-name="矩形 1" class="cls-3" d="M14.29,9.69h6a1,1,0,0,0,1-1V7a1,1,0,0,0-1-1h-6a1,1,0,0,0-1,1V8.69A1,1,0,0,0,14.29,9.69Z"/><path id="矩形_1-5" data-name="矩形 1" class="cls-3" d="M14.29,14.38h6a1,1,0,0,0,1-1V11.69a1,1,0,0,0-1-1h-6a1,1,0,0,0-1,1v1.69A1,1,0,0,0,14.29,14.38Z"/><path id="矩形_1-6" data-name="矩形 1" class="cls-3" d="M14.29,19.07h6a1,1,0,0,0,1-1V16.38a1,1,0,0,0-1-1h-6a1,1,0,0,0-1,1v1.69A1,1,0,0,0,14.29,19.07Z"/></g></g></svg>