<svg xmlns="http://www.w3.org/2000/svg" viewBox="0 0 435 50"><defs><style>.cls-1{opacity:0.5;}.cls-2{fill:#1690ed;}.cls-3{fill:#217efd;}.cls-10,.cls-3,.cls-4,.cls-5,.cls-6,.cls-7,.cls-9{fill-rule:evenodd;}.cls-3,.cls-5,.cls-7{isolation:isolate;}.cls-3,.cls-7{opacity:0.1;}.cls-11,.cls-4,.cls-5{fill:#fff;}.cls-5{opacity:0.3;}.cls-6{fill:#ffc97a;}.cls-7,.cls-8,.cls-9{fill:#159aff;}.cls-10{fill:#3be8ff;}</style></defs><g id="图层_2" data-name="图层 2"><g id="图层_1-2" data-name="图层 1"><g class="cls-1"><circle class="cls-2" cx="155.95" cy="2" r="0.08"/><circle class="cls-2" cx="150.82" cy="2" r="0.09"/><circle class="cls-2" cx="145.68" cy="2" r="0.1"/><circle class="cls-2" cx="140.55" cy="2" r="0.12"/><circle class="cls-2" cx="135.42" cy="2" r="0.13"/><circle class="cls-2" cx="130.29" cy="2" r="0.14"/><circle class="cls-2" cx="125.16" cy="2" r="0.16"/><circle class="cls-2" cx="120.03" cy="2" r="0.18"/><circle class="cls-2" cx="114.9" cy="2" r="0.2"/><circle class="cls-2" cx="109.76" cy="2" r="0.22"/><circle class="cls-2" cx="104.63" cy="2" r="0.24"/><circle class="cls-2" cx="99.5" cy="2" r="0.27"/><circle class="cls-2" cx="94.37" cy="2" r="0.3"/><circle class="cls-2" cx="89.24" cy="2" r="0.33"/><circle class="cls-2" cx="84.11" cy="2" r="0.37"/><circle class="cls-2" cx="78.97" cy="2" r="0.41"/><circle class="cls-2" cx="73.84" cy="2" r="0.46"/><circle class="cls-2" cx="68.71" cy="2" r="0.51"/><circle class="cls-2" cx="63.58" cy="2" r="0.56"/><circle class="cls-2" cx="58.45" cy="2" r="0.63"/><circle class="cls-2" cx="53.32" cy="2" r="0.7"/><circle class="cls-2" cx="48.18" cy="2" r="0.77"/><circle class="cls-2" cx="43.05" cy="2" r="0.86"/><circle class="cls-2" cx="37.92" cy="2" r="0.96"/><circle class="cls-2" cx="32.79" cy="2" r="1.06"/><circle class="cls-2" cx="27.66" cy="2" r="1.18"/><circle class="cls-2" cx="22.53" cy="2" r="1.31"/><circle class="cls-2" cx="17.39" cy="2" r="1.46"/><circle class="cls-2" cx="12.26" cy="2" r="1.62"/><circle class="cls-2" cx="7.13" cy="2" r="1.8"/><circle class="cls-2" cx="2" cy="2" r="2"/><circle class="cls-2" cx="155.95" cy="7.5" r="0.08"/><circle class="cls-2" cx="150.82" cy="7.5" r="0.09"/><circle class="cls-2" cx="145.68" cy="7.5" r="0.1"/><circle class="cls-2" cx="140.55" cy="7.5" r="0.12"/><circle class="cls-2" cx="135.42" cy="7.5" r="0.13"/><circle class="cls-2" cx="130.29" cy="7.5" r="0.14"/><circle class="cls-2" cx="125.16" cy="7.5" r="0.16"/><circle class="cls-2" cx="120.03" cy="7.5" r="0.18"/><circle class="cls-2" cx="114.9" cy="7.5" r="0.2"/><circle class="cls-2" cx="109.76" cy="7.5" r="0.22"/><circle class="cls-2" cx="104.63" cy="7.5" r="0.24"/><circle class="cls-2" cx="99.5" cy="7.5" r="0.27"/><circle class="cls-2" cx="94.37" cy="7.5" r="0.3"/><circle class="cls-2" cx="89.24" cy="7.5" r="0.33"/><circle class="cls-2" cx="84.11" cy="7.5" r="0.37"/><circle class="cls-2" cx="78.97" cy="7.5" r="0.41"/><circle class="cls-2" cx="73.84" cy="7.5" r="0.46"/><circle class="cls-2" cx="68.71" cy="7.5" r="0.51"/><circle class="cls-2" cx="63.58" cy="7.5" r="0.56"/><circle class="cls-2" cx="58.45" cy="7.5" r="0.63"/><circle class="cls-2" cx="53.32" cy="7.5" r="0.7"/><circle class="cls-2" cx="48.18" cy="7.5" r="0.77"/><circle class="cls-2" cx="43.05" cy="7.5" r="0.86"/><circle class="cls-2" cx="37.92" cy="7.5" r="0.96"/><circle class="cls-2" cx="32.79" cy="7.5" r="1.06"/><circle class="cls-2" cx="27.66" cy="7.5" r="1.18"/><circle class="cls-2" cx="22.53" cy="7.5" r="1.31"/><circle class="cls-2" cx="17.39" cy="7.5" r="1.46"/><circle class="cls-2" cx="12.26" cy="7.5" r="1.62"/><circle class="cls-2" cx="7.13" cy="7.5" r="1.8"/><circle class="cls-2" cx="2" cy="7.5" r="2"/><circle class="cls-2" cx="155.95" cy="13" r="0.08"/><circle class="cls-2" cx="150.82" cy="13" r="0.09"/><circle class="cls-2" cx="145.68" cy="13" r="0.1"/><circle class="cls-2" cx="140.55" cy="13" r="0.12"/><circle class="cls-2" cx="135.42" cy="13" r="0.13"/><circle class="cls-2" cx="130.29" cy="13" r="0.14"/><circle class="cls-2" cx="125.16" cy="13" r="0.16"/><circle class="cls-2" cx="120.03" cy="13" r="0.18"/><circle class="cls-2" cx="114.9" cy="13" r="0.2"/><circle class="cls-2" cx="109.76" cy="13" r="0.22"/><circle class="cls-2" cx="104.63" cy="13" r="0.24"/><circle class="cls-2" cx="99.5" cy="13" r="0.27"/><circle class="cls-2" cx="94.37" cy="13" r="0.3"/><circle class="cls-2" cx="89.24" cy="13" r="0.33"/><circle class="cls-2" cx="84.11" cy="13" r="0.37"/><circle class="cls-2" cx="78.97" cy="13" r="0.41"/><circle class="cls-2" cx="73.84" cy="13" r="0.46"/><circle class="cls-2" cx="68.71" cy="13" r="0.51"/><circle class="cls-2" cx="63.58" cy="13" r="0.56"/><circle class="cls-2" cx="58.45" cy="13" r="0.63"/><circle class="cls-2" cx="53.32" cy="13" r="0.7"/><circle class="cls-2" cx="48.18" cy="13" r="0.77"/><circle class="cls-2" cx="43.05" cy="13" r="0.86"/><circle class="cls-2" cx="37.92" cy="13" r="0.96"/><circle class="cls-2" cx="32.79" cy="13" r="1.06"/><circle class="cls-2" cx="27.66" cy="13" r="1.18"/><circle class="cls-2" cx="22.53" cy="13" r="1.31"/><circle class="cls-2" cx="17.39" cy="13" r="1.46"/><circle class="cls-2" cx="12.26" cy="13" r="1.62"/><circle class="cls-2" cx="7.13" cy="13" r="1.8"/><circle class="cls-2" cx="2" cy="13" r="2"/><circle class="cls-2" cx="155.95" cy="18.5" r="0.08"/><circle class="cls-2" cx="150.82" cy="18.5" r="0.09"/><circle class="cls-2" cx="145.68" cy="18.5" r="0.1"/><circle class="cls-2" cx="140.55" cy="18.5" r="0.12"/><circle class="cls-2" cx="135.42" cy="18.5" r="0.13"/><circle class="cls-2" cx="130.29" cy="18.5" r="0.14"/><circle class="cls-2" cx="125.16" cy="18.5" r="0.16"/><circle class="cls-2" cx="120.03" cy="18.5" r="0.18"/><circle class="cls-2" cx="114.9" cy="18.5" r="0.2"/><circle class="cls-2" cx="109.76" cy="18.5" r="0.22"/><circle class="cls-2" cx="104.63" cy="18.5" r="0.24"/><circle class="cls-2" cx="99.5" cy="18.5" r="0.27"/><circle class="cls-2" cx="94.37" cy="18.5" r="0.3"/><circle class="cls-2" cx="89.24" cy="18.5" r="0.33"/><circle class="cls-2" cx="84.11" cy="18.5" r="0.37"/><circle class="cls-2" cx="78.97" cy="18.5" r="0.41"/><circle class="cls-2" cx="73.84" cy="18.5" r="0.46"/><circle class="cls-2" cx="68.71" cy="18.5" r="0.51"/><circle class="cls-2" cx="63.58" cy="18.5" r="0.56"/><circle class="cls-2" cx="58.45" cy="18.5" r="0.63"/><circle class="cls-2" cx="53.32" cy="18.5" r="0.7"/><circle class="cls-2" cx="48.18" cy="18.5" r="0.77"/><circle class="cls-2" cx="43.05" cy="18.5" r="0.86"/><circle class="cls-2" cx="37.92" cy="18.5" r="0.96"/><circle class="cls-2" cx="32.79" cy="18.5" r="1.06"/><circle class="cls-2" cx="27.66" cy="18.5" r="1.18"/><circle class="cls-2" cx="22.53" cy="18.5" r="1.31"/><circle class="cls-2" cx="17.39" cy="18.5" r="1.46"/><circle class="cls-2" cx="12.26" cy="18.5" r="1.62"/><circle class="cls-2" cx="7.13" cy="18.5" r="1.8"/><circle class="cls-2" cx="2" cy="18.5" r="2"/><circle class="cls-2" cx="155.95" cy="24" r="0.08"/><circle class="cls-2" cx="150.82" cy="24" r="0.09"/><circle class="cls-2" cx="145.68" cy="24" r="0.1"/><circle class="cls-2" cx="140.55" cy="24" r="0.12"/><circle class="cls-2" cx="135.42" cy="24" r="0.13"/><circle class="cls-2" cx="130.29" cy="24" r="0.14"/><circle class="cls-2" cx="125.16" cy="24" r="0.16"/><circle class="cls-2" cx="120.03" cy="24" r="0.18"/><circle class="cls-2" cx="114.9" cy="24" r="0.2"/><circle class="cls-2" cx="109.76" cy="24" r="0.22"/><circle class="cls-2" cx="104.63" cy="24" r="0.24"/><circle class="cls-2" cx="99.5" cy="24" r="0.27"/><circle class="cls-2" cx="94.37" cy="24" r="0.3"/><circle class="cls-2" cx="89.24" cy="24" r="0.33"/><circle class="cls-2" cx="84.11" cy="24" r="0.37"/><circle class="cls-2" cx="78.97" cy="24" r="0.41"/><circle class="cls-2" cx="73.84" cy="24" r="0.46"/><circle class="cls-2" cx="68.71" cy="24" r="0.51"/><circle class="cls-2" cx="63.58" cy="24" r="0.56"/><circle class="cls-2" cx="58.45" cy="24" r="0.63"/><circle class="cls-2" cx="53.32" cy="24" r="0.7"/><circle class="cls-2" cx="48.18" cy="24" r="0.77"/><circle class="cls-2" cx="43.05" cy="24" r="0.86"/><circle class="cls-2" cx="37.92" cy="24" r="0.96"/><circle class="cls-2" cx="32.79" cy="24" r="1.06"/><circle class="cls-2" cx="27.66" cy="24" r="1.18"/><circle class="cls-2" cx="22.53" cy="24" r="1.31"/><circle class="cls-2" cx="17.39" cy="24" r="1.46"/><circle class="cls-2" cx="12.26" cy="24" r="1.62"/><circle class="cls-2" cx="7.13" cy="24" r="1.8"/><circle class="cls-2" cx="2" cy="24" r="2"/><circle class="cls-2" cx="155.95" cy="29.5" r="0.08"/><circle class="cls-2" cx="150.82" cy="29.5" r="0.09"/><circle class="cls-2" cx="145.68" cy="29.5" r="0.1"/><circle class="cls-2" cx="140.55" cy="29.5" r="0.12"/><circle class="cls-2" cx="135.42" cy="29.5" r="0.13"/><circle class="cls-2" cx="130.29" cy="29.5" r="0.14"/><circle class="cls-2" cx="125.16" cy="29.5" r="0.16"/><circle class="cls-2" cx="120.03" cy="29.5" r="0.18"/><circle class="cls-2" cx="114.9" cy="29.5" r="0.2"/><circle class="cls-2" cx="109.76" cy="29.5" r="0.22"/><circle class="cls-2" cx="104.63" cy="29.5" r="0.24"/><circle class="cls-2" cx="99.5" cy="29.5" r="0.27"/><circle class="cls-2" cx="94.37" cy="29.5" r="0.3"/><circle class="cls-2" cx="89.24" cy="29.5" r="0.33"/><circle class="cls-2" cx="84.11" cy="29.5" r="0.37"/><circle class="cls-2" cx="78.97" cy="29.5" r="0.41"/><circle class="cls-2" cx="73.84" cy="29.5" r="0.46"/><circle class="cls-2" cx="68.71" cy="29.5" r="0.51"/><circle class="cls-2" cx="63.58" cy="29.5" r="0.56"/><circle class="cls-2" cx="58.45" cy="29.5" r="0.63"/><circle class="cls-2" cx="53.32" cy="29.5" r="0.7"/><circle class="cls-2" cx="48.18" cy="29.5" r="0.77"/><circle class="cls-2" cx="43.05" cy="29.5" r="0.86"/><circle class="cls-2" cx="37.92" cy="29.5" r="0.96"/><circle class="cls-2" cx="32.79" cy="29.5" r="1.06"/><circle class="cls-2" cx="27.66" cy="29.5" r="1.18"/><circle class="cls-2" cx="22.53" cy="29.5" r="1.31"/><circle class="cls-2" cx="17.39" cy="29.5" r="1.46"/><circle class="cls-2" cx="12.26" cy="29.5" r="1.62"/><circle class="cls-2" cx="7.13" cy="29.5" r="1.8"/><circle class="cls-2" cx="2" cy="29.5" r="2"/><circle class="cls-2" cx="155.95" cy="35" r="0.08"/><circle class="cls-2" cx="150.82" cy="35" r="0.09"/><circle class="cls-2" cx="145.68" cy="35" r="0.1"/><circle class="cls-2" cx="140.55" cy="35" r="0.12"/><circle class="cls-2" cx="135.42" cy="35" r="0.13"/><circle class="cls-2" cx="130.29" cy="35" r="0.14"/><circle class="cls-2" cx="125.16" cy="35" r="0.16"/><circle class="cls-2" cx="120.03" cy="35" r="0.18"/><circle class="cls-2" cx="114.9" cy="35" r="0.2"/><circle class="cls-2" cx="109.76" cy="35" r="0.22"/><circle class="cls-2" cx="104.63" cy="35" r="0.24"/><circle class="cls-2" cx="99.5" cy="35" r="0.27"/><circle class="cls-2" cx="94.37" cy="35" r="0.3"/><circle class="cls-2" cx="89.24" cy="35" r="0.33"/><circle class="cls-2" cx="84.11" cy="35" r="0.37"/><circle class="cls-2" cx="78.97" cy="35" r="0.41"/><circle class="cls-2" cx="73.84" cy="35" r="0.46"/><circle class="cls-2" cx="68.71" cy="35" r="0.51"/><circle class="cls-2" cx="63.58" cy="35" r="0.56"/><circle class="cls-2" cx="58.45" cy="35" r="0.63"/><circle class="cls-2" cx="53.32" cy="35" r="0.7"/><circle class="cls-2" cx="48.18" cy="35" r="0.77"/><circle class="cls-2" cx="43.05" cy="35" r="0.86"/><circle class="cls-2" cx="37.92" cy="35" r="0.96"/><circle class="cls-2" cx="32.79" cy="35" r="1.06"/><circle class="cls-2" cx="27.66" cy="35" r="1.18"/><circle class="cls-2" cx="22.53" cy="35" r="1.31"/><circle class="cls-2" cx="17.39" cy="35" r="1.46"/><circle class="cls-2" cx="12.26" cy="35" r="1.62"/><circle class="cls-2" cx="7.13" cy="35" r="1.8"/><circle class="cls-2" cx="2" cy="35" r="2"/><circle class="cls-2" cx="155.95" cy="40.5" r="0.08"/><circle class="cls-2" cx="150.82" cy="40.5" r="0.09"/><circle class="cls-2" cx="145.68" cy="40.5" r="0.1"/><circle class="cls-2" cx="140.55" cy="40.5" r="0.12"/><circle class="cls-2" cx="135.42" cy="40.5" r="0.13"/><circle class="cls-2" cx="130.29" cy="40.5" r="0.14"/><circle class="cls-2" cx="125.16" cy="40.5" r="0.16"/><circle class="cls-2" cx="120.03" cy="40.5" r="0.18"/><circle class="cls-2" cx="114.9" cy="40.5" r="0.2"/><circle class="cls-2" cx="109.76" cy="40.5" r="0.22"/><circle class="cls-2" cx="104.63" cy="40.5" r="0.24"/><circle class="cls-2" cx="99.5" cy="40.5" r="0.27"/><circle class="cls-2" cx="94.37" cy="40.5" r="0.3"/><circle class="cls-2" cx="89.24" cy="40.5" r="0.33"/><circle class="cls-2" cx="84.11" cy="40.5" r="0.37"/><circle class="cls-2" cx="78.97" cy="40.5" r="0.41"/><circle class="cls-2" cx="73.84" cy="40.5" r="0.46"/><circle class="cls-2" cx="68.71" cy="40.5" r="0.51"/><circle class="cls-2" cx="63.58" cy="40.5" r="0.56"/><circle class="cls-2" cx="58.45" cy="40.5" r="0.63"/><circle class="cls-2" cx="53.32" cy="40.5" r="0.7"/><circle class="cls-2" cx="48.18" cy="40.5" r="0.77"/><circle class="cls-2" cx="43.05" cy="40.5" r="0.86"/><circle class="cls-2" cx="37.92" cy="40.5" r="0.96"/><circle class="cls-2" cx="32.79" cy="40.5" r="1.06"/><circle class="cls-2" cx="27.66" cy="40.5" r="1.18"/><circle class="cls-2" cx="22.53" cy="40.5" r="1.31"/><circle class="cls-2" cx="17.39" cy="40.5" r="1.46"/><circle class="cls-2" cx="12.26" cy="40.5" r="1.62"/><circle class="cls-2" cx="7.13" cy="40.5" r="1.8"/><circle class="cls-2" cx="2" cy="40.5" r="2"/><circle class="cls-2" cx="155.95" cy="46" r="0.08"/><circle class="cls-2" cx="150.82" cy="46" r="0.09"/><circle class="cls-2" cx="145.68" cy="46" r="0.1"/><circle class="cls-2" cx="140.55" cy="46" r="0.12"/><circle class="cls-2" cx="135.42" cy="46" r="0.13"/><circle class="cls-2" cx="130.29" cy="46" r="0.14"/><circle class="cls-2" cx="125.16" cy="46" r="0.16"/><circle class="cls-2" cx="120.03" cy="46" r="0.18"/><circle class="cls-2" cx="114.9" cy="46" r="0.2"/><circle class="cls-2" cx="109.76" cy="46" r="0.22"/><circle class="cls-2" cx="104.63" cy="46" r="0.24"/><circle class="cls-2" cx="99.5" cy="46" r="0.27"/><circle class="cls-2" cx="94.37" cy="46" r="0.3"/><circle class="cls-2" cx="89.24" cy="46" r="0.33"/><circle class="cls-2" cx="84.11" cy="46" r="0.37"/><circle class="cls-2" cx="78.97" cy="46" r="0.41"/><circle class="cls-2" cx="73.84" cy="46" r="0.46"/><circle class="cls-2" cx="68.71" cy="46" r="0.51"/><circle class="cls-2" cx="63.58" cy="46" r="0.56"/><circle class="cls-2" cx="58.45" cy="46" r="0.63"/><circle class="cls-2" cx="53.32" cy="46" r="0.7"/><circle class="cls-2" cx="48.18" cy="46" r="0.77"/><circle class="cls-2" cx="43.05" cy="46" r="0.86"/><circle class="cls-2" cx="37.92" cy="46" r="0.96"/><circle class="cls-2" cx="32.79" cy="46" r="1.06"/><circle class="cls-2" cx="27.66" cy="46" r="1.18"/><circle class="cls-2" cx="22.53" cy="46" r="1.31"/><circle class="cls-2" cx="17.39" cy="46" r="1.46"/><circle class="cls-2" cx="12.26" cy="46" r="1.62"/><circle class="cls-2" cx="7.13" cy="46" r="1.8"/><circle class="cls-2" cx="2" cy="46" r="2"/></g><g id="矩形备份_24" data-name="矩形备份 24"><path id="矩形备份_24-2" data-name="矩形备份 24" class="cls-3" d="M0,50H435V0H0Z"/></g><path id="矩形" class="cls-4" d="M0,49H39.45V48H0Z"/><path id="路径" class="cls-5" d="M24.84,48H416.2l3-4c.28-.06.79.63.75,1l-3.75,4c0-.06-390.31-.22-390.61,0C24.84,48.25,25,48.05,24.84,48Z"/><path id="矩形备份" class="cls-6" d="M419.28,49h12.06L434,46H421.93Z"/><g id="矩形-2" data-name="矩形"><path id="矩形-3" data-name="矩形" class="cls-7" d="M15,36H39V12H15Z"/><path id="矩形-4" data-name="矩形" class="cls-8" d="M40,11V37H14V11ZM16,35H38V13H16Z"/></g><g class="cls-1"><path id="路径_2" data-name="路径 2" class="cls-9" d="M15.42,12,39,35.58l-.42.42L15,12.42Z"/><path id="路径_3" data-name="路径 3" class="cls-9" d="M38.58,12l.42.42L15.42,36,15,35.58Z"/></g><path id="矩形-5" data-name="矩形" class="cls-10" d="M23,28h8V20H23Z"/><path id="矩形-6" data-name="矩形" class="cls-11" d="M32,19V29H22V19Zm-8,8h6V21H24Z"/></g></g></svg>