<svg xmlns="http://www.w3.org/2000/svg" xmlns:xlink="http://www.w3.org/1999/xlink" viewBox="0 0 167 80.48"><defs><style>.cls-1{fill:#1b99db;isolation:isolate;opacity:0.1;}.cls-1,.cls-2,.cls-4,.cls-6,.cls-7,.cls-8{fill-rule:evenodd;}.cls-2{fill:url(#未命名的渐变_66);}.cls-3{fill:#66e1df;}.cls-4{fill:url(#未命名的渐变_67);}.cls-5{fill:#0f4885;}.cls-6{fill:url(#未命名的渐变_66-2);}.cls-7{fill:url(#未命名的渐变_65);}.cls-8{fill:url(#未命名的渐变_65-2);}</style><linearGradient id="未命名的渐变_66" x1="-271.37" y1="2120.04" x2="-271.36" y2="2119.04" gradientTransform="matrix(118.11, 0, 0, -42.09, 32134.47, 89271)" gradientUnits="userSpaceOnUse"><stop offset="0" stop-color="#034a89"/><stop offset="1" stop-color="#159aff"/></linearGradient><linearGradient id="未命名的渐变_67" x1="-271.34" y1="2138.93" x2="-271.33" y2="2137.93" gradientTransform="matrix(89, 0, 0, -26.88, 24232.29, 57531.74)" gradientUnits="userSpaceOnUse"><stop offset="0" stop-color="#134c89"/><stop offset="0.22" stop-color="#134c89"/><stop offset="1" stop-color="#04203e" stop-opacity="0"/></linearGradient><linearGradient id="未命名的渐变_66-2" x1="-271.34" y1="2138.89" x2="-271.33" y2="2137.89" gradientTransform="matrix(89, 0, 0, -26.9, 24232.29, 57573.23)" xlink:href="#未命名的渐变_66"/><linearGradient id="未命名的渐变_65" x1="-271.38" y1="2106.18" x2="-271.37" y2="2107.18" gradientTransform="matrix(131.55, 0, 0, -68.47, 35782.58, 144278.76)" gradientUnits="userSpaceOnUse"><stop offset="0" stop-color="#1994d4" stop-opacity="0"/><stop offset="0.46" stop-color="#1994d4" stop-opacity="0.2"/><stop offset="0.47" stop-color="#159aff" stop-opacity="0.21"/><stop offset="1" stop-color="#1994d4" stop-opacity="0"/></linearGradient><linearGradient id="未命名的渐变_65-2" x1="-271.4" y1="2106.18" x2="-271.39" y2="2107.18" gradientTransform="matrix(167, 0, 0, -68.47, 45405.06, 144288.18)" xlink:href="#未命名的渐变_65"/></defs><g id="图层_2" data-name="图层 2"><g id="图层_1-2" data-name="图层 1"><path id="椭圆_9_拷贝" data-name="椭圆 9 拷贝" class="cls-1" d="M84,43c-29.82,0-54,7.25-54,16.2s24.18,16.2,54,16.2,54-7.25,54-16.2S113.82,43,84,43Z"/><path id="椭圆_9_拷贝_2" data-name="椭圆 9 拷贝 2" class="cls-2" d="M30.31,68.57a16.08,16.08,0,0,1-3.86-4.13,9.07,9.07,0,0,1,0-10,16.21,16.21,0,0,1,3.86-4.12A42.81,42.81,0,0,1,43.18,44C54.12,40.37,68.61,38.39,84,38.39s29.88,2,40.82,5.59a42.86,42.86,0,0,1,12.86,6.32,16.45,16.45,0,0,1,3.87,4.12,9.42,9.42,0,0,1,1.5,5c0,2.75-1.27,5.37-3.79,7.78a32.16,32.16,0,0,1-10.5,6.24l-1.59-3.93c6.43-2.78,11.08-7.07,11.08-10.09a4.73,4.73,0,0,0-.79-2.51A11.56,11.56,0,0,0,134.72,54,39,39,0,0,0,123.3,48.5c-10.46-3.45-24.42-5.35-39.3-5.35s-28.85,1.9-39.31,5.35A38.83,38.83,0,0,0,33.28,54a11.21,11.21,0,0,0-2.74,2.88,4.35,4.35,0,0,0,0,5,11.37,11.37,0,0,0,2.74,2.88,38.83,38.83,0,0,0,11.41,5.54C55.15,73.82,69.11,75.72,84,75.72a152.6,152.6,0,0,0,17.27-.61l.52,4.63A159,159,0,0,1,84,80.48c-15.39,0-29.88-2-40.82-5.59a43,43,0,0,1-12.87-6.32Z"/><path id="椭圆_9_拷贝_3" data-name="椭圆 9 拷贝 3" class="cls-3" d="M101.27,75.11C95.84,75.65,90,76,84,76c-14.74,0-28.15-1.78-37.92-4.65A43.44,43.44,0,0,1,34.3,66.2c-2.86-1.94-4.62-4.21-4.79-6.56,0-.13,0-.27,0-.4s0-.27,0-.4c.17-2.35,1.93-4.62,4.79-6.56a43.44,43.44,0,0,1,11.78-5.1c9.77-2.87,23.18-4.65,37.92-4.65s28.15,1.78,37.93,4.65a43.22,43.22,0,0,1,11.77,5.1c2.86,1.94,4.62,4.21,4.79,6.56,0,.13,0,.27,0,.4s0,.27,0,.41a8.21,8.21,0,0,1-3.27,5.41,29.45,29.45,0,0,1-8,4.46l-.37-.94a27.9,27.9,0,0,0,7.77-4.29c1.83-1.54,2.8-3.07,2.92-4.72,0-.11,0-.22,0-.33s0-.22,0-.33c-.15-2-1.62-3.95-4.35-5.8a41.9,41.9,0,0,0-11.5-5c-9.7-2.85-23-4.61-37.64-4.61s-27.94,1.76-37.64,4.61a42,42,0,0,0-11.5,5c-2.72,1.85-4.2,3.76-4.35,5.8,0,.11,0,.22,0,.33s0,.22,0,.33c.15,2,1.63,4,4.35,5.8a42,42,0,0,0,11.5,5C56.06,73.19,69.32,75,84,75c6,0,11.77-.3,17.17-.84Z"/><path id="椭圆_9_拷贝_4" data-name="椭圆 9 拷贝 4" class="cls-4" d="M83.5,37.25c-24.58,0-44.5,6-44.5,13.44S58.92,64.13,83.5,64.13s44.5-6,44.5-13.44S108.08,37.25,83.5,37.25Z"/><path id="椭圆_9_拷贝_6" data-name="椭圆 9 拷贝 6" class="cls-5" d="M83.5,45.25c-11.79,0-22.06,1.37-29.71,3.63a28.94,28.94,0,0,0-8.18,3.51C44,53.52,44,53.43,44,53.76v-.12c0,.33,0,.24,1.61,1.37a28.94,28.94,0,0,0,8.18,3.51c7.65,2.26,17.92,3.63,29.71,3.63s22.06-1.37,29.71-3.63A28.94,28.94,0,0,0,121.39,55C123,53.88,123,54,123,53.64v.12c0-.33,0-.24-1.61-1.37a28.94,28.94,0,0,0-8.18-3.51C105.56,46.62,95.29,45.25,83.5,45.25Zm0-10c12.45,0,24.15,1.56,32.55,4a41.5,41.5,0,0,1,11,4.84c3,2,5.69,5.57,5.93,8.89,0,.19,0,.48,0,.68s0,.49,0,.68c-.24,3.32-3,6.86-5.93,8.89a41.5,41.5,0,0,1-11,4.84c-8.4,2.48-20.1,4-32.55,4s-24.15-1.56-32.55-4a41.5,41.5,0,0,1-11-4.84c-3-2-5.69-5.57-5.93-8.89,0-.19,0-.48,0-.68s0-.49,0-.68c.24-3.32,3-6.86,5.93-8.89a41.5,41.5,0,0,1,11-4.84C59.35,36.81,71.05,35.25,83.5,35.25Z"/><path id="椭圆_9_拷贝_5" data-name="椭圆 9 拷贝 5" class="cls-6" d="M83.5,37c24.58,0,44.5,6,44.5,13.45S108.08,63.9,83.5,63.9,39,57.88,39,50.45,58.92,37,83.5,37ZM44.11,50.45a8.33,8.33,0,0,0,2.53,1.95,38,38,0,0,0,8.56,3.27C62.94,57.75,73,58.9,83.5,58.9s20.55-1.15,28.29-3.23a38,38,0,0,0,8.56-3.27,8.18,8.18,0,0,0,2.53-1.95,8.18,8.18,0,0,0-2.53-2,38,38,0,0,0-8.56-3.27C104.05,43.15,94,42,83.5,42s-20.56,1.15-28.3,3.23a38,38,0,0,0-8.56,3.27A8.33,8.33,0,0,0,44.11,50.45Z"/><path id="矩形_31" data-name="矩形 31" class="cls-7" d="M18,0H149.55L123,68.47H44.53Z"/><path id="矩形_31_拷贝" data-name="矩形 31 拷贝" class="cls-8" d="M0,9.53H167L132.58,78H34.43Z"/></g></g></svg>