<svg xmlns="http://www.w3.org/2000/svg" viewBox="0 0 32 32"><defs><style>.cls-1{fill:#159aff;isolation:isolate;opacity:0.2;}.cls-1,.cls-3{fill-rule:evenodd;}.cls-2,.cls-3{fill:#a6a6a6;}</style></defs><g id="图层_2" data-name="图层 2"><g id="图层_1-2" data-name="图层 1"><path id="矩形_6" data-name="矩形 6" class="cls-1" d="M5.5,30.5h21a4,4,0,0,0,4-4V5.5a4,4,0,0,0-4-4H5.5a4,4,0,0,0-4,4v21A4,4,0,0,0,5.5,30.5Z"/><path id="矩形_6-2" data-name="矩形 6" class="cls-2" d="M5.16,29.94H26.84a3.1,3.1,0,0,0,3.1-3.1V5.16a3.1,3.1,0,0,0-3.1-3.1H5.16a3.1,3.1,0,0,0-3.1,3.1V26.84A3.1,3.1,0,0,0,5.16,29.94Zm0,2.06A5.16,5.16,0,0,1,0,26.84V5.16A5.16,5.16,0,0,1,5.16,0H26.84A5.16,5.16,0,0,1,32,5.16V26.84A5.16,5.16,0,0,1,26.84,32Z"/><path id="路径_1" data-name="路径 1" class="cls-2" d="M16,8.73a7.22,7.22,0,0,0-5.47,2.42,7.2,7.2,0,0,0,0,9.75,7.39,7.39,0,0,0,10.87,0,7.22,7.22,0,0,0,0-9.73A7.25,7.25,0,0,0,16,8.73Zm0-1a8.47,8.47,0,0,1,6.23,2.76A8.28,8.28,0,0,1,24.35,16a8.38,8.38,0,0,1-2.17,5.57,8.41,8.41,0,0,1-12.34,0,8.22,8.22,0,0,1-.06-11.11A8.5,8.5,0,0,1,16,7.73Z"/><path id="路径_2" data-name="路径 2" class="cls-2" d="M13.81,11.32A5.12,5.12,0,0,1,16,10.87a5.28,5.28,0,0,1,3.8,1.64,5.13,5.13,0,0,1,0,7,5.23,5.23,0,0,1-7.64,0A5.22,5.22,0,0,1,10.82,16s0-.07,0-.1l0-.09.05-.09.06-.07a.27.27,0,0,1,.08-.07l.08,0a.38.38,0,0,1,.1,0h.19a.38.38,0,0,1,.1,0l.08,0a.27.27,0,0,1,.08.07l.06.07,0,.09,0,.09V16a4,4,0,0,0,1.08,2.77,4.22,4.22,0,0,0,6.17,0,4.14,4.14,0,0,0,0-5.62A4.07,4.07,0,0,0,16,11.87a3.74,3.74,0,0,0-1.74.35l-.09,0-.1,0H14l-.09,0-.09,0-.08,0a.46.46,0,0,1-.07-.07.41.41,0,0,1-.05-.09.36.36,0,0,1,0-.09.31.31,0,0,1,0-.1.14.14,0,0,1,0-.09.3.3,0,0,1,0-.1.36.36,0,0,1,0-.09l.06-.08.07-.07.08,0Z"/><path id="路径_3" data-name="路径 3" class="cls-3" d="M12.42,13l3.29.51L12.94,9.71Z"/><path id="路径_4" data-name="路径 4" class="cls-3" d="M15.37,14.46a.58.58,0,0,0-.87.51v2.12a.58.58,0,0,0,.87.51l1.79-1a.64.64,0,0,0,0-1.09Z"/></g></g></svg>