<svg xmlns="http://www.w3.org/2000/svg" xmlns:xlink="http://www.w3.org/1999/xlink" viewBox="0 0 1920 127.32"><defs><style>.cls-1{fill:none;clip-rule:evenodd;}.cls-2,.cls-4,.cls-6{fill-rule:evenodd;}.cls-2{fill:url(#未命名的渐变_74);}.cls-3{fill:url(#未命名的渐变_73);}.cls-4{fill:url(#未命名的渐变_74-2);}.cls-5{fill:url(#未命名的渐变_125);}.cls-6{fill:url(#未命名的渐变_75);}.cls-7{fill:url(#未命名的渐变_71);}.cls-8{fill:url(#未命名的渐变_71-2);}.cls-9{fill:url(#未命名的渐变_71-3);}.cls-10{fill:url(#未命名的渐变_71-4);}.cls-11{clip-path:url(#clip-path);}.cls-12{fill:url(#未命名的渐变_110);}</style><linearGradient id="未命名的渐变_74" x1="704.62" y1="2768.82" x2="705.59" y2="2768.82" gradientTransform="matrix(753, 0, 0, -75, -530556.3, 207699.33)" gradientUnits="userSpaceOnUse"><stop offset="0" stop-color="#0b0b35" stop-opacity="0"/><stop offset="1" stop-color="#3675f0"/></linearGradient><linearGradient id="未命名的渐变_73" x1="0.33" y1="62.39" x2="602.06" y2="74.74" gradientUnits="userSpaceOnUse"><stop offset="0" stop-color="#05283b"/><stop offset="0.51" stop-color="#3d71ff"/><stop offset="0.74" stop-color="#17447a"/><stop offset="1" stop-color="#062a41" stop-opacity="0"/></linearGradient><linearGradient id="未命名的渐变_74-2" x1="705.56" y1="2768.82" x2="704.59" y2="2768.82" gradientTransform="matrix(753, 0, 0, -75, -529389.3, 207699.33)" xlink:href="#未命名的渐变_74"/><linearGradient id="未命名的渐变_125" x1="1318.26" y1="60.09" x2="1919.73" y2="72.42" gradientUnits="userSpaceOnUse"><stop offset="0" stop-color="#062a41" stop-opacity="0"/><stop offset="0.26" stop-color="#17447a"/><stop offset="0.49" stop-color="#3d71ff"/><stop offset="1" stop-color="#05283b"/></linearGradient><linearGradient id="未命名的渐变_75" x1="958.65" y1="104.7" x2="959.73" y2="-3.44" gradientUnits="userSpaceOnUse"><stop offset="0" stop-color="#159aff"/><stop offset="1" stop-color="#152673"/></linearGradient><linearGradient id="未命名的渐变_71" x1="703.49" y1="2768.82" x2="703.5" y2="2767.82" gradientTransform="matrix(335.58, 0, 0, -76.4, -235284.49, 211562.39)" gradientUnits="userSpaceOnUse"><stop offset="0" stop-color="#07263e" stop-opacity="0"/><stop offset="0.22" stop-color="#1c5769"/><stop offset="1" stop-color="#6ff"/></linearGradient><linearGradient id="未命名的渐变_71-2" x1="703.49" y1="2768.82" x2="703.5" y2="2767.82" gradientTransform="matrix(335.58, 0, 0, -76.4, -235284.49, 211558.16)" xlink:href="#未命名的渐变_71"/><linearGradient id="未命名的渐变_71-3" x1="703.49" y1="2768.82" x2="703.5" y2="2767.82" gradientTransform="matrix(335.58, 0, 0, -76.4, -234949.79, 211562.41)" xlink:href="#未命名的渐变_71"/><linearGradient id="未命名的渐变_71-4" x1="703.49" y1="2768.82" x2="703.5" y2="2767.82" gradientTransform="matrix(335.58, 0, 0, -76.4, -234949.79, 211558.29)" xlink:href="#未命名的渐变_71"/><clipPath id="clip-path"><polygon class="cls-1" points="1322.01 0.01 1267.93 56.94 1243.89 56.94 1217.24 84.75 1113.49 84.75 1104.9 94.19 1093.95 94.19 1084.16 104 835.23 104 825.43 94.19 814.49 94.19 805.89 84.75 702.14 84.75 675.5 56.94 651.46 56.94 597.38 0.01 1322.01 0.01"/></clipPath><radialGradient id="未命名的渐变_110" cx="963.08" cy="103.87" r="54.61" gradientTransform="translate(0 62.32) scale(1 0.4)" gradientUnits="userSpaceOnUse"><stop offset="0" stop-color="#78ffff"/><stop offset="0.03" stop-color="#78ffff" stop-opacity="0.96"/><stop offset="0.24" stop-color="#76fbfd" stop-opacity="0.67"/><stop offset="0.44" stop-color="#75f9fb" stop-opacity="0.43"/><stop offset="0.62" stop-color="#74f7fa" stop-opacity="0.25"/><stop offset="0.78" stop-color="#74f5f9" stop-opacity="0.11"/><stop offset="0.91" stop-color="#73f4f8" stop-opacity="0.03"/><stop offset="1" stop-color="#73f4f8" stop-opacity="0"/></radialGradient></defs><g id="图层_2" data-name="图层 2"><g id="图层_1-2" data-name="图层 1"><path id="矩形" class="cls-2" d="M0,57.31H174.11L204,75H753V0H0Z"/><polygon class="cls-3" points="602 73 602 78 204.05 78 171.88 59.51 0.49 59.51 0.49 54.51 173.19 54.51 205.38 73 602 73"/><path id="矩形-2" data-name="矩形" class="cls-4" d="M1167,0V75h537.5l29.89-17.69H1920V0Z"/><polygon class="cls-5" points="1919.99 54.51 1919.99 59.51 1734.31 59.51 1702.16 78 1317.99 78 1317.99 73 1700.83 73 1732.98 54.51 1919.99 54.51"/><polygon class="cls-6" points="1322.01 0.01 1267.93 56.94 1243.89 56.94 1217.24 84.75 1113.49 84.75 1104.9 94.19 1093.95 94.19 1084.16 104 835.23 104 825.43 94.19 814.49 94.19 805.89 84.75 702.14 84.75 675.5 56.94 651.46 56.94 597.38 0.01 1322.01 0.01"/><path id="路径_3" data-name="路径 3" class="cls-7" d="M625.16,31.87l25.11,27.47-.37.34v-.5h24.68l27,28.11-.36.35v-.5H805.39l9.4,10.15-.37.34v-.5h10.13l9.7,10.29-.36.35v-.5H960v1H833.67L824,98l.37-.34v.5H814.2L804.8,88l.37-.34v.5H701L674,60l.36-.34v.5H649.68L624.42,32.54Z"/><path id="路径_3-2" data-name="路径 3" class="cls-8" d="M625.16,27.66l25.11,27.47-.37.34V55h24.68l27,28.11-.36.35v-.5H805.39l9.4,10.15-.37.34v-.5h10.13l9.7,10.3-.36.34v-.5H960v1H833.67L824,93.76l.37-.34v.5H814.2l-9.4-10.15.37-.34v.5H701L674,55.82l.36-.35V56H649.68L624.42,28.34Z"/><path id="路径_3-3" data-name="路径 3" class="cls-9" d="M1295,32.54,1269.7,60.18H1245v-.5l.36.34-27,28.12h-104.2v-.5l.37.34-9.4,10.15H1095v-.5l.36.34-9.69,10.3H959.38v-1h126.11v.5l-.36-.35,9.69-10.29H1105v.5l-.37-.34,9.4-10.15H1218.2v.5l-.36-.35,27-28.11h24.68v.5l-.37-.34,25.11-27.47Z"/><path id="路径_3-4" data-name="路径 3" class="cls-10" d="M1295,28.34,1269.7,56H1245v-.5l.36.35-27,28.11h-104.2v-.5l.37.34-9.4,10.15H1095v-.5l.36.34-9.69,10.3H959.38v-1h126.11v.5l-.36-.34,9.69-10.3H1105v.5l-.37-.34,9.4-10.15H1218.2v.5l-.36-.35,27-28.11h24.68v.5l-.37-.34,25.11-27.47Z"/><g class="cls-11"><ellipse class="cls-12" cx="963.08" cy="103.87" rx="70.35" ry="23.45"/></g></g></g></svg>