<svg xmlns="http://www.w3.org/2000/svg" xmlns:xlink="http://www.w3.org/1999/xlink" viewBox="0 0 32 32"><defs><style>.cls-1,.cls-5,.cls-6,.cls-7{fill:#fff;}.cls-2{fill:#159aff;opacity:0.5;}.cls-2,.cls-5,.cls-6,.cls-7{fill-rule:evenodd;}.cls-2,.cls-6,.cls-7{isolation:isolate;}.cls-3{fill:#66e1df;}.cls-4{mask:url(#mask);}.cls-6{opacity:0.6;}.cls-7{opacity:0.3;}</style><mask id="mask" x="7.65" y="9" width="16.7" height="13.99" maskUnits="userSpaceOnUse"><g id="bg-mask-14"><rect id="path_14" data-name="path 14" class="cls-1" x="8.15" y="9.5" width="15.7" height="13.49"/></g></mask></defs><g id="图层_2" data-name="图层 2"><g id="图层_1-2" data-name="图层 1"><path id="矩形_6" data-name="矩形 6" class="cls-2" d="M5.5,30.5h21a4,4,0,0,0,4-4V5.5a4,4,0,0,0-4-4H5.5a4,4,0,0,0-4,4v21A4,4,0,0,0,5.5,30.5Z"/><path id="矩形_6-2" data-name="矩形 6" class="cls-3" d="M5.16,29.94H26.84a3.1,3.1,0,0,0,3.1-3.1V5.16a3.1,3.1,0,0,0-3.1-3.1H5.16a3.1,3.1,0,0,0-3.1,3.1V26.84A3.1,3.1,0,0,0,5.16,29.94Zm0,2.06A5.16,5.16,0,0,1,0,26.84V5.16A5.16,5.16,0,0,1,5.16,0H26.84A5.16,5.16,0,0,1,32,5.16V26.84A5.16,5.16,0,0,1,26.84,32Z"/><g class="cls-4"><path id="路径_1" data-name="路径 1" class="cls-1" d="M8.67,10c-.05,0,0,0,0,0s0,0,0,0V19.5s0,0,0,0,0,0,0,0H23.33s0,0,0,0,0,0,0,0V10s0,0,0,0,0,0,0,0Zm0-1H23.33a1.16,1.16,0,0,1,.8.39,1.14,1.14,0,0,1,.22.62V19.5a1.17,1.17,0,0,1-.3.73,1.14,1.14,0,0,1-.72.29H8.67A1.14,1.14,0,0,1,8,20.23a1.17,1.17,0,0,1-.3-.73V10a1.14,1.14,0,0,1,.22-.62A1.16,1.16,0,0,1,8.67,9Z"/><path id="路径_2" data-name="路径 2" class="cls-5" d="M19.58,22.82V22.2c0-.12-.06-.18-.17-.18H12.54a.16.16,0,0,0-.18.18v.62a.16.16,0,0,0,.18.18h6.87C19.52,23,19.58,22.94,19.58,22.82Z"/><path id="路径_3" data-name="路径 3" class="cls-5" d="M15.51,20v2.08h1V20Z"/><path id="路径_4" data-name="路径 4" class="cls-6" d="M18.89,15.79V13.73a.76.76,0,0,0-.76-.74H13.92a.76.76,0,0,0-.75.74v2.06a.76.76,0,0,0,.75.74h4.21A.81.81,0,0,0,18.89,15.79Z"/><path id="路径_5" data-name="路径 5" class="cls-5" d="M17.33,16.93V14.87a.76.76,0,0,0-.76-.74H12.36a.76.76,0,0,0-.75.74v2.06a.76.76,0,0,0,.75.74h4.27A.71.71,0,0,0,17.33,16.93Z"/><path id="路径_6" data-name="路径 6" class="cls-7" d="M20.34,14.65V12.59a.76.76,0,0,0-.76-.74H15.37a.76.76,0,0,0-.75.74v2.06a.76.76,0,0,0,.75.74h4.27A.71.71,0,0,0,20.34,14.65Z"/></g></g></g></svg>