<svg xmlns="http://www.w3.org/2000/svg" xmlns:xlink="http://www.w3.org/1999/xlink" viewBox="0 0 1819.04 17.5"><defs><style>.cls-1{fill:none;}.cls-2{fill:url(#未命名的渐变_69);}.cls-3{fill:url(#未命名的渐变_70);}.cls-4{fill:url(#未命名的渐变_69-2);}.cls-5{fill:#66d9ff;}.cls-10,.cls-11,.cls-12,.cls-13,.cls-5,.cls-6,.cls-7,.cls-8,.cls-9{fill-rule:evenodd;}.cls-6{fill:url(#未命名的渐变_68);}.cls-11,.cls-12,.cls-13,.cls-7,.cls-8,.cls-9{isolation:isolate;}.cls-11,.cls-7{opacity:0.75;}.cls-7{fill:url(#未命名的渐变_68-2);}.cls-12,.cls-8{opacity:0.5;}.cls-8{fill:url(#未命名的渐变_68-3);}.cls-13,.cls-9{opacity:0.25;}.cls-9{fill:url(#未命名的渐变_68-4);}.cls-10{fill:url(#未命名的渐变_68-5);}.cls-11{fill:url(#未命名的渐变_68-6);}.cls-12{fill:url(#未命名的渐变_68-7);}.cls-13{fill:url(#未命名的渐变_68-8);}</style><linearGradient id="未命名的渐变_69" x1="401.28" y1="4119.58" x2="400.28" y2="4119.58" gradientTransform="matrix(1819.04, 0, 0, -1, -728132.22, 4136.08)" gradientUnits="userSpaceOnUse"><stop offset="0" stop-color="#94abc0" stop-opacity="0.3"/><stop offset="0.26" stop-color="#6b8fb3" stop-opacity="0.9"/><stop offset="0.73" stop-color="#6c8fb3" stop-opacity="0.9"/><stop offset="1" stop-color="#5b728c" stop-opacity="0.3"/></linearGradient><linearGradient id="未命名的渐变_70" x1="401" y1="3257.47" x2="400.57" y2="3257.47" gradientTransform="matrix(1819.04, 0, 0, -2, -728132.22, 6531.44)" gradientUnits="userSpaceOnUse"><stop offset="0" stop-color="#94abc0" stop-opacity="0"/><stop offset="0.49" stop-color="#9ccdff" stop-opacity="0.9"/><stop offset="1" stop-color="#5b728c" stop-opacity="0"/></linearGradient><linearGradient id="未命名的渐变_69-2" x1="401.18" y1="4119.78" x2="400.18" y2="4119.28" gradientTransform="matrix(1819.04, 0, 0, -1, -728132.22, 4120.08)" xlink:href="#未命名的渐变_69"/><linearGradient id="未命名的渐变_68" x1="369.45" y1="2568.28" x2="369.46" y2="2567.28" gradientTransform="matrix(21.17, 0, 0, -10, -6130.8, 25686.8)" gradientUnits="userSpaceOnUse"><stop offset="0" stop-color="#086368" stop-opacity="0.75"/><stop offset="0.22" stop-color="#1b7a7a" stop-opacity="0.6"/><stop offset="1" stop-color="#347e96" stop-opacity="0.25"/></linearGradient><linearGradient id="未命名的渐变_68-2" x1="369.45" y1="2568.28" x2="369.46" y2="2567.28" gradientTransform="matrix(21.17, 0, 0, -10, -6108.67, 25686.8)" xlink:href="#未命名的渐变_68"/><linearGradient id="未命名的渐变_68-3" x1="369.45" y1="2568.28" x2="369.46" y2="2567.28" gradientTransform="matrix(21.17, 0, 0, -10, -6086.53, 25686.8)" xlink:href="#未命名的渐变_68"/><linearGradient id="未命名的渐变_68-4" x1="369.45" y1="2568.28" x2="369.46" y2="2567.28" gradientTransform="matrix(21.17, 0, 0, -10, -6064.39, 25686.8)" xlink:href="#未命名的渐变_68"/><linearGradient id="未命名的渐变_68-5" x1="369.45" y1="2568.28" x2="369.46" y2="2567.28" gradientTransform="matrix(21.17, 0, 0, -10, -7693.35, 25686.8)" xlink:href="#未命名的渐变_68"/><linearGradient id="未命名的渐变_68-6" x1="369.45" y1="2568.28" x2="369.46" y2="2567.28" gradientTransform="matrix(21.17, 0, 0, -10, -7715.49, 25686.8)" xlink:href="#未命名的渐变_68"/><linearGradient id="未命名的渐变_68-7" x1="369.45" y1="2568.28" x2="369.46" y2="2567.28" gradientTransform="matrix(21.17, 0, 0, -10, -7737.63, 25686.8)" xlink:href="#未命名的渐变_68"/><linearGradient id="未命名的渐变_68-8" x1="369.45" y1="2568.28" x2="369.46" y2="2567.28" gradientTransform="matrix(21.17, 0, 0, -10, -7759.76, 25686.8)" xlink:href="#未命名的渐变_68"/></defs><g id="图层_2" data-name="图层 2"><g id="图层_1-2" data-name="图层 1"><path id="蒙版" class="cls-1" d="M175.17,12h1468.7V5H175.17Z"/><path id="路径" class="cls-2" d="M0,16H1819v1H0Z"/><path id="路径-2" data-name="路径" class="cls-3" d="M0,15.5H1819v2H0Z"/><path id="路径-3" data-name="路径" class="cls-4" d="M0,0H1819V1H0Z"/><g id="矩形"><path id="矩形-2" data-name="矩形" class="cls-5" d="M8.66,10H20.21V7H8.66Z"/></g><g id="矩形-3" data-name="矩形"><path id="矩形-4" data-name="矩形" class="cls-5" d="M1798.83,10h11.55V7h-11.55Z"/></g><path id="矩形备份_3" data-name="矩形备份 3" class="cls-6" d="M1680,4l10.14,10h11L1691,4Z"/><path id="矩形备份_3-2" data-name="矩形备份 3" class="cls-7" d="M1702.1,4l10.14,10h11L1713.14,4Z"/><path id="矩形备份_3-3" data-name="矩形备份 3" class="cls-8" d="M1724.24,4l10.14,10h11L1735.28,4Z"/><path id="矩形备份_3-4" data-name="矩形备份 3" class="cls-9" d="M1746.38,4l10.14,10h11L1757.42,4Z"/><path id="矩形备份_3-5" data-name="矩形备份 3" class="cls-10" d="M117.42,14h11L138.59,4h-11Z"/><path id="矩形备份_3-6" data-name="矩形备份 3" class="cls-11" d="M95.28,14h11L116.45,4h-11Z"/><path id="矩形备份_3-7" data-name="矩形备份 3" class="cls-12" d="M73.15,14h11L94.32,4h-11Z"/><path id="矩形备份_3-8" data-name="矩形备份 3" class="cls-13" d="M51,14h11L72.18,4h-11Z"/></g></g></svg>