<svg xmlns="http://www.w3.org/2000/svg" viewBox="0 0 23.1 32"><defs><style>.cls-1{fill:#66e1df;fill-rule:evenodd;}</style></defs><g id="图层_2" data-name="图层 2"><g id="图层_1-2" data-name="图层 1"><path id="分组_1" data-name="分组 1" class="cls-1" d="M0,31.28V2.84a.72.72,0,0,1,.72-.72.73.73,0,0,1,.64.39A8.55,8.55,0,0,1,6.12,1.26a25.79,25.79,0,0,1,3.62.38l.11,0a19.09,19.09,0,0,0,6.89.17A33.94,33.94,0,0,0,21.34.09a1.31,1.31,0,0,1,1.24.16,1.45,1.45,0,0,1,.52,1.17V15.91A1.32,1.32,0,0,1,22,17.31a25.84,25.84,0,0,1-5.12.62,51.25,51.25,0,0,1-5.24-.45A53.82,53.82,0,0,0,5.84,17,8.58,8.58,0,0,0,2,18a2.21,2.21,0,0,1-.64.15V31.28A.7.7,0,0,1,.71,32,.71.71,0,0,1,0,31.28ZM6.1,2.68A7.12,7.12,0,0,0,1.39,4.23V16.69a8.82,8.82,0,0,1,4.4-1.14,55.49,55.49,0,0,1,6,.51c2,.22,3.72.44,5,.44a22.29,22.29,0,0,0,4.88-.59h0V1.42a34,34,0,0,1-4.73,1.8,19.16,19.16,0,0,1-7.23-.15l-.19,0A23.69,23.69,0,0,0,6.1,2.68Z"/></g></g></svg>