<svg xmlns="http://www.w3.org/2000/svg" xmlns:xlink="http://www.w3.org/1999/xlink" viewBox="0 0 359.6 81.6"><defs><style>.cls-1,.cls-10,.cls-11,.cls-12,.cls-13,.cls-14,.cls-2,.cls-5,.cls-6,.cls-8,.cls-9{fill-rule:evenodd;}.cls-1{fill:url(#未命名的渐变_62);}.cls-2{fill:url(#未命名的渐变_64);}.cls-3{fill:#1baeeb;}.cls-10,.cls-11,.cls-12,.cls-4,.cls-9{fill:#159aff;}.cls-10,.cls-12,.cls-4,.cls-8,.cls-9{isolation:isolate;}.cls-10,.cls-4,.cls-8{opacity:0.2;}.cls-5{fill:url(#未命名的渐变_63);}.cls-6{fill:url(#未命名的渐变_63-2);}.cls-7{fill:#0d3b5c;}.cls-8{fill:#2c8ceb;}.cls-9{opacity:0.75;}.cls-12{opacity:0.1;}.cls-13{fill:#a3f0ee;}.cls-14{fill:#66e1df;}</style><linearGradient id="未命名的渐变_62" x1="-190.58" y1="1996.29" x2="-190.57" y2="1997.29" gradientTransform="matrix(27.03, 0, 0, -27.03, 5192.28, 54013.76)" gradientUnits="userSpaceOnUse"><stop offset="0" stop-color="#29c0fe"/><stop offset="1" stop-color="#84dbff"/></linearGradient><linearGradient id="未命名的渐变_64" x1="-191.91" y1="2020.22" x2="-191.9" y2="2019.22" gradientTransform="matrix(18.16, 0, 0, -18.16, 3515.4, 36709.4)" gradientUnits="userSpaceOnUse"><stop offset="0" stop-color="#cbeefc" stop-opacity="0"/><stop offset="0.01" stop-color="#cbeefc" stop-opacity="0.01"/><stop offset="0.49" stop-color="#cbeefc"/><stop offset="1" stop-color="#cbeefc" stop-opacity="0"/></linearGradient><linearGradient id="未命名的渐变_63" x1="-190.79" y1="2002.23" x2="-190.91" y2="2001.23" gradientTransform="matrix(24.46, 0, 0, -24.46, 4725.47, 48978.97)" gradientUnits="userSpaceOnUse"><stop offset="0" stop-color="#66e1df"/><stop offset="1" stop-color="#1baeeb" stop-opacity="0"/></linearGradient><linearGradient id="未命名的渐变_63-2" x1="-190.83" y1="1993.48" x2="-190.82" y2="1994.48" gradientTransform="matrix(24.73, 0, 0, -28.75, 4744.44, 57384.69)" xlink:href="#未命名的渐变_63"/></defs><g id="图层_2" data-name="图层 2"><g id="图层_1-2" data-name="图层 1"><path id="功率" class="cls-1" d="M49.19,30.62a.85.85,0,0,1-1.18.17,11.23,11.23,0,0,0-6.93-2.2A11.83,11.83,0,1,0,52.91,40.41a12.38,12.38,0,0,0-1.52-5.91.87.87,0,0,1,1.52-.84,15.39,15.39,0,0,1,1.69,6.75,13.42,13.42,0,1,1-5.58-11A.84.84,0,0,1,49.19,30.62Zm-.5,10.64a.79.79,0,0,1,.84.84.91.91,0,0,1-.84.85H45.31a1.13,1.13,0,0,1-.85-.68l-1-3.88-2.36,7.43a.93.93,0,0,1-.85.5c-.51,0-.67-.33-.84-.67l-1.19-4.56-.67,1.35c0,.34-.34.51-.68.51H33.48a.8.8,0,0,1-.84-.85.9.9,0,0,1,.84-.84h2.88l1.35-2.87a.92.92,0,0,1,.84-.51,1.14,1.14,0,0,1,.85.67l1,3.89L42.78,35a.91.91,0,0,1,.84-.51,1.1,1.1,0,0,1,.84.68L46,41.26Z"/><path id="椭圆_7_拷贝_4" data-name="椭圆 7 拷贝 4" class="cls-2" d="M23.32,40.36h-2A18.15,18.15,0,0,1,39.48,22.2v2A16.18,16.18,0,0,0,23.32,40.36Z"/><path id="椭圆_7_拷贝_6" data-name="椭圆 7 拷贝 6" class="cls-3" d="M41.68,10.13h-.44A30.24,30.24,0,0,0,11,40.36v.19a1.93,1.93,0,0,1,0,.25H10v-1H19.7v1h-1a.92.92,0,0,0,0-.15c0-.07,0-.18,0-.29A22.56,22.56,0,0,1,41.24,17.8h.44v1h-1V9.13h1Zm1-2V19.82H41.24A20.56,20.56,0,0,0,20.68,40.36a.92.92,0,0,0,0,.15c0,.07,0,.18,0,.29v1H9V40.61a1.93,1.93,0,0,1,0-.25A32.23,32.23,0,0,1,41.24,8.12h1.44Z"/><path id="椭圆_7_拷贝_7" data-name="椭圆 7 拷贝 7" class="cls-3" d="M41.24,17.8A22.56,22.56,0,0,1,63.8,40.36c0,.11,0,.22,0,.29a.92.92,0,0,0,0,.15h-1v-1h9.69v1h-1a1.93,1.93,0,0,1,0-.25v-.19A30.24,30.24,0,0,0,41.24,10.12H40.8v-1h1v9.69h-1v-1h.44Zm0,2H39.8V8.13h1.44A32.23,32.23,0,0,1,73.48,40.36a1.93,1.93,0,0,1,0,.25V41.8H61.78v-1c0-.11,0-.22,0-.29a.92.92,0,0,0,0-.15A20.56,20.56,0,0,0,41.24,19.8Z"/><path id="椭圆_7_拷贝_8" data-name="椭圆 7 拷贝 8" class="cls-3" d="M41.24,62.92A22.56,22.56,0,0,1,18.68,40.36c0-.11,0-.22,0-.29a.92.92,0,0,0,0-.15h1v1H10v-1h1a1.93,1.93,0,0,1,0,.25v.19A30.24,30.24,0,0,0,41.24,70.6h.44v1h-1V61.9h1v1h-.44Zm0-2h1.44V72.59H41.24A32.23,32.23,0,0,1,9,40.36a1.93,1.93,0,0,1,0-.25V38.92H20.7v1c0,.11,0,.22,0,.29a.92.92,0,0,0,0,.15A20.56,20.56,0,0,0,41.24,60.92Z"/><path id="椭圆_7_拷贝_8-2" data-name="椭圆 7 拷贝 8" class="cls-3" d="M40.8,70.59h.44A30.24,30.24,0,0,0,71.48,40.36v-.19a1.93,1.93,0,0,1,0-.25h1v1H62.78v-1h1a.92.92,0,0,0,0,.15c0,.07,0,.18,0,.29A22.56,22.56,0,0,1,41.24,62.92H40.8v-1h1v9.69h-1Zm-1,2V60.9h1.44A20.57,20.57,0,0,0,61.8,40.36a.92.92,0,0,0,0-.15c0-.07,0-.18,0-.29v-1H73.47v1.19a1.93,1.93,0,0,1,0,.25A32.23,32.23,0,0,1,41.24,72.6H39.8Z"/><path id="椭圆_7_拷贝_5" data-name="椭圆 7 拷贝 5" class="cls-4" d="M0,40.8A40.8,40.8,0,0,1,40.8,0h5V20h-5A20.8,20.8,0,0,0,20,40.8v5H0ZM40.8,10V5h-5V15h5V10A30.8,30.8,0,0,0,10,40.8h5v-5H5v5h5A30.8,30.8,0,0,1,40.8,10ZM81.6,40.8A40,40,0,0,1,81,47.45a43.09,43.09,0,0,1-6.85,16.8,44,44,0,0,1-4.78,5.6,44.57,44.57,0,0,1-5,4.26,43,43,0,0,1-18.8,7.19,39.93,39.93,0,0,1-4.77.3h-5v-20h5a19.39,19.39,0,0,0,11.91-3.75,20.26,20.26,0,0,0,3-2.52,19.72,19.72,0,0,0,2.16-2.61A20.17,20.17,0,0,0,60.39,48,19.12,19.12,0,0,0,61.6,40.8v-5h20Zm-10.43,5A30.69,30.69,0,0,1,44.34,71.38a28.15,28.15,0,0,1-3.54.22v5h5v-10h-5v5a31.19,31.19,0,0,0,12.35-2.51A32.2,32.2,0,0,0,58.54,66a32.82,32.82,0,0,0,4.3-3.67A33,33,0,0,0,66,58.48a32.34,32.34,0,0,0,3.75-7A31.4,31.4,0,0,0,71.6,40.8h-5v5h10v-5h-5A28.74,28.74,0,0,1,71.17,45.76Z"/><path id="矩形_24_拷贝_10" data-name="矩形 24 拷贝 10" class="cls-5" d="M45.7,12.91l1.73.31-.61,3.46-1.73-.3ZM50.48,14l1.66.6-1.21,3.31-1.65-.6ZM55,16l1.52.88-1.76,3L53.23,19Zm4.1,2.68,1.35,1.13-2.26,2.7-1.35-1.13ZM62.68,22l1.13,1.35-2.7,2.26L60,24.27ZM65.62,26l.88,1.52-3,1.76-.88-1.52Zm2.21,4.38.6,1.65-3.31,1.21-.6-1.66ZM69.25,35l.3,1.73-3.46.61-.31-1.73Z"/><path id="矩形_24_拷贝_28" data-name="矩形 24 拷贝 28" class="cls-6" d="M17.06,41.66H13.54V39.9h3.52Zm.22,2.53.3,1.73-3.46.61-.31-1.73Zm1,4.19.6,1.65-3.31,1.21-.6-1.66Zm1.68,3.95.88,1.52-3.05,1.76-.88-1.52Zm2.33,3.61,1.13,1.35-2.7,2.26L19.55,58.2Zm2.92,3.14,1.35,1.13-2.26,2.7-1.35-1.13Zm3.44,2.59,1.52.88-1.76,3-1.52-.88Zm3.82,1.95,1.66.6-1.21,3.31-1.65-.6Zm4.11,1.26,1.73.31-.61,3.46-1.73-.3Z"/><path id="椭圆_8" data-name="椭圆 8" class="cls-7" d="M6.6,41.36A34.64,34.64,0,0,0,41.24,76,34.22,34.22,0,0,0,64,67.45l.28-.25,294.31,0v1h-1v-35h1v1L184,34,172.62,15l.86-.51v1H64.29L64,15.27A34.22,34.22,0,0,0,41.24,6.72,34.64,34.64,0,0,0,6.6,41.36Zm-2,0A36.63,36.63,0,0,1,65.33,13.77l-.66.75v-1H174.05l11.37,19-.86.51V32l175,.22v37l-294.93,0v-1l.66.75A36.63,36.63,0,0,1,4.6,41.36Z"/><path id="矩形_26" data-name="矩形 26" class="cls-8" d="M170.6,14.72h5.28L187.7,34.08h-5.28Z"/><path id="矩形_26_拷贝" data-name="矩形 26 拷贝" class="cls-9" d="M174.56,18.36h2.64L183.11,28h-2.64Z"/><path id="矩形_24" data-name="矩形 24" class="cls-10" d="M83.6,55.72h262v-1H83.6Z"/><path id="矩形_25" data-name="矩形 25" class="cls-11" d="M83.28,54.26h91.1l1.18,2.2H82.1Z"/><path id="矩形_25_拷贝" data-name="矩形 25 拷贝" class="cls-11" d="M138.28,65.26h91.1l1.18,2.2H137.1Z"/><path id="矩形_27" data-name="矩形 27" class="cls-12" d="M175.6,14.72h171l12,18.5h-171Z"/><path id="矩形_30" data-name="矩形 30" class="cls-13" d="M101.58,12.41h14.63l1.87,3h-20V14.32Z"/><path id="矩形_30_拷贝" data-name="矩形 30 拷贝" class="cls-14" d="M133.58,15.41H119l-1.87-3h20V13.5Z"/></g></g></svg>