<svg xmlns="http://www.w3.org/2000/svg" xmlns:xlink="http://www.w3.org/1999/xlink" viewBox="0 0 51 51"><defs><style>.cls-1{fill:#fff;}.cls-2,.cls-5{fill-rule:evenodd;}.cls-2{fill:url(#未命名的渐变_130);}.cls-3{fill:#66e1df;}.cls-4{mask:url(#mask);}.cls-5{fill:url(#未命名的渐变_132);}</style><linearGradient id="未命名的渐变_130" x1="-849.35" y1="2307.18" x2="-850.17" y2="2306.13" gradientTransform="matrix(48, 0, 0, -48, 40813.25, 110745.89)" gradientUnits="userSpaceOnUse"><stop offset="0" stop-color="#005675"/><stop offset="0.26" stop-color="#003452"/><stop offset="0.74" stop-color="#001422"/></linearGradient><mask id="mask" x="7.5" y="7.5" width="36" height="36" maskUnits="userSpaceOnUse"><g id="bg-mask-0"><rect id="path_0" data-name="path 0" class="cls-1" x="7.5" y="7.5" width="36" height="36"/></g></mask><linearGradient id="未命名的渐变_132" x1="-843.22" y1="2344.83" x2="-843.21" y2="2343.83" gradientTransform="matrix(31.5, 0, 0, -22.5, 26586.84, 52772.93)" gradientUnits="userSpaceOnUse"><stop offset="0" stop-color="#009ec6"/><stop offset="1" stop-color="#044480"/></linearGradient></defs><g id="图层_2" data-name="图层 2"><g id="图层_1-2" data-name="图层 1"><g id="Rectangle_7" data-name="Rectangle 7"><path id="Rectangle_7-2" data-name="Rectangle 7" class="cls-2" d="M1.5,49.5h48V1.5H1.5Z"/><path id="Rectangle_7-3" data-name="Rectangle 7" class="cls-3" d="M51,0V51H0V0ZM3,48H48V3H3Z"/></g><g class="cls-4"><path id="路径_1" data-name="路径 1" class="cls-5" d="M34.5,20.9V16.5a2.25,2.25,0,0,0-2.25-2.25H12A2.25,2.25,0,0,0,9.75,16.5v18A2.25,2.25,0,0,0,12,36.75H32.25A2.25,2.25,0,0,0,34.5,34.5V30.1l6.75,5.53V15.38Z"/></g></g></g></svg>