<svg xmlns="http://www.w3.org/2000/svg" xmlns:xlink="http://www.w3.org/1999/xlink" viewBox="0 0 192 42"><defs><style>.cls-1{fill:#387efe;isolation:isolate;opacity:0.2;}.cls-1,.cls-3,.cls-4,.cls-5{fill-rule:evenodd;}.cls-2,.cls-5{fill:#66e1df;}.cls-3{fill:url(#未命名的渐变_129);}.cls-4{fill:url(#未命名的渐变_128);}</style><linearGradient id="未命名的渐变_129" x1="-791.14" y1="2378.83" x2="-791.13" y2="2379.83" gradientTransform="matrix(190, 0, 0, -40, 150411.45, 95194.23)" gradientUnits="userSpaceOnUse"><stop offset="0" stop-color="#387efe" stop-opacity="0.7"/><stop offset="0.3" stop-color="#3dbdff" stop-opacity="0"/><stop offset="0.31" stop-color="#3dbdff" stop-opacity="0"/><stop offset="1" stop-color="#3dbdff" stop-opacity="0"/></linearGradient><linearGradient id="未命名的渐变_128" x1="-791.14" y1="2378.83" x2="-791.13" y2="2379.83" gradientTransform="matrix(190, 0, 0, -40, 150411.45, 95194.23)" gradientUnits="userSpaceOnUse"><stop offset="0" stop-color="#3dbdff" stop-opacity="0"/><stop offset="0.69" stop-color="#3dbdff" stop-opacity="0"/><stop offset="0.7" stop-color="#3dbdff" stop-opacity="0"/><stop offset="1" stop-color="#387efe" stop-opacity="0.74"/></linearGradient></defs><g id="图层_2" data-name="图层 2"><g id="图层_1-2" data-name="图层 1"><path id="圆角矩形_2" data-name="圆角矩形 2" class="cls-1" d="M191,6V36l-5,5H147.41l-2.64-5H47l-2.63,5H6L1,36V6L6,1H186Z"/><path id="圆角矩形_2_拷贝" data-name="圆角矩形 2 拷贝" class="cls-2" d="M0,36V5.59L5.59,0H186.41L192,5.59V36.41L186.41,42h-39.6l-2.92-5.52.88-.47v1H47V36l.89.47L45,42H5.59L0,36.41Zm2,0H1l.71-.71,5,5L6,41V40H44.37v1l-.89-.47L46.4,35h99l2.92,5.52-.89.47V40H186v1l-.71-.71,5-5L191,36h-1V6h1l-.71.71-5-5L186,1V2H6V1l.71.71-5,5L1,6H2Z"/><path id="圆角矩形_2_拷贝_2" data-name="圆角矩形 2 拷贝 2" class="cls-3" d="M191,6V36l-5,5H147.41l-2.64-5H47l-2.63,5H6L1,36V6L6,1H186Z"/><path id="圆角矩形_2_拷贝_3" data-name="圆角矩形 2 拷贝 3" class="cls-4" d="M6,1H186l5,5V36l-5,5H147.41l-2.64-5H47l-2.63,5H6L1,36V6Z"/><path id="矩形_22" data-name="矩形 22" class="cls-5" d="M48.31,37h95.37L145,40H47Z"/><path id="矩形_23" data-name="矩形 23" class="cls-5" d="M185,27v9h-9Z"/></g></g></svg>