<svg xmlns="http://www.w3.org/2000/svg" viewBox="0 0 181.32 25.06"><defs><style>.cls-1{fill:#66e1df;}</style></defs><g id="图层_2" data-name="图层 2"><g id="图层_1-2" data-name="图层 1"><path id="矩形_5" data-name="矩形 5" class="cls-1" d="M4,2a1.84,1.84,0,0,1,0,.33,1.87,1.87,0,0,1-.08.32,1.94,1.94,0,0,1-.13.3,1.27,1.27,0,0,1-.18.27,2.62,2.62,0,0,1-.22.25l-.26.2a2.69,2.69,0,0,1-.29.16l-.31.11V24.06H178.82V3.94l-.31-.11a2.69,2.69,0,0,1-.29-.16l-.26-.2a2.62,2.62,0,0,1-.22-.25,1.59,1.59,0,0,1-.18-.27c-.05-.1-.09-.2-.13-.3a1.87,1.87,0,0,1-.08-.32,1.84,1.84,0,0,1,0-.33c0-.07,0-.13,0-.2l0-.19a1.33,1.33,0,0,1,0-.19l.06-.19.09-.17a1,1,0,0,1,.1-.17l.12-.16a.86.86,0,0,1,.13-.14,1.85,1.85,0,0,1,.14-.14l.16-.11.17-.1.18-.09.18-.06.19,0,.2,0h.39l.19,0,.19,0,.19.06.18.09.16.1a.91.91,0,0,1,.16.11l.15.14.13.14.12.16.1.17a1.3,1.3,0,0,1,.08.17c0,.07.05.13.07.19a1.29,1.29,0,0,1,0,.19.63.63,0,0,1,0,.19,1.34,1.34,0,0,1,0,.2c0,.11,0,.22,0,.33a1.92,1.92,0,0,1-.09.32,1.3,1.3,0,0,1-.13.3,1.67,1.67,0,0,1-.18.28,2.4,2.4,0,0,1-.22.24l-.26.2a2.69,2.69,0,0,1-.29.16l-.31.11V25.06H1.5V3.94l-.31-.11A2.69,2.69,0,0,1,.9,3.67l-.26-.2a2.62,2.62,0,0,1-.22-.25A1.27,1.27,0,0,1,.24,3a1.94,1.94,0,0,1-.13-.3A1.87,1.87,0,0,1,0,2.33,1.84,1.84,0,0,1,0,2a1.34,1.34,0,0,1,0-.2l0-.19a1.33,1.33,0,0,1,0-.19l.06-.19.09-.17A1,1,0,0,1,.34.89.91.91,0,0,1,.45.73L.59.59.73.45A.91.91,0,0,1,.89.34a1,1,0,0,1,.17-.1L1.23.15,1.42.09l.19,0L1.8,0h.4l.19,0,.19,0,.19.06.17.09a1,1,0,0,1,.17.1.91.91,0,0,1,.16.11l.14.14.14.14a.91.91,0,0,1,.11.16,1,1,0,0,1,.1.17l.09.17.06.19a1.33,1.33,0,0,1,0,.19L4,1.8A1.34,1.34,0,0,1,4,2Z"/></g></g></svg>