<svg xmlns="http://www.w3.org/2000/svg" viewBox="0 0 181.32 25.06"><defs><style>.cls-1{fill:#66e1df;}</style></defs><g id="图层_2" data-name="图层 2"><g id="图层_1-2" data-name="图层 1"><path id="矩形_5" data-name="矩形 5" class="cls-1" d="M179.82,21.12l.31.11a2.69,2.69,0,0,1,.29.16l.26.2a2.4,2.4,0,0,1,.22.24,1.67,1.67,0,0,1,.18.28,2,2,0,0,1,.14.3c0,.11.06.21.08.32s0,.22,0,.33a1.34,1.34,0,0,1,0,.2,1.23,1.23,0,0,1,0,.19c0,.06,0,.13,0,.19a1.46,1.46,0,0,1-.07.19.89.89,0,0,1-.08.17l-.1.17-.12.16-.13.14-.15.14a.91.91,0,0,1-.16.11l-.16.1-.18.09a1.06,1.06,0,0,1-.19.06l-.19.05-.19,0h-.39l-.2,0-.19-.05a1.27,1.27,0,0,1-.18-.06l-.18-.09-.17-.1-.16-.11-.14-.14a.86.86,0,0,1-.13-.14l-.12-.16a1,1,0,0,1-.1-.17.89.89,0,0,1-.08-.17,1.46,1.46,0,0,1-.07-.19,1.33,1.33,0,0,1,0-.19l0-.19c0-.07,0-.13,0-.2a1.84,1.84,0,0,1,0-.33c0-.11.05-.21.08-.32s.08-.2.13-.3a1.59,1.59,0,0,1,.18-.27,2.62,2.62,0,0,1,.22-.25l.26-.2a2.69,2.69,0,0,1,.29-.16l.31-.11V1H2.5V21.12l.31.11a2.69,2.69,0,0,1,.29.16l.26.2a2.62,2.62,0,0,1,.22.25,1.27,1.27,0,0,1,.18.27,1.94,1.94,0,0,1,.13.3,1.87,1.87,0,0,1,.08.32,1.84,1.84,0,0,1,0,.33,1.34,1.34,0,0,1,0,.2l0,.19a1.33,1.33,0,0,1,0,.19l-.06.19L3.76,24a1,1,0,0,1-.1.17.91.91,0,0,1-.11.16,1.85,1.85,0,0,1-.14.14,1.85,1.85,0,0,1-.14.14.91.91,0,0,1-.16.11,1,1,0,0,1-.17.1.91.91,0,0,1-.17.09L2.58,25,2.39,25l-.19,0H1.8l-.19,0L1.42,25l-.19-.06a.91.91,0,0,1-.17-.09,1,1,0,0,1-.17-.1.91.91,0,0,1-.16-.11,1.85,1.85,0,0,1-.14-.14,1.85,1.85,0,0,1-.14-.14.91.91,0,0,1-.11-.16A1,1,0,0,1,.24,24l-.09-.17-.06-.19a1.33,1.33,0,0,1,0-.19l0-.19a1.34,1.34,0,0,1,0-.2,1.84,1.84,0,0,1,0-.33,1.87,1.87,0,0,1,.08-.32,1.94,1.94,0,0,1,.13-.3,1.27,1.27,0,0,1,.18-.27,2.62,2.62,0,0,1,.22-.25l.26-.2a2.69,2.69,0,0,1,.29-.16l.31-.11V0H179.82Z"/></g></g></svg>