<svg xmlns="http://www.w3.org/2000/svg" xmlns:xlink="http://www.w3.org/1999/xlink" viewBox="0 0 51 51"><defs><style>.cls-1,.cls-3{fill-rule:evenodd;}.cls-1{fill:url(#未命名的渐变_130);}.cls-2{fill:#66e1df;}.cls-3{fill:url(#未命名的渐变_131);}</style><linearGradient id="未命名的渐变_130" x1="-927.98" y1="2305.65" x2="-928.79" y2="2304.6" gradientTransform="matrix(48, 0, 0, -48, 44587.27, 110672.39)" gradientUnits="userSpaceOnUse"><stop offset="0" stop-color="#005675"/><stop offset="0.26" stop-color="#003452"/><stop offset="0.74" stop-color="#001422"/></linearGradient><linearGradient id="未命名的渐变_131" x1="-921.31" y1="2328.83" x2="-921.3" y2="2327.83" gradientTransform="matrix(32, 0, 0, -28.26, 29507.2, 65824.24)" gradientUnits="userSpaceOnUse"><stop offset="0" stop-color="#009ec6"/><stop offset="1" stop-color="#04437f"/></linearGradient></defs><g id="图层_2" data-name="图层 2"><g id="图层_1-2" data-name="图层 1"><g id="Rectangle_7" data-name="Rectangle 7"><path id="Rectangle_7-2" data-name="Rectangle 7" class="cls-1" d="M1.5,49.5h48V1.5H1.5Z"/><path id="Rectangle_7-3" data-name="Rectangle 7" class="cls-2" d="M51,0V51H0V0ZM3,48H48V3H3Z"/></g><path id="路径_1" data-name="路径 1" class="cls-3" d="M38.79,18.4H41.5V39.76H9.5V18.4h2.71V24h6.28c1.86-5,7-12.52,7-12.52S30.63,19,32.49,24h6.3Zm0,8.33H33.16v.15a7.65,7.65,0,0,1-15.3,0,.38.38,0,0,1,0-.15H12.21V37H38.79Z"/></g></g></svg>