<svg xmlns="http://www.w3.org/2000/svg" xmlns:xlink="http://www.w3.org/1999/xlink" viewBox="0 0 1218.04 157.5"><defs><style>.cls-1,.cls-2{fill-rule:evenodd;}.cls-1{fill:url(#未命名的渐变_150);}.cls-2{fill:url(#未命名的渐变_150-2);}.cls-3{fill:url(#未命名的渐变_146);}</style><linearGradient id="未命名的渐变_150" x1="589.46" y1="263.39" x2="592.3" y2="247.99" gradientUnits="userSpaceOnUse"><stop offset="0" stop-color="#159aff" stop-opacity="0.25"/><stop offset="1" stop-color="#fff" stop-opacity="0"/></linearGradient><linearGradient id="未命名的渐变_150-2" x1="599.86" y1="-11.03" x2="615.19" y2="271.05" xlink:href="#未命名的渐变_150"/><linearGradient id="未命名的渐变_146" x1="1951.16" y1="2751.33" x2="1951.16" y2="2751.39" gradientTransform="matrix(2509, 0, 0, -2509, -4894859.05, 6903244.31)" gradientUnits="userSpaceOnUse"><stop offset="0" stop-color="#fff" stop-opacity="0"/><stop offset="1" stop-color="#71e2e3"/></linearGradient></defs><g id="图层_2" data-name="图层 2"><g id="图层_1-2" data-name="图层 1"><path class="cls-1" d="M1215,157.5h-3.09C1033.05,59,827.58,3,609,3S185,59,6.17,157.5H3.08C182.66,58.09,389.23,1.5,609,1.5S1035.38,58.09,1215,157.5Z"/><path class="cls-2" d="M1211.87,157.5H6.17C185,59,390.46,3,609,3S1033.05,59,1211.87,157.5Z"/><path id="圆形_1" data-name="圆形 1" class="cls-3" d="M609,0C388,0,180.34,57.15,0,157.5H6.17C185,59,390.46,3,609,3s424,56,602.85,154.5H1218C1037.7,57.15,830,0,609,0Z"/></g></g></svg>