<svg xmlns="http://www.w3.org/2000/svg" viewBox="0 0 884 746"><defs><style>.cls-1{fill:#2db3b3;}.cls-1,.cls-2,.cls-4,.cls-5,.cls-6,.cls-7{fill-rule:evenodd;}.cls-2{fill:#3dc1cd;isolation:isolate;opacity:0.24;}.cls-3,.cls-7{fill:#2d4759;}.cls-4{fill:#3d9999;}.cls-5{fill:#4ff0ff;}.cls-6{fill:#dbb36e;}</style></defs><g id="图层_2" data-name="图层 2"><g id="图层_1-2" data-name="图层 1"><path id="矩形" class="cls-1" d="M7,.42H1V6.7Z"/><path id="路径_7" data-name="路径 7" class="cls-2" d="M5,21.22V16.74L16.56,3.83h4Z"/><path id="矩形-2" data-name="矩形" class="cls-1" d="M883,.42h-6l6,6.28Z"/><path id="路径_7-2" data-name="路径 7" class="cls-2" d="M879,21.22,863.4,3.83h4L879,16.74Z"/><path id="路径_8" data-name="路径 8" class="cls-3" d="M870.15,745.16l13-14.15.37.33H883v-716h.5l-.38.33L870,.83l.37-.33V1h-229V.5l.36.34L632,11H251.5L241.81.84l.36-.34V1H13.93V.5l.37.33L.87,15.71.5,15.38H1V731.44H.5l.37-.33,12.81,14-.37.34V745h857.2v.5Zm.58.84H13.08L0,731.64V15.18L13.7,0H242.39l9.69,10.18-.37.35V10h380v.5l-.36-.35L641.08,0H870.57L884,15.19V731.54l-13.12,14.3Z"/><path id="矩形备份_8" data-name="矩形备份 8" class="cls-4" d="M177.38,4.93l5.94,6h3.37l-5.95-6Z"/><path id="矩形备份_9" data-name="矩形备份 9" class="cls-4" d="M187.12,4.93l5.94,6h3.37l-6-6Z"/><path id="矩形备份_10" data-name="矩形备份 10" class="cls-4" d="M196.87,4.93l5.94,6h3.37l-6-6Z"/><path id="矩形备份_8-2" data-name="矩形备份 8" class="cls-4" d="M148.15,4.93l5.94,6h3.37l-6-6Z"/><path id="矩形备份_9-2" data-name="矩形备份 9" class="cls-4" d="M157.89,4.93l5.94,6h3.37l-5.95-6Z"/><path id="矩形备份_10-2" data-name="矩形备份 10" class="cls-4" d="M167.64,4.93l5.94,6H177l-5.95-6Z"/><path id="矩形备份_8-3" data-name="矩形备份 8" class="cls-4" d="M118.92,4.93l5.94,6h3.37l-5.95-6Z"/><path id="矩形备份_9-3" data-name="矩形备份 9" class="cls-4" d="M128.66,4.93l5.94,6H138l-5.95-6Z"/><path id="矩形备份_10-3" data-name="矩形备份 10" class="cls-4" d="M138.41,4.93l5.94,6h3.37l-5.95-6Z"/><path id="矩形备份_9-4" data-name="矩形备份 9" class="cls-4" d="M99.43,4.93l5.94,6h3.37l-5.95-6Z"/><path id="矩形备份_10-4" data-name="矩形备份 10" class="cls-4" d="M109.18,4.93l5.94,6h3.37l-5.95-6Z"/><path id="矩形备份_8-4" data-name="矩形备份 8" class="cls-4" d="M89.69,4.93l5.94,6H99l-6-6Z"/><path id="矩形备份_8-5" data-name="矩形备份 8" class="cls-4" d="M696.64,10.93H700l6-6h-3.37Z"/><path id="矩形备份_9-5" data-name="矩形备份 9" class="cls-4" d="M686.9,10.93h3.36l6-6h-3.37Z"/><path id="矩形备份_10-5" data-name="矩形备份 10" class="cls-4" d="M677.15,10.93h3.36l6-6h-3.37Z"/><path id="矩形备份_8-6" data-name="矩形备份 8" class="cls-4" d="M725.87,10.93h3.36l5.95-6h-3.37Z"/><path id="矩形备份_9-6" data-name="矩形备份 9" class="cls-4" d="M716.13,10.93h3.36l6-6h-3.37Z"/><path id="矩形备份_10-6" data-name="矩形备份 10" class="cls-4" d="M706.38,10.93h3.36l6-6h-3.37Z"/><path id="矩形备份_8-7" data-name="矩形备份 8" class="cls-4" d="M755.1,10.93h3.36l5.95-6H761Z"/><path id="矩形备份_9-7" data-name="矩形备份 9" class="cls-4" d="M745.36,10.93h3.36l5.95-6H751.3Z"/><path id="矩形备份_10-7" data-name="矩形备份 10" class="cls-4" d="M735.61,10.93H739l5.95-6h-3.37Z"/><path id="矩形备份_9-8" data-name="矩形备份 9" class="cls-4" d="M774.59,10.93H778l5.95-6h-3.37Z"/><path id="矩形备份_10-8" data-name="矩形备份 10" class="cls-4" d="M764.84,10.93h3.36l5.95-6h-3.37Z"/><path id="矩形备份_8-8" data-name="矩形备份 8" class="cls-4" d="M784.33,10.93h3.36l5.95-6h-3.37Z"/><path id="矩形-3" data-name="矩形" class="cls-5" d="M268.52,3.3H615.7l1.79-1.49H266.73Z"/><path id="矩形-4" data-name="矩形" class="cls-6" d="M224.21,8.87H234l-1.77-1.49h-9.74Z"/><path id="矩形-5" data-name="矩形" class="cls-6" d="M651.14,7.38l-1.77,1.49h9.74l1.77-1.49Z"/><path id="矩形-6" data-name="矩形" class="cls-1" d="M1,745.22H7l-6-6.28Z"/><path id="路径_7-3" data-name="路径 7" class="cls-2" d="M4.54,724.42l15.63,17.39h-4L4.54,728.9Z"/><path id="矩形-7" data-name="矩形" class="cls-1" d="M877,745.22h6v-6.28Z"/><path id="路径_7-4" data-name="路径 7" class="cls-2" d="M879.44,724.42v4.48l-11.61,12.91h-4Z"/><path id="矩形-8" data-name="矩形" class="cls-6" d="M28.46,735.91h8.86v-1.49H28.46Z"/><path id="矩形-9" data-name="矩形" class="cls-6" d="M844.24,735.91h8.86v-1.49h-8.86Z"/><polygon class="cls-7" points="838 739.91 834 739.91 826 731.91 830 731.91 838 739.91"/><polygon class="cls-7" points="828 739.91 824 739.91 816 731.91 820 731.91 828 739.91"/><polygon class="cls-7" points="818 739.91 814 739.91 806 731.91 810 731.91 818 739.91"/><polygon class="cls-7" points="808 739.91 804 739.91 796 731.91 800 731.91 808 739.91"/><polygon class="cls-7" points="798 739.91 794 739.91 786 731.91 790 731.91 798 739.91"/><polygon class="cls-7" points="788 739.91 784 739.91 776 731.91 780 731.91 788 739.91"/><polygon class="cls-7" points="778 739.91 774 739.91 766 731.91 770 731.91 778 739.91"/><polygon class="cls-7" points="768 739.91 764 739.91 756 731.91 760 731.91 768 739.91"/><polygon class="cls-7" points="758 739.91 754 739.91 746 731.91 750 731.91 758 739.91"/><polygon class="cls-7" points="748 739.91 744 739.91 736 731.91 740 731.91 748 739.91"/><polygon class="cls-7" points="738 739.91 734 739.91 726 731.91 730 731.91 738 739.91"/><polygon class="cls-7" points="728 739.91 724 739.91 716 731.91 720 731.91 728 739.91"/><polygon class="cls-7" points="718 739.91 714 739.91 706 731.91 710 731.91 718 739.91"/><polygon class="cls-7" points="708 739.91 704 739.91 696 731.91 700 731.91 708 739.91"/><polygon class="cls-7" points="698 739.91 694 739.91 686 731.91 690 731.91 698 739.91"/><polygon class="cls-7" points="688 739.91 684 739.91 676 731.91 680 731.91 688 739.91"/><polygon class="cls-7" points="678 739.91 674 739.91 666 731.91 670 731.91 678 739.91"/><polygon class="cls-7" points="668 739.91 664 739.91 656 731.91 660 731.91 668 739.91"/><polygon class="cls-7" points="658 739.91 654 739.91 646 731.91 650 731.91 658 739.91"/><polygon class="cls-7" points="648 739.91 644 739.91 636 731.91 640 731.91 648 739.91"/><polygon class="cls-7" points="638 739.91 634 739.91 626 731.91 630 731.91 638 739.91"/><polygon class="cls-7" points="628 739.91 624 739.91 616 731.91 620 731.91 628 739.91"/><polygon class="cls-7" points="618 739.91 614 739.91 606 731.91 610 731.91 618 739.91"/><polygon class="cls-7" points="608 739.91 604 739.91 596 731.91 600 731.91 608 739.91"/><polygon class="cls-7" points="598 739.91 594 739.91 586 731.91 590 731.91 598 739.91"/><polygon class="cls-7" points="588 739.91 584 739.91 576 731.91 580 731.91 588 739.91"/><polygon class="cls-7" points="578 739.91 574 739.91 566 731.91 570 731.91 578 739.91"/><polygon class="cls-7" points="568 739.91 564 739.91 556 731.91 560 731.91 568 739.91"/><polygon class="cls-7" points="558 739.91 554 739.91 546 731.91 550 731.91 558 739.91"/><polygon class="cls-7" points="548 739.91 544 739.91 536 731.91 540 731.91 548 739.91"/><polygon class="cls-7" points="538 739.91 534 739.91 526 731.91 530 731.91 538 739.91"/><polygon class="cls-7" points="528 739.91 524 739.91 516 731.91 520 731.91 528 739.91"/><polygon class="cls-7" points="518 739.91 514 739.91 506 731.91 510 731.91 518 739.91"/><polygon class="cls-7" points="508 739.91 504 739.91 496 731.91 500 731.91 508 739.91"/><polygon class="cls-7" points="498 739.91 494 739.91 486 731.91 490 731.91 498 739.91"/><polygon class="cls-7" points="488 739.91 484 739.91 476 731.91 480 731.91 488 739.91"/><polygon class="cls-7" points="478 739.91 474 739.91 466 731.91 470 731.91 478 739.91"/><polygon class="cls-7" points="468 739.91 464 739.91 456 731.91 460 731.91 468 739.91"/><polygon class="cls-7" points="458 739.91 454 739.91 446 731.91 450 731.91 458 739.91"/><polygon class="cls-7" points="448 739.91 444 739.91 436 731.91 440 731.91 448 739.91"/><polygon class="cls-7" points="438 739.91 434 739.91 426 731.91 430 731.91 438 739.91"/><polygon class="cls-7" points="428 739.91 424 739.91 416 731.91 420 731.91 428 739.91"/><polygon class="cls-7" points="418 739.91 414 739.91 406 731.91 410 731.91 418 739.91"/><polygon class="cls-7" points="408 739.91 404 739.91 396 731.91 400 731.91 408 739.91"/><polygon class="cls-7" points="398 739.91 394 739.91 386 731.91 390 731.91 398 739.91"/><polygon class="cls-7" points="388 739.91 384 739.91 376 731.91 380 731.91 388 739.91"/><polygon class="cls-7" points="378 739.91 374 739.91 366 731.91 370 731.91 378 739.91"/><polygon class="cls-7" points="368 739.91 364 739.91 356 731.91 360 731.91 368 739.91"/><polygon class="cls-7" points="358 739.91 354 739.91 346 731.91 350 731.91 358 739.91"/><polygon class="cls-7" points="348 739.91 344 739.91 336 731.91 340 731.91 348 739.91"/><polygon class="cls-7" points="338 739.91 334 739.91 326 731.91 330 731.91 338 739.91"/><polygon class="cls-7" points="328 739.91 324 739.91 316 731.91 320 731.91 328 739.91"/><polygon class="cls-7" points="318 739.91 314 739.91 306 731.91 310 731.91 318 739.91"/><polygon class="cls-7" points="308 739.91 304 739.91 296 731.91 300 731.91 308 739.91"/><polygon class="cls-7" points="298 739.91 294 739.91 286 731.91 290 731.91 298 739.91"/><polygon class="cls-7" points="288 739.91 284 739.91 276 731.91 280 731.91 288 739.91"/><polygon class="cls-7" points="278 739.91 274 739.91 266 731.91 270 731.91 278 739.91"/><polygon class="cls-7" points="268 739.91 264 739.91 256 731.91 260 731.91 268 739.91"/><polygon class="cls-7" points="258 739.91 254 739.91 246 731.91 250 731.91 258 739.91"/><polygon class="cls-7" points="248 739.91 244 739.91 236 731.91 240 731.91 248 739.91"/><polygon class="cls-7" points="238 739.91 234 739.91 226 731.91 230 731.91 238 739.91"/><polygon class="cls-7" points="228 739.91 224 739.91 216 731.91 220 731.91 228 739.91"/><polygon class="cls-7" points="218 739.91 214 739.91 206 731.91 210 731.91 218 739.91"/><polygon class="cls-7" points="208 739.91 204 739.91 196 731.91 200 731.91 208 739.91"/><polygon class="cls-7" points="198 739.91 194 739.91 186 731.91 190 731.91 198 739.91"/><polygon class="cls-7" points="188 739.91 184 739.91 176 731.91 180 731.91 188 739.91"/><polygon class="cls-7" points="178 739.91 174 739.91 166 731.91 170 731.91 178 739.91"/><polygon class="cls-7" points="168 739.91 164 739.91 156 731.91 160 731.91 168 739.91"/><polygon class="cls-7" points="158 739.91 154 739.91 146 731.91 150 731.91 158 739.91"/><polygon class="cls-7" points="148 739.91 144 739.91 136 731.91 140 731.91 148 739.91"/><polygon class="cls-7" points="138 739.91 134 739.91 126 731.91 130 731.91 138 739.91"/><polygon class="cls-7" points="128 739.91 124 739.91 116 731.91 120 731.91 128 739.91"/><polygon class="cls-7" points="118 739.91 114 739.91 106 731.91 110 731.91 118 739.91"/><polygon class="cls-7" points="108 739.91 104 739.91 96 731.91 100 731.91 108 739.91"/><polygon class="cls-7" points="98 739.91 94 739.91 86 731.91 90 731.91 98 739.91"/><polygon class="cls-7" points="88 739.91 84 739.91 76 731.91 80 731.91 88 739.91"/><polygon class="cls-7" points="78 739.91 74 739.91 66 731.91 70 731.91 78 739.91"/><polygon class="cls-7" points="68 739.91 64 739.91 56 731.91 60 731.91 68 739.91"/><polygon class="cls-7" points="58 739.91 54 739.91 46 731.91 50 731.91 58 739.91"/></g></g></svg>