<svg xmlns="http://www.w3.org/2000/svg" viewBox="0 0 23.5 6.93"><defs><style>.cls-1,.cls-2{fill:#fff;}.cls-1{fill-rule:evenodd;}</style></defs><g id="图层_2" data-name="图层 2"><g id="图层_1-2" data-name="图层 1"><path id="路径_1" data-name="路径 1" class="cls-1" d="M16.62,6.18a.45.45,0,0,0,.31.75.29.29,0,0,0,.26-.15l2.8-3a.42.42,0,0,0,0-.59l-2.8-3a.42.42,0,0,0-.57,0,.44.44,0,0,0,0,.6l2.54,2.73Z"/><path id="路径_1-2" data-name="路径 1" class="cls-1" d="M20,6.18a.45.45,0,0,0,.31.75.29.29,0,0,0,.26-.15l2.8-3a.42.42,0,0,0,0-.59l-2.8-3a.42.42,0,0,0-.57,0,.43.43,0,0,0,0,.6l2.54,2.73Z"/><path id="直线_1" data-name="直线 1" class="cls-2" d="M12.4,4l-.09,0-.09-.05-.07-.06a.27.27,0,0,1-.07-.08l0-.08,0-.1a.28.28,0,0,1,0-.09.31.31,0,0,1,0-.1l0-.1,0-.08a.27.27,0,0,1,.07-.08l.07-.06.09,0,.09,0h2.2l.09,0,.09,0,.07.06.07.08,0,.08,0,.1a.31.31,0,0,1,0,.1.28.28,0,0,1,0,.09l0,.1,0,.08a.27.27,0,0,1-.07.08l-.07.06-.09.05L14.6,4H12.4Zm-4,0-.09,0-.09-.05-.07-.06a.27.27,0,0,1-.07-.08l0-.08,0-.1a.31.31,0,0,1,0-.1.28.28,0,0,1,0-.09l0-.1,0-.08a.27.27,0,0,1,.07-.08l.07-.06.09,0L8.4,3h2.2l.09,0,.09,0,.07.06a.27.27,0,0,1,.07.08l0,.08,0,.1a.31.31,0,0,1,0,.1.28.28,0,0,1,0,.09l0,.1,0,.08a.27.27,0,0,1-.07.08l-.07.06-.09.05L10.6,4H8.4Zm-4,0-.09,0-.09-.05-.07-.06a.27.27,0,0,1-.07-.08.59.59,0,0,1,0-.08l0-.1a.31.31,0,0,1,0-.1.28.28,0,0,1,0-.09l0-.1a.59.59,0,0,1,0-.08.27.27,0,0,1,.07-.08l.07-.06.09,0L4.4,3H6.6l.09,0,.09,0,.07.06a.27.27,0,0,1,.07.08.59.59,0,0,1,0,.08l0,.1a.28.28,0,0,1,0,.09.31.31,0,0,1,0,.1l0,.1a.59.59,0,0,1,0,.08.27.27,0,0,1-.07.08l-.07.06-.09.05L6.6,4H4.4ZM.4,4l-.09,0L.22,3.88.15,3.82.08,3.74s0-.05,0-.08l0-.1a.31.31,0,0,1,0-.1.28.28,0,0,1,0-.09l0-.1,0-.08a.27.27,0,0,1,.07-.08l.07-.06L.31,3,.4,3H2.6l.09,0,.09,0,.07.06a.27.27,0,0,1,.07.08.59.59,0,0,1,0,.08l0,.1a.28.28,0,0,1,0,.09.31.31,0,0,1,0,.1l0,.1a.59.59,0,0,1,0,.08l-.07.08-.07.06-.09.05L2.6,4H.4Z"/></g></g></svg>