<svg xmlns="http://www.w3.org/2000/svg" xmlns:xlink="http://www.w3.org/1999/xlink" viewBox="0 0 45.96 43.1"><defs><style>.cls-1,.cls-3{fill:#fff;}.cls-2{mask:url(#mask);}.cls-3{fill-rule:evenodd;}</style><mask id="mask" x="12.14" y="6.81" width="18.65" height="30.38" maskUnits="userSpaceOnUse"><g id="bg-mask-4"><rect id="path_4" data-name="path 4" class="cls-1" x="12.14" y="6.81" width="18.65" height="30.38"/></g></mask></defs><g id="图层_2" data-name="图层 2"><g id="图层_1-2" data-name="图层 1"><path id="路径_1" data-name="路径 1" class="cls-1" d="M21.52,43.1A21.49,21.49,0,0,1,0,21.61,21.6,21.6,0,0,1,21.52,0,21.6,21.6,0,0,1,43,21.61a1.36,1.36,0,0,1,0,.2A.64.64,0,0,1,43,22a.76.76,0,0,1-.09.18l-.12.15-.15.12-.18.09-.18.06-.2,0-.2,0-.18-.06-.18-.09-.15-.12a1.58,1.58,0,0,1-.12-.15.76.76,0,0,1-.09-.18.64.64,0,0,1-.06-.18,1.36,1.36,0,0,1,0-.2A19.41,19.41,0,0,0,35,7.4a19.43,19.43,0,0,0-26.88,0A19.41,19.41,0,0,0,2,21.61,19.16,19.16,0,0,0,7.75,35.43,19.24,19.24,0,0,0,21.52,41.1l.2,0,.18.06a.76.76,0,0,1,.18.09l.15.12.12.15a.76.76,0,0,1,.09.18.64.64,0,0,1,.06.18,1,1,0,0,1,0,.4.64.64,0,0,1-.06.18.76.76,0,0,1-.09.18l-.12.15-.15.12L21.9,43l-.18.06Z"/><g class="cls-2"><path id="分组_1" data-name="分组 1" class="cls-3" d="M17.52,37a.92.92,0,0,1-.11-.58l2.68-11.71H13a.7.7,0,0,1-.7-.36.67.67,0,0,1,0-.79v0L24.17,7.09a.9.9,0,0,1,.93-.23.67.67,0,0,1,.47.82L22.89,19.39H30a.7.7,0,0,1,.7.35c.11.35.11.58,0,.7L18.8,36.83a.63.63,0,0,1-.58.36A1.63,1.63,0,0,1,17.52,37Zm2.22-3.86L28.6,20.91H22c-.23,0-.35-.12-.58-.35a.87.87,0,0,1-.12-.59l2.1-9.13-8.86,12.3H21a1.61,1.61,0,0,1,.7.23.87.87,0,0,1,.12.59Z"/></g><path id="直线_1" data-name="直线 1" class="cls-1" d="M25.77,41.48a.6.6,0,0,1-.19-.06.56.56,0,0,1-.17-.09l-.16-.12-.12-.15a.76.76,0,0,1-.09-.18.6.6,0,0,1-.06-.19,1.11,1.11,0,0,1,0-.19,1.36,1.36,0,0,1,0-.2.64.64,0,0,1,.06-.18.76.76,0,0,1,.09-.18l.12-.15a1,1,0,0,1,.16-.12.56.56,0,0,1,.17-.09.6.6,0,0,1,.19-.06l.19,0H45a.68.68,0,0,1,.2,0l.18,0,.18.1.15.12a.79.79,0,0,1,.12.15,1.62,1.62,0,0,1,.1.18,1.21,1.21,0,0,1,0,.18.68.68,0,0,1,0,.2.62.62,0,0,1,0,.19,1.05,1.05,0,0,1,0,.19,1,1,0,0,1-.1.17.61.61,0,0,1-.12.16l-.15.12a.61.61,0,0,1-.18.09.64.64,0,0,1-.18.06l-.2,0H26Z"/><path id="直线_1-2" data-name="直线 1" class="cls-1" d="M31.77,35a.6.6,0,0,1-.19-.06.56.56,0,0,1-.17-.09l-.16-.12-.12-.15a.76.76,0,0,1-.09-.18.6.6,0,0,1-.06-.19A1.11,1.11,0,0,1,31,34a1.36,1.36,0,0,1,0-.2.64.64,0,0,1,.06-.18.76.76,0,0,1,.09-.18l.12-.15a1,1,0,0,1,.16-.12.56.56,0,0,1,.17-.09.6.6,0,0,1,.19-.06L32,33H45a.68.68,0,0,1,.2,0l.18,0,.18.1.15.12a.79.79,0,0,1,.12.15,1.62,1.62,0,0,1,.1.18,1.21,1.21,0,0,1,0,.18.68.68,0,0,1,0,.2.62.62,0,0,1,0,.19,1.05,1.05,0,0,1,0,.19,1,1,0,0,1-.1.17.61.61,0,0,1-.12.16l-.15.12a.61.61,0,0,1-.18.09.64.64,0,0,1-.18.06L45,35H32Z"/><path id="直线_1-3" data-name="直线 1" class="cls-1" d="M35.77,28.48a.6.6,0,0,1-.19-.06.56.56,0,0,1-.17-.09l-.16-.12-.12-.15a.76.76,0,0,1-.09-.18.6.6,0,0,1-.06-.19,1.11,1.11,0,0,1,0-.19,1.36,1.36,0,0,1,0-.2.64.64,0,0,1,.06-.18.76.76,0,0,1,.09-.18l.12-.15a1,1,0,0,1,.16-.12.56.56,0,0,1,.17-.09.6.6,0,0,1,.19-.06l.19,0h9a.68.68,0,0,1,.2,0l.18.05.18.1.15.12a.79.79,0,0,1,.12.15,1.62,1.62,0,0,1,.1.18,1.21,1.21,0,0,1,0,.18.68.68,0,0,1,0,.2.62.62,0,0,1,0,.19,1.05,1.05,0,0,1,0,.19,1,1,0,0,1-.1.17.61.61,0,0,1-.12.16l-.15.12a.61.61,0,0,1-.18.09l-.18.06-.2,0H36Z"/></g></g></svg>