<svg xmlns="http://www.w3.org/2000/svg" xmlns:xlink="http://www.w3.org/1999/xlink" viewBox="0 0 71.92 72.42"><defs><style>.cls-1,.cls-3{fill:#fff;}.cls-2{fill:#159aff;}.cls-2,.cls-3,.cls-4,.cls-6,.cls-7{fill-rule:evenodd;}.cls-4{fill:#66e1df;}.cls-5{mask:url(#mask);}.cls-6{fill:#42ffff;}.cls-7{fill:#154cde;}</style><mask id="mask" x="0" y="0" width="71.92" height="72.42" maskUnits="userSpaceOnUse"><g id="bg-mask-10"><rect id="path_10" data-name="path 10" class="cls-1" x="0.44" width="71.04" height="72.42"/></g></mask></defs><g id="图层_2" data-name="图层 2"><g id="图层_1-2" data-name="图层 1"><path id="路径_1" data-name="路径 1" class="cls-2" d="M50.18,30.67a5,5,0,0,0-4.26-5V23.42H26.77v2.47A5,5,0,0,0,22.17,29a5.15,5.15,0,0,0,.94,5.49,5,5,0,0,0,5.33,1.33H45.16a5,5,0,0,0,3.55-1.5A5.13,5.13,0,0,0,50.18,30.67Z"/><path id="路径_2" data-name="路径 2" class="cls-3" d="M44.41,30.53a1.53,1.53,0,1,0-3,0h0a1.53,1.53,0,1,0,3,0Z"/><path id="路径_3" data-name="路径 3" class="cls-3" d="M38.32,30.53a1.52,1.52,0,1,0-3,0h0a1.52,1.52,0,1,0,3,0Z"/><path id="路径_4" data-name="路径 4" class="cls-3" d="M32.25,30.53a1.53,1.53,0,1,0-3.05,0h0a1.53,1.53,0,1,0,3.05,0Z"/><path id="路径_5" data-name="路径 5" class="cls-4" d="M41.17,43.06a9.72,9.72,0,0,1-11.38-1.39l-1.28,1.58A11.64,11.64,0,0,0,42,44.92a13,13,0,0,0,1.66-1c.22-.14.43-.3.64-.46l-1.26-1.61A12.07,12.07,0,0,1,41.17,43.06Z"/><path id="路径_6" data-name="路径 6" class="cls-4" d="M41.58,39.83l-1.26-1.61a7,7,0,0,1-1.11.68,5.68,5.68,0,0,1-6.66-.81l-1.28,1.58a7.6,7.6,0,0,0,8.81,1.08A8.49,8.49,0,0,0,41.58,39.83Z"/><path id="路径_7" data-name="路径 7" class="cls-4" d="M46.15,47.39c.28-.19.56-.4.83-.61l-1.25-1.61-.17.12c-.15.11-.32.24-.52.37a17,17,0,0,1-2,1.15,15.48,15.48,0,0,1-6.92,1.67,14,14,0,0,1-9-3.61l-1.28,1.58a15.84,15.84,0,0,0,10.26,4.09,17.28,17.28,0,0,0,7.81-1.87A19.76,19.76,0,0,0,46.15,47.39Z"/><g class="cls-5"><path id="分组_1" data-name="分组 1" class="cls-6" d="M36,69.05A32.84,32.84,0,1,1,68.57,36.21,32.7,32.7,0,0,1,36,69.05ZM10.33,36.2A25.64,25.64,0,1,0,36,10.39,25.74,25.74,0,0,0,10.33,36.2Z"/><path id="分组_2" data-name="分组 2" class="cls-7" d="M30,64.17a28.48,28.48,0,0,1-9.45-4L18.76,62a31.34,31.34,0,0,1-8.39-8.44l1.8-1.81a27.9,27.9,0,0,1-3.93-9.51H5.72a31.38,31.38,0,0,1,0-12H8.24a28.58,28.58,0,0,1,3.93-9.56l-1.8-1.81a31.63,31.63,0,0,1,8.39-8.44l1.79,1.81a27.65,27.65,0,0,1,9.45-4V5.81a30.4,30.4,0,0,1,11.92,0V8.34a28.5,28.5,0,0,1,9.45,4l1.79-1.81a31.3,31.3,0,0,1,8.38,8.44l-1.79,1.81a28.1,28.1,0,0,1,3.93,9.51H66.2a30.71,30.71,0,0,1,.58,6,31.3,31.3,0,0,1-.58,6H63.68a28.88,28.88,0,0,1-3.93,9.51l1.79,1.81A31.16,31.16,0,0,1,53.16,62l-1.79-1.8a27.63,27.63,0,0,1-9.45,4v2.54a30.91,30.91,0,0,1-11.92,0Zm-19.67-28A25.64,25.64,0,1,0,36,10.39,25.74,25.74,0,0,0,10.33,36.2Z"/><path id="路径_5-2" data-name="路径 5" class="cls-3" d="M35.57,1.66h.78V0h-.78Z"/><path id="路径_6-2" data-name="路径 6" class="cls-3" d="M26.69,3l.75-.2L27,1.15l-.75.2Z"/><path id="路径_7-2" data-name="路径 7" class="cls-3" d="M18.45,6.49l.67-.39-.83-1.43-.67.38Z"/><path id="路径_8" data-name="路径 8" class="cls-3" d="M11.41,12.06l.54-.55-1.17-1.18-.55.55Z"/><path id="路径_9" data-name="路径 9" class="cls-3" d="M6,19.27l.39-.67L5,17.77l-.39.67Z"/><path id="路径_10" data-name="路径 10" class="cls-3" d="M2.71,27.63l.2-.75-1.6-.43-.2.75Z"/><path id="路径_11" data-name="路径 11" class="cls-3" d="M1.66,36.6v-.77H0v.77Z"/><path id="路径_12" data-name="路径 12" class="cls-3" d="M2.94,45.51l-.2-.75-1.6.43.2.75Z"/><path id="路径_13" data-name="路径 13" class="cls-3" d="M6.43,53.84,6,53.17,4.61,54l.38.67Z"/><path id="路径_14" data-name="路径 14" class="cls-3" d="M12,60.92l-.55-.55-1.17,1.17.54.55Z"/><path id="路径_15" data-name="路径 15" class="cls-3" d="M19.17,66.33,18.5,66l-.83,1.43.67.39Z"/><path id="路径_16" data-name="路径 16" class="cls-3" d="M27.47,69.7l-.75-.2-.43,1.61.75.2Z"/><path id="路径_17" data-name="路径 17" class="cls-3" d="M36.35,70.76h-.77v1.66h.77Z"/><path id="路径_18" data-name="路径 18" class="cls-3" d="M45.2,69.5l-.74.2.43,1.6.74-.2Z"/><path id="路径_19" data-name="路径 19" class="cls-3" d="M53.47,65.92l-.67.39.83,1.44.67-.39Z"/><path id="路径_20" data-name="路径 20" class="cls-3" d="M60.47,60.37l-.55.54,1.17,1.18.55-.55Z"/><path id="路径_21" data-name="路径 21" class="cls-3" d="M65.88,53.17l-.39.67,1.44.83.39-.68Z"/><path id="路径_22" data-name="路径 22" class="cls-3" d="M69.19,44.76l-.21.75,1.61.43.2-.75Z"/><path id="路径_23" data-name="路径 23" class="cls-3" d="M70.26,35.82v.78h1.66v-.78Z"/><path id="路径_24" data-name="路径 24" class="cls-3" d="M69,26.87l.2.75,1.6-.43-.2-.75Z"/><path id="路径_25" data-name="路径 25" class="cls-3" d="M65.5,18.59l.39.67,1.43-.83-.38-.67Z"/><path id="路径_26" data-name="路径 26" class="cls-3" d="M60,11.5l.54.55,1.18-1.17-.55-.55Z"/><path id="路径_27" data-name="路径 27" class="cls-3" d="M52.76,6.08l.67.38L54.26,5l-.67-.39Z"/><path id="路径_28" data-name="路径 28" class="cls-3" d="M44.48,2.75l.74.2.43-1.6-.74-.2Z"/></g></g></g></svg>