<svg xmlns="http://www.w3.org/2000/svg" viewBox="0 0 32.16 32"><defs><style>.cls-1{fill:#66e1df;fill-rule:evenodd;}</style></defs><g id="图层_2" data-name="图层 2"><g id="图层_1-2" data-name="图层 1"><path id="分组_1" data-name="分组 1" class="cls-1" d="M25.9,3.56l-4,4.06,2.7,2.72,4.06-4.26L30,4.73A11.5,11.5,0,0,1,28.8,19.62a11.87,11.87,0,0,1-13.15,2.32L5.61,32,4.06,30.65,1.35,27.94,0,26.59,10.05,16.53A11.29,11.29,0,0,1,12.36,3.37a11.49,11.49,0,0,1,14.9-1.16ZM20.49,6.08,24,2.59A9.2,9.2,0,0,0,13.72,4.53a9.6,9.6,0,0,0,0,13.74,9.59,9.59,0,0,0,13.73,0A10,10,0,0,0,29.57,7.82L25.9,11.5l-1.35,1.35L19.14,7.44ZM5.42,29.1l8.3-8.31c-.57-.4-1-.78-1.54-1.17A3,3,0,0,1,11,18.07L2.71,26.39Z"/></g></g></svg>