<svg xmlns="http://www.w3.org/2000/svg" viewBox="0 0 8 124"><defs><style>.cls-1{fill:#fff;}.cls-2{fill:#ffc97a;fill-rule:evenodd;}</style></defs><g id="图层_2" data-name="图层 2"><g id="图层_1-2" data-name="图层 1"><path id="直线_3" data-name="直线 3" class="cls-1" d="M4.5,4V6h-1V4Zm0,4v2h-1V8Zm0,4v2h-1V12Zm0,4v2h-1V16Zm0,4v2h-1V20Zm0,4v2h-1V24Zm0,4v2h-1V28Zm0,4v2h-1V32Zm0,4v2h-1V36Zm0,4v2h-1V40Zm0,4v2h-1V44Zm0,4v2h-1V48Zm0,4v2h-1V52Zm0,4v2h-1V56Zm0,4v2h-1V60Zm0,4v2h-1V64Zm0,4v2h-1V68Zm0,4v2h-1V72Zm0,4v2h-1V76Zm0,4v2h-1V80Zm0,4v2h-1V84Zm0,4v2h-1V88Zm0,4v2h-1V92Zm0,4v2h-1V96Zm0,4v2h-1v-2Zm0,4v2h-1v-2Zm0,4v2h-1v-2Zm0,4v2h-1v-2Zm0,4v2h-1v-2Z"/><path id="圆形_2" data-name="圆形 2" class="cls-2" d="M4,0A4,4,0,1,0,8,4,4,4,0,0,0,4,0Z"/><path id="圆形_2-2" data-name="圆形 2" class="cls-2" d="M4,58a4,4,0,1,0,4,4A4,4,0,0,0,4,58Z"/><path id="圆形_2-3" data-name="圆形 2" class="cls-2" d="M4,116a4,4,0,1,0,4,4A4,4,0,0,0,4,116Z"/></g></g></svg>