<svg xmlns="http://www.w3.org/2000/svg" xmlns:xlink="http://www.w3.org/1999/xlink" viewBox="0 0 97 197"><defs><style>.cls-1{opacity:0.25;}.cls-2{fill:#092a49;}.cls-10,.cls-11,.cls-12,.cls-13,.cls-14,.cls-15,.cls-16,.cls-17,.cls-2,.cls-3,.cls-4,.cls-5,.cls-6,.cls-7,.cls-8,.cls-9{fill-rule:evenodd;}.cls-3{fill:#05243e;}.cls-4{fill:url(#未命名的渐变_157);}.cls-5{fill:url(#未命名的渐变_155);}.cls-6{fill:url(#未命名的渐变_154);}.cls-7{fill:#53d9fd;}.cls-8{fill:#3fc1e4;}.cls-9{fill:url(#未命名的渐变_153);}.cls-10{fill:url(#未命名的渐变_152);}.cls-11{fill:url(#未命名的渐变_156);}.cls-12{fill:url(#未命名的渐变_155-2);}.cls-13{fill:url(#未命名的渐变_154-2);}.cls-14{fill:url(#未命名的渐变_153-2);}.cls-15{fill:url(#未命名的渐变_152-2);}.cls-16{fill:url(#未命名的渐变_151);}.cls-17{fill:#fff;}</style><linearGradient id="未命名的渐变_157" x1="1187.81" y1="3230.39" x2="1188.45" y2="3231.39" gradientTransform="matrix(27.73, 0, 0, -62.71, -32912.14, 202774.66)" gradientUnits="userSpaceOnUse"><stop offset="0" stop-color="#3fc1e4" stop-opacity="0"/><stop offset="0.23" stop-color="#3fc1e4" stop-opacity="0"/><stop offset="1" stop-color="#3fc1e4" stop-opacity="0.6"/></linearGradient><linearGradient id="未命名的渐变_155" x1="1187.86" y1="3231.39" x2="1188.63" y2="3230.39" gradientTransform="matrix(27.79, 0, 0, -62.7, -32958.98, 202742.76)" gradientUnits="userSpaceOnUse"><stop offset="0" stop-color="#4172fe" stop-opacity="0.6"/><stop offset="0.77" stop-color="#4172fe" stop-opacity="0"/><stop offset="1" stop-color="#4172fe" stop-opacity="0"/></linearGradient><linearGradient id="未命名的渐变_154" x1="1186.67" y1="3400.21" x2="1187.67" y2="3399.6" gradientTransform="matrix(27.28, 0, 0, -12, -32339.25, 40931.34)" gradientUnits="userSpaceOnUse"><stop offset="0" stop-color="#3b2fff"/><stop offset="1" stop-color="#53d9fd"/></linearGradient><linearGradient id="未命名的渐变_153" x1="1029.34" y1="3276.49" x2="1029.35" y2="3277.49" gradientTransform="matrix(7.06, 0, 0, -29.14, -7222.7, 95638.27)" gradientUnits="userSpaceOnUse"><stop offset="0" stop-color="#3ee9c7"/><stop offset="1" stop-color="#3ee9c7" stop-opacity="0"/></linearGradient><linearGradient id="未命名的渐变_152" x1="1029.34" y1="3277.21" x2="1029.35" y2="3278.21" gradientTransform="matrix(7.06, 0, 0, -28.9, -7215.49, 94872.34)" gradientUnits="userSpaceOnUse"><stop offset="0" stop-color="#278ae6"/><stop offset="1" stop-color="#278ae6" stop-opacity="0"/></linearGradient><linearGradient id="未命名的渐变_156" x1="1200.69" y1="3213.73" x2="1199.69" y2="3214.18" gradientTransform="matrix(35.66, 0, 0, -108.7, -42767.45, 349411.36)" gradientUnits="userSpaceOnUse"><stop offset="0" stop-color="#3fc1e4" stop-opacity="0.6"/><stop offset="0.77" stop-color="#3fc1e4" stop-opacity="0"/><stop offset="1" stop-color="#3fc1e4" stop-opacity="0"/></linearGradient><linearGradient id="未命名的渐变_155-2" x1="1199.78" y1="3213.67" x2="1200.78" y2="3214.25" gradientTransform="matrix(35.74, 0, 0, -108.68, -42831.07, 349348.28)" xlink:href="#未命名的渐变_155"/><linearGradient id="未命名的渐变_154-2" x1="1199.07" y1="3354.36" x2="1200.07" y2="3353.75" gradientTransform="matrix(35.09, 0, 0, -15.39, -42041.27, 51729.82)" xlink:href="#未命名的渐变_154"/><linearGradient id="未命名的渐变_153-2" x1="1076.55" y1="3257.53" x2="1076.56" y2="3258.53" gradientTransform="matrix(9.07, 0, 0, -37.37, -9720.41, 121846.56)" xlink:href="#未命名的渐变_153"/><linearGradient id="未命名的渐变_152-2" x1="1076.55" y1="3258.07" x2="1076.56" y2="3259.07" gradientTransform="matrix(9.07, 0, 0, -37.07, -9711.29, 120887.86)" xlink:href="#未命名的渐变_152"/><linearGradient id="未命名的渐变_151" x1="1226.51" y1="3234.16" x2="1226.52" y2="3233.16" gradientTransform="matrix(94.9, 0, 0, -58.65, -116343.59, 189746.08)" gradientUnits="userSpaceOnUse"><stop offset="0" stop-color="#3cd6ff" stop-opacity="0"/><stop offset="1" stop-color="#3cd6ff"/></linearGradient></defs><g id="图层_2" data-name="图层 2"><g id="图层_1-2" data-name="图层 1"><g class="cls-1"><path id="矩形_543" data-name="矩形 543" class="cls-2" d="M76.53,134.29l-28,17.88-28-17.88,28-17.88Z"/><path id="矩形_543_拷贝" data-name="矩形 543 拷贝" class="cls-3" d="M70.44,134.53l-21.94,14-21.94-14,21.94-14Z"/><path id="矩形_551" data-name="矩形 551" class="cls-4" d="M48.45,197,20.72,179.36V134.29l27.73,17.65Z"/><path id="矩形_551_拷贝" data-name="矩形 551 拷贝" class="cls-5" d="M76.29,179.35,48.5,197V151.93l27.79-17.64Z"/><path id="矩形_546_拷贝" data-name="矩形 546 拷贝" class="cls-6" d="M48.5,125.24h0L62.15,134v3.22L48.5,128.45v0l-13.63,8.69v-3.19Z"/><path id="矩形_543_拷贝_2" data-name="矩形 543 拷贝 2" class="cls-7" d="M62.15,136.87,48.5,145.56l-13.65-8.69,13.65-8.7Z"/><path id="矩形_543_拷贝_3" data-name="矩形 543 拷贝 3" class="cls-7" d="M55.08,161.11,48,165.64l-7.07-4.53L48,156.58Z"/><path id="矩形_543_拷贝_4" data-name="矩形 543 拷贝 4" class="cls-8" d="M53.37,161.11l-5.24,3.3-5.24-3.3,5.24-3.31Z"/><path id="矩形_547" data-name="矩形 547" class="cls-9" d="M48,156.66l-7.06,4.57V136.65L48,132.09Z"/><path id="矩形_547_拷贝" data-name="矩形 547 拷贝" class="cls-10" d="M55.09,161,48,156.43V132.09l7.06,4.57Z"/></g><path id="矩形_543-2" data-name="矩形 543" class="cls-2" d="M49.22,85.77,85.28,108.7,49.22,131.64l-36-22.94Z"/><path id="矩形_543_拷贝-2" data-name="矩形 543 拷贝" class="cls-3" d="M49.23,90.48l28.21,17.91-28.21,17.9L21,108.39Z"/><path id="矩形_551-2" data-name="矩形 551" class="cls-11" d="M13.49,22.63,49.15,0V86.07L13.49,108.7Z"/><path id="矩形_551_拷贝-2" data-name="矩形 551 拷贝" class="cls-12" d="M49.22,0,85,22.64v86.05L49.22,86.07Z"/><path id="矩形_546_拷贝-2" data-name="矩形 546 拷贝" class="cls-13" d="M49.23,120.31h0L31.69,109.16v-4.08l17.53,11.14v0l17.56-11.27v4.13Z"/><path id="矩形_543_拷贝_2-2" data-name="矩形 543 拷贝 2" class="cls-7" d="M49.23,94.25,66.78,105.4,49.23,116.55,31.67,105.4Z"/><path id="矩形_543_拷贝_3-2" data-name="矩形 543 拷贝 3" class="cls-7" d="M48.59,68.49l9.09,5.81-9.09,5.81L39.5,74.3Z"/><path id="矩形_543_拷贝_4-2" data-name="矩形 543 拷贝 4" class="cls-8" d="M48.75,70.06l6.74,4.24-6.74,4.24L42,74.3Z"/><path id="矩形_547-2" data-name="矩形 547" class="cls-14" d="M39.5,74.15,48.57,80v31.52l-9.07-5.85Z"/><path id="矩形_547_拷贝-2" data-name="矩形 547 拷贝" class="cls-15" d="M48.62,80.32l9.07-5.86v31.21l-9.07,5.86Z"/><path id="椭圆_553" data-name="椭圆 553" class="cls-16" d="M44.32,63.73a79.45,79.45,0,0,1,14.54-1.38c19.73,0,35.51,8,37.85,20.44,2.89,15.43-15.87,31.92-41.91,36.83A78.76,78.76,0,0,1,40.25,121c-19.73,0-35.51-8-37.85-20.44C-.49,85.12,18.28,68.64,44.32,63.73ZM94.1,93.92A17.91,17.91,0,0,0,95.68,83a17.23,17.23,0,0,0-3.89-8,26.83,26.83,0,0,0-8-6.19,44,44,0,0,0-11.27-4A63.87,63.87,0,0,0,58.86,63.4,77.78,77.78,0,0,0,44.5,64.77a76,76,0,0,0-17.69,5.57A55.94,55.94,0,0,0,13.2,79,32.23,32.23,0,0,0,5,89.43a17.83,17.83,0,0,0-1.57,10.93,17.14,17.14,0,0,0,3.89,8,26.51,26.51,0,0,0,8,6.2,44.51,44.51,0,0,0,11.27,4A63.87,63.87,0,0,0,40.25,120a78.47,78.47,0,0,0,14.36-1.36A76,76,0,0,0,72.3,113a55.83,55.83,0,0,0,13.61-8.65A32.37,32.37,0,0,0,94.1,93.92Z"/><path id="椭圆_554" data-name="椭圆 554" class="cls-17" d="M2.51,97.28A2.52,2.52,0,1,0,5,99.79,2.51,2.51,0,0,0,2.51,97.28Z"/></g></g></svg>