<svg xmlns="http://www.w3.org/2000/svg" viewBox="0 0 13.97 13.97"><defs><style>.cls-1{fill:#fff;fill-rule:evenodd;}</style></defs><g id="图层_2" data-name="图层 2"><g id="图层_1-2" data-name="图层 1"><path id="路径_1" data-name="路径 1" class="cls-1" d="M3.05,11a2.67,2.67,0,0,1-.86-2A1.1,1.1,0,0,0,0,9a4.73,4.73,0,0,0,.42,2,5,5,0,0,0,1.12,1.58,5.19,5.19,0,0,0,1.64,1.06,5.47,5.47,0,0,0,2,.38H8.79a5.38,5.38,0,0,0,2-.38,5.13,5.13,0,0,0,1.65-1.06A5,5,0,0,0,13.55,11,4.73,4.73,0,0,0,14,9V7.46a4.69,4.69,0,0,0-.42-1.95,5,5,0,0,0-1.12-1.59,5.27,5.27,0,0,0-1.65-1,5.19,5.19,0,0,0-2-.39H6.62V.56A.56.56,0,0,0,5.77.08L.8,3a.56.56,0,0,0,0,1l5,2.94a.57.57,0,0,0,.85-.49V4.67H8.79a3.09,3.09,0,0,1,2.13.84,2.66,2.66,0,0,1,.86,2V9a2.67,2.67,0,0,1-.86,2,3.09,3.09,0,0,1-2.13.84H5.18A3.09,3.09,0,0,1,3.05,11Z"/></g></g></svg>