<svg xmlns="http://www.w3.org/2000/svg" xmlns:xlink="http://www.w3.org/1999/xlink" viewBox="0 0 52 83"><defs><style>.cls-1{fill:#ff8d1a;}.cls-2{fill-rule:evenodd;fill:url(#未命名的渐变_185);}</style><linearGradient id="未命名的渐变_185" x1="-978.3" y1="6689.96" x2="-978.29" y2="6688.96" gradientTransform="matrix(43.71, 0, 0, -75.17, 42787.29, 502888.28)" gradientUnits="userSpaceOnUse"><stop offset="0" stop-color="#ff8d1a" stop-opacity="0"/><stop offset="1" stop-color="#ff8d1a"/></linearGradient></defs><g id="图层_2" data-name="图层 2"><g id="图层_1-2" data-name="图层 1"><path id="减去顶层" class="cls-1" d="M36.12,83H.4L.31,83l-.09,0a.23.23,0,0,1-.07-.07.23.23,0,0,1-.07-.07l0-.09,0-.09a.34.34,0,0,1,0-.1V.5A.34.34,0,0,1,0,.4L0,.31l0-.09L.15.15.22.08.31,0,.4,0H51.6l.09,0,.09,0a.23.23,0,0,1,.07.07.23.23,0,0,1,.07.07l0,.09L52,.4a.34.34,0,0,1,0,.1V67.78a.45.45,0,0,1,0,.2.64.64,0,0,1-.11.16L36.47,82.86a.39.39,0,0,1-.16.1A.43.43,0,0,1,36.12,83Zm0-1v.5l-.35-.36L51.15,67.42l.35.36H51V.5h.5V1H.5V.5H1v82H.5V82Z"/><path id="减去顶层-2" data-name="减去顶层" class="cls-2" d="M34.67,79.09H4.14V3.92H47.85V65.59Z"/></g></g></svg>