<svg xmlns="http://www.w3.org/2000/svg" xmlns:xlink="http://www.w3.org/1999/xlink" viewBox="0 0 480.89 353.68"><defs><style>.cls-1{fill:url(#未命名的渐变_137);}.cls-2{fill:url(#未命名的渐变_143);}.cls-3{fill:url(#未命名的渐变_147);}.cls-4{fill:url(#未命名的渐变_175);}.cls-5{fill:url(#未命名的渐变_120);}.cls-6{fill:url(#未命名的渐变_178);}.cls-7{fill:url(#未命名的渐变_184);}.cls-8{fill:url(#未命名的渐变_120-2);}.cls-9{fill:url(#未命名的渐变_171);}.cls-10{fill:url(#未命名的渐变_171-2);}.cls-11{fill:url(#未命名的渐变_171-3);}.cls-12{fill:url(#未命名的渐变_171-4);}.cls-13{fill:url(#未命名的渐变_171-5);}</style><linearGradient id="未命名的渐变_137" x1="248.44" y1="311.12" x2="248.44" y2="51.41" gradientUnits="userSpaceOnUse"><stop offset="0" stop-color="#e1aa09"/><stop offset="1" stop-color="#e2ac09" stop-opacity="0"/></linearGradient><linearGradient id="未命名的渐变_143" x1="248.44" y1="291.12" x2="248.44" y2="71.41" gradientUnits="userSpaceOnUse"><stop offset="0" stop-color="#ff8a15"/><stop offset="1" stop-color="#f79015" stop-opacity="0"/></linearGradient><linearGradient id="未命名的渐变_147" x1="248.44" y1="159.08" x2="248.44" gradientUnits="userSpaceOnUse"><stop offset="0" stop-color="#ffe800"/><stop offset="1" stop-color="#ff6700"/></linearGradient><linearGradient id="未命名的渐变_175" x1="54.64" y1="260.55" x2="463.68" y2="260.55" gradientUnits="userSpaceOnUse"><stop offset="0" stop-color="#fff"/><stop offset="1" stop-color="#e8bb06"/></linearGradient><linearGradient id="未命名的渐变_120" y1="267.38" x2="364.16" y2="267.38" gradientUnits="userSpaceOnUse"><stop offset="0" stop-color="#e8bb06"/><stop offset="1" stop-color="#d1d1d4"/></linearGradient><linearGradient id="未命名的渐变_178" x1="259.16" y1="158.16" x2="259.16" y2="239.42" gradientUnits="userSpaceOnUse"><stop offset="0" stop-color="#e8bb06"/><stop offset="1" stop-color="#fff"/></linearGradient><linearGradient id="未命名的渐变_184" x1="69.13" y1="185.92" x2="288.91" y2="185.92" gradientUnits="userSpaceOnUse"><stop offset="0" stop-color="#fff"/><stop offset="0.35" stop-color="#e8bb06"/></linearGradient><linearGradient id="未命名的渐变_120-2" x1="430.81" y1="141.81" x2="196.4" y2="141.81" xlink:href="#未命名的渐变_120"/><radialGradient id="未命名的渐变_171" cx="88.33" cy="113.12" r="6.23" gradientUnits="userSpaceOnUse"><stop offset="0" stop-color="#f48d16"/><stop offset="1" stop-color="#ffe800"/></radialGradient><radialGradient id="未命名的渐变_171-2" cx="167.44" cy="143.95" r="6.23" xlink:href="#未命名的渐变_171"/><radialGradient id="未命名的渐变_171-3" cx="98.44" cy="209.12" r="6.23" xlink:href="#未命名的渐变_171"/><radialGradient id="未命名的渐变_171-4" cx="309.44" cy="258.71" r="6.23" xlink:href="#未命名的渐变_171"/><radialGradient id="未命名的渐变_171-5" cx="444.97" cy="165.31" r="6.23" xlink:href="#未命名的渐变_171"/></defs><g id="图层_2" data-name="图层 2"><g id="图层_1-2" data-name="图层 1"><path class="cls-1" d="M71.39,51.41l48.7,247.14s117.8,27.84,253.63.66L425.5,51.41Z"/><path class="cls-2" d="M249.56,291.12a662.55,662.55,0,0,1-101.49-7.75A15.61,15.61,0,0,1,135.18,271L95.86,71.41H401L359.21,271.57a15.58,15.58,0,0,1-12.81,12.22,628,628,0,0,1-96.83,7.33Z"/><path class="cls-3" d="M229.73,128h-41V109.74h41V97h-41V78.69h33.18L172.52,0h44.66l16.16,35.73c8.09,17.65,10,22.33,15.1,33.6h1.28c5.32-11.27,7.66-16.8,15.1-33.6L280.56,0h43.81L275,78.69h33.18V97H267.58v12.76h40.63V128H267.58v31.05H229.73Z"/><path class="cls-4" d="M259.16,314.38c-53.82,0-104.47-5.2-142.62-14.64-28.24-7-61.9-19.46-61.9-39.19s33.66-32.21,61.9-39.2c38.15-9.44,88.8-14.64,142.62-14.64s104.47,5.2,142.62,14.64c28.24,7,61.9,19.46,61.9,39.2s-33.66,32.21-61.9,39.19C363.63,309.18,313,314.38,259.16,314.38Zm0-99.08c-115.47,0-195.94,23.84-195.94,45.25s80.47,45.25,195.94,45.25S455.1,282,455.1,260.55,374.63,215.3,259.16,215.3Z"/><path class="cls-5" d="M359.52,337.09A487.31,487.31,0,0,1,296.42,349a608.55,608.55,0,0,1-64.16,4.56c-42.9.73-86.11-2.53-128.29-12.36-10.53-2.52-21-5.49-31.27-9a214.41,214.41,0,0,1-30.22-12.9,140.51,140.51,0,0,1-14.27-8.66,91.76,91.76,0,0,1-13.12-10.9A58.46,58.46,0,0,1,4.54,285.45a38.17,38.17,0,0,1,0-36.11,58.23,58.23,0,0,1,10.54-14.27A91.18,91.18,0,0,1,28.2,224.16a137,137,0,0,1,14.27-8.66,210.53,210.53,0,0,1,30.22-12.91c10.3-3.56,20.74-6.52,31.27-9,42.18-9.86,85.4-13.1,128.3-12.37a605.9,605.9,0,0,1,64.16,4.57,487.34,487.34,0,0,1,63.1,11.94h0C318,188,274.75,186.39,232.26,187.12a603.9,603.9,0,0,0-63.52,4.54,482.72,482.72,0,0,0-62.31,11.78c-20.35,5.35-40.37,12.28-58.54,22.11-9,4.93-17.55,10.73-24.44,17.72A46.82,46.82,0,0,0,15,254.67a26.79,26.79,0,0,0,0,25.45,46.84,46.84,0,0,0,8.42,11.41c6.87,7,15.41,12.79,24.44,17.72A217.41,217.41,0,0,0,76.34,322c9.82,3.62,19.89,6.71,30.09,9.37a478.92,478.92,0,0,0,62.3,11.8,530.77,530.77,0,0,0,63.53,4.53C275.14,347.9,359.52,337.09,359.52,337.09Z"/><path class="cls-6" d="M460.72,236.09a7.28,7.28,0,0,0,1.11-.88c.34-.28.67-.57,1-.87a73.5,73.5,0,0,0,8.09-8.46c2.23-2.82,4.86-6.3,5.35-9.95.67-5-2.46-9.64-6-12.81a55.71,55.71,0,0,0-11.64-7.56,157,157,0,0,0-26.81-10c-18.5-5.26-37.6-8.56-56.75-11.21s-38.47-4.29-57.8-5.46-38.71-1.69-58.08-1.66-38.76.46-58.09,1.65-38.64,2.81-57.8,5.45S105,180.32,86.51,185.58a155.37,155.37,0,0,0-26.81,10,55.13,55.13,0,0,0-11.65,7.56c-3.94,3.48-6.52,8.05-6.2,13.43a11,11,0,0,0,2.51,6.29,60.21,60.21,0,0,0,4.73,5.59q1.27,1.34,2.61,2.58l1.2,1.11c.25.22,1.1,1.24,1.41,1.24.77.67,1.56,1.33,2.35,2a6,6,0,0,0,.92.75A59.11,59.11,0,0,1,45,227.82a27,27,0,0,1-5.12-6,15.15,15.15,0,0,1-.19-16.13,27.16,27.16,0,0,1,5-6.24,59.93,59.93,0,0,1,12.5-8.72,157.88,157.88,0,0,1,27.52-11.22c9.41-3,18.94-5.37,28.53-7.48s19.23-3.91,28.92-5.39q29.06-4.45,58.37-6.45c19.53-1.32,39.09-1.94,58.65-2s39.12.69,58.65,2,39,3.47,58.37,6.44q14.54,2.22,28.92,5.38c9.59,2.11,19.13,4.53,28.53,7.49a157.61,157.61,0,0,1,27.53,11.21,60,60,0,0,1,12.5,8.74,27.2,27.2,0,0,1,5,6.24,15.17,15.17,0,0,1-.2,16.16,27.17,27.17,0,0,1-5.12,6A59.47,59.47,0,0,1,460.72,236.09Z"/><path class="cls-7" d="M350.16,229.29a476.47,476.47,0,0,1-48.61,7.31q-24.48,2.46-49.13,2.88c-32.82.52-65.8-1.33-98.33-7.21-8.12-1.5-16.2-3.28-24.22-5.41a201.59,201.59,0,0,1-23.76-7.78A104.23,104.23,0,0,1,83.64,207,44.78,44.78,0,0,1,74,197.57a27,27,0,0,1-3.47-6.35,20.64,20.64,0,0,1,0-14.92A27.18,27.18,0,0,1,74,170a44.82,44.82,0,0,1,9.65-9.43c22.28-16.4,51.75-22.65,78.74-25.63,29.9-3.3,60-2.09,90-2.62q-24.46.43-48.77,2.86a471.17,471.17,0,0,0-48.16,7.26c-15.85,3.26-31.54,7.5-46.3,13.57a96.25,96.25,0,0,0-20.59,11.2,36.82,36.82,0,0,0-7.82,7.68,14,14,0,0,0,0,17.85,36.59,36.59,0,0,0,7.82,7.68,95.82,95.82,0,0,0,20.59,11.2c14.75,6.1,30.44,10.32,46.29,13.59a471.17,471.17,0,0,0,48.16,7.26q24.29,2.45,48.78,2.86C285,235.81,318,235.11,350.16,229.29Z"/><path class="cls-8" d="M345.16,94.41a194.35,194.35,0,0,1,40.52,8,129,129,0,0,1,27.48,12.38c.77.47,1.53,1,2.29,1.46a46.13,46.13,0,0,1,10,8.75,25.56,25.56,0,0,1,3.78,6.13,19,19,0,0,1,1.58,7.48,19.39,19.39,0,0,1-1.59,7.48,25.59,25.59,0,0,1-3.77,6.12,45.64,45.64,0,0,1-10,8.75,110.56,110.56,0,0,1-22.62,11,216.2,216.2,0,0,1-23.68,7.08c-8,1.94-16,3.55-24.07,4.92-32.26,5.33-64.9,7-97.4,6.49q-24.37-.42-48.66-2.67l48.66-1.38q24.24-.42,48.35-2.66c16.06-1.48,32-3.66,47.82-6.66s31.41-6.85,46.23-12.45A103,103,0,0,0,411,154.35a37.93,37.93,0,0,0,8.21-7.22,13.73,13.73,0,0,0,3.49-8.52,13.88,13.88,0,0,0-3.49-8.51,37.93,37.93,0,0,0-8.21-7.22c-10.36-7-22.36-11.07-34.21-14.74a289.19,289.19,0,0,0-37.85-9c-14.26-2.38-28.59-3.76-42.9-5.7,4,.37,8.36-.35,12.36-.39A339.41,339.41,0,0,1,345.16,94.41Z"/><circle class="cls-9" cx="88.33" cy="113.12" r="6.23"/><circle class="cls-10" cx="167.44" cy="143.95" r="6.23"/><circle class="cls-11" cx="98.44" cy="209.12" r="6.23"/><circle class="cls-12" cx="309.44" cy="258.71" r="6.23"/><circle class="cls-13" cx="444.97" cy="165.31" r="6.23"/></g></g></svg>