<svg xmlns="http://www.w3.org/2000/svg" xmlns:xlink="http://www.w3.org/1999/xlink" width="8.651611328125"
	height="11.9937744140625" viewBox="0 0 8.651611328125 11.9937744140625">
	<path fill="currentColor"
		d="M4.33085 0C4.25085 0 4.18085 0.03 4.14085 0.09L0.0608545 4.75C0.000854492 4.82 -0.0191455 4.93 0.0208545 5.02C0.0608545 5.11 0.150854 5.17 0.260854 5.17L2.45085 5.17C2.59085 5.17 2.71085 5.29 2.71085 5.43C2.71085 6.24 2.66085 7.06 2.56085 7.86C2.29085 9.85 1.33085 10.96 0.590854 11.54C0.500854 11.61 0.470854 11.74 0.520854 11.84C0.570854 11.95 0.690854 12.01 0.800855 11.99C5.09085 11.28 5.99085 6.48 6.14085 5.39C6.16085 5.27 6.27085 5.17 6.40085 5.17L8.40085 5.17C8.50085 5.17 8.59085 5.11 8.63085 5.02C8.67085 4.93 8.65085 4.83 8.59085 4.75L4.52085 0.09C4.47085 0.03 4.40085 0 4.33085 0Z" />
</svg>
