<svg xmlns="http://www.w3.org/2000/svg" xmlns:xlink="http://www.w3.org/1999/xlink" width="26.4300537109375"
	height="18.802490234375" viewBox="0 0 26.4300537109375 18.802490234375" fill="none">
	<path fill-rule="evenodd" style="fill:#01BEFF" opacity="1"
		d="M20.98,7.81244c3.01,0 5.45,2.45996 5.45,5.48996c0,3.04 -2.44,5.5 -5.45,5.5c-3.01,0 -5.45,-2.46 -5.45,-5.5c0,-3.03 2.44,-5.48996 5.45,-5.48996zM13.42,0.17244c1.1,0.22 2.2,0.4 3.24,0.68c0.77,0.2 1.38,0.77 1.63,1.52c0.45,1.26 0.92,2.5 1.41,3.73c0.09,0.21 0.36,0.52 0.51,0.49c0.16,-0.02 0.32,-0.03 0.48,-0.01h0.07c-3.67,0 -6.65,3 -6.65,6.69996c0,0.7 0.1,1.36 0.3,1.99h-8.63c-0.21,0.74 -0.33,1.99 -0.57,2.08c-1.2,0.21 -2.42,0.21 -3.62,0c-0.25,-0.34 -0.39,-0.74 -0.39,-1.16c-0.07,-0.88 -0.07,-1.71 -0.07,-2.56c0,-1.59 0,-3.17 0.07,-4.76996l-1.17,-0.31c-0.04,-0.17 -0.04,-0.36 0,-0.53c0.33,-0.88 0.77,-1.56 1.91,-1.46c0.13,0 0.38,-0.26 0.46,-0.46c0.42,-0.97 0.79,-1.97 1.11,-2.98c0.41,-1.5 1.74,-2.58 3.3,-2.71c0.61,-0.1 1.24,-0.18 1.84,-0.28l0.04,0.04c1.56,-0.23 3.16,-0.23 4.73,0zM19.2,11.3324l0.04,0.05l0.96,0.94h-0.58h-0.04c-0.23,0.02 -0.41,0.22 -0.4,0.45c0.01,0.21 0.17,0.38 0.39,0.41h0.05h0.93v0.48h-0.93l-0.04,0.01c-0.23,0.02 -0.41,0.21 -0.4,0.45c0.01,0.21 0.17,0.38 0.39,0.4l0.05,0.01h0.93v0.91v0.04c0.03,0.23 0.23,0.4 0.46,0.39c0.21,-0.01 0.39,-0.17 0.42,-0.38v-0.05v-0.91h0.94l0.04,-0.01c0.23,-0.01 0.4,-0.21 0.39,-0.44c-0.01,-0.22 -0.17,-0.39 -0.38,-0.41l-0.05,-0.01h-0.94v-0.48h0.94h0.04c0.23,-0.02 0.4,-0.22 0.39,-0.45c-0.01,-0.21 -0.17,-0.39 -0.38,-0.41h-0.05h-0.59l0.95,-0.93l0.03,-0.03c0.15,-0.18 0.13,-0.44 -0.05,-0.6c-0.15,-0.14 -0.39,-0.15 -0.56,-0.02l-0.04,0.04l-1.12,1.09l-1.12,-1.1l-0.04,-0.03c-0.17,-0.14 -0.43,-0.13 -0.59,0.03v0c-0.15,0.15 -0.17,0.39 -0.04,0.56zM3.08,11.8924c0.56,0.11 1.1,0.13 1.72,0.18l-0.05,0.03c0.39,0.02 0.79,0 1.18,-0.07c0.3,-0.07 0.56,-0.26 0.71,-0.54c0.06,-0.16 -0.2,-0.56 -0.42,-0.66c-0.89,-0.42 -1.82,-0.79 -2.75,-1.09996c-0.47,-0.15 -1,-0.12 -1.11,0.52996v0c-0.22,0.95 0,1.47 0.72,1.63zM6.24,2.23244c-0.33,0.06 -0.62,0.26 -0.81,0.55c-0.62,1.32 -1.08,2.69 -1.62,4.15c4.76,1 9.67,1 14.43,0c-0.41,-1.21 -0.81,-2.29 -1.1,-3.39c-0.18,-0.86 -0.95,-1.47 -1.83,-1.45c-2.29,-0.1 -4.58,-0.18 -6.87,-0.2v0c-0.74,0.03 -1.48,0.14 -2.2,0.34z">
	</path>
</svg>
