<svg xmlns="http://www.w3.org/2000/svg" xmlns:xlink="http://www.w3.org/1999/xlink" width="19.377685546875" height="20"
	viewBox="0 0 19.377685546875 20" fill="none">
	<path fill-rule="evenodd" style="fill:#FFBF26" opacity="1"
		d="M16.27,12.5h2.48c0.24,0 0.46,0.14 0.57,0.36c0.1,0.22 0.07,0.48 -0.09,0.66l-5.14,6.25c-0.12,0.15 -0.3,0.23 -0.49,0.23h-0.16c-0.11,0 -0.22,-0.05 -0.28,-0.14c-0.07,-0.09 -0.09,-0.2 -0.06,-0.3l1.31,-4.56h-1.81c-0.2,0 -0.39,-0.1 -0.51,-0.26c-0.11,-0.16 -0.15,-0.37 -0.08,-0.56l2.06,-6.25c0.08,-0.26 0.32,-0.43 0.59,-0.43h2.39c0.2,0 0.39,0.1 0.51,0.26c0.11,0.16 0.15,0.37 0.08,0.56zM12.14,18.75h-10.89c-0.69,0 -1.25,-0.56 -1.25,-1.25v-16.25c0,-0.69 0.56,-1.25 1.25,-1.25h15c0.69,0 1.25,0.56 1.25,1.25v5h-3.17c-0.53,0 -1.01,0.34 -1.18,0.84l-2.58,7.5c-0.13,0.39 -0.07,0.81 0.16,1.14c0.24,0.32 0.62,0.52 1.02,0.52h1.16l-0.77,2.5zM2.78,4.76c0,0.4 0.32,0.72 0.71,0.72h6.34c0.39,0 0.7,-0.32 0.7,-0.72c0,-0.4 -0.31,-0.73 -0.7,-0.73h-6.34v0c-0.39,0 -0.71,0.33 -0.71,0.73zM2.78,9.34c0,0.4 0.28,0.72 0.63,0.72h3.75c0.34,0 0.62,-0.32 0.62,-0.72c0,-0.41 -0.28,-0.73 -0.62,-0.73h-3.75c-0.35,0 -0.63,0.32 -0.63,0.73z">
	</path>
</svg>
