<svg xmlns="http://www.w3.org/2000/svg" xmlns:xlink="http://www.w3.org/1999/xlink" width="19.89990234375"
	height="22.699951171875" viewBox="0 0 19.89990234375 22.699951171875" fill="none">
	<path fill-rule="evenodd" style="fill:#00C068" opacity="1"
		d="M10.41,0.12l9.04,5.22c0.28,0.16 0.45,0.46 0.45,0.79v10.44c0,0.33 -0.17,0.63 -0.45,0.79l-9.04,5.22c-0.29,0.16 -0.63,0.16 -0.91,0l-9.05,-5.22c-0.28,-0.16 -0.45,-0.46 -0.45,-0.79v-10.44c0,-0.33 0.17,-0.63 0.45,-0.79l9.05,-5.22c0.28,-0.16 0.62,-0.16 0.91,0zM10.3,7.17l-3.62,4.44c-0.13,0.15 -0.15,0.37 -0.05,0.55c0.1,0.19 0.29,0.3 0.5,0.29h1.48v2.67c0,0.24 0.16,0.44 0.39,0.5c0.05,0.02 0.11,0.03 0.17,0.03c0.18,0 0.35,-0.08 0.46,-0.21l3.58,-4.52c0.13,-0.16 0.15,-0.37 0.05,-0.55c-0.1,-0.18 -0.29,-0.29 -0.51,-0.29h-1.74l0.3,-2.53c0.03,-0.24 -0.11,-0.46 -0.35,-0.55c-0.24,-0.09 -0.5,-0.02 -0.66,0.17z">
	</path>
</svg>
