<svg xmlns="http://www.w3.org/2000/svg" xmlns:xlink="http://www.w3.org/1999/xlink" width="10" height="12" viewBox="0 0 10 12" fill="none"><g opacity="1" transform="translate(0 0)  rotate(0 5.000000000000001 6)"><path id="定位" fill-rule="evenodd" style="fill:#0090FF" transform="translate(0 0)  rotate(0 5.000000000000001 6)" opacity="1" d="M0 4.8C0 9 5 12 5 12C5 12 10 9 10 4.8C10 2.15 7.76 0 5 0C2.24 0 0 2.15 0 4.8ZM6.875 4.8C6.875 3.81 6.035 3 5.005 3C3.965 3 3.125 3.81 3.125 4.8C3.125 5.79 3.965 6.6 5.005 6.6C6.035 6.6 6.875 5.79 6.875 4.8Z " /></g></svg>