<svg xmlns="http://www.w3.org/2000/svg" xmlns:xlink="http://www.w3.org/1999/xlink" width="32" height="32" viewBox="0 0 32 32" fill="none"><path id="分组 1" fill-rule="evenodd" style="fill:#457DFF" transform="translate(0 0)  rotate(0 16.000000000000014 16)" opacity="1" d="M5.39 20.24C5.38 19.99 5.4 19.74 5.45 19.49C5.58 18.85 5.85 18.12 6.55 17.43C8.08 15.93 10.13 15.85 11.2 15.86C12.77 15.87 15.51 16.56 17.81 17.37C18.45 16.01 18.86 14.56 19.12 13.59L9.54 13.59L9.54 12.55L14.46 12.55L14.46 10.48L8.5 10.48L8.5 9.44L14.46 9.44L14.46 7.37C14.46 7.09 14.52 6.85 14.98 6.85L17.31 6.85L17.31 9.44L23.79 9.44L23.79 10.48L17.31 10.48L17.31 12.55L22.5 12.55C22.5 12.55 21.97 15.45 20.35 18.31C23.96 19.6 29.04 21.59 30.73 22.25C31.57 20.28 32 18.15 32 16C32 7.18 24.82 0 16 0C7.18 0 0 7.18 0 16C0 24.82 7.18 32 16 32C21.32 32 26.05 29.39 28.96 25.37C26.21 24 21.67 21.75 18.88 20.39C17.55 21.91 15.58 23.44 13.36 24.1C11.96 24.51 10.7 24.67 9.38 24.4C8.08 24.13 7.12 23.52 6.56 22.91C6.27 22.6 5.94 22.2 5.71 21.73C5.73 21.79 5.74 21.82 5.74 21.82C5.74 21.82 5.61 21.59 5.5 21.21C5.45 21.03 5.41 20.84 5.4 20.65C5.39 20.51 5.39 20.38 5.39 20.24Z M7.19874 18.013C6.81874 18.313 6.41874 18.763 6.29874 19.323C6.13874 20.093 6.26874 21.063 7.00874 21.813C7.90874 22.733 9.27874 22.983 9.86874 23.033C11.4787 23.143 13.1887 22.353 14.4787 21.443C14.9887 21.083 15.8487 20.363 16.6787 19.263C14.8287 18.303 12.5087 17.243 10.0287 17.353C8.76874 17.403 7.85874 17.663 7.19874 18.013Z " /></svg>