<svg xmlns="http://www.w3.org/2000/svg" xmlns:xlink="http://www.w3.org/1999/xlink" width="359" height="180" viewBox="0 0 359 180" fill="none"><defs><path id="path_0"
        transform="translate(0 0) rotate(0 179.5 90)"
        d="M4,180L355,180C357.21,180 359,178.21 359,176L359,4C359,1.79 357.21,0 355,0L4,0C1.79,0 0,1.79 0,4L0,176C0,178.21 1.79,180 4,180Z" /><linearGradient id="linear_0" x1="2.294%" y1="3.261%" x2="96.86099999999999%" y2="94.559%" gradientUnits="objectBoundingBox"><stop offset="0" stop-color="#E0EAFF" stop-opacity="1" /><stop offset="1" stop-color="#FFFFFF" stop-opacity="0.01" /></linearGradient><filter id="filter_2" x="-10" y="-10" width="379" height="200" filterUnits="userSpaceOnUse" color-interpolation-filters="sRGB"><feFlood flood-opacity="0" result="BackgroundImageFix"/>
          <feColorMatrix in="SourceAlpha" type="matrix" values="0 0 0 0 0 0 0 0 0 0 0 0 0 0 0 0 0 0 127 0"/>
          <feOffset dx="4" dy="4"/>
          <feGaussianBlur stdDeviation="5"/>
          <feColorMatrix type="matrix" values="0 0 0 0 0.8705882352941177 0 0 0 0 0.9098039215686274 0 0 0 0 1 0 0 0 0.5 0"/>
          <feBlend mode="normal" in2="BackgroundImageFix" result="effect1_Shadow"/>
          <feBlend mode="normal" in="SourceGraphic" in2="effect1_Shadow" result="shape"/></filter><rect id="path_1" x="0" y="0" width="192" height="191.99999999999983" /></defs><g opacity="1" transform="translate(0 0)  rotate(0 179.5 90)"><mask id="mask-0" fill="white"><use xlink:href="#path_0"></use></mask><g mask="url(#mask-0)"><g id="矩形 1" filter="url(#filter_2)"><path id="矩形 1" fill-rule="evenodd" fill="url(#linear_0)" transform="translate(0 0)  rotate(0 179.5 90)" opacity="1" d="M4,180L355,180C357.21,180 359,178.21 359,176L359,4C359,1.79 357.21,0 355,0L4,0C1.79,0 0,1.79 0,4L0,176C0,178.21 1.79,180 4,180Z " /></g></g><g mask="url(#mask-0)"><g opacity="0.2" transform="translate(189.57550765359338 -26.424492346406623)  rotate(-15 96 95.99999999999991)"><mask id="bg-mask-1" fill="white"><use xlink:href="#path_1"></use></mask><g mask="url(#bg-mask-1)" ><path id="分组 1" fill-rule="evenodd" style="fill:#457DFF" transform="translate(0 0)  rotate(0 96 95.99999999999991)" opacity="1" d="M57.24 75.3L86.79 75.3L86.79 62.87L51.02 62.87L51.02 56.66L86.79 56.66L86.79 44.23C86.79 42.51 87.13 41.12 89.89 41.12L103.89 41.12L103.89 56.66L142.76 56.66L142.76 62.87L103.89 62.87L103.89 75.3L134.98 75.3C134.98 75.3 131.85 92.7 122.1 109.86C143.74 117.62 174.24 129.54 184.37 133.52C189.43 121.65 192.02 108.9 192 96C192 43.07 148.93 0 96 0C43.07 0 0 43.07 0 96C0 148.93 43.07 192 96 192C127.95 192 156.28 176.31 173.74 152.23C157.24 144.02 130.05 130.52 113.29 122.36C105.3 131.46 93.49 140.61 80.14 144.58C71.76 147.06 64.2 148.03 56.29 146.4C48.47 144.79 42.71 141.13 39.34 137.46C37.63 135.6 35.66 133.2 34.24 130.37C34.37 130.74 34.46 130.95 34.46 130.95C34.46 130.95 33.64 129.54 33.02 127.29C32.7 126.17 32.49 125.04 32.4 123.88C32.34 123.06 32.31 122.25 32.36 121.44C32.27 119.91 32.38 118.41 32.68 116.91C33.47 113.12 35.08 108.71 39.28 104.59C48.47 95.59 60.79 95.1 67.18 95.14C76.63 95.21 93.06 99.34 106.89 104.23C110.72 96.06 113.19 87.34 114.75 81.51L57.24 81.51L57.24 75.3Z M43.2025 108.088C40.9325 109.908 38.5025 112.568 37.8025 115.948C36.8325 120.578 37.6025 126.368 42.0625 130.908C47.4625 136.418 55.6925 137.918 59.2325 138.168C68.8725 138.878 79.1325 134.098 86.8725 128.638C89.9125 126.498 95.1025 122.188 100.072 115.568C88.9525 109.848 75.0625 103.478 60.1925 104.098C52.6025 104.418 47.1625 105.988 43.2025 108.088Z " /></g></g></g></g></svg>