<svg xmlns="http://www.w3.org/2000/svg" xmlns:xlink="http://www.w3.org/1999/xlink" viewBox="0 0 66 66"><defs><style>.cls-1,.cls-5{fill:#fff;}.cls-2{mask:url(#mask);}.cls-3{fill:#457dff;}.cls-3,.cls-5{fill-rule:evenodd;}.cls-4{mask:url(#mask-2);}</style><mask id="mask" x="0" y="0" width="66" height="66" maskUnits="userSpaceOnUse"><g id="bg-mask-0"><rect id="path_0" data-name="path 0" class="cls-1" width="66" height="66"/></g></mask><mask id="mask-2" x="11" y="17" width="47.71" height="42" maskUnits="userSpaceOnUse"><g id="bg-mask-1"><rect id="path_1" data-name="path 1" class="cls-1" x="11" y="17" width="47" height="42"/></g></mask></defs><g id="图层_2" data-name="图层 2"><g id="图层_1-2" data-name="图层 1"><g class="cls-2"><path id="路径_1" data-name="路径 1" class="cls-3" d="M33,0A33,33,0,1,0,66,33,33,33,0,0,0,33,0Z"/></g><g class="cls-4"><path id="分组_1" data-name="分组 1" class="cls-5" d="M51.57,40.48s2.62-.3,5.56-.79.87-2.94.87-2.94L45.83,21.11c-2-2.06-5.8-2.55-5.8-2.55L19.77,17c-3.26,5.45-1,12.46-1,12.46l10,.81,11.8,15.37a2.36,2.36,0,0,0,1.74-.29,25.85,25.85,0,0,0,5.52-4.23,1.31,1.31,0,0,0-.13-1.74A4.4,4.4,0,0,0,51.57,40.48Zm1.72-3.1h0c.53-.42.18-.82.18-.82l-9.37-11.1-6-.6s6.25,8.42,6.46,8.53a10.17,10.17,0,0,0,1.07.35.49.49,0,0,1,.24.14s2.62,3,3.08,3.5.88.38.88.38Z"/><path id="路径_3" data-name="路径 3" class="cls-5" d="M11.13,22c-.52,5.09.72,5.76.72,5.76l8.3.56,1-9.6-8.8-.49C11.55,18.55,11.13,22,11.13,22Z"/><path id="路径_4" data-name="路径 4" class="cls-5" d="M42.11,42.79l11.63,16a.34.34,0,0,0,.47.07l2.38-1.73a.35.35,0,0,0,.08-.47L45,40.66l-2.91,2.13Z"/></g></g></g></svg>