<svg xmlns="http://www.w3.org/2000/svg" xmlns:xlink="http://www.w3.org/1999/xlink" viewBox="0 0 66 66"><defs><style>.cls-1,.cls-5{fill:#fff;}.cls-2{mask:url(#mask);}.cls-3{fill:#457dff;}.cls-3,.cls-5{fill-rule:evenodd;}.cls-4{mask:url(#mask-2);}</style><mask id="mask" x="0" y="0" width="66" height="66" maskUnits="userSpaceOnUse"><g id="bg-mask-0"><rect id="path_0" data-name="path 0" class="cls-1" width="66" height="66"/></g></mask><mask id="mask-2" x="18" y="12" width="30" height="40.8" maskUnits="userSpaceOnUse"><g id="bg-mask-1"><rect id="path_1" data-name="path 1" class="cls-1" x="18" y="12" width="30" height="40.8"/></g></mask></defs><g id="图层_2" data-name="图层 2"><g id="图层_1-2" data-name="图层 1"><g class="cls-2"><path id="路径_1" data-name="路径 1" class="cls-3" d="M33,0A33,33,0,1,0,66,33,33,33,0,0,0,33,0Z"/><g class="cls-4"><path id="分组_1" data-name="分组 1" class="cls-5" d="M20,48.91a1.95,1.95,0,1,0,0,3.89h26.1a2,2,0,0,0,1.38-.57,1.94,1.94,0,0,0-1.38-3.32ZM22.88,12A1.87,1.87,0,0,0,21,13.87V47H45V13.87A1.88,1.88,0,0,0,43.13,12ZM34.16,35.67,37,29.48l-7.82,6.6,2.67.8L29,43.08l7.82-6.6ZM41,15.89H25V25.6H41Z"/></g></g></g></g></svg>