<svg xmlns="http://www.w3.org/2000/svg" xmlns:xlink="http://www.w3.org/1999/xlink" width="359" height="180" viewBox="0 0 359 180" fill="none"><defs><path id="path_0"
        transform="translate(0 0) rotate(0 179.5 90)"
        d="M4,180L355,180C357.21,180 359,178.21 359,176L359,4C359,1.79 357.21,0 355,0L4,0C1.79,0 0,1.79 0,4L0,176C0,178.21 1.79,180 4,180Z" /><linearGradient id="linear_0" x1="2.294%" y1="3.261%" x2="96.86099999999999%" y2="94.559%" gradientUnits="objectBoundingBox"><stop offset="0" stop-color="#F0EBFF" stop-opacity="1" /><stop offset="1" stop-color="#FFFFFF" stop-opacity="0.01" /></linearGradient><filter id="filter_2" x="-10" y="-10" width="379" height="200" filterUnits="userSpaceOnUse" color-interpolation-filters="sRGB"><feFlood flood-opacity="0" result="BackgroundImageFix"/>
          <feColorMatrix in="SourceAlpha" type="matrix" values="0 0 0 0 0 0 0 0 0 0 0 0 0 0 0 0 0 0 127 0"/>
          <feOffset dx="4" dy="4"/>
          <feGaussianBlur stdDeviation="5"/>
          <feColorMatrix type="matrix" values="0 0 0 0 0.8705882352941177 0 0 0 0 0.9098039215686274 0 0 0 0 1 0 0 0 0.5 0"/>
          <feBlend mode="normal" in2="BackgroundImageFix" result="effect1_Shadow"/>
          <feBlend mode="normal" in="SourceGraphic" in2="effect1_Shadow" result="shape"/></filter><rect id="path_1" x="0" y="0" width="193.66663934829282" height="176" /></defs><g opacity="1" transform="translate(0 0)  rotate(0 179.5 90)"><mask id="mask-0" fill="white"><use xlink:href="#path_0"></use></mask><g mask="url(#mask-0)"><g id="矩形 1" filter="url(#filter_2)"><path id="矩形 1" fill-rule="evenodd" fill="url(#linear_0)" transform="translate(0 0)  rotate(0 179.5 90)" opacity="1" d="M4,180L355,180C357.21,180 359,178.21 359,176L359,4C359,1.79 357.21,0 355,0L4,0C1.79,0 0,1.79 0,4L0,176C0,178.21 1.79,180 4,180Z " /></g></g><g mask="url(#mask-0)"><g opacity="0.2" transform="translate(199.8864265927978 -26)  rotate(-15 96.83331967414641 88)"><mask id="bg-mask-1" fill="white"><use xlink:href="#path_1"></use></mask><g mask="url(#bg-mask-1)" ><path id="分组 1" fill-rule="evenodd" style="fill:#8F65FF" transform="translate(0 46.2189910564962)  rotate(0 96.83331967414641 64.8905044717519)" opacity="1" d="M18.41 7.10543e-15C8.27 0.06 0.06 8.31 0 18.5L0 111.23C0.03 121.44 8.25 129.72 18.41 129.78L175.26 129.78C185.42 129.73 193.64 121.45 193.67 111.23L193.67 18.5C193.61 8.31 185.4 0.05 175.26 7.10543e-15L18.41 7.10543e-15Z M129.127 104.325C129.027 100.525 125.987 97.4647 122.197 97.3747L99.1471 97.3747C95.3571 97.4647 92.3171 100.525 92.2171 104.325C92.3171 108.125 95.3571 111.185 99.1471 111.285L122.197 111.285C125.987 111.185 129.027 108.125 129.127 104.325Z M168.35 111.285C172.14 111.185 175.18 108.125 175.28 104.325C175.18 100.525 172.14 97.4647 168.35 97.3747L145.27 97.3747C141.49 97.4647 138.44 100.525 138.35 104.325C138.44 108.125 141.49 111.185 145.27 111.285L168.33 111.285L168.35 111.285Z M168.357 32.4599C172.137 32.3599 175.187 29.2999 175.277 25.4999C175.187 21.6999 172.137 18.6399 168.357 18.5499L25.3266 18.5499C21.5466 18.6399 18.4966 21.6999 18.4066 25.4999C18.4966 29.2999 21.5466 32.3599 25.3266 32.4599L168.337 32.4599L168.357 32.4599Z " /><path id="路径 5" fill-rule="evenodd" style="fill:#C7B2FF" transform="translate(23.94797321139481 0)  rotate(0 68.0415007484735 23.10949552824804)" opacity="1" d="M16.6,10.51L0,46.22L136.08,46.22L41.06,1.7C31.82,-2.47 20.71,1.24 16.6,10.51Z " /></g></g></g></g></svg>