<svg xmlns="http://www.w3.org/2000/svg" xmlns:xlink="http://www.w3.org/1999/xlink" width="40" height="40" viewBox="0 0 40 40" fill="none"><defs><rect id="path_0" x="0" y="0" width="32" height="40" /></defs><g opacity="1" transform="translate(0 0)  rotate(0 20 20)"><path id="圆形 1" fill-rule="evenodd" style="fill:#457DFF" transform="translate(15 15)  rotate(0 12.5 12.5)" opacity="1" d="M12.5,0C5.6,0 0,5.6 0,12.5C0,19.4 5.6,25 12.5,25C19.4,25 25,19.4 25,12.5C25,5.6 19.4,0 12.5,0Z " /><g opacity="1" transform="translate(0 0)  rotate(0 16 20)"><g opacity="1" transform="translate(0 0)  rotate(0 16 20)"><mask id="bg-mask-0" fill="white"><use xlink:href="#path_0"></use></mask><g mask="url(#bg-mask-0)" ><path id="路径 1" fill-rule="evenodd" style="fill:#2B2F38" transform="translate(6.090485543911015 14.736729522767916)  rotate(0 3.955961382976139 6.647561079227704)" opacity="1" d="M6.67,5.15L3.76,5.15L6.21,1.99C6.62,1.44 6.52,0.67 5.98,0.25C5.72,0.05 5.39,-0.03 5.06,0.01C4.74,0.06 4.44,0.23 4.25,0.49L0.26,5.63C-0.03,6.01 -0.08,6.51 0.13,6.93C0.34,7.36 0.77,7.62 1.24,7.62L4.35,7.62L1.82,11.37C1.44,11.94 1.59,12.7 2.16,13.08C2.36,13.22 2.6,13.3 2.84,13.3C3.26,13.3 3.64,13.09 3.87,12.75L7.7,7.08C7.96,6.7 7.98,6.21 7.77,5.81C7.55,5.41 7.13,5.15 6.67,5.15Z " /><path id="分组 1" fill-rule="evenodd" style="fill:#2B2F38" transform="translate(0 0)  rotate(0 16 20)" opacity="1" d="M3.2 0C1.43 0 0 1.43 0 3.19L0 37.86C0 39.04 0.96 40 2.14 40L29.86 40C31.04 40 32 39.04 32 37.86L32 3.19C31.99 1.43 30.57 0 28.81 0L3.2 0Z M29.543 3.1883C29.543 2.7783 29.213 2.4483 28.803 2.4483L3.20299 2.4483C2.79299 2.4483 2.46299 2.7783 2.46299 3.1883L2.46299 36.6383C2.46299 37.1383 2.87299 37.5483 3.37299 37.5583L28.623 37.5583C28.873 37.5583 29.103 37.4583 29.273 37.2883C29.453 37.1083 29.543 36.8783 29.543 36.6383L29.543 3.1883Z " /><path id="分组 2" fill-rule="evenodd" style="fill:#2B2F38" transform="translate(17.405386999231155 5.371996742606498)  rotate(0 4.4365067055681955 3.570242384909527)" opacity="1" d="M8.51 0.36C8.28 0.13 7.97 0 7.64 0L1.23 0C0.55 0 3.55271e-15 0.55 3.55271e-15 1.23L3.55271e-15 5.91C3.55271e-15 6.24 0.13 6.55 0.36 6.78C0.59 7.01 0.9 7.14 1.23 7.14L7.64 7.14C7.97 7.14 8.28 7.01 8.51 6.78C8.74 6.55 8.87 6.24 8.87 5.91L8.87 1.23C8.87 0.9 8.74 0.59 8.51 0.36Z M6.41062 2.45543L2.46062 2.45543L2.46062 4.68543L6.41062 4.68543L6.41062 2.45543Z " /><path id="分组 3" fill-rule="evenodd" style="fill:#2B2F38" transform="translate(17.405386999231155 14.242926145981826)  rotate(0 4.4365067055681955 3.570242384909527)" opacity="1" d="M8.51 6.78C8.74 6.55 8.87 6.24 8.87 5.91L8.87 1.23C8.87 0.9 8.74 0.59 8.51 0.36C8.28 0.13 7.97 0 7.64 0L1.23 0C0.55 0 3.55271e-15 0.55 3.55271e-15 1.23L3.55271e-15 5.91C3.55271e-15 6.24 0.13 6.55 0.36 6.78C0.59 7.01 0.9 7.14 1.23 7.14L7.64 7.14C7.97 7.14 8.28 7.01 8.51 6.78Z M6.41062 2.45543L2.46062 2.45543L2.46062 4.68543L6.41062 4.68543L6.41062 2.45543Z " /><path id="分组 4" fill-rule="evenodd" style="fill:#2B2F38" transform="translate(17.405386999231155 23.016401113842605)  rotate(0 4.4365067055681955 3.5690527973423416)" opacity="1" d="M8.87 5.91L8.87 1.23C8.87 0.899998 8.74 0.589998 8.51 0.359998C8.28 0.129998 7.97 -2.1889e-06 7.64 -2.1889e-06L1.23 -2.1889e-06C0.55 -2.1889e-06 3.55271e-15 0.549998 3.55271e-15 1.23L3.55271e-15 5.91C3.55271e-15 6.23 0.13 6.55 0.36 6.78C0.59 7.01 0.9 7.14 1.23 7.14L7.64 7.14C7.97 7.14 8.28 7.01 8.51 6.78C8.74 6.55 8.87 6.24 8.87 5.91Z M6.41062 2.45543L2.46062 2.45543L2.46062 4.67543L6.41062 4.67543L6.41062 2.45543Z " /><path id="路径 10" fill-rule="evenodd" style="fill:#2B2F38" transform="translate(4.992705076670951 5.371999049203708)  rotate(0 5.053446479082988 1.228904207273592)" opacity="1" d="M8.88,2.46C9.55,2.46 10.11,1.91 10.11,1.23C10.11,0.55 9.56,0 8.88,0L1.23,0C0.55,0 0,0.55 0,1.23C0,1.91 0.55,2.46 1.23,2.46L8.88,2.46Z " /><path id="路径 11" fill-rule="evenodd" style="fill:#2B2F38" transform="translate(4.992705076670951 8.8233895887806)  rotate(0 5.053446479082988 1.2289042072735936)" opacity="1" d="M8.88,2.46C9.55,2.46 10.11,1.91 10.11,1.23C10.11,0.55 9.55,0 8.88,0L1.23,0C0.55,0 0,0.55 0,1.23C0,1.91 0.55,2.46 1.23,2.46L8.88,2.46Z " /></g></g></g></g></svg>