<svg xmlns="http://www.w3.org/2000/svg" xmlns:xlink="http://www.w3.org/1999/xlink" width="36" height="32" viewBox="0 0 36 32" fill="none"><defs><rect id="path_0" x="0" y="0" width="35.39305017174456" height="31.999999999999996" /></defs><g opacity="1" transform="translate(0 0)  rotate(0 17.69652508587228 15.999999999999998)"><mask id="bg-mask-0" fill="white"><use xlink:href="#path_0"></use></mask><g mask="url(#bg-mask-0)" ><path id="分组 1" fill-rule="evenodd" style="fill:#8F65FF" transform="translate(0 8.403452919362945)  rotate(0 17.69652508587228 11.798273540318526)" opacity="1" d="M3.36 0C1.51 0.01 0.01 1.51 0 3.36L0 20.22C0.01 22.08 1.51 23.59 3.36 23.6L32.03 23.6C33.89 23.59 35.39 22.08 35.39 20.22L35.39 3.36C35.38 1.51 33.88 0.01 32.03 0L3.36 0Z M23.6029 18.9645C23.5829 18.2745 23.0229 17.7245 22.3329 17.7045L18.1229 17.7045C17.4229 17.7245 16.8729 18.2745 16.8529 18.9645C16.8729 19.6645 17.4229 20.2145 18.1229 20.2345L22.3329 20.2345C23.0229 20.2145 23.5829 19.6645 23.6029 18.9645Z M30.7638 20.2345C31.4538 20.2145 32.0138 19.6645 32.0338 18.9645C32.0138 18.2745 31.4538 17.7245 30.7638 17.7045L26.5438 17.7045C25.8538 17.7245 25.3038 18.2745 25.2838 18.9645C25.3038 19.6645 25.8538 20.2145 26.5438 20.2345L30.7638 20.2345L30.7638 20.2345Z M30.7639 5.90271C31.4539 5.88271 32.0139 5.33271 32.0339 4.63271C32.0139 3.94271 31.4539 3.39271 30.7639 3.37271L4.62385 3.37271C3.93385 3.39271 3.38385 3.94271 3.36385 4.63271C3.38385 5.33271 3.93385 5.88271 4.62385 5.90271L30.7639 5.90271L30.7639 5.90271Z " /><path id="路径 5" fill-rule="evenodd" style="fill:#C7B2FF" transform="translate(4.376550448929775 0)  rotate(0 12.434750031576597 4.201726459681462)" opacity="1" d="M3.03,1.91L0,8.4L24.87,8.4L7.5,0.31C5.82,-0.45 3.79,0.23 3.03,1.91Z " /></g></g></svg>