<svg xmlns="http://www.w3.org/2000/svg" xmlns:xlink="http://www.w3.org/1999/xlink" width="66" height="66" viewBox="0 0 66 66" fill="none"><defs><rect id="path_0" x="0" y="0" width="66" height="65.99999999999999" /></defs><g opacity="1" transform="translate(0 0)  rotate(0 33 32.99999999999999)"><mask id="bg-mask-0" fill="white"><use xlink:href="#path_0"></use></mask><g mask="url(#bg-mask-0)" ><path id="璺緞_1" fill-rule="evenodd" style="fill:#457DFF" transform="translate(0 0)  rotate(0 33 32.99999999999999)" opacity="1" d="M0,33C0,51.21 14.79,66 33,66C51.21,66 66,51.21 66,33C66,14.79 51.21,0 33,0C14.79,0 0,14.79 0,33Z " /><path id="分组 1" fill-rule="evenodd" style="fill:#FFFFFF" transform="translate(15.5 15.999999999985207)  rotate(0 17.5 17.00000000000739)" opacity="1" d="M4.42 0C1.98 0 0.01 1.97 0 4.41L0 29.58C0 32.02 1.98 34 4.42 34L30.58 34C33.02 34 35 32.02 35 29.58L35 4.41C34.99 1.97 33.02 0 30.58 0L4.42 0Z M29.07 30.47C29.68 30.47 30.26 30.23 30.7 29.8C31.13 29.37 31.37 28.79 31.37 28.18L31.37 5.82C31.37 4.55 30.34 3.52 29.07 3.52L5.93 3.52C4.66 3.52 3.63 4.55 3.63 5.82L3.63 28.18C3.63 28.79 3.87 29.37 4.3 29.8C4.74 30.23 5.32 30.47 5.93 30.47L29.07 30.47Z " /><path id="分组 2" fill-rule="evenodd" style="fill:#FFFFFF" transform="translate(20.249999999999986 20.60000000000001)  rotate(0 12.76000000000002 12.400000000000006)" opacity="1" d="M1.76 0C0.79 0 0 0.79 0 1.76L0 23.04C0 24.01 0.79 24.8 1.76 24.8L23.76 24.8C24.73 24.8 25.52 24.01 25.52 23.04L25.52 1.76C25.52 0.79 24.73 0 23.76 0L1.76 0Z M5.40354 10.05C4.16354 10.13 3.19354 11.16 3.19354 12.41C3.19354 13.65 4.16354 14.68 5.40354 14.76L6.09354 14.76L6.09354 15.32L7.40354 15.32L7.40354 9.49L6.09354 9.49L6.09354 10.05L5.40354 10.05Z M19.41 14.76L20.09 14.76C21.33 14.68 22.3 13.65 22.3 12.41C22.3 11.16 21.33 10.13 20.09 10.05L19.41 10.05L19.41 9.49L18.09 9.49L18.09 15.32L19.41 15.32L19.41 14.76Z " /></g></g></svg>