<svg xmlns="http://www.w3.org/2000/svg" xmlns:xlink="http://www.w3.org/1999/xlink" width="45" height="40" viewBox="0 0 45 40" fill="none"><defs><rect id="path_0" x="0" y="0" width="45.000000000000014" height="40.00000000000001" /><rect id="path_1" x="0" y="0" width="45.000000000000014" height="40.00000000000001" /></defs><g opacity="1" transform="translate(0 0)  rotate(0 22.500000000000007 20.000000000000004)"><path id="圆形 1" fill-rule="evenodd" style="fill:#457DFF" transform="translate(15 15)  rotate(0 12.5 12.5)" opacity="1" d="M12.5,0C5.6,0 0,5.6 0,12.5C0,19.4 5.6,25 12.5,25C19.4,25 25,19.4 25,12.5C25,5.6 19.4,0 12.5,0Z " /><g opacity="1" transform="translate(0 0)  rotate(0 22.500000000000007 20.000000000000004)"><mask id="bg-mask-0" fill="white"><use xlink:href="#path_0"></use></mask><g mask="url(#bg-mask-0)" ><g opacity="1" transform="translate(0 0)  rotate(0 22.500000000000007 20.000000000000004)"><mask id="bg-mask-1" fill="white"><use xlink:href="#path_1"></use></mask><g mask="url(#bg-mask-1)" ><path id="分组 1" fill-rule="evenodd" style="fill:#2B2F38" transform="translate(0 5.3113715552737)  rotate(0 19.77211962852756 17.344314222363153)" opacity="1" d="M39.54 8.13C39.54 3.64 35.85 0.01 31.29 -1.33227e-14C27.42 0.02 24.07 2.67 23.23 6.4C23.2 6.55 23.2 6.7 23.22 6.84L5.14 6.84C3.97 6.84 2.98 7.67 2.8 8.81L0.03 25.99C-0.08 26.67 0.12 27.35 0.57 27.87C1.02 28.39 1.68 28.69 2.37 28.69L13.95 28.69L13.95 32.05L9.34 32.05C8.61 32.05 8.01 32.64 8.01 33.37C8.01 33.72 8.15 34.05 8.4 34.3C8.65 34.55 8.99 34.69 9.34 34.69L25.13 34.69C25.87 34.69 26.47 34.1 26.47 33.37C26.47 33.02 26.33 32.68 26.08 32.44C25.82 32.19 25.48 32.05 25.13 32.05L20.52 32.05L20.52 28.69L32.09 28.69C32.78 28.69 33.44 28.39 33.89 27.87C34.34 27.35 34.54 26.67 34.43 25.99L32.84 16.11C36.71 15.36 39.52 12.02 39.54 8.13Z M20.8018 26.0595L20.6018 22.0995L13.8718 22.0995L13.6718 26.0595L20.8018 26.0595Z M20.4712 19.4662L20.2912 16.0862L14.1812 16.0862L14.0112 19.4662L20.4712 19.4662Z M11.5038 16.0862L4.34384 16.0862L3.79384 19.4662L11.3338 19.4662L11.5038 16.0862Z M20.1597 13.45L19.9597 9.49002L14.5197 9.49002L14.3197 13.45L20.1597 13.45Z M23.1464 19.4662L30.6864 19.4662L30.1364 16.0862L22.9764 16.0862L23.1464 19.4662Z M29.7096 13.45L29.0696 9.49002L22.6396 9.49002L22.8396 13.45L29.7096 13.45Z M4.76569 13.45L11.6257 13.45L11.8357 9.49002L5.40569 9.49002L4.76569 13.45Z M2.732 26.0671L10.992 26.0671L11.192 22.1071L3.37199 22.1071L2.732 26.0671Z M17.8436 28.7007L16.6336 28.7007L16.6336 32.0607L17.8436 32.0607L17.8436 28.7007Z M31.7449 26.0671L31.1049 22.1071L23.2849 22.1071L23.4849 26.0671L31.7449 26.0671Z M32.4317 13.4981C35.0017 12.9581 36.8517 10.7281 36.8617 8.13808C36.8617 5.10808 34.3717 2.64808 31.2917 2.64808C28.7217 2.65808 26.4917 4.38808 25.8817 6.84808L29.3417 6.84808C30.5017 6.84808 31.5017 7.68808 31.6817 8.81808L32.4317 13.5081L32.4317 13.4981Z " /><path id="分组 2" fill-rule="evenodd" style="fill:#2B2F38" transform="translate(21.281811088952487 0)  rotate(0 11.859094455523762 11.6249608577072)" opacity="1" d="M16.384 19.5087C15.864 20.0187 15.864 20.8587 16.384 21.3687L17.904 22.8687C18.154 23.1087 18.494 23.2487 18.844 23.2487C19.204 23.2487 19.544 23.1087 19.794 22.8687C20.314 22.3487 20.314 21.5087 19.794 20.9987L18.284 19.5087C17.754 18.9887 16.914 18.9887 16.384 19.5087Z M20.24 12.019C19.5 12.019 18.9 12.609 18.9 13.339C18.9 14.069 19.5 14.659 20.24 14.659L22.38 14.659C23.12 14.659 23.72 14.069 23.72 13.339C23.72 12.609 23.12 12.019 22.38 12.019L20.24 12.019Z M20.0508 4.80172C20.0508 4.45172 19.9108 4.11172 19.6608 3.87172C19.4108 3.62172 19.0708 3.48172 18.7108 3.48172C18.3608 3.48172 18.0208 3.62172 17.7708 3.87172L16.2508 5.36172C16.0008 5.61172 15.8608 5.94172 15.8608 6.29172C15.8608 6.64172 16.0008 6.98172 16.2508 7.23172C16.5008 7.47172 16.8408 7.61172 17.2008 7.61172C17.5508 7.61172 17.9008 7.47172 18.1508 7.23172L19.6608 5.73172C19.9108 5.49172 20.0508 5.15172 20.0508 4.80172Z M11.3421 3.43L11.3421 1.32C11.3421 0.59 10.7421 0 10.0021 0C9.26214 0 8.66214 0.59 8.66214 1.32L8.66214 3.43C8.66214 4.16 9.26214 4.75 9.99214 4.75L10.0021 4.75C10.7421 4.75 11.3421 4.16 11.3421 3.43Z M0.39 5.86284L1.91 7.35284C2.16 7.60284 2.5 7.74284 2.85 7.74284C3.21 7.74284 3.55 7.60284 3.8 7.35284C4.05 7.11284 4.19 6.77284 4.19 6.42284C4.19 6.07284 4.05 5.74284 3.8 5.49284L2.29 4.00284C1.76 3.48284 0.92 3.48284 0.39 4.00284C0.14 4.24284 -1.06581e-14 4.58284 -1.06581e-14 4.93284C-1.06581e-14 5.28284 0.14 5.62284 0.39 5.86284Z " /></g></g></g></g></g></svg>