<svg xmlns="http://www.w3.org/2000/svg" xmlns:xlink="http://www.w3.org/1999/xlink" width="359" height="180" viewBox="0 0 359 180" fill="none"><defs><path id="path_0"
        transform="translate(0 0) rotate(0 179.5 90)"
        d="M4,180L355,180C357.21,180 359,178.21 359,176L359,4C359,1.79 357.21,0 355,0L4,0C1.79,0 0,1.79 0,4L0,176C0,178.21 1.79,180 4,180Z" /><linearGradient id="linear_0" x1="2.294%" y1="3.261%" x2="96.86099999999999%" y2="94.559%" gradientUnits="objectBoundingBox"><stop offset="0" stop-color="#DEF9FA" stop-opacity="1" /><stop offset="1" stop-color="#FFFFFF" stop-opacity="0.01" /></linearGradient><filter id="filter_2" x="-10" y="-10" width="379" height="200" filterUnits="userSpaceOnUse" color-interpolation-filters="sRGB"><feFlood flood-opacity="0" result="BackgroundImageFix"/>
          <feColorMatrix in="SourceAlpha" type="matrix" values="0 0 0 0 0 0 0 0 0 0 0 0 0 0 0 0 0 0 127 0"/>
          <feOffset dx="4" dy="4"/>
          <feGaussianBlur stdDeviation="5"/>
          <feColorMatrix type="matrix" values="0 0 0 0 0.9333333333333333 0 0 0 0 0.9882352941176471 0 0 0 0 0.9921568627450981 0 0 0 1 0"/>
          <feBlend mode="normal" in2="BackgroundImageFix" result="effect1_Shadow"/>
          <feBlend mode="normal" in="SourceGraphic" in2="effect1_Shadow" result="shape"/></filter><rect id="path_1" x="0" y="0" width="192.40329266615595" height="176" /><rect id="path_2" x="0" y="0" width="192.40329266615595" height="176" /></defs><g opacity="1" transform="translate(0 0)  rotate(0 179.5 90)"><mask id="mask-0" fill="white"><use xlink:href="#path_0"></use></mask><g mask="url(#mask-0)"><g id="矩形 1" filter="url(#filter_2)"><path id="矩形 1" fill-rule="evenodd" fill="url(#linear_0)" transform="translate(0 0)  rotate(0 179.5 90)" opacity="1" d="M4,180L355,180C357.21,180 359,178.21 359,176L359,4C359,1.79 357.21,0 355,0L4,0C1.79,0 0,1.79 0,4L0,176C0,178.21 1.79,180 4,180Z " /></g></g><g mask="url(#mask-0)"><g opacity="0.2" transform="translate(195.3912916959427 -28.568782189273563)  rotate(-15 96.20164633307797 88)"><mask id="bg-mask-1" fill="white"><use xlink:href="#path_1"></use></mask><g mask="url(#bg-mask-1)" ><g opacity="1" transform="translate(0 0)  rotate(0 96.20164633307797 88)"><mask id="bg-mask-2" fill="white"><use xlink:href="#path_2"></use></mask><g mask="url(#bg-mask-2)" ><path id="路径 1" fill-rule="evenodd" style="fill:#00BCBF" transform="translate(0 46.235258220232176)  rotate(0 96.20164633307797 64.8823708898839)" opacity="1" d="M16,129.76L176.4,129.76C185.24,129.76 192.4,122.6 192.4,113.76L192.4,16C192.4,7.16 185.24,0 176.4,0L16,0C7.16,0 0,7.16 0,16L0,113.76C0,122.6 7.16,129.76 16,129.76Z " /><path id="路径 2" fill-rule="evenodd" style="fill:#00BCBF" transform="translate(91.63614447320373 143.55881455505818)  rotate(0 18.316358652117742 6.955610099635787)" opacity="1" d="M36.63,6.98C36.55,3.18 33.54,0.12 29.78,0L6.85,0C3.09,0.12 0.08,3.18 0,6.98C0.09,10.77 3.1,13.82 6.85,13.91L29.78,13.91C33.53,13.82 36.55,10.77 36.63,6.98Z " /><path id="路径 3" fill-rule="evenodd" style="fill:#00BCBF" transform="translate(137.39986549718571 143.55881455505818)  rotate(0 18.316358652118982 6.955610099635787)" opacity="1" d="M36.63,6.98C36.55,3.16 33.51,0.09 29.73,0L6.85,0C3.09,0.12 0.08,3.18 0,6.98C0.09,10.77 3.1,13.82 6.85,13.91L29.78,13.91C33.52,13.8 36.52,10.76 36.63,6.98Z " /><path id="路径 4" fill-rule="evenodd" style="fill:#FFFFFF" transform="translate(18.316358652118993 64.82020852597906)  rotate(0 77.88528768095802 6.928117569597726)" opacity="1" d="M155.77,6.93C155.66,3.13 152.62,0.09 148.87,0L6.9,0C3.15,0.09 0.11,3.13 0,6.93C0.11,10.73 3.15,13.77 6.9,13.86L148.87,13.86C152.62,13.77 155.66,10.73 155.77,6.93Z " /><path id="路径 5" fill-rule="evenodd" style="fill:#CCFEFF" transform="translate(24.023235976961132 0)  rotate(0 67.58573288993328 23.11762911011634)" opacity="1" d="M16.31,10.55L0,46.24L135.17,46.24L40.6,1.75C31.49,-2.56 20.64,1.36 16.31,10.55Z " /><path id="路径 6" fill-rule="evenodd" style="fill:#FFFFFF" transform="translate(52.61197381379546 94.78706626749288)  rotate(0 6.060160206857784 31.341484243418428)" opacity="1" d="M12.12,62.68L12.12,0L0,0L0,62.68L12.12,62.68Z " /><path id="路径 7" fill-rule="evenodd" style="fill:#FFFFFF" transform="translate(97.23391844862789 94.25854726586776)  rotate(0 22.800534155156793 31.897495775082202)" opacity="1" d="M6.09,6.91C0,13.23 0,21.04 0,31.87C0,42.7 -0.16,50.56 6.09,56.89C10.48,61.4 16.51,63.89 22.77,63.76C34.39,64.41 44.45,55.68 45.6,43.97L33.32,43.97C32.55,49.16 28.07,52.96 22.88,52.82C19.95,52.95 17.1,51.76 15.11,49.58C12.77,46.94 12.07,44.02 12.07,31.87C12.07,19.72 12.77,16.86 15.11,14.22C17.1,12.02 19.94,10.82 22.88,10.92C28.09,10.78 32.58,14.61 33.32,19.83L45.6,19.83C44.45,8.11 34.39,-0.61 22.77,0.03C16.51,-0.09 10.48,2.39 6.09,6.91Z " /></g></g></g></g></g></g></svg>