<svg xmlns="http://www.w3.org/2000/svg" xmlns:xlink="http://www.w3.org/1999/xlink" width="36" height="32" viewBox="0 0 36 32" fill="none"><defs><rect id="path_0" x="0" y="0" width="35.39038412175486" height="32" /><rect id="path_1" x="0" y="0" width="35.39038412175486" height="32" /></defs><g opacity="1" transform="translate(0 0)  rotate(0 17.69519206087743 16)"><mask id="bg-mask-0" fill="white"><use xlink:href="#path_0"></use></mask><g mask="url(#bg-mask-0)" ><g opacity="1" transform="translate(0 0)  rotate(0 17.69519206087743 16)"><mask id="bg-mask-1" fill="white"><use xlink:href="#path_1"></use></mask><g mask="url(#bg-mask-1)" ><path id="路径 1" fill-rule="evenodd" style="fill:#00BCBF" transform="translate(0 8.40641058549676)  rotate(0 17.69519206087743 11.796794707251621)" opacity="1" d="M3.37,23.59L32.02,23.59C33.88,23.59 35.39,22.08 35.39,20.22L35.39,3.37C35.39,1.51 33.88,0 32.02,0L3.37,0C1.51,0 0,1.51 0,3.37L0,20.22C0,21.11 0.36,21.97 0.99,22.6C1.62,23.23 2.48,23.59 3.37,23.59Z " /><path id="路径 2" fill-rule="evenodd" style="fill:#00BCBF" transform="translate(16.855420234259647 26.10160264637421)  rotate(0 3.3690845901219797 1.264656381751961)" opacity="1" d="M6.74,1.27C6.72,0.58 6.17,0.02 5.48,0L1.26,0C0.57,0.02 0.02,0.58 0,1.27C0.02,1.96 0.57,2.51 1.26,2.53L5.48,2.53C6.17,2.51 6.72,1.96 6.74,1.27Z " /><path id="路径 3" fill-rule="evenodd" style="fill:#00BCBF" transform="translate(25.273133067738815 26.10160264637421)  rotate(0 3.369084590122207 1.264656381751961)" opacity="1" d="M6.74,1.27C6.72,0.58 6.16,0.02 5.47,0L1.26,0C0.57,0.02 0.02,0.58 0,1.27C0.02,1.96 0.57,2.51 1.26,2.53L5.48,2.53C6.17,2.51 6.72,1.96 6.74,1.27Z " /><path id="路径 4" fill-rule="evenodd" style="fill:#FFFFFF" transform="translate(3.369084590122207 11.78549245926892)  rotate(0 14.326107470755044 1.259657739926859)" opacity="1" d="M28.65,1.26C28.63,0.57 28.07,0.02 27.38,0L1.27,0C0.58,0.02 0.02,0.57 0,1.26C0.02,1.95 0.58,2.5 1.27,2.52L27.38,2.52C28.07,2.5 28.63,1.95 28.65,1.26Z " /><path id="路径 5" fill-rule="evenodd" style="fill:#CCFEFF" transform="translate(4.418799373394324 0)  rotate(0 12.431622219040108 4.203205292748425)" opacity="1" d="M3,1.92L0,8.41L24.86,8.41L7.47,0.32C5.79,-0.47 3.8,0.25 3,1.92Z " /><path id="路径 6" fill-rule="evenodd" style="fill:#FFFFFF" transform="translate(9.677370573406252 17.234012048635066)  rotate(0 1.114697126998785 5.698451680621534)" opacity="1" d="M2.23,11.4L2.23,0L0,0L0,11.4L2.23,11.4Z " /><path id="路径 7" fill-rule="evenodd" style="fill:#FFFFFF" transform="translate(17.885066704815454 17.137917684703233)  rotate(0 4.193897363972342 5.799544686378582)" opacity="1" d="M4.19,11.59C6.33,11.71 8.18,10.12 8.39,7.99L6.13,7.99C5.99,8.94 5.16,9.63 4.21,9.6C3.67,9.63 3.15,9.41 2.78,9.01C2.35,8.53 2.22,8 2.22,5.79C2.22,3.59 2.35,3.07 2.78,2.59C3.15,2.19 3.67,1.97 4.21,1.99C5.17,1.96 5.99,2.66 6.13,3.61L8.39,3.61C8.18,1.48 6.33,-0.11 4.19,0.01C3.04,-0.02 1.93,0.44 1.12,1.26C0,2.41 0,3.83 0,5.79C0,7.76 -0.03,9.19 1.12,10.34C1.93,11.16 3.04,11.62 4.19,11.59Z " /></g></g></g></g></svg>