<svg xmlns="http://www.w3.org/2000/svg" viewBox="0 0 40 40"><defs><style>.cls-1{fill:#457dff;}.cls-1,.cls-2{fill-rule:evenodd;}.cls-2{fill:#2b2f38;}</style></defs><g id="图层_2" data-name="图层 2"><g id="图层_1-2" data-name="图层 1"><path id="圆形_1" data-name="圆形 1" class="cls-1" d="M27.5,15A12.5,12.5,0,1,0,40,27.5,12.5,12.5,0,0,0,27.5,15Z"/><path id="路径_1" data-name="路径 1" class="cls-2" d="M29.05,15.87l1.65,1.65L34,14.23l-1.64-1.65Zm3.3-3.29L34,14.23,30.7,17.52l-1.65-1.65Zm7.22.63a1.46,1.46,0,0,1,0,2.06l-4.35,4.35,0,0-3.76,3.78-3.73,3.73h0l-3.06,3.07L20.25,34.6a1.45,1.45,0,0,1-2.06,0l-2.28-2.29L13.4,34.82a1.18,1.18,0,0,1-1.65,0L6,29.05l-.62.62a1.45,1.45,0,0,1-2.06,0L.43,26.79a1.45,1.45,0,0,1-.43-1,1.42,1.42,0,0,1,.43-1L24.73.43a1.45,1.45,0,0,1,2.06,0ZM14.23,30.7l-5-4.94L7.64,27.41l4.94,4.94ZM37.32,14.24,25.77,2.69,2.69,25.76l1.64,1.65,5-5,9.9,9.91,2.15-2.15,2.24-2.25,3.82-3.81v0l.73-.74,4.21-4.2h0Zm-3.33,0L30.7,17.52l-1.65-1.65,3.3-3.29Zm-4.94,1.64,1.65,1.65L34,14.23l-1.64-1.65Zm3.3-3.29L34,14.23,30.7,17.52l-1.65-1.65Z"/><path id="路径_2" data-name="路径 2" class="cls-2" d="M28.14,23.37l-.73.73v0l-1.49,1.5H37.75v2.32H23.61l-2.25,2.24H38.88A1.12,1.12,0,0,0,40,29.06V24.49a1.12,1.12,0,0,0-1.12-1.12Z"/><path id="路径_4" data-name="路径 4" class="cls-2" d="M40,33.14V20.41a1.13,1.13,0,0,0-2.25,0V33.14a1.13,1.13,0,0,0,2.25,0Z"/></g></g></svg>