<svg xmlns="http://www.w3.org/2000/svg" xmlns:xlink="http://www.w3.org/1999/xlink" viewBox="0 0 40 40"><defs><style>.cls-1{fill:#fff;}.cls-2{fill:#457dff;}.cls-2,.cls-4{fill-rule:evenodd;}.cls-3{mask:url(#mask);}.cls-4{fill:#2b2f38;}</style><mask id="mask" x="0" y="0" width="37.06" height="40" maskUnits="userSpaceOnUse"><g id="bg-mask-0"><rect id="path_0" data-name="path 0" class="cls-1" width="37.06" height="40"/></g></mask></defs><g id="图层_2" data-name="图层 2"><g id="图层_1-2" data-name="图层 1"><path id="圆形_1" data-name="圆形 1" class="cls-2" d="M27.5,15A12.5,12.5,0,1,0,40,27.5,12.5,12.5,0,0,0,27.5,15Z"/><g class="cls-3"><g class="cls-3"><path id="分组_1" data-name="分组 1" class="cls-4" d="M17.52,21.37H14.73l2.35-3.06a1.2,1.2,0,0,0,.24-.88,1.18,1.18,0,0,0-2.11-.57l-3.83,5a1.18,1.18,0,0,0,.94,1.91h3l-2.42,3.61a1.18,1.18,0,0,0,1,1.85,1.18,1.18,0,0,0,1-.53l3.67-5.47a1.19,1.19,0,0,0-1-1.85ZM8.29,13.44H21.56a1.21,1.21,0,0,0,.84-.35,1.19,1.19,0,0,0,.35-.84V6.31a1.19,1.19,0,0,0-1.19-1.19H8.29a1.15,1.15,0,0,0-.84.35,1.19,1.19,0,0,0-.35.84v5.94a1.2,1.2,0,0,0,1.19,1.19ZM20.37,7.51H9.47v3.56h10.9Z"/><path id="分组_2" data-name="分组 2" class="cls-4" d="M1.9,33.82H1.19A1.19,1.19,0,0,0,0,35v3.8A1.19,1.19,0,0,0,1.19,40H28.68a1.19,1.19,0,0,0,1.19-1.19V35a1.22,1.22,0,0,0-.35-.84,1.19,1.19,0,0,0-.84-.35H28V15.63h2.27V27.78A1.18,1.18,0,0,0,31.42,29h4.46a1.18,1.18,0,0,0,1.18-1.18V9.28a1.18,1.18,0,0,0-.24-.72h0L33.24,3.81a1.19,1.19,0,0,0-1.67-.22,1.19,1.19,0,0,0-.22,1.66l3.33,4.42V26.59H32.6V14.44a1.18,1.18,0,0,0-1.18-1.19H28V4.74A4.78,4.78,0,0,0,23.17,0H6.69A4.77,4.77,0,0,0,1.9,4.74Zm25.58,2.36H2.36V37.6H27.48Zm-1.89-2.36V4.74a2.39,2.39,0,0,0-2.42-2.37H6.68A2.39,2.39,0,0,0,4.26,4.74V33.81Z"/></g></g></g></g></svg>