<svg xmlns="http://www.w3.org/2000/svg" xmlns:xlink="http://www.w3.org/1999/xlink" width="40" height="40" viewBox="0 0 40 40" fill="none"><defs><rect id="path_0" x="0" y="0" width="37.064400667812755" height="40" /><rect id="path_1" x="0" y="0" width="37.064400667812755" height="40" /></defs><g opacity="1" transform="translate(0 0)  rotate(0 20 20.000000000000085)"><path id="圆形 1" fill-rule="evenodd" style="fill:#457DFF" transform="translate(15 15.00000000000017)  rotate(0 12.5 12.5)" opacity="1" d="M12.5,0C5.6,0 0,5.6 0,12.5C0,19.4 5.6,25 12.5,25C19.4,25 25,19.4 25,12.5C25,5.6 19.4,0 12.5,0Z " /><g opacity="1" transform="translate(0 0)  rotate(0 18.532200333906378 20)"><mask id="bg-mask-0" fill="white"><use xlink:href="#path_0"></use></mask><g mask="url(#bg-mask-0)" ><g opacity="1" transform="translate(0 0)  rotate(0 18.532200333906378 20)"><mask id="bg-mask-1" fill="white"><use xlink:href="#path_1"></use></mask><g mask="url(#bg-mask-1)" ><path id="分组 1" fill-rule="evenodd" style="fill:#2B2F38" transform="translate(7.101613828716692 5.124392795228616)  rotate(0 7.822728857601223 12.03679876072549)" opacity="1" d="M10.4225 16.2452L7.6325 16.2452L9.9825 13.1852C10.1725 12.9352 10.2625 12.6252 10.2225 12.3052C10.1825 11.9952 10.0225 11.7152 9.7725 11.5252C9.5225 11.3252 9.2025 11.2452 8.8925 11.2852C8.5825 11.3252 8.3025 11.4852 8.1125 11.7352L4.2825 16.7052C4.0025 17.0652 3.9525 17.5452 4.1525 17.9552C4.3525 18.3652 4.7625 18.6152 5.2225 18.6152L8.2025 18.6152L5.7825 22.2252C5.6025 22.4852 5.5325 22.8052 5.5925 23.1152C5.6525 23.4252 5.8325 23.6952 6.1025 23.8752C6.2925 24.0052 6.5225 24.0752 6.7625 24.0752C7.1525 24.0752 7.5225 23.8752 7.7425 23.5452L11.4125 18.0752C11.6525 17.7152 11.6825 17.2452 11.4725 16.8552C11.2725 16.4652 10.8625 16.2252 10.4225 16.2252L10.4225 16.2452Z M1.19 8.32L14.46 8.32C14.77 8.32 15.08 8.19 15.3 7.97C15.52 7.75 15.65 7.45 15.65 7.13L15.65 1.19C15.65 0.53 15.12 -7.10543e-15 14.46 -7.10543e-15L1.19 -7.10543e-15C0.87 -7.10543e-15 0.57 0.12 0.35 0.35C0.13 0.57 0 0.87 0 1.19L0 7.13C0 7.45 0.13 7.75 0.35 7.97C0.57 8.19 0.87 8.32 1.19 8.32Z M13.271 2.38267L2.37101 2.38267L2.37101 5.94267L13.271 5.94267L13.271 2.38267Z " /><path id="分组 2" fill-rule="evenodd" style="fill:#2B2F38" transform="translate(0 0)  rotate(0 18.532200333906378 20)" opacity="1" d="M1.9 33.82L1.19 33.82C0.53 33.82 0 34.36 0 35.01L0 38.81C0 39.47 0.53 40 1.19 40L28.68 40C29.34 40 29.87 39.47 29.87 38.81L29.87 35.01C29.87 34.7 29.74 34.4 29.52 34.17C29.3 33.95 29 33.82 28.68 33.82L27.97 33.82L27.97 15.63L30.24 15.63L30.24 27.78C30.24 28.43 30.77 28.96 31.42 28.96L35.88 28.96C36.53 28.96 37.06 28.43 37.06 27.78L37.06 9.28C37.06 9.02 36.98 8.77 36.82 8.56L36.82 8.55L33.24 3.81C32.84 3.29 32.1 3.19 31.57 3.59C31.32 3.78 31.16 4.06 31.12 4.37C31.07 4.68 31.16 5 31.35 5.25L34.68 9.67L34.68 26.59L32.6 26.59L32.6 14.44C32.6 13.78 32.07 13.25 31.42 13.25L27.97 13.25L27.97 4.74C27.95 2.11 25.8 -0.01 23.17 0L6.69 0C4.06 -0.01 1.92 2.11 1.9 4.74L1.9 33.82Z M27.4819 36.1836L2.36188 36.1836L2.36188 37.6036L27.4819 37.6036L27.4819 36.1836Z M25.5882 33.8165L25.5882 4.73653C25.5682 3.40653 24.4882 2.34653 23.1682 2.36653L6.67823 2.36653C5.35823 2.34653 4.27823 3.40653 4.25823 4.73653L4.25823 33.8065L25.5882 33.8165Z " /></g></g></g></g></g></svg>