<svg xmlns="http://www.w3.org/2000/svg" xmlns:xlink="http://www.w3.org/1999/xlink" width="66" height="66" viewBox="0 0 66 66" fill="none"><defs><rect id="path_0" x="0" y="0" width="66.00000000000006" height="65.99999999999999" /><rect id="path_1" x="0" y="0" width="30" height="39" /></defs><g opacity="1" transform="translate(0 0)  rotate(0 33.00000000000003 32.99999999999999)"><mask id="bg-mask-0" fill="white"><use xlink:href="#path_0"></use></mask><g mask="url(#bg-mask-0)" ><path id="路径 1" fill-rule="evenodd" style="fill:#457DFF" transform="translate(0 0)  rotate(0 33.00000000000003 32.99999999999999)" opacity="1" d="M33,0C14.77,0 0,14.77 0,33C0,51.23 14.77,66 33,66C51.23,66 66,51.23 66,33C66,14.77 51.23,0 33,0Z " /><g opacity="1" transform="translate(18 13)  rotate(0 15 19.5)"><mask id="bg-mask-1" fill="white"><use xlink:href="#path_1"></use></mask><g mask="url(#bg-mask-1)" ><path id="分组 1" fill-rule="evenodd" style="fill:#FFFFFF" transform="translate(0 0)  rotate(0 15 19.5)" opacity="1" d="M3 0C1.34 0 0 1.39 0 3.11L0 36.91C0 38.07 0.9 39 2.01 39L27.99 39C29.1 39 30 38.07 30 36.91L30 3.11C30 1.4 28.66 0.01 27.01 0L3 0Z M10.678 21.216L13.408 15.056L5.93799 21.606L8.49799 22.426L5.77799 28.576L13.238 22.026L10.678 21.216Z M14.2626 7.23836L4.92257 7.23836L4.92257 8.62836L14.2626 8.62836L14.2626 7.23836Z M14.2626 4.63635L4.92257 4.63635L4.92257 6.02635L14.2626 6.02635L14.2626 4.63635Z M25.502 26.9399L17.392 26.9399L17.392 31.5699L25.502 31.5699L25.502 26.9399Z M25.502 19.507L17.392 19.507L17.392 24.137L25.502 24.137L25.502 19.507Z M25.502 12.0763L17.392 12.0763L17.392 16.7063L25.502 16.7063L25.502 12.0763Z M25.502 4.64562L17.392 4.64562L17.392 9.27562L25.502 9.27562L25.502 4.64562Z " /></g></g></g></g></svg>