<svg xmlns="http://www.w3.org/2000/svg" xmlns:xlink="http://www.w3.org/1999/xlink" width="36" height="33" viewBox="0 0 36 33" fill="none"><g opacity="1" transform="translate(0 0.001953125)  rotate(0 17.99999999999995 16)"><path id="路径 1" fill-rule="evenodd" style="fill:#FF8D1A" transform="translate(0 7.140591524999307)  rotate(0 17.99999999999995 12.42970423750035)" opacity="1" d="M24.88,14.38C24.39,14.04 24.04,13.66 23.83,13.25C23.56,12.76 23.42,12.2 23.39,11.57C23.39,10.65 23.74,9.87 24.44,9.24C25.14,8.6 26,8.29 27,8.29L36,8.29L36,3.32C36,2.4 35.65,1.61 34.95,0.97C34.25,0.32 33.4,0 32.39,0L3.61,0C2.6,0 1.75,0.32 1.05,0.97C0.35,1.61 0,2.4 0,3.32L0,21.54C0,22 0.1,22.43 0.3,22.83C0.5,23.23 0.77,23.59 1.11,23.89C1.45,24.2 1.85,24.43 2.3,24.6C2.75,24.77 3.22,24.86 3.73,24.86L32.51,24.86C33.01,24.86 33.48,24.77 33.9,24.6C34.32,24.43 34.69,24.2 35.01,23.89C35.33,23.59 35.57,23.23 35.74,22.83C35.91,22.43 36,22 36,21.54L36,14.89L27,14.89C26.07,14.89 25.37,14.72 24.88,14.38Z " /><path id="路径 2" fill-rule="evenodd" style="fill:#FF8D1A" transform="translate(12.607929515418466 0)  rotate(0 8.999999999999975 2.7306975320664426)" opacity="1" d="M15.7,1.41C15.28,0.97 14.78,0.62 14.19,0.35C13.69,0.16 13.08,0.04 12.35,0C11.62,-0.03 10.8,0.18 9.87,0.64C9.26,0.93 8.42,1.35 7.33,1.88C6.25,2.42 5.15,2.95 4.04,3.49C2.78,4.12 1.43,4.78 0,5.46L18,5.46L15.7,1.41Z " /><path id="路径 3" fill-rule="evenodd" style="fill:#FF8D1A" transform="translate(25.21585903083693 17.069753206644215)  rotate(0 1.7841409691629926 1.660944325422219)" opacity="1" d="M0.52,2.83C0.86,3.16 1.28,3.32 1.78,3.32C2.29,3.32 2.71,3.16 3.05,2.83C3.4,2.5 3.57,2.11 3.57,1.64C3.57,1.18 3.4,0.79 3.05,0.47C2.71,0.16 2.29,0 1.78,0C1.28,0 0.86,0.16 0.52,0.47C0.17,0.79 0,1.18 0,1.64C0,2.11 0.17,2.5 0.52,2.83Z " /></g></svg>