<svg xmlns="http://www.w3.org/2000/svg" xmlns:xlink="http://www.w3.org/1999/xlink" width="361" height="180" viewBox="0 0 361 180" fill="none"><defs><path id="path_0"
        transform="translate(0 0) rotate(0 180.5 90)"
        d="M4,180L357,180C359.21,180 361,178.21 361,176L361,4C361,1.79 359.21,0 357,0L4,0C1.79,0 0,1.79 0,4L0,176C0,178.21 1.79,180 4,180Z" /><linearGradient id="linear_0" x1="2.294%" y1="3.261%" x2="96.86099999999999%" y2="94.559%" gradientUnits="objectBoundingBox"><stop offset="0" stop-color="#FFF0E3" stop-opacity="1" /><stop offset="1" stop-color="#FFFFFF" stop-opacity="0.01" /></linearGradient><filter id="filter_2" x="-10" y="-10" width="381" height="200" filterUnits="userSpaceOnUse" color-interpolation-filters="sRGB"><feFlood flood-opacity="0" result="BackgroundImageFix"/>
          <feColorMatrix in="SourceAlpha" type="matrix" values="0 0 0 0 0 0 0 0 0 0 0 0 0 0 0 0 0 0 127 0"/>
          <feOffset dx="4" dy="4"/>
          <feGaussianBlur stdDeviation="5"/>
          <feColorMatrix type="matrix" values="0 0 0 0 1 0 0 0 0 0.9882352941176471 0 0 0 0 0.9803921568627451 0 0 0 1 0"/>
          <feBlend mode="normal" in2="BackgroundImageFix" result="effect1_Shadow"/>
          <feBlend mode="normal" in="SourceGraphic" in2="effect1_Shadow" result="shape"/></filter></defs><g opacity="1" transform="translate(0 0)  rotate(0 180.5 90)"><mask id="mask-0" fill="white"><use xlink:href="#path_0"></use></mask><g mask="url(#mask-0)"><g id="矩形 1" filter="url(#filter_2)"><path id="矩形 1" fill-rule="evenodd" fill="url(#linear_0)" transform="translate(0 0)  rotate(0 180.5 90)" opacity="1" d="M4,180L357,180C359.21,180 361,178.21 361,176L361,4C361,1.79 359.21,0 357,0L4,0C1.79,0 0,1.79 0,4L0,176C0,178.21 1.79,180 4,180Z " /></g></g><g mask="url(#mask-0)"><g opacity="0.2" transform="translate(199.24184939757976 -25.988810902184923)  rotate(-15 99.93707465544928 88)"><path id="路径 1" fill-rule="evenodd" style="fill:#FF8D1A" transform="translate(0 39.27325338749619)  rotate(0 99.93707465544928 68.36337330625192)" opacity="1" d="M6.16,131.41C8.07,133.08 10.27,134.38 12.77,135.32C15.26,136.26 17.9,136.73 20.69,136.73L180.5,136.73C183.29,136.73 185.86,136.26 188.21,135.32C190.56,134.38 192.61,133.08 194.37,131.41C196.13,129.73 197.49,127.79 198.44,125.58C199.4,123.38 199.87,121 199.87,118.46L199.87,81.92L149.91,81.92C144.77,81.92 140.84,80.98 138.13,79.1C135.41,77.23 133.47,75.16 132.3,72.88C130.83,70.2 130.02,67.13 129.87,63.65C129.87,58.56 131.82,54.28 135.71,50.8C139.6,47.32 144.33,45.58 149.91,45.58L199.87,45.58L199.87,18.27C199.87,13.18 197.93,8.87 194.04,5.32C190.15,1.77 185.42,0 179.84,0L20.03,0C14.45,0 9.72,1.77 5.83,5.32C1.94,8.87 0,13.18 0,18.27L0,118.46C0,121 0.55,123.38 1.65,125.58C2.75,127.79 4.26,129.73 6.16,131.41Z " /><path id="路径 2" fill-rule="evenodd" style="fill:#FF8D1A" transform="translate(69.99997740183454 0)  rotate(0 49.96853732772464 15.018836426365434)" opacity="1" d="M87.17,7.75C84.82,5.34 82.03,3.4 78.81,1.93C76.02,0.86 72.6,0.22 68.57,0.02C64.53,-0.18 59.95,0.99 54.81,3.54C51.44,5.14 46.74,7.42 40.72,10.36C34.71,13.31 28.62,16.25 22.45,19.2C15.41,22.68 7.92,26.29 0,30.04L99.94,30.04L87.17,7.75Z " /><path id="路径 3" fill-rule="evenodd" style="fill:#FF8D1A" transform="translate(139.99995480366897 93.88364263654317)  rotate(0 9.905657179504892 9.135193789822205)" opacity="1" d="M2.86,15.56C4.77,17.37 7.12,18.27 9.91,18.27C12.69,18.27 15.04,17.37 16.95,15.56C18.86,13.75 19.81,11.58 19.81,9.03C19.81,6.49 18.86,4.35 16.95,2.61C15.04,0.87 12.69,0 9.91,0C7.12,0 4.77,0.87 2.86,2.61C0.95,4.35 0,6.49 0,9.03C0,11.58 0.95,13.75 2.86,15.56Z " /></g></g></g></svg>