<svg xmlns="http://www.w3.org/2000/svg" xmlns:xlink="http://www.w3.org/1999/xlink" width="361" height="180" viewBox="0 0 361 180" fill="none"><defs><path id="path_0"
        transform="translate(0 0) rotate(0 180.5 90)"
        d="M4,180L357,180C359.21,180 361,178.21 361,176L361,4C361,1.79 359.21,0 357,0L4,0C1.79,0 0,1.79 0,4L0,176C0,178.21 1.79,180 4,180Z" /><linearGradient id="linear_0" x1="1.9290000000000003%" y1="3.079%" x2="98.407%" y2="92.548%" gradientUnits="objectBoundingBox"><stop offset="0" stop-color="#CCDEEB" stop-opacity="1" /><stop offset="1" stop-color="#FFFFFF" stop-opacity="0.01" /></linearGradient><filter id="filter_2" x="-10" y="-10" width="381" height="200" filterUnits="userSpaceOnUse" color-interpolation-filters="sRGB"><feFlood flood-opacity="0" result="BackgroundImageFix"/>
          <feColorMatrix in="SourceAlpha" type="matrix" values="0 0 0 0 0 0 0 0 0 0 0 0 0 0 0 0 0 0 127 0"/>
          <feOffset dx="4" dy="4"/>
          <feGaussianBlur stdDeviation="5"/>
          <feColorMatrix type="matrix" values="0 0 0 0 0.9333333333333333 0 0 0 0 0.9568627450980393 0 0 0 0 0.9725490196078431 0 0 0 1 0"/>
          <feBlend mode="normal" in2="BackgroundImageFix" result="effect1_Shadow"/>
          <feBlend mode="normal" in="SourceGraphic" in2="effect1_Shadow" result="shape"/></filter><rect id="path_1" x="0" y="0" width="215.83673101087368" height="134.0187187866503" /><rect id="path_2" x="0" y="0" width="215.83673101087368" height="134.0187187866503" /></defs><g opacity="1" transform="translate(0 0)  rotate(0 180.5 90)"><mask id="mask-0" fill="white"><use xlink:href="#path_0"></use></mask><g mask="url(#mask-0)"><g id="矩形 1" filter="url(#filter_2)"><path id="矩形 1" fill-rule="evenodd" fill="url(#linear_0)" transform="translate(0 0)  rotate(0 180.5 90)" opacity="1" d="M4,180L357,180C359.21,180 361,178.21 361,176L361,4C361,1.79 359.21,0 357,0L4,0C1.79,0 0,1.79 0,4L0,176C0,178.21 1.79,180 4,180Z " /></g></g><g mask="url(#mask-0)"><g opacity="0.2" transform="translate(176.66139726492176 -11.196353957238891)  rotate(-15 107.91836550543684 67.00935939332516)"><mask id="bg-mask-1" fill="white"><use xlink:href="#path_1"></use></mask><g mask="url(#bg-mask-1)" ><g opacity="1" transform="translate(0 0)  rotate(0 107.91836550543684 67.00935939332516)"><mask id="bg-mask-2" fill="white"><use xlink:href="#path_2"></use></mask><g mask="url(#bg-mask-2)" ><path id="路径 1" fill-rule="evenodd" style="fill:#E60012" transform="translate(0 0.12353705846538432)  rotate(0 56.79035329188788 66.94759086409246)" opacity="1" d="M87.59,122.18C88.33,120.09 113.55,12.72 113.55,10.89C113.91,5.96 110.71,1.47 105.93,0.21C104.79,0.21 42.94,-0.26 40.37,0.21L40.44,0.08C33.81,1.19 28.27,5.75 25.87,12.04C24.52,15.76 0.17,121.1 0.04,122.99C-0.42,128.11 3.14,132.71 8.2,133.54C10.16,134.01 72.07,134.01 74.1,133.54C80.2,132.25 85.26,127.99 87.59,122.18Z " /><path id="路径 2" fill-rule="evenodd" style="fill:#00508E" transform="translate(57.864445578344714 0.12353705846538432)  rotate(0 56.82688081401053 66.94759086409246)" opacity="1" d="M40.31,0.21L40.31,0.08C33.69,1.17 28.16,5.74 25.81,12.04C24.53,15.76 0.04,121.1 0.04,122.99C-0.45,128.12 3.13,132.74 8.21,133.54C10.16,134.01 72.08,134.01 74.1,133.54C80.23,132.3 85.31,128.02 87.59,122.18C88.4,120.09 113.63,12.72 113.63,10.89C113.98,5.96 110.78,1.47 106.01,0.21C104.72,0.21 42.94,-0.26 40.31,0.21Z " /><path id="路径 3" fill-rule="evenodd" style="fill:#00908C" transform="translate(118.1007725147258 0)  rotate(0 48.86797924807393 67.00935939332516)" opacity="1" d="M34.64 0.33L39.59 0.33C33.3 1.66 28.09 6.11 25.8 12.17C24.52 15.88 0.04 121.22 0.04 123.12C-0.42 128.23 3.14 132.83 8.2 133.66C10.16 134.14 56.22 134.14 58.25 133.66C64.36 132.4 69.43 128.13 71.74 122.31C72.55 120.21 97.7 12.84 97.7 11.02C98.09 6.09 94.91 1.59 90.15 0.33C89 0 37.27 -0.21 34.64 0.33Z" /><path id="分组 1" fill-rule="evenodd" style="fill:#FFFFFF" transform="translate(24.79257984768026 34.00450056330508)  rotate(0 87.07629402919395 36.30732928593683)" opacity="1" d="M31.77 0.07L24.01 0.07C24.01 1.55 19.16 22.18 18.48 23.39C16.19 27.99 9.71 28.33 8.84 23.93C9.76 16.45 11.39 9.07 13.69 1.89C13.77 1.4 13.77 0.9 13.69 0.41L14.16 0.2C11.16 -0.07 8.13 -0.07 5.13 0.2C2.74 8.87 1.03 17.71 1.06581e-14 26.64C1.35 34.41 18.82 34.62 24.08 26.98C26.58 22.1 28.26 16.85 29.07 11.43C30.42 5.81 31.77 0.74 31.77 0.74C31.81 0.52 31.81 0.29 31.77 0.07Z M112.099 0.402159Z M129.639 0.402159L129.569 0.402159C126.469 0.242159 123.359 0.242159 120.259 0.402159L112.099 0.402159C112.099 0.672159 111.419 3.11216 104.679 32.0522C107.349 32.5922 110.099 32.5922 112.769 32.0522C112.769 31.8422 113.449 30.3622 113.449 28.8022C115.129 20.3522 114.929 20.8222 117.629 20.8222C126.599 20.8222 131.789 18.1222 134.089 11.9022C136.379 5.68216 134.899 1.55216 129.639 0.402159Z M53.6249 16.0963C55.7749 18.1863 61.5749 16.2963 61.5749 13.4563C61.4149 12.4663 60.6149 11.6963 59.6249 11.5663C55.9149 10.6863 51.4649 13.9963 53.6249 16.0963Z M39.3863 15.1456L39.3863 14.7356C39.3863 14.4056 39.3863 13.7256 39.3863 13.7256L39.5963 13.7256C39.5963 13.1156 39.3263 13.0456 38.5163 13.1856L35.0763 13.7256C31.6963 14.1956 32.2363 13.8556 31.6963 17.2456C31.0963 21.1356 30.2863 24.9956 29.2763 28.8056C28.3963 32.6556 28.0563 32.1856 32.3763 32.1856L35.8863 32.1856L35.8863 31.1656C36.0163 30.2256 38.2463 20.0156 38.3063 19.6756C38.3763 19.3356 38.9163 18.7956 40.5363 18.7956C42.1563 18.7956 42.0163 19.8756 40.1963 27.8556C39.7263 30.0156 39.4563 31.7056 39.3263 32.0456C39.1863 32.3856 38.5163 32.3856 42.6963 32.3856C46.8763 32.3856 46.4763 32.5256 46.8763 30.2256C47.0063 29.2056 47.4863 27.1756 47.8163 25.7556C49.6463 17.4456 50.1163 17.5156 49.0363 15.2756C47.9563 13.0456 44.3763 12.7156 40.8063 14.4656L39.3863 15.1456Z M83.3025 28.8674C82.2825 33.0574 81.8825 32.5174 86.2025 32.5174L89.7725 32.5174L89.7725 31.3074C89.9725 29.8174 91.8625 21.4974 92.0625 20.4874C92.2725 19.4674 92.4025 18.9974 94.2925 18.9974C96.1825 18.9974 96.1825 20.0174 94.2925 28.2574C93.8225 30.2874 93.3425 32.3174 93.3425 32.3174C95.6925 32.6874 98.0825 32.6874 100.433 32.3174C100.723 31.3874 100.943 30.4374 101.103 29.4774C101.443 28.1274 101.983 25.2174 102.453 23.1874C104.473 13.9274 101.513 11.0174 94.7625 14.6074L93.3425 15.2774L93.3425 14.7374C93.3425 14.3974 93.3425 13.7274 93.3425 13.7274L93.6125 13.5874C93.6125 13.1174 93.2825 13.0474 92.1325 13.5874L88.6925 14.1274C85.7925 14.6074 86.4025 14.1274 85.7925 17.1774C85.1825 20.2174 84.3125 24.6774 83.3025 28.8674Z M149.058 44.0117L148.178 44.0117L147.848 45.2317C147.708 45.9117 147.238 46.7917 147.238 47.2617L147.238 48.0717L150.208 48.0717C155.058 47.9317 155.058 47.9317 160.858 37.5217C162.748 34.1417 168.078 24.8817 171.928 18.1217C174.828 13.1817 174.828 13.3917 172.328 13.8617L169.228 14.4017C166.728 14.7417 167.198 14.3317 164.908 18.7917C163.758 21.0917 162.748 22.9217 162.748 22.7817C162.748 22.6517 162.688 20.4817 162.208 13.7217L162.008 13.5917C161.878 13.3917 161.668 13.3917 159.518 14.0617C158.708 14.2017 157.218 14.6017 156.348 14.6017C154.518 14.8717 154.188 14.7417 154.518 16.4317C154.858 18.1217 155.538 23.8717 156.078 28.6717L156.548 32.8617L154.728 36.0417C153.848 37.7917 152.698 39.6217 152.368 40.1617L151.218 42.1917C150.338 44.0117 150.068 44.0117 149.058 44.0117Z M66.0757 16.4699C63.1857 18.9999 61.6457 22.7399 61.9157 26.5699C61.9157 31.5099 66.0357 34.0099 72.7757 32.5199C82.3557 30.3599 85.3857 15.2799 76.6157 13.7299C72.8657 12.9299 68.9657 13.9499 66.0757 16.4699Z M148.585 14.0583C144.065 14.7383 144.065 14.6683 144.065 15.2083C144.065 15.7583 144.065 15.7583 143.465 15.2083C143.025 14.7983 142.525 14.4583 141.975 14.1983L141.975 13.9983C135.435 10.9483 126.465 24.2083 130.645 30.4883C132.335 32.9983 138.465 33.8083 139.755 31.7783C140.155 31.4383 140.155 31.6383 140.155 32.1183L140.155 32.5183L143.935 32.5183C148.585 32.6583 147.775 33.1283 148.585 29.0683C149.125 26.3683 150.405 20.8283 151.895 14.5383C152.095 13.5183 153.105 13.3883 148.585 14.0583Z M60.5686 17.4437L60.6986 17.4437C60.5686 17.4437 60.0286 17.4437 59.0886 17.4437L55.7086 17.9837C52.4086 18.4537 52.8786 17.9837 52.4086 20.8937C51.9486 23.9737 51.2686 27.0237 50.3786 30.0237C49.4386 32.3837 49.2386 32.3837 53.6186 32.3837L57.3986 32.3837L57.7386 30.6937C58.0686 29.3437 59.6286 22.0437 60.5686 18.4537C60.6086 18.1237 60.6086 17.7837 60.5686 17.4437Z M66.7057 49.4952C66.7057 50.4352 73.3157 48.9552 74.5957 47.8052L75.1357 47.3952L84.7857 47.3952L85.9957 43.3352C85.9957 42.8652 85.9957 42.8652 79.2557 42.8652C79.4757 42.5452 79.6757 42.2052 79.8557 41.8552C80.1057 41.5052 80.2857 41.1152 80.3957 40.7052L80.4657 40.6352C78.0957 40.3252 75.6857 40.3252 73.3157 40.6352L72.1657 42.7352C70.8157 45.4352 70.4857 45.4352 68.8657 45.4352L67.9857 45.4352L66.7057 49.4952Z M88.1559 72.3482L91.4559 72.3482L92.1359 70.1082C92.9459 67.4082 93.7559 67.8782 90.4459 67.8782C87.1459 67.8782 87.1459 68.4182 89.4359 61.1182L90.5859 57.2682L97.3259 57.2682L103.736 57.2682L104.886 56.7982C106.146 56.2582 107.156 55.2682 107.716 54.0182C108.316 52.8682 111.966 40.4982 111.966 40.4982C110.366 40.3782 108.766 40.3782 107.176 40.4982C103.386 39.9282 99.5159 40.6382 96.1759 42.5282C95.7859 42.8482 95.3559 43.1182 94.8959 43.3382C94.8559 42.9082 94.8559 42.4782 94.8959 42.0582C95.0859 41.6282 95.1959 41.1682 95.2359 40.6982L95.3059 40.6382C93.3559 40.4282 91.3859 40.4282 89.4359 40.6382C89.2959 40.8382 81.1359 67.6082 80.8059 69.0982C80.1259 72.3482 81.0059 72.3482 88.1559 72.3482Z M135.842 59.5633L139.072 59.5633L137.592 61.7333C134.022 67.1333 134.022 66.6633 133.212 67.1333C132.662 67.4733 132.032 67.6433 131.392 67.6133C130.242 67.6133 130.242 67.5433 130.582 66.5933C130.912 65.6533 130.582 65.6533 129.902 65.6533C129.232 65.6533 129.232 65.6533 129.232 65.6533C130.042 63.0833 135.572 44.7633 135.572 44.7633C135.572 44.7633 136.172 44.7633 136.712 44.7633L137.862 44.7633L138.202 43.6133L138.202 42.5933L138.202 44.0833C138.332 47.1233 139.072 47.6033 144.342 47.6033L146.362 47.6033L146.902 45.5733L147.512 43.5433L146.492 43.5433C145.012 43.3433 145.012 43.2033 145.012 41.6533L145.012 40.2933L142.042 40.2933C136.742 39.8233 131.402 40.2733 126.262 41.6533C125.112 42.7333 125.112 42.7333 125.112 41.6533C125.132 41.3333 125.132 41.0133 125.112 40.7033L124.782 39.6833C123.612 39.5733 122.442 39.5733 121.272 39.6833L118.102 39.6833L117.632 41.1733C117.092 41.9233 115.672 47.6033 110.342 65.2433C110.142 66.0533 110.212 66.0533 109.532 66.0533C108.862 66.0533 108.992 66.0533 108.322 68.0833L107.712 70.1133C107.642 70.4533 107.042 70.4533 113.982 70.4533C120.932 70.4533 120.322 70.3133 119.992 71.4633L126.732 71.4633L126.732 70.7933C127.002 70.1133 127.072 70.1133 127.882 70.1133C128.692 70.1133 129.162 69.5733 128.692 70.5233C128.222 71.4633 128.222 71.4633 131.322 71.4633C136.042 71.4633 136.312 71.3333 140.022 66.2633L141.372 64.4333L141.712 66.9333C142.382 70.7933 143.122 71.3333 146.832 71.3333L148.992 71.3333L149.662 69.1033C150.812 66.5933 151.152 66.5933 149.662 66.5933C148.182 66.5933 148.182 66.5933 147.712 63.5533L147.302 60.8533L144.342 60.8533L145.482 59.4933L152.972 59.4933L153.512 57.6733C154.322 55.7133 154.522 55.7133 150.682 55.7133L147.372 55.7133L147.372 55.2433C147.512 55.0333 147.712 54.2233 148.322 52.5333L151.692 52.5333L155.062 52.5333L155.672 50.5733C155.902 49.9133 156.082 49.2333 156.212 48.5433L135.972 48.5433L134.832 52.6033L142.042 52.6033C142.042 52.7333 141.842 53.4133 141.172 55.7833L133.682 55.7833L133.072 57.6033C132.402 59.5633 132.062 59.5633 135.842 59.5633Z M66.3699 62.1381C67.0199 62.0881 67.6699 62.0881 68.3199 62.1381L67.1799 65.8581C65.1499 72.6181 65.2899 72.6181 72.7799 72.6181L77.4999 72.6181L78.1699 70.3881C78.9799 67.6781 79.1199 68.1481 77.2999 68.1481C72.9799 68.6981 72.8399 68.5581 73.9899 64.7681L74.7999 62.0681L81.5399 62.0681L82.0199 60.5781C82.5599 59.6981 82.5599 58.5481 82.5599 58.5481C82.5799 58.3281 82.5799 58.0981 82.5599 57.8781L78.9799 57.8781C75.6099 57.8781 75.4699 57.8081 75.6099 57.5381C75.7399 57.2681 75.9499 56.5881 76.6199 54.3581L83.3699 54.3581L84.5199 50.8381C81.7699 50.7781 67.8399 50.5381 67.7199 50.8481C67.5799 51.1781 66.5699 54.6981 66.5699 54.6981C66.5699 54.6981 67.0399 54.6981 68.3899 54.6981L70.4799 54.6981L69.5399 58.2181L67.6499 58.2181C65.6299 58.2181 65.6299 58.0081 65.6299 58.2181C65.6299 58.4181 65.2899 59.2981 64.4799 62.1381L66.3699 62.1381Z M84.5199 50.8381C84.8099 50.8381 84.9799 50.8481 84.9799 50.8481L84.6499 50.4381L84.5199 50.8381Z M84.9799 50.8481C84.9799 50.8481 84.9799 50.8481 84.9799 50.8481Z M103.94 68.0161L101.64 68.0161L99.3502 68.0161L99.0102 67.5461C98.8102 66.3761 98.8102 65.1961 99.0102 64.0261L101.37 64.0261C105.02 63.8261 105.96 63.1461 106.63 59.9761C106.66 59.4961 106.66 59.0261 106.63 58.5561L106.97 58.4161C107.11 57.8761 106.84 57.8761 104.34 58.5561L102.05 58.5561L102.05 59.4261C101.51 61.1161 101.37 61.1161 100.16 61.1161L99.0102 61.1161L99.0102 58.7561L93.2102 58.7561L93.2102 64.9061C93.1402 72.0061 93.1402 71.9361 94.4902 72.3461C97.1602 72.6061 99.8502 72.6061 102.52 72.3461C103.07 70.9261 103.55 69.4861 103.94 68.0161Z M116.077 15.7536L117.767 15.7536C126.467 15.7536 130.107 5.95361 121.607 5.27361L118.907 5.27361C118.577 5.27361 118.577 5.61361 117.287 10.5436L117.287 10.3436L116.077 15.7536Z M69.6688 28.2586C71.4288 29.5486 72.7088 27.5886 73.5888 24.7486C75.1388 19.4686 75.1388 17.3086 72.5088 17.8486L72.1688 17.9886C70.0088 18.9286 67.9188 26.9786 69.6688 28.2586Z M137.319 28.6012C139.009 29.5412 142.579 25.5612 142.579 20.9612C143.059 18.6612 141.779 17.6512 140.089 18.4612L139.619 18.5912C137.319 19.6712 135.639 27.6512 137.319 28.6012Z M93.2081 47.6666C93.0281 48.3566 92.8081 49.0366 92.5381 49.6966C92.5381 49.6966 93.0781 49.6966 93.8881 49.0866C95.7981 48.0266 97.9781 47.5366 100.158 47.6666L102.988 47.6666C103.258 47.0166 103.438 46.3366 103.528 45.6366C100.298 45.4366 97.0581 45.4366 93.8181 45.6366L93.2081 47.6666Z M91.3915 54.2288L101.172 54.2288L101.712 52.4688L91.8615 52.3988L91.3915 54.2288Z M122.013 50.9786L123.433 50.5086L125.993 49.8286L127.343 49.8286C127.343 49.8286 128.483 46.3186 128.483 46.1786L123.493 46.1786L122.683 48.6086L122.683 48.3386C122.413 49.2086 122.183 50.0886 122.013 50.9786Z M125.585 55.3715L125.995 54.0215L120.935 54.0215L120.935 54.0915C120.935 54.0915 120.465 55.3715 120.125 56.7215C119.785 58.0815 119.315 59.2915 119.315 59.2915L120.665 58.8215C121.505 58.4715 122.395 58.2215 123.295 58.0815C124.775 58.0815 124.845 58.0815 124.985 57.1315C125.115 56.1815 125.315 56.0515 125.585 55.3715Z M116.954 67.2029L116.994 67.0729L116.954 67.0729L116.954 67.2029Z M121.944 67.0729C122.954 63.6929 123.294 62.6129 123.294 62.4729L118.304 62.4729L116.994 67.0729L121.944 67.0729Z " /></g></g></g></g></g></g></svg>