<svg xmlns="http://www.w3.org/2000/svg" xmlns:xlink="http://www.w3.org/1999/xlink" width="36" height="23" viewBox="0 0 36 23" fill="none"><defs><rect id="path_0" x="0" y="0" width="36.00000000000003" height="22.299167027116944" /><rect id="path_1" x="0" y="0" width="36.00000000000003" height="22.299167027116944" /></defs><g opacity="1" transform="translate(0 0.0008071114415280078)  rotate(0 18.000000000000014 11.149583513558472)"><mask id="bg-mask-0" fill="white"><use xlink:href="#path_0"></use></mask><g mask="url(#bg-mask-0)" ><g opacity="1" transform="translate(0 0)  rotate(0 18.000000000000014 11.149583513558472)"><mask id="bg-mask-1" fill="white"><use xlink:href="#path_1"></use></mask><g mask="url(#bg-mask-1)" ><path id="路径 1" fill-rule="evenodd" style="fill:#E60012" transform="translate(0 0.020555139802103488)  rotate(0 9.472218694810417 11.13930594365742)" opacity="1" d="M14.61,20.33C14.73,19.98 18.94,2.12 18.94,1.81C19,0.99 18.47,0.24 17.67,0.03C17.48,0.03 7.16,-0.04 6.73,0.03L6.75,0.01C5.64,0.2 4.71,0.96 4.32,2C4.09,2.62 0.03,20.15 0.01,20.46C-0.07,21.32 0.52,22.08 1.37,22.22C1.69,22.3 12.02,22.3 12.36,22.22C13.38,22 14.22,21.3 14.61,20.33Z " /><path id="路径 2" fill-rule="evenodd" style="fill:#00508E" transform="translate(9.651369491485978 0.020555139802103488)  rotate(0 9.47831122035163 11.13930594365742)" opacity="1" d="M6.72,0.03L6.72,0.01C5.62,0.2 4.7,0.95 4.3,2C4.09,2.62 0.01,20.15 0.01,20.46C-0.07,21.32 0.52,22.09 1.37,22.22C1.69,22.3 12.02,22.3 12.36,22.22C13.38,22.01 14.23,21.3 14.61,20.33C14.74,19.98 18.95,2.12 18.95,1.81C19.01,0.99 18.48,0.24 17.68,0.03C17.47,0.03 7.16,-0.04 6.72,0.03Z " /><path id="路径 3" fill-rule="evenodd" style="fill:#00908C" transform="translate(19.698351576293746 0)  rotate(0 8.15082421185314 11.149583513558472)" opacity="1" d="M1.37 22.24C1.69 22.32 9.38 22.32 9.72 22.24C10.74 22.03 11.58 21.32 11.97 20.35C12.1 20 16.3 2.14 16.3 1.83C16.36 1.01 15.83 0.27 15.04 0.06C14.85 0 6.22 -0.03 5.78 0.06L6.6 0.06C5.55 0.28 4.69 1.02 4.3 2.02C4.09 2.64 0.01 20.17 0.01 20.49C-0.07 21.34 0.52 22.1 1.37 22.24Z" /><path id="分组 1" fill-rule="evenodd" style="fill:#FFFFFF" transform="translate(4.1352223522673945 5.657956176569299)  rotate(0 14.523693767827956 6.041120280701317)" opacity="1" d="M5.3 0.01L4 0.01C4 0.26 3.19 3.69 3.08 3.89C2.7 4.66 1.62 4.71 1.47 3.98C1.63 2.74 1.9 1.51 2.28 0.31C2.3 0.23 2.3 0.15 2.28 0.07L2.36 0.03C1.86 -0.01 1.36 -0.01 0.85 0.03C0.46 1.48 0.17 2.95 0 4.43C0.22 5.73 3.14 5.76 4.02 4.49C4.43 3.68 4.71 2.8 4.85 1.9C5.07 0.97 5.3 0.12 5.3 0.12C5.3 0.09 5.3 0.05 5.3 0.01Z M18.6996 0.0669481Z M21.6096 0.0669481C21.0896 0.0369481 20.5796 0.0369481 20.0596 0.0669481L18.6996 0.0669481C18.6996 0.116948 18.5796 0.516948 17.4596 5.33695C17.9096 5.42695 18.3596 5.42695 18.8096 5.33695C18.8096 5.29695 18.9196 5.04695 18.9196 4.79695C19.1996 3.38695 19.1696 3.46695 19.6196 3.46695C21.1196 3.46695 21.9796 3.01695 22.3596 1.97695C22.7496 0.946948 22.4996 0.256948 21.6196 0.0669481L21.6096 0.0669481Z M8.93918 2.67954C9.29918 3.02954 10.2692 2.70954 10.2692 2.23954C10.2392 2.06954 10.1092 1.94954 9.94918 1.91954C9.32917 1.77954 8.57917 2.32954 8.93918 2.67954Z M6.57134 2.28395L6.60134 2.28395C6.60134 2.18395 6.56134 2.17395 6.42134 2.19395L5.85134 2.28395C5.29134 2.36395 5.38134 2.30395 5.29134 2.86395C5.19134 3.51395 5.05134 4.15395 4.88134 4.79395C4.73134 5.43395 4.68134 5.35395 5.40134 5.35395L5.98134 5.35395L5.98134 5.18395C6.01134 5.02395 6.38134 3.33395 6.39134 3.27395C6.40134 3.21395 6.49134 3.12395 6.76134 3.12395C7.03134 3.12395 7.01134 3.30395 6.70134 4.63395C6.62134 4.99395 6.58134 5.27395 6.56134 5.33395C6.53134 5.38395 6.42134 5.38395 7.12134 5.38395C7.82134 5.38395 7.75134 5.41395 7.82134 5.02395C7.84134 4.86395 7.92134 4.52395 7.97134 4.28395C8.28134 2.90395 8.36134 2.91395 8.18134 2.54395C8.00134 2.17395 7.40134 2.11395 6.80134 2.40395L6.57134 2.52395L6.57134 2.45395C6.57134 2.39395 6.57134 2.28395 6.57134 2.28395Z M15.7225 3.16258C16.0425 3.16258 16.0425 3.33258 15.7225 4.70258C15.6525 5.04258 15.5725 5.37258 15.5725 5.37258C15.9625 5.44258 16.3625 5.44258 16.7525 5.37258C16.8025 5.22258 16.8325 5.06258 16.8625 4.90258C16.9225 4.68258 17.0125 4.19258 17.0925 3.86258C17.4225 2.31258 16.9325 1.83258 15.8025 2.43258L15.5725 2.54258L15.5725 2.45258C15.5725 2.39258 15.5725 2.28258 15.5725 2.28258L15.6125 2.26258C15.6125 2.18258 15.5625 2.17258 15.3625 2.26258L14.7925 2.35258C14.3125 2.43258 14.4125 2.35258 14.3125 2.85258C14.2125 3.36258 14.0625 4.10258 13.8925 4.80258C13.7225 5.50258 13.6525 5.41258 14.3725 5.41258L14.9725 5.41258L14.9725 5.21258C15.0025 4.96258 15.3225 3.57258 15.3525 3.41258C15.3925 3.24258 15.4125 3.16258 15.7225 3.16258Z M25.7683 2.73153C25.8283 3.01153 25.9383 3.97153 26.0283 4.77153L26.1083 5.47153L25.8083 5.99153C25.6583 6.29153 25.4683 6.59153 25.4083 6.68153L25.2183 7.02153C25.0783 7.32153 25.0283 7.32153 24.8583 7.32153L24.7183 7.32153L24.6583 7.52153C24.6383 7.64153 24.5583 7.78153 24.5583 7.86153L24.5583 8.00153L25.0483 8.00153C25.8583 7.97153 25.8583 7.97153 26.8283 6.24153C27.1483 5.68153 28.0383 4.14153 28.6783 3.01153C29.1583 2.19153 29.1583 2.23153 28.7383 2.30153L28.2283 2.39153C27.8083 2.45153 27.8883 2.38153 27.5083 3.13153C27.3183 3.51153 27.1483 3.81153 27.1483 3.79153C27.1483 3.77153 27.1383 3.41153 27.0583 2.28153L27.0183 2.26153C26.9983 2.23153 26.9683 2.23153 26.6083 2.34153C26.4683 2.36153 26.2183 2.43153 26.0783 2.43153C25.7683 2.47153 25.7183 2.45153 25.7683 2.73153Z M11.0221 2.73958C10.5421 3.15958 10.2821 3.77958 10.3321 4.41958C10.3321 5.23958 11.0121 5.65958 12.1421 5.40958C13.7321 5.04958 14.2421 2.53958 12.7821 2.27958C12.1521 2.14958 11.5021 2.31958 11.0221 2.73958Z M23.3122 5.28428C23.3722 5.23428 23.3722 5.26428 23.3722 5.34428L23.3722 5.41428L24.0022 5.41428C24.7822 5.43428 24.6522 5.51428 24.7822 4.83428C24.8722 4.38428 25.0822 3.46428 25.3322 2.41428C25.3722 2.25428 25.5322 2.22428 24.7822 2.34428C24.0322 2.45428 24.0322 2.44428 24.0322 2.53428C24.0322 2.62428 24.0322 2.62428 23.9322 2.53428C23.8522 2.46428 23.7722 2.40428 23.6822 2.36428L23.6822 2.32428C22.5922 1.82428 21.0922 4.02428 21.7922 5.07428C22.0722 5.49428 23.0922 5.62428 23.3122 5.28428Z M10.1011 3.07243C10.1111 3.01243 10.1111 2.96243 10.1011 2.90243L10.121 2.90243C10.1011 2.90243 10.0111 2.90243 9.85105 2.90243L9.29105 2.99243C8.74105 3.07243 8.82105 2.99243 8.74105 3.47243C8.66105 3.99243 8.55105 4.49243 8.40105 4.99243C8.25105 5.39243 8.21105 5.39243 8.94105 5.39243L9.57105 5.39243L9.63105 5.10243C9.69105 4.88243 9.94105 3.66243 10.1011 3.07243Z M13.416 6.76296C13.026 6.71296 12.626 6.71296 12.226 6.76296L12.036 7.11296C11.816 7.56296 11.756 7.56296 11.486 7.56296L11.336 7.56296L11.126 8.23296C11.126 8.39296 12.226 8.14296 12.446 7.95296L12.536 7.88296L14.136 7.88296L14.346 7.21296C14.346 7.13296 14.346 7.13296 13.216 7.13296C13.256 7.08296 13.286 7.02296 13.316 6.96296C13.356 6.90296 13.386 6.84296 13.406 6.77296L13.416 6.76296Z M17.4962 9.44682C17.7062 9.35682 17.8762 9.19682 17.9662 8.98682C18.0662 8.79682 18.6761 6.73682 18.6761 6.73682C18.4062 6.71682 18.1461 6.71682 17.8762 6.73682C17.2461 6.64682 16.5961 6.76682 16.0462 7.07682C15.9761 7.12682 15.9061 7.17682 15.8261 7.20682C15.8261 7.13682 15.8261 7.06682 15.8261 6.99682C15.8561 6.92682 15.8762 6.84682 15.8862 6.77682L15.8961 6.75682C15.5661 6.72682 15.2462 6.72682 14.9162 6.75682C14.8961 6.79682 13.5361 11.2468 13.4761 11.4968C13.3661 12.0368 13.5062 12.0368 14.7062 12.0368L15.2561 12.0368L15.3661 11.6668C15.5061 11.2168 15.6362 11.2968 15.0862 11.2968C14.5361 11.2968 14.5361 11.3868 14.9162 10.1668L15.1061 9.52682L16.2361 9.52682L17.3062 9.52682L17.4962 9.44682Z M22.6089 7.44954C22.6089 7.44954 22.7089 7.44954 22.7989 7.44954L22.9989 7.44954L23.0489 7.25954L23.0489 7.08954L23.0489 7.33954C23.0689 7.83954 23.1989 7.91954 24.0789 7.91954L24.4089 7.91954L24.4989 7.57954L24.5989 7.24954L24.4389 7.24954C24.1889 7.20954 24.1889 7.18954 24.1889 6.92954L24.1889 6.70954L23.6889 6.70954C22.8089 6.62954 21.9189 6.69954 21.0589 6.92954C20.8689 7.10954 20.8689 7.10954 20.8689 6.92954C20.8689 6.87954 20.8689 6.82954 20.8689 6.76954L20.8089 6.59954C20.6189 6.58954 20.4189 6.58954 20.2289 6.59954L19.6989 6.59954L19.6189 6.84954C19.5289 6.97954 19.2889 7.91954 18.4089 10.8595C18.3689 10.9895 18.3789 10.9895 18.2689 10.9895C18.1589 10.9895 18.1789 10.9895 18.0689 11.3295L17.9689 11.6695C17.9589 11.7195 17.8489 11.7195 19.0089 11.7195C20.1689 11.7195 20.0689 11.6995 20.0089 11.8895L21.1389 11.8895L21.1389 11.7795C21.1789 11.6695 21.1989 11.6695 21.3289 11.6695C21.4689 11.6695 21.5389 11.5795 21.4689 11.7295C21.3889 11.8895 21.3889 11.8895 21.8989 11.8895C22.6889 11.8895 22.7389 11.8695 23.3589 11.0295L23.5789 10.7195L23.6389 11.1395C23.7489 11.7795 23.8689 11.8695 24.4889 11.8695L24.8489 11.8695L24.9589 11.4995C25.1589 11.0795 25.2089 11.0795 24.9589 11.0795C24.7189 11.0795 24.7189 11.0795 24.6389 10.5795L24.5689 10.1295L24.0789 10.1295L24.2689 9.89954L25.5189 9.89954L25.6089 9.59954C25.7389 9.26954 25.7689 9.26954 25.1289 9.26954L24.5789 9.26954L24.5789 9.18954C24.5989 9.15954 24.6389 9.01954 24.7389 8.73954L25.2989 8.73954L25.8589 8.73954L25.9689 8.41954C25.9989 8.30954 26.0289 8.18954 26.0589 8.07954L22.6789 8.07954L22.4889 8.74954L23.6889 8.74954C23.6889 8.77954 23.6589 8.88954 23.5489 9.27954L22.2989 9.27954L22.1989 9.58954C22.0789 9.90954 22.0289 9.90954 22.6589 9.90954L23.1989 9.90954L22.9489 10.2695C22.3489 11.1695 22.3489 11.0895 22.2189 11.1695C22.1289 11.2295 22.0189 11.2595 21.9189 11.2495C21.7189 11.2495 21.7189 11.2395 21.7789 11.0795C21.8389 10.9195 21.7789 10.9195 21.6689 10.9195C21.5589 10.9195 21.5589 10.9195 21.5589 10.9195C21.6889 10.4995 22.6089 7.44954 22.6089 7.44954Z M12.8948 11.3423C12.1748 11.4323 12.1448 11.4023 12.3448 10.7723L12.4748 10.3223L13.6048 10.3223L13.6748 10.0823C13.7648 9.93231 13.7648 9.74232 13.7648 9.74232C13.7748 9.70231 13.7748 9.66232 13.7648 9.63231L13.1748 9.63231C12.6148 9.63231 12.5848 9.62231 12.6148 9.57232C12.6348 9.53232 12.6648 9.41232 12.7748 9.04231L13.9048 9.04231L14.0948 8.46231C13.6348 8.45232 11.3148 8.41232 11.2948 8.46231C11.2748 8.51231 11.1048 9.10231 11.1048 9.10231C11.1048 9.10231 11.1848 9.10231 11.4048 9.10231L11.7548 9.10231L11.5948 9.68231L11.2848 9.68231C10.9448 9.68231 10.9448 9.65232 10.9448 9.68231C10.9448 9.72231 10.8848 9.86232 10.7548 10.3423L11.0648 10.3423C11.1748 10.3323 11.2848 10.3323 11.3948 10.3423L11.2048 10.9523C10.8648 12.0823 10.8848 12.0823 12.1348 12.0823L12.9248 12.0823L13.0348 11.7123C13.1748 11.2623 13.1948 11.3423 12.8948 11.3423Z M14.1748 8.46231L14.1148 8.39231L14.0948 8.46231C14.1448 8.46231 14.1748 8.46231 14.1748 8.46231Z M14.1748 8.46231C14.1748 8.46231 14.1748 8.46231 14.1748 8.46231Z M17.4035 9.74487L17.0234 9.74487L17.0234 9.88487C16.9334 10.1649 16.9035 10.1649 16.7034 10.1649L16.5134 10.1649L16.5134 9.77487L15.5434 9.77487L15.5434 10.7949C15.5334 11.9849 15.5334 11.9649 15.7634 12.0349C16.2034 12.0849 16.6535 12.0849 17.1034 12.0349C17.1934 11.8049 17.2734 11.5649 17.3335 11.3149L16.9534 11.3149L16.5735 11.3149L16.5134 11.2349C16.4834 11.0449 16.4834 10.8449 16.5134 10.6549L16.9035 10.6549C17.5134 10.6149 17.6735 10.5049 17.7834 9.97487C17.7934 9.89487 17.7934 9.82487 17.7834 9.74487L17.8434 9.71487C17.8634 9.62487 17.8235 9.62487 17.4035 9.74487Z M19.3609 2.61747L19.6409 2.61747C21.0909 2.61747 21.7009 0.987467 20.2809 0.877467L19.8309 0.877467C19.7809 0.877467 19.7809 0.937467 19.5609 1.75747L19.5609 1.71747L19.3609 2.61747Z M11.6218 4.70649C11.9118 4.91649 12.1318 4.58649 12.2718 4.11649C12.5318 3.23649 12.5318 2.87649 12.0918 2.96649L12.0418 2.99649C11.6818 3.14649 11.3318 4.48649 11.6218 4.70649Z M22.9005 4.75513C23.1905 4.91513 23.7805 4.25513 23.7805 3.48513C23.8605 3.10513 23.6505 2.93513 23.3705 3.07513L23.2905 3.09513C22.9005 3.27513 22.6205 4.60513 22.9005 4.75513Z M15.5447 7.92844C15.5147 8.04844 15.4747 8.15844 15.4347 8.26844C15.4347 8.26844 15.5247 8.26844 15.6547 8.16844C15.9747 7.98844 16.3447 7.90844 16.7047 7.92844L17.1747 7.92844C17.2247 7.81844 17.2547 7.70844 17.2647 7.59844C16.7247 7.55844 16.1847 7.55844 15.6447 7.59844L15.5447 7.92844Z M15.2434 9.01856L16.8734 9.01856L16.9634 8.72856L15.3234 8.71856L15.2434 9.01856Z M20.3508 8.48358L20.5908 8.40358L21.0108 8.29358L21.2408 8.29358C21.2408 8.29358 21.4308 7.70358 21.4308 7.68358L20.6008 7.68358L20.4608 8.08358L20.4608 8.04358C20.4208 8.18358 20.3808 8.33358 20.3508 8.48358Z M20.8408 9.50855C20.8708 9.34855 20.9008 9.32855 20.9508 9.20855L21.0108 8.98855L20.1708 8.98855L20.1708 8.99855C20.1708 8.99855 20.0908 9.20855 20.0308 9.43855C19.9808 9.65855 19.9008 9.86855 19.9008 9.86855L20.1208 9.78855C20.2708 9.72855 20.4108 9.68855 20.5608 9.65855C20.8108 9.65855 20.8208 9.65855 20.8408 9.50855Z M19.5071 11.1848L19.5171 11.1548L19.5071 11.1548L19.5071 11.1848Z M20.3371 11.1548C20.5071 10.5948 20.5671 10.4148 20.5671 10.3948L19.7271 10.3948L19.5171 11.1548L20.3371 11.1548Z " /></g></g></g></g></svg>