<svg xmlns="http://www.w3.org/2000/svg" xmlns:xlink="http://www.w3.org/1999/xlink" width="359" height="180" viewBox="0 0 359 180" fill="none"><defs><path id="path_0"
        transform="translate(0 0) rotate(0 179.5 90)"
        d="M4,180L355,180C357.21,180 359,178.21 359,176L359,4C359,1.79 357.21,0 355,0L4,0C1.79,0 0,1.79 0,4L0,176C0,178.21 1.79,180 4,180Z" /><linearGradient id="linear_0" x1="0%" y1="0%" x2="100%" y2="100%" gradientUnits="objectBoundingBox"><stop offset="0" stop-color="#DFF5DF" stop-opacity="1" /><stop offset="1" stop-color="#DFF5DF" stop-opacity="0.01" /></linearGradient><filter id="filter_2" x="-10" y="-10" width="379" height="200" filterUnits="userSpaceOnUse" color-interpolation-filters="sRGB"><feFlood flood-opacity="0" result="BackgroundImageFix"/>
          <feColorMatrix in="SourceAlpha" type="matrix" values="0 0 0 0 0 0 0 0 0 0 0 0 0 0 0 0 0 0 127 0"/>
          <feOffset dx="4" dy="4"/>
          <feGaussianBlur stdDeviation="5"/>
          <feColorMatrix type="matrix" values="0 0 0 0 0.9215686274509803 0 0 0 0 0.9803921568627451 0 0 0 0 0.9215686274509803 0 0 0 1 0"/>
          <feBlend mode="normal" in2="BackgroundImageFix" result="effect1_Shadow"/>
          <feBlend mode="normal" in="SourceGraphic" in2="effect1_Shadow" result="shape"/></filter><rect id="path_1" x="0" y="0" width="218.00000000000165" height="187.5813953488384" /></defs><g opacity="1" transform="translate(0 0)  rotate(0 179.5 90)"><mask id="mask-0" fill="white"><use xlink:href="#path_0"></use></mask><g mask="url(#mask-0)"><g id="矩形 1" filter="url(#filter_2)"><path id="矩形 1" fill-rule="evenodd" fill="url(#linear_0)" transform="translate(0 0)  rotate(0 179.5 90)" opacity="1" d="M4,180L355,180C357.21,180 359,178.21 359,176L359,4C359,1.79 357.21,0 355,0L4,0C1.79,0 0,1.79 0,4L0,176C0,178.21 1.79,180 4,180Z " /></g></g><g mask="url(#mask-0)"><g opacity="1" transform="translate(170.5607338771042 -24.984564608850633)  rotate(-15 109.00000000000082 93.7906976744192)"><mask id="bg-mask-1" fill="white"><use xlink:href="#path_1"></use></mask><g mask="url(#bg-mask-1)" ><path id="路径 1" fill-rule="evenodd" style="fill:#C0EDBF" transform="translate(0 0)  rotate(0 109.00000000000084 93.7906976744192)" opacity="1" d="M64.13,173.3C65.89,172.33 67.92,171.59 69.95,171.59C70.95,171.59 72.22,171.83 73.22,172.09C84.33,175.28 96.47,177.02 108.85,177.02C168.98,177.02 218,137.37 218,88.4C218,73.62 213.46,59.61 205.62,47.28L80.08,117.93L79.33,118.43L79.33,118.43C78.32,118.93 77.3,119.17 76.05,119.17C73.27,119.17 71,117.69 69.73,115.48L69.21,114.5L49.26,72.15C49.02,71.65 49.02,71.17 49.02,70.67C49.02,68.7 50.53,67.22 52.56,67.22C53.32,67.22 54.07,67.46 54.83,67.96L78.32,84.21C80.08,85.19 82.11,85.93 84.38,85.93C85.65,85.93 86.9,85.69 88.17,85.19L198.34,37.43C178.63,14.78 146.05,0 109.15,0C49.02,0 0,39.64 0,88.62C0,115.2 14.65,139.32 37.64,155.58C39.39,156.81 40.66,159.03 40.66,161.24C40.66,161.98 40.42,162.71 40.15,163.45C38.39,170.09 35.34,180.94 35.34,181.42C35.1,182.16 34.83,183.13 34.83,184.13C34.83,186.11 36.34,187.58 38.37,187.58C39.13,187.58 39.88,187.34 40.4,186.84L64.13,173.3Z " /></g></g></g></g></svg>