<svg xmlns="http://www.w3.org/2000/svg" xmlns:xlink="http://www.w3.org/1999/xlink" width="40" height="40" viewBox="0 0 40 40" fill="none"><defs><rect id="path_0" x="0" y="0" width="38.91350797568904" height="32" /><rect id="path_1" x="0" y="0" width="1" height="1" /></defs><g opacity="1" transform="translate(0 0)  rotate(0 20 20)"><path id="圆形 1" fill-rule="evenodd" style="fill:#457DFF" transform="translate(15 15)  rotate(0 12.5 12.5)" opacity="1" d="M12.5,0C5.6,0 0,5.6 0,12.5C0,19.4 5.6,25 12.5,25C19.4,25 25,19.4 25,12.5C25,5.6 19.4,0 12.5,0Z " /><g opacity="1" transform="translate(0.006256403109546227 4)  rotate(0 19.45675398784452 16)"><mask id="bg-mask-0" fill="white"><use xlink:href="#path_0"></use></mask><g mask="url(#bg-mask-0)" ><path id="分组 1" fill-rule="evenodd" style="fill:#2B2F38" transform="translate(0 0)  rotate(0 19.45675398784452 16)" opacity="1" d="M0.96 3.92L0.94 3.92C0.91 3.92 0.89 3.93 0.86 3.94C0.82 3.95 0.78 3.96 0.74 3.97L0.66 4.01C0.62 4.03 0.58 4.04 0.55 4.07L0.48 4.11C0.44 4.14 0.41 4.16 0.37 4.2L0.32 4.24C0.28 4.28 0.24 4.33 0.21 4.38C0.21 4.38 0.2 4.39 0.19 4.4C0.15 4.45 0.12 4.51 0.09 4.57C0.09 4.6 0.08 4.62 0.07 4.64C0.05 4.68 0.04 4.73 0.03 4.77C0.03 4.8 0.03 4.82 0.01 4.85C0 4.87 0 4.9 0 4.92C0 4.94 0 4.96 0 4.99C0 5 0 5.01 0 5.03L0 25.46C0 25.9 0.26 26.31 0.67 26.49L12.6 31.89C12.83 32 13.09 32.03 13.34 31.97L37.79 26.58C38.31 26.47 38.68 26.02 38.69 25.5L38.91 5.87C38.91 5.77 38.9 5.67 38.87 5.58C38.89 5.52 38.9 5.45 38.91 5.38C38.95 4.86 38.62 4.38 38.12 4.22L25.42 0.06C25.24 0 25.05 -0.02 24.86 0.02L0.96 3.92Z M5.63635 5.44948L13.1964 8.19948L32.9864 4.92948L24.9664 2.29948L5.63635 5.44948Z M8.48525 8.91441L8.48525 27.5444L11.9253 29.0944L11.9253 10.1644L8.48525 8.91441Z M2.31153 24.7567L6.17153 26.5067L6.17153 8.07675L2.31153 6.67675L2.31153 24.7567Z M36.3831 24.5775L36.5831 6.63753L14.2431 10.3375L14.2431 29.4675L36.3831 24.5775Z " /><path id="分组 2" fill-rule="evenodd" style="fill:#2B2F38" transform="translate(17.220975771010476 8.761887908105821)  rotate(0 8.223102094199156 9.290531192705886)" opacity="1" d="M-7.10543e-15 3.6379L-7.10543e-15 17.6779C-7.10543e-15 18.1779 0.42 18.5779 0.93 18.5779C1.44 18.5779 1.85 18.1779 1.85 17.6779L1.85 3.6379C1.85 3.1379 1.44 2.7279 0.93 2.7279C0.42 2.7279 -7.10543e-15 3.1379 -7.10543e-15 3.6379Z M5.0484 2.6901L5.0484 16.5401C5.0484 17.0401 5.4684 17.4501 5.97839 17.4501C6.4884 17.4501 6.8984 17.0401 6.8984 16.5401L6.8984 2.6901C6.8984 2.1901 6.4884 1.7801 5.97839 1.7801C5.4684 1.7801 5.0484 2.1901 5.0484 2.6901Z M14.5936 0.91L14.5936 14.57C14.5936 15.07 15.0136 15.48 15.5236 15.48C16.0336 15.48 16.4436 15.07 16.4436 14.57L16.4436 0.91C16.4436 0.41 16.0336 -1.77636e-15 15.5236 -1.77636e-15C15.0136 -1.77636e-15 14.5936 0.41 14.5936 0.91Z M9.90998 1.84254L9.90998 15.5025C9.90998 16.0025 10.32 16.4125 10.84 16.4125C11.35 16.4125 11.76 16.0025 11.76 15.5025L11.76 1.84254C11.76 1.34254 11.35 0.932539 10.84 0.932539C10.32 0.932539 9.90998 1.34254 9.90998 1.84254Z " /></g></g><g opacity="1" transform="translate(0 0)  rotate(0 0.5 0.5)"><mask id="bg-mask-1" fill="white"><use xlink:href="#path_1"></use></mask><g mask="url(#bg-mask-1)" ></g></g></g></svg>