<svg xmlns="http://www.w3.org/2000/svg" xmlns:xlink="http://www.w3.org/1999/xlink" width="40" height="40" viewBox="0 0 40 40" fill="none"><defs><rect id="path_0" x="0" y="0" width="38.03720930232759" height="40" /></defs><g opacity="1" transform="translate(0 0)  rotate(0 20 20)"><path id="圆形 1" fill-rule="evenodd" style="fill:#457DFF" transform="translate(15 15)  rotate(0 12.5 12.5)" opacity="1" d="M12.5,0C5.6,0 0,5.6 0,12.5C0,19.4 5.6,25 12.5,25C19.4,25 25,19.4 25,12.5C25,5.6 19.4,0 12.5,0Z " /><g opacity="1" transform="translate(0 0)  rotate(0 19.018604651163795 20)"><mask id="bg-mask-0" fill="white"><use xlink:href="#path_0"></use></mask><g mask="url(#bg-mask-0)" ><path id="分组 1" fill-rule="evenodd" style="fill:#2B2F38" transform="translate(0 0)  rotate(0 19.018604651163795 20)" opacity="1" d="M2.09411 7.00406L2.09411 31.9041C2.09411 32.5541 2.62411 33.0841 3.28411 33.0841L11.7941 33.0841C12.4441 33.0841 12.9841 32.5541 12.9841 31.9041L12.9841 7.01406C12.9841 6.36406 12.4441 5.83406 11.7941 5.83406L3.28411 5.82406C2.62411 5.82406 2.09411 6.35406 2.09411 7.00406Z M10.6016 8.19131L4.47158 8.19131L4.47158 30.7213L10.6016 30.7213L10.6016 8.19131Z M13.576 7.00406L13.576 31.9041C13.576 32.5541 14.106 33.0841 14.766 33.0841L23.266 33.0841C23.926 33.0841 24.456 32.5541 24.456 31.9041L24.456 7.01406C24.456 6.36406 23.926 5.83406 23.266 5.83406L14.766 5.82406C14.106 5.82406 13.576 6.35406 13.576 7.00406Z M22.0835 8.19131L15.9535 8.19131L15.9535 30.7213L22.0835 30.7213L22.0835 8.19131Z M25.0579 7.00406L25.0579 31.9041C25.0579 32.5541 25.5879 33.0841 26.2479 33.0841L34.7479 33.0841C35.4079 33.0841 35.9379 32.5541 35.9379 31.9041L35.9379 7.01406C35.9379 6.36406 35.4079 5.83406 34.7479 5.83406L26.2479 5.82406C25.5879 5.82406 25.0579 6.35406 25.0579 7.00406Z M33.5654 30.7213L33.5654 8.19131L27.4354 8.19131L27.4354 30.7213L33.5654 30.7213L33.5654 30.7213Z M31.69 1.18C31.69 0.53 31.16 0 30.5 0C29.84 0 29.31 0.53 29.31 1.18L29.31 2.68L20.21 2.68L20.21 1.18C20.21 0.53 19.67 0 19.02 0C18.36 0 17.83 0.53 17.83 1.18L17.83 2.68L8.72 2.68L8.72 1.18C8.72 0.53 8.19 0 7.54 0C6.88 0 6.35 0.53 6.35 1.18L6.35 2.68L1.19 2.68C0.53 2.69 0 3.22 0 3.87C0 4.52 0.54 5.05 1.19 5.05L36.85 5.05C37.5 5.05 38.03 4.52 38.03 3.87C38.03 3.21 37.5 2.68 36.85 2.68L31.69 2.68L31.69 1.18Z M31.71 40.0048C32.36 40.0048 32.9 39.4748 32.9 38.8148L32.9 36.2248L36.85 36.2248C37.5 36.2248 38.04 35.6948 38.04 35.0348C38.04 34.3848 37.5 33.8548 36.85 33.8548L1.19 33.8548C0.53 33.8548 0 34.3848 0 35.0348C0 35.6948 0.53 36.2248 1.19 36.2248L5.14 36.2248L5.14 38.8148C5.14 39.4748 5.68 40.0048 6.33 40.0048L12.9 40.0048C13.56 40.0048 14.09 39.4748 14.09 38.8148L14.09 36.2248L23.95 36.2248L23.95 38.8148C23.95 39.4748 24.48 40.0048 25.14 40.0048L31.71 40.0048Z M11.7117 36.222L7.52174 36.222L7.52174 37.632L11.7117 37.632L11.7117 36.222Z M30.5173 37.632L30.5173 36.222L26.3272 36.222L26.3272 37.632L30.5173 37.632L30.5173 37.632Z " /></g></g></g></svg>