<svg xmlns="http://www.w3.org/2000/svg" xmlns:xlink="http://www.w3.org/1999/xlink" width="40" height="40" viewBox="0 0 40 40" fill="none"><defs><rect id="path_0" x="0" y="0" width="30.891089108910865" height="39.999999999999986" /></defs><g opacity="1" transform="translate(0 0)  rotate(0 20 20)"><path id="圆形 1" fill-rule="evenodd" style="fill:#457DFF" transform="translate(15 15)  rotate(0 12.5 12.5)" opacity="1" d="M12.5,0C5.6,0 0,5.6 0,12.5C0,19.4 5.6,25 12.5,25C19.4,25 25,19.4 25,12.5C25,5.6 19.4,0 12.5,0Z " /><g opacity="1" transform="translate(0 0)  rotate(0 15.445544554455433 19.999999999999993)"><mask id="bg-mask-0" fill="white"><use xlink:href="#path_0"></use></mask><g mask="url(#bg-mask-0)" ><path id="分组 1" fill-rule="evenodd" style="fill:#2B2F38" transform="translate(0 0)  rotate(0 15.445544554455433 19.999999999999993)" opacity="1" d="M3.09 0C1.38 0 0 1.38 0 3.08L0 38.82C0 39.47 0.53 40 1.19 40L29.7 40C30.36 40 30.89 39.47 30.89 38.82L30.89 3.08C30.89 1.38 29.51 0 27.8 0L3.09 0Z M28.5164 3.07693C28.5164 2.68693 28.1964 2.36693 27.8064 2.36693L3.08641 2.36693C2.89641 2.36693 2.71641 2.43693 2.58641 2.57693C2.45641 2.70693 2.37641 2.88693 2.37641 3.07693L2.37641 37.6369L28.5164 37.6369L28.5164 3.07693Z " /><path id="分组 2" fill-rule="evenodd" style="fill:#2B2F38" transform="translate(4.752828486356167 5.079181365254097)  rotate(0 10.693874107597711 6.862959200170874)" opacity="1" d="M1.19 13.73L20.2 13.73C20.85 13.73 21.39 13.2 21.39 12.54L21.39 1.19C21.39 0.87 21.26 0.57 21.04 0.35C20.82 0.12 20.51 -3.87978e-08 20.2 -3.87978e-08L1.19 -3.87978e-08C0.87 -3.87978e-08 0.57 0.12 0.35 0.35C0.13 0.57 0 0.87 0 1.18L0 12.54C0 13.2 0.53 13.73 1.19 13.73Z M19.0064 2.36465L2.37641 2.36465L2.37641 11.3546L19.0064 11.3546L19.0064 2.36465Z " /><path id="路径 5" fill-rule="evenodd" style="fill:#2B2F38" transform="translate(3.8895105482242935 21.149162426388628)  rotate(0 1.187061323457743 1.183466894149379)" opacity="1" d="M2.37 1.18C2.37 1.84 1.84 2.37 1.19 2.37C0.87 2.37 0.57 2.24 0.35 2.02C0.12 1.8 0 1.5 0 1.18C0 0.53 0.53 0 1.19 0C1.5 0 1.8 0.12 2.03 0.35C2.25 0.57 2.37 0.87 2.37 1.18Z" /><g opacity="1" transform="translate(9.45514381971969 9.005774398261963)  rotate(0 5.9904007347358466 2.4012349208164183)"><path id="路径 6" fill-rule="evenodd" style="fill:#2B2F38" transform="translate(0 -7.105427357601002e-15)  rotate(0 3.4716312422079882 2.4012349208164183)" opacity="1" d="M0,4.8L6.94,4.8L6.94,0L0,0L0,4.8Z " /><path id="路径 7" fill-rule="evenodd" style="fill:#2B2F38" transform="translate(10.079670074929268 -7.105427357601002e-15)  rotate(0 0.9505656972712123 0.946772625921899)" opacity="1" d="M0,1.89L1.9,1.89L1.9,0L0,0L0,1.89Z " /><path id="路径 8" fill-rule="evenodd" style="fill:#2B2F38" transform="translate(10.079670074929268 2.9066376993882486)  rotate(0 0.9505656972712123 0.9479160711222934)" opacity="1" d="M0,1.9L1.9,1.9L1.9,0L0,0L0,1.9Z " /></g></g></g></g></svg>