<svg xmlns="http://www.w3.org/2000/svg" xmlns:xlink="http://www.w3.org/1999/xlink" width="35" height="30" viewBox="0 0 35 30" fill="none"><path id="路径 1" fill-rule="evenodd" style="fill:#09BB07" transform="translate(0 0)  rotate(0 17.43243243243245 15)" opacity="1" d="M10.26,27.72C10.54,27.56 10.86,27.44 11.19,27.44C11.35,27.44 11.55,27.48 11.71,27.52C13.49,28.03 15.43,28.31 17.41,28.31C27.03,28.31 34.86,21.97 34.86,14.14C34.86,11.77 34.14,9.53 32.88,7.56L12.81,18.86L12.69,18.94C12.53,19.02 12.36,19.06 12.16,19.06C11.72,19.06 11.35,18.82 11.15,18.47L11.07,18.31L7.88,11.54C7.84,11.46 7.84,11.38 7.84,11.3C7.84,10.99 8.08,10.75 8.41,10.75C8.53,10.75 8.65,10.79 8.77,10.87L12.53,13.47C12.81,13.62 13.13,13.74 13.5,13.74C13.7,13.74 13.9,13.7 14.1,13.62L31.72,5.99C28.57,2.36 23.36,0 17.46,0C7.84,0 0,6.34 0,14.17C0,18.42 2.34,22.28 6.02,24.88C6.3,25.08 6.5,25.43 6.5,25.79C6.5,25.91 6.46,26.02 6.42,26.14C6.14,27.2 5.65,28.94 5.65,29.01C5.61,29.13 5.57,29.29 5.57,29.45C5.57,29.76 5.81,30 6.14,30C6.26,30 6.38,29.96 6.46,29.88L10.26,27.72Z " /></svg>