<svg xmlns="http://www.w3.org/2000/svg" viewBox="0 0 16 16"><g id="图层_2" data-name="图层 2"><g id="图层_1-2" data-name="图层 1"><path d="M7.76,4.24a.79.79,0,0,0-1.12,0l-2.4,2.4A.79.79,0,0,0,5.36,7.76l2.4-2.4A.79.79,0,0,0,7.76,4.24ZM4.56,5.36l.8-.8.07-.07a.8.8,0,0,0-1.2-1.05l-.8.8-.07.07a.8.8,0,0,0,.13,1.12A.79.79,0,0,0,4.56,5.36Z"/><path d="M13.6,4.8V2.4A2.39,2.39,0,0,0,11.2,0H2.4A2.39,2.39,0,0,0,0,2.4V12a2.39,2.39,0,0,0,2.4,2.4H9.74A2.39,2.39,0,0,0,12,16h1.6A2.39,2.39,0,0,0,16,13.6V7.2a2.39,2.39,0,0,0-2.4-2.4Zm-12,7V2.6a.8.8,0,0,1,.8-.8h8.8a.8.8,0,0,1,.8.8h0V4.8A2.39,2.39,0,0,0,9.6,7.2v5.4H2.4a.8.8,0,0,1-.8-.8Zm12.8,1.8a.8.8,0,0,1-.8.8H12a.8.8,0,0,1-.8-.8h0V7.2a.8.8,0,0,1,.8-.8h1.6a.8.8,0,0,1,.8.8h0Z"/></g></g></svg>
