<svg xmlns="http://www.w3.org/2000/svg" viewBox="0 0 16 16"><g id="图层_2" data-name="图层 2"><g id="图层_1-2" data-name="图层 1"><path d="M11,4.44,9.26,6.14,7.4,4.28A.72.72,0,0,0,6.93,4a.91.91,0,0,0-.83.25L3.9,6.4A.8.8,0,0,0,5,7.53H5L6.71,5.85l2,2A.8.8,0,0,0,9.58,8a.84.84,0,0,0,.28-.18l2.26-2.27a.8.8,0,0,0,0-1.13.81.81,0,0,0-1.14,0h0Z"/><path d="M13.6,0H2.4A2.39,2.39,0,0,0,0,2.4H0v8a2.39,2.39,0,0,0,2.4,2.4H5.65l-.37,1.39a15.43,15.43,0,0,0-1.67.34A.75.75,0,0,0,3.79,16,20.57,20.57,0,0,1,8,15.6a20.57,20.57,0,0,1,4.21.4.75.75,0,0,0,.19-1.47,14.13,14.13,0,0,0-1.81-.36l-.38-1.37H13.6A2.39,2.39,0,0,0,16,10.4v-8A2.39,2.39,0,0,0,13.6,0ZM8.88,14H8c-.3,0-.69,0-1,0l.33-1.25H8.56ZM14.4,10.4a.8.8,0,0,1-.8.8H2.4a.8.8,0,0,1-.8-.8h0v-8a.8.8,0,0,1,.8-.8H13.6a.8.8,0,0,1,.8.8h0Z"/></g></g></svg>