<svg xmlns="http://www.w3.org/2000/svg" viewBox="0 0 16 17.78"><g id="图层_2" data-name="图层 2"><g id="图层_1-2" data-name="图层 1"><path d="M13.33,12.44a2.67,2.67,0,1,1-2.66,2.67A2.67,2.67,0,0,1,13.33,12.44ZM11.11,1.78a4,4,0,1,1,0,8H4.89a2.22,2.22,0,1,0,0,4.44h4a.89.89,0,0,1,0,1.78h-4a4,4,0,0,1,0-8h6.22a2.22,2.22,0,1,0,0-4.44h-4a.89.89,0,0,1,0-1.78Zm2.22,12.44a.89.89,0,1,0,.89.89.89.89,0,0,0-.89-.89ZM2.67,0A2.67,2.67,0,1,1,0,2.67,2.66,2.66,0,0,1,2.67,0Zm0,1.78a.89.89,0,1,0,.89.89h0A.89.89,0,0,0,2.67,1.78Z"/></g></g></svg>