<svg xmlns="http://www.w3.org/2000/svg" xmlns:xlink="http://www.w3.org/1999/xlink" fill="none" version="1.1" width="24" height="26" viewBox="0 0 24 26"><defs><mask id="master_svg0_41_15216"><g><rect x="0" y="0" width="24" height="25.238445281982422" rx="0" fill="#FFFFFF" fill-opacity="1"/></g></mask></defs><g><g><path d="M24,19.5Q24,19.659570000000002,23.9922,19.818939999999998Q23.984299999999998,19.97831,23.9687,20.13711Q23.9531,20.29591,23.9296,20.45375Q23.9062,20.61159,23.8751,20.76809Q23.844,20.924590000000002,23.8052,21.07937Q23.7664,21.23415,23.720100000000002,21.386850000000003Q23.6738,21.539540000000002,23.619999999999997,21.68978Q23.5663,21.840020000000003,23.505200000000002,21.98744Q23.444200000000002,22.13486,23.3759,22.27911Q23.3077,22.42335,23.2325,22.56408Q23.1573,22.7048,23.075200000000002,22.84167Q22.9932,22.97853,22.9045,23.1112Q22.8159,23.2439,22.7208,23.372Q22.625799999999998,23.5002,22.5246,23.6236Q22.423299999999998,23.7469,22.316200000000002,23.865099999999998Q22.209,23.9834,22.0962,24.0962Q21.9834,24.209,21.865099999999998,24.316200000000002Q21.7469,24.423299999999998,21.6236,24.5246Q21.5002,24.625799999999998,21.372,24.7208Q21.2439,24.8159,21.1112,24.904600000000002Q20.97853,24.9932,20.84167,25.075200000000002Q20.7048,25.1573,20.56408,25.2325Q20.42335,25.3077,20.27911,25.3759Q20.13486,25.444200000000002,19.98744,25.505200000000002Q19.840020000000003,25.5663,19.68978,25.619999999999997Q19.539540000000002,25.6738,19.386850000000003,25.720100000000002Q19.23415,25.7664,19.07937,25.8052Q18.924590000000002,25.844,18.76809,25.8751Q18.61159,25.9062,18.45375,25.9296Q18.29591,25.9531,18.13711,25.9687Q17.97831,25.984299999999998,17.818939999999998,25.9922Q17.659570000000002,26,17.5,26Q17.340429999999998,26,17.181060000000002,25.9922Q17.02169,25.984299999999998,16.86289,25.9687Q16.70409,25.9531,16.54625,25.9296Q16.38841,25.9062,16.23191,25.8751Q16.075409999999998,25.844,15.92063,25.8052Q15.76584,25.7664,15.613150000000001,25.720100000000002Q15.46045,25.6738,15.31021,25.619999999999997Q15.159980000000001,25.5663,15.01256,25.505200000000002Q14.86514,25.444200000000002,14.72089,25.3759Q14.57665,25.3077,14.43592,25.2325Q14.2952,25.1573,14.15833,25.075200000000002Q14.02147,24.9932,13.88879,24.9045Q13.75612,24.8159,13.62795,24.7208Q13.49979,24.625799999999998,13.37644,24.5246Q13.2531,24.423299999999998,13.13487,24.316200000000002Q13.01664,24.209,12.90381,24.0962Q12.79098,23.9834,12.68382,23.865099999999998Q12.57666,23.7469,12.47543,23.6236Q12.3742,23.5002,12.27915,23.372Q12.1841,23.2439,12.09545,23.1112Q12.0068,22.97853,11.924764,22.84167Q11.842731,22.7048,11.767512,22.56408Q11.692293,22.42335,11.62407,22.27911Q11.555846,22.13486,11.494783,21.98744Q11.43372,21.840020000000003,11.379964,21.68978Q11.326207,21.539540000000002,11.279888,21.386850000000003Q11.233568,21.23415,11.194797,21.07937Q11.156025,20.924590000000002,11.124896,20.76809Q11.0937659,20.61159,11.0703527,20.45375Q11.0469395,20.29591,11.0312993,20.13711Q11.0156591,19.97831,11.00782953,19.818939999999998Q11,19.659570000000002,11,19.5Q11,19.340429999999998,11.00782953,19.181060000000002Q11.0156591,19.02169,11.0312993,18.86289Q11.0469395,18.70409,11.0703527,18.54625Q11.0937659,18.38841,11.124896,18.23191Q11.156025,18.075409999999998,11.194797,17.92063Q11.233568,17.76584,11.279888,17.61315Q11.326207,17.46045,11.379964,17.310209999999998Q11.43372,17.15998,11.494783,17.01256Q11.555846,16.86514,11.62407,16.72089Q11.692293,16.57665,11.767512,16.43592Q11.842731,16.2952,11.924764,16.15833Q12.0068,16.02147,12.09545,15.88879Q12.1841,15.75612,12.27915,15.62795Q12.3742,15.49979,12.47543,15.37644Q12.57666,15.2531,12.68382,15.13487Q12.79098,15.01664,12.90381,14.90381Q13.01664,14.79098,13.13487,14.68382Q13.2531,14.57666,13.37644,14.47543Q13.49979,14.3742,13.62795,14.27915Q13.75612,14.1841,13.88879,14.09545Q14.02147,14.0068,14.15833,13.924764Q14.2952,13.842731,14.43592,13.767512Q14.57665,13.692293,14.72089,13.62407Q14.86514,13.555846,15.01256,13.494783Q15.159980000000001,13.43372,15.310220000000001,13.379964Q15.46045,13.326207,15.613150000000001,13.279888Q15.76584,13.233568,15.92063,13.194797Q16.075409999999998,13.156025,16.23191,13.124896Q16.38841,13.0937659,16.54625,13.0703527Q16.70409,13.0469395,16.86289,13.0312993Q17.02169,13.0156591,17.181060000000002,13.00782953Q17.340429999999998,13,17.5,13Q17.659570000000002,13,17.818939999999998,13.00782953Q17.97831,13.0156591,18.13711,13.0312993Q18.29591,13.0469395,18.45375,13.0703527Q18.61159,13.0937659,18.76809,13.124896Q18.924590000000002,13.156025,19.07937,13.194797Q19.23415,13.233568,19.386850000000003,13.279888Q19.539540000000002,13.326207,19.68978,13.379964Q19.840020000000003,13.43372,19.98744,13.494783Q20.13486,13.555846,20.27911,13.62407Q20.42335,13.692293,20.56408,13.767512Q20.7048,13.842731,20.84167,13.924764Q20.97853,14.0068,21.1112,14.09545Q21.2439,14.1841,21.372,14.27915Q21.5002,14.3742,21.6236,14.47543Q21.7469,14.57666,21.865099999999998,14.68382Q21.9834,14.79098,22.0962,14.90381Q22.209,15.01664,22.316200000000002,15.13487Q22.423299999999998,15.2531,22.5246,15.37644Q22.625799999999998,15.49979,22.7208,15.62795Q22.8159,15.75612,22.904600000000002,15.88879Q22.9932,16.02147,23.075200000000002,16.15833Q23.1573,16.2952,23.2325,16.43592Q23.3077,16.57665,23.3759,16.72089Q23.444200000000002,16.86514,23.505200000000002,17.01256Q23.5663,17.15998,23.619999999999997,17.31022Q23.6738,17.46045,23.720100000000002,17.61315Q23.7664,17.76584,23.8052,17.92063Q23.844,18.075409999999998,23.8751,18.23191Q23.9062,18.38841,23.9296,18.54625Q23.9531,18.70409,23.9687,18.86289Q23.984299999999998,19.02169,23.9922,19.181060000000002Q24,19.340429999999998,24,19.5Z" fill="#457DFF" fill-opacity="1"/></g><g mask="url(#master_svg0_41_15216)"><g><rect x="0" y="0" width="24" height="25.238445281982422" rx="0" fill="#D8D8D8" fill-opacity="0.009999999776482582"/></g><g><path d="M19.9937,0.744479C19.9937,0.334385,19.6593,0,19.2429,0C18.8265,0,18.4921,0.334385,18.4921,0.744479L18.4921,1.69085L12.7508,1.69085L12.7508,0.744479C12.7508,0.334385,12.4101,0,12,0C11.5836,0,11.2492,0.334385,11.2492,0.744479L11.2492,1.69085L5.50158,1.69085L5.50158,0.744479C5.50158,0.334385,5.16719,0,4.7571,0C4.34069,0,4.00631,0.334385,4.00631,0.744479L4.00631,1.69085L0.750789,1.69085C0.334385,1.69716,0,2.03155,0,2.44164C0,2.85173,0.340694,3.18612,0.750789,3.18612L23.2492,3.18612C23.6593,3.18612,23.9937,2.85173,23.9937,2.44164C23.9937,2.02524,23.6593,1.69085,23.2492,1.69085L19.9937,1.69085L19.9937,0.744479ZM1.3208,20.1281L1.3208,4.41831C1.3208,4.00821,1.65519,3.67383,2.07159,3.67383L7.44067,3.68014C7.85077,3.68014,8.19146,4.01452,8.19146,4.42462L8.19146,20.1281C8.19146,20.5382,7.85077,20.8726,7.44067,20.8726L2.07159,20.8726C1.65519,20.8726,1.3208,20.5382,1.3208,20.1281ZM8.56543,20.1281L8.56543,4.41831C8.56543,4.00821,8.89981,3.67383,9.31622,3.67383L14.679,3.68014C15.0954,3.68014,15.4298,4.01452,15.4298,4.42462L15.4298,20.1281C15.4298,20.5382,15.0954,20.8726,14.679,20.8726L9.31622,20.8726C8.89981,20.8726,8.56543,20.5382,8.56543,20.1281ZM15.8091,20.1281L15.8091,4.41831C15.8091,4.00821,16.1435,3.67383,16.5599,3.67383L21.9226,3.68014C22.3391,3.68014,22.6734,4.01452,22.6734,4.42462L22.6734,20.1281C22.6734,20.5382,22.3391,20.8726,21.9226,20.8726L16.5599,20.8726C16.1435,20.8726,15.8091,20.5382,15.8091,20.1281ZM6.6888,5.16797L2.82129,5.16797L2.82129,19.3825L6.6888,19.3825L6.6888,5.16797ZM10.0649,5.16797L13.9324,5.16797L13.9324,19.3825L10.0649,19.3825L10.0649,5.16797ZM21.1771,5.16797L21.1771,19.3825L17.3096,19.3825L17.3096,5.16797L21.1771,5.16797ZM20.0063,25.2395C20.4164,25.2395,20.7571,24.9051,20.7571,24.4887L20.7571,22.8546L23.2492,22.8546C23.6593,22.8546,24,22.5203,24,22.1039C24,21.6938,23.6593,21.3594,23.2492,21.3594L0.750789,21.3594C0.334385,21.3594,0,21.6938,0,22.1039C0,22.5203,0.334385,22.8546,0.750789,22.8546L3.2429,22.8546L3.2429,24.4887C3.2429,24.9051,3.5836,25.2395,3.99369,25.2395L8.1388,25.2395C8.55521,25.2395,8.88959,24.9051,8.88959,24.4887L8.88959,22.8546L15.1104,22.8546L15.1104,24.4887C15.1104,24.9051,15.4448,25.2395,15.8612,25.2395L20.0063,25.2395ZM7.38914,22.8535L4.74561,22.8535L4.74561,23.7431L7.38914,23.7431L7.38914,22.8535ZM19.2539,22.8535L19.2539,23.7431L16.6104,23.7431L16.6104,22.8535L19.2539,22.8535Z" fill-rule="evenodd" fill="#2B2F38" fill-opacity="1"/></g></g></g></svg>