<svg xmlns="http://www.w3.org/2000/svg" xmlns:xlink="http://www.w3.org/1999/xlink" fill="none" version="1.1" width="24" height="29" viewBox="0 0 24 29"><defs><mask id="master_svg0_41_15306"><g><rect x="0" y="0" width="24" height="29" rx="0" fill="#FFFFFF" fill-opacity="1"/></g></mask></defs><g mask="url(#master_svg0_41_15306)"><g><rect x="0" y="0" width="24" height="29" rx="0" fill="#D8D8D8" fill-opacity="0.009999999776482582"/></g><g><path d="M25,23.5Q25,23.63502,24.9934,23.76987Q24.9867,23.90473,24.9735,24.03909Q24.9603,24.17346,24.9405,24.30702Q24.9207,24.44057,24.8943,24.573Q24.868000000000002,24.70542,24.8352,24.83639Q24.8024,24.96736,24.763199999999998,25.09657Q24.724,25.22577,24.6785,25.352890000000002Q24.633,25.48002,24.5813,25.60476Q24.5297,25.7295,24.471899999999998,25.85155Q24.4142,25.97361,24.3506,26.09268Q24.2869,26.211759999999998,24.2175,26.32756Q24.1481,26.44337,24.0731,26.55564Q23.99807,26.6679,23.91764,26.77635Q23.83721,26.884790000000002,23.751559999999998,26.98916Q23.6659,27.09353,23.575229999999998,27.19357Q23.484560000000002,27.29361,23.38909,27.38909Q23.29361,27.484560000000002,23.19357,27.575229999999998Q23.09353,27.6659,22.98916,27.751559999999998Q22.884790000000002,27.83721,22.77635,27.91764Q22.6679,27.99807,22.55564,28.0731Q22.44337,28.1481,22.32756,28.2175Q22.211759999999998,28.2869,22.09268,28.3506Q21.97361,28.4142,21.85155,28.471899999999998Q21.7295,28.5297,21.60476,28.5813Q21.48002,28.633,21.352890000000002,28.6785Q21.22577,28.724,21.09657,28.763199999999998Q20.96736,28.8024,20.83639,28.8352Q20.70542,28.868000000000002,20.573,28.8943Q20.44057,28.9207,20.30702,28.9405Q20.17346,28.9603,20.03909,28.9735Q19.90473,28.9867,19.76987,28.9934Q19.63502,29,19.5,29Q19.36498,29,19.23013,28.9934Q19.09527,28.9867,18.96091,28.9735Q18.82654,28.9603,18.69298,28.9405Q18.55943,28.9207,18.427,28.8943Q18.29458,28.868000000000002,18.16361,28.8352Q18.03264,28.8024,17.90343,28.763199999999998Q17.77423,28.724,17.64711,28.6785Q17.51998,28.633,17.39524,28.5813Q17.2705,28.5297,17.14845,28.471899999999998Q17.02639,28.4142,16.90732,28.3506Q16.788240000000002,28.2869,16.67243,28.2175Q16.55663,28.1481,16.44436,28.0731Q16.3321,27.99807,16.22365,27.91764Q16.11521,27.83721,16.01084,27.751559999999998Q15.90647,27.6659,15.80643,27.575229999999998Q15.70638,27.484560000000002,15.61091,27.38909Q15.51544,27.29361,15.42477,27.19357Q15.3341,27.09353,15.24844,26.98916Q15.16279,26.884790000000002,15.08236,26.77635Q15.00193,26.6679,14.926917,26.55564Q14.851905,26.44337,14.782493,26.32756Q14.71308,26.211759999999998,14.649433,26.09268Q14.585786,25.97361,14.528059,25.85155Q14.470331,25.7295,14.418662,25.60476Q14.366994,25.48002,14.321508,25.352890000000002Q14.276022,25.22577,14.236828,25.09657Q14.197635,24.96736,14.164828,24.83639Q14.132022,24.70542,14.105681,24.573Q14.0793403,24.44057,14.0595292,24.30702Q14.039718,24.17346,14.026484,24.03909Q14.01325,23.90473,14.00662499,23.76987Q14,23.63502,14,23.5Q14,23.36498,14.00662499,23.23013Q14.01325,23.09527,14.026484,22.96091Q14.039718,22.82654,14.0595292,22.69298Q14.0793403,22.55943,14.105681,22.427Q14.132022,22.29458,14.164828,22.16361Q14.197635,22.03264,14.236828,21.90343Q14.276022,21.77423,14.321508,21.64711Q14.366994,21.51998,14.418662,21.39524Q14.470331,21.2705,14.528059,21.14845Q14.585786,21.02639,14.649433,20.90732Q14.71308,20.788240000000002,14.782493,20.67243Q14.851905,20.55663,14.926917,20.44436Q15.00193,20.3321,15.08236,20.22365Q15.16279,20.11521,15.24844,20.01084Q15.3341,19.90647,15.42477,19.80643Q15.51544,19.70638,15.61091,19.61091Q15.70638,19.515439999999998,15.80643,19.42477Q15.90647,19.3341,16.01084,19.24844Q16.11521,19.16279,16.22365,19.08236Q16.3321,19.00193,16.44436,18.926917Q16.55663,18.851905,16.67243,18.782493Q16.788240000000002,18.71308,16.90732,18.649433Q17.02639,18.585786,17.14845,18.528059Q17.2705,18.470331,17.39524,18.418662Q17.51998,18.366994,17.64711,18.321508Q17.77423,18.276022,17.90343,18.236828Q18.03264,18.197635,18.16361,18.164828Q18.29458,18.132022,18.427,18.105681Q18.55943,18.0793403,18.69298,18.0595292Q18.82654,18.039718,18.96091,18.026484Q19.09527,18.01325,19.23013,18.00662499Q19.36498,18,19.5,18Q19.63502,18,19.76987,18.00662499Q19.90473,18.01325,20.03909,18.026484Q20.17346,18.039718,20.30702,18.0595292Q20.44057,18.0793403,20.573,18.105681Q20.70542,18.132022,20.83639,18.164828Q20.96736,18.197635,21.09657,18.236828Q21.22577,18.276022,21.352890000000002,18.321508Q21.48002,18.366994,21.60476,18.418662Q21.7295,18.470331,21.85155,18.528059Q21.97361,18.585786,22.09268,18.649433Q22.211759999999998,18.71308,22.32756,18.782493Q22.44337,18.851905,22.55564,18.926917Q22.6679,19.00193,22.77635,19.08236Q22.884790000000002,19.16279,22.98916,19.24844Q23.09353,19.3341,23.19357,19.42477Q23.29361,19.515439999999998,23.38909,19.61091Q23.484560000000002,19.70638,23.575229999999998,19.80643Q23.6659,19.90647,23.751559999999998,20.01084Q23.83721,20.11521,23.91764,20.22365Q23.99807,20.3321,24.0731,20.44436Q24.1481,20.55663,24.2175,20.67243Q24.2869,20.788240000000002,24.3506,20.90732Q24.4142,21.02639,24.471899999999998,21.14845Q24.5297,21.2705,24.5813,21.39524Q24.633,21.51998,24.6785,21.64711Q24.724,21.77423,24.763199999999998,21.90343Q24.8024,22.03264,24.8352,22.16361Q24.868000000000002,22.29458,24.8943,22.427Q24.9207,22.55943,24.9405,22.69298Q24.9603,22.82654,24.9735,22.96091Q24.9867,23.09527,24.9934,23.23013Q25,23.36498,25,23.5Z" fill="#457DFF" fill-opacity="1"/></g><g><path d="M9.05741,14.2594L6.85048,14.2594L8.708549999999999,11.64586C9.019490000000001,11.19098,8.94365,10.554135,8.53412,10.206767C8.33694,10.0413534,8.08667,9.975188,7.836399999999999,10.00827068C7.59371,10.0496241,7.36619,10.190226,7.22209,10.405263L4.196091,14.65639C3.9761564,14.97068,3.9382366,15.38421,4.0974998,15.731580000000001C4.256763,16.087220000000002,4.582874,16.30226,4.93932,16.30226L7.29793,16.30226L5.3791899999999995,19.40376C5.091,19.87519,5.20476,20.5038,5.63705,20.817999999999998C5.78872,20.933799999999998,5.97074,21,6.15275,21C6.47128,21,6.75947,20.8263,6.9338999999999995,20.545099999999998L9.838560000000001,15.855640000000001C10.03575,15.541350000000001,10.05091,15.13609,9.89165,14.80526C9.7248,14.474440000000001,9.406279999999999,14.2594,9.05741,14.2594Z" fill-rule="evenodd" fill="#2B2F38" fill-opacity="1"/></g><g><path d="M0,2.31275C0,1.03675,1.0725,0,2.4,0L21.6075,0C22.9275,0,23.9925,1.03675,24,2.31275L24,27.4485C24,28.304,23.28,29,22.395,29L1.605,29C0.72,29,0,28.304,0,27.4485L0,2.31275ZM21.6022,1.77539C21.9097,1.77539,22.1572,2.01464,22.1572,2.31189L22.1572,26.5631C22.1572,26.7371,22.0897,26.9039,21.9547,27.0344C21.8272,27.1576,21.6547,27.2301,21.4672,27.2301L2.52967,27.2301C2.15467,27.2229,1.84717,26.9256,1.84717,26.5631L1.84717,2.31189C1.84717,2.01464,2.09467,1.77539,2.40217,1.77539L21.6022,1.77539Z" fill-rule="evenodd" fill="#2B2F38" fill-opacity="1"/></g><g><path d="M19.16798,4C19.39121,4,19.6009,4.0910364,19.75648,4.252101C19.91206,4.413165,20,4.6302520000000005,20,4.861345L20,8.13866C20,8.36975,19.91206,8.586829999999999,19.75648,8.7479C19.6009,8.90896,19.39121,9,19.16798,9L14.832018,9C14.608794,9,14.399098,8.90896,14.243517,8.7479C14.0879369,8.586829999999999,14,8.36975,14,8.13866L14,4.861345C14,4.385154,14.372041,4,14.832018,4L19.16798,4ZM15.66455,5.71875L18.33648,5.71875L18.33648,7.28037L15.66455,7.28037L15.66455,5.71875Z" fill-rule="evenodd" fill="#2B2F38" fill-opacity="1"/></g><g><path d="M20,14.96639C20,15.2437,19.91206,15.5042,19.75648,15.697479999999999C19.6009,15.89076,19.39121,16,19.16798,16L14.832018,16C14.608794,16,14.399098,15.89076,14.243517,15.697479999999999C14.0879369,15.5042,14,15.2437,14,14.96639L14,11.03361C14,10.462185,14.372041,10,14.832018,10L19.16798,10C19.39121,10,19.6009,10.109244,19.75648,10.302521C19.91206,10.495798,20,10.756302999999999,20,11.03361L20,14.96639ZM15.66455,12.0625L18.33648,12.0625L18.33648,13.93645L15.66455,13.93645L15.66455,12.0625Z" fill-rule="evenodd" fill="#2B2F38" fill-opacity="1"/></g><g><path d="M20,17.861345L20,21.13866C20,21.36975,19.91206,21.58683,19.75648,21.7479C19.6009,21.90896,19.39121,22,19.16798,22L14.832018,22C14.608794,22,14.399098,21.90896,14.243517,21.7479C14.0879369,21.58683,14,21.36275,14,21.13866L14,17.861345C14,17.385154,14.372041,17,14.832018,17L19.16798,17C19.39121,17,19.6009,17.0910364,19.75648,17.252101C19.91206,17.413165,20,17.630252,20,17.861345ZM15.66455,18.71875L18.33648,18.71875L18.33648,20.27337L15.66455,20.27337L15.66455,18.71875Z" fill-rule="evenodd" fill="#2B2F38" fill-opacity="1"/></g><g><path d="M10.14837,5C10.612269999999999,5,11,4.776423,11,4.5C11,4.223577,10.61919,4,10.14837,4L4.851632,4C4.380811,4,4,4.223577,4,4.5C4,4.776423,4.380811,5,4.851632,5L10.14837,5Z" fill-rule="evenodd" fill="#2B2F38" fill-opacity="1"/></g><g><path d="M10.14837,8C10.612269999999999,8,11,7.55285,11,7C11,6.447154,10.612269999999999,6,10.14837,6L4.851632,6C4.380811,6,4,6.447154,4,7C4,7.55285,4.380811,8,4.851632,8L10.14837,8Z" fill-rule="evenodd" fill="#2B2F38" fill-opacity="1"/></g></g></svg>