<svg xmlns="http://www.w3.org/2000/svg" xmlns:xlink="http://www.w3.org/1999/xlink" fill="none" version="1.1" width="24" height="24.01953125" viewBox="0 0 24 24.01953125"><defs><mask id="master_svg0_20_19779"><g><g><rect x="0" y="0" width="22.239999771118164" height="24" rx="0" fill="#FFFFFF" fill-opacity="0.8999999761581421"/></g></g></mask><mask id="master_svg1_20_19783"><g><g><rect x="0" y="0" width="22.239999771118164" height="24" rx="0" fill="#FFFFFF" fill-opacity="0.8999999761581421"/></g></g></mask><mask id="master_svg2_20_19790"><g><g><rect x="0" y="0" width="22.239999771118164" height="24" rx="0" fill="#FFFFFF" fill-opacity="0.8999999761581421"/></g></g></mask><mask id="master_svg3_20_19794"><g><g><rect x="0" y="0" width="22.239999771118164" height="24" rx="0" fill="#FFFFFF" fill-opacity="0.8999999761581421"/></g></g></mask><mask id="master_svg4_20_19799"><g><g><rect x="0" y="0" width="22.239999771118164" height="24" rx="0" fill="#FFFFFF" fill-opacity="0.8999999761581421"/></g></g></mask><mask id="master_svg5_20_19806"><g><g><rect x="0" y="0" width="22.239999771118164" height="24" rx="0" fill="#FFFFFF" fill-opacity="0.8999999761581421"/></g></g></mask></defs><g style="opacity:0.8999999761581421;"><g><g><path d="M23.9999609375,16.500006245117188C23.9999609375,16.62000624511719,23.9999609375,16.750006245117188,23.9899609375,16.87000624511719C23.9799609375,16.989996245117187,23.969960937499998,17.110006245117187,23.9599609375,17.239996245117187C23.949960937500002,17.36998624511719,23.9299609375,17.48000624511719,23.9099609375,17.609996245117188C23.8898609375,17.72998624511719,23.8698609375,17.84999624511719,23.8498609375,17.969996245117187C23.8298609375,18.08998624511719,23.7997609375,18.20999624511719,23.7698609375,18.329996245117187C23.739860937499998,18.449986245117188,23.7098609375,18.56999624511719,23.6699609375,18.679996245117188C23.6298609375,18.799996245117185,23.5999609375,18.90999624511719,23.5499609375,19.030026245117188C23.5098609375,19.15002624511719,23.4599609375,19.26002624511719,23.4199609375,19.370026245117188C23.3798609375,19.480026245117188,23.3199609375,19.600026245117185,23.2698609375,19.710026245117188C23.219860937500002,19.820026245117187,23.1599609375,19.930026245117187,23.0998609375,20.04002624511719C23.0397609375,20.15002624511719,22.9798609375,20.250026245117187,22.9197609375,20.36002624511719C22.8597609375,20.47002624511719,22.7897609375,20.570026245117187,22.719860937500002,20.670026245117185C22.6498609375,20.770026245117187,22.5798609375,20.870026245117188,22.5098609375,20.97002624511719C22.4399609375,21.070026245117187,22.359860937500002,21.170026245117185,22.2798609375,21.26002624511719C22.199960937500002,21.350026245117185,22.1198609375,21.450026245117186,22.0399609375,21.54002624511719C21.9599609375,21.630026245117186,21.8698609375,21.72002624511719,21.7899609375,21.810026245117186C21.699960937500002,21.90002624511719,21.609860937500002,21.980026245117188,21.5198609375,22.060026245117186C21.4299609375,22.140026245117188,21.3398609375,22.22002624511719,21.239860937499998,22.300026245117188C21.1498609375,22.380026245117186,21.0499609375,22.450026245117186,20.9498609375,22.530026245117188C20.8498609375,22.600026245117185,20.7498609375,22.670026245117185,20.649760937499998,22.740026245117186C20.5497609375,22.810026245117186,20.4398609375,22.870026245117188,20.3397609375,22.94002624511719C20.2297609375,23.000026245117187,20.129760937500002,23.060026245117186,20.0197609375,23.120026245117188C19.9097609375,23.180026245117187,19.7997609375,23.230026245117188,19.6898609375,23.29002624511719C19.5798609375,23.350026245117185,19.469860937500002,23.390026245117188,19.3498609375,23.44002624511719C19.239860937499998,23.490026245117186,19.1198609375,23.530026245117188,19.0098609375,23.570026245117187C18.8898909375,23.61002624511719,18.7799109375,23.65002624511719,18.6599109375,23.69002624511719C18.5399209375,23.730026245117188,18.419920937500002,23.76002624511719,18.309940937500002,23.79002624511719C18.189940937499998,23.820026245117187,18.0699509375,23.850026245117185,17.9499509375,23.870026245117188C17.829960937499997,23.890026245117188,17.7099609375,23.910026245117187,17.589960937500003,23.930026245117187C17.4699709375,23.950026245117186,17.3499709375,23.960026245117188,17.2199709375,23.980026245117188C17.089960937500003,24.000026245117187,16.979980937500002,24.000026245117187,16.8499709375,24.01002624511719C16.7299809375,24.020026245117187,16.5999709375,24.020026245117187,16.4799809375,24.020026245117187C16.359980937499998,24.020026245117187,16.2299809375,24.020026245117187,16.109980937499998,24.01002624511719C15.9899909375,24.000026245117187,15.869990937499999,23.990026245117186,15.7399909375,23.980026245117188C15.619990937499999,23.97002624511719,15.500000937500001,23.950026245117186,15.369990937499999,23.930026245117187C15.250000937500001,23.910026245117187,15.1300009375,23.890026245117188,15.010010937499999,23.870026245117188C14.8900109375,23.850026245117185,14.7700209375,23.820026245117187,14.650020937499999,23.79002624511719C14.530030937500001,23.76002624511719,14.4100309375,23.730026245117188,14.3000509375,23.69002624511719C14.180050937499999,23.65002624511719,14.070070937499999,23.620026245117188,13.9500709375,23.570026245117187C13.8300809375,23.530026245117188,13.7200909375,23.480026245117188,13.6101109375,23.44002624511719C13.5001209375,23.390026245117188,13.380130937499999,23.340026245117187,13.270140937499999,23.29002624511719C13.160160937499999,23.240026245117186,13.050170937499999,23.180026245117187,12.9401809375,23.120026245117188C12.830200937499999,23.060026245117186,12.7302209375,23.000026245117187,12.6202409375,22.94002624511719C12.5102509375,22.880026245117186,12.4102809375,22.810026245117186,12.3101809375,22.740026245117186C12.2102009375,22.670026245117185,12.110230937499999,22.600026245117185,12.0101309375,22.530026245117188C11.9100309375,22.460026245117188,11.8101809375,22.380026245117186,11.7200909375,22.300026245117188C11.6301309375,22.22002624511719,11.5301509375,22.140026245117188,11.4400609375,22.060026245117186C11.3499709375,21.980026245117188,11.2600109375,21.890026245117188,11.1700409375,21.810026245117186C11.0800809375,21.72002624511719,11.0000009375,21.630026245117186,10.9200409375,21.54002624511719C10.8400909375,21.450026245117186,10.7600109375,21.36002624511719,10.680050937499999,21.26002624511719C10.6001009375,21.160026245117187,10.5300309375,21.070026245117187,10.4500709375,20.97002624511719C10.3801309375,20.870026245117188,10.3100609375,20.770026245117187,10.240110937499999,20.670026245117185C10.1701709375,20.570026245117187,10.1101109375,20.460026245117188,10.0401609375,20.36002624511719C9.9801009375,20.250026245117187,9.9201659375,20.15002624511719,9.8601069375,20.04002624511719C9.8000489375,19.930026245117187,9.7501219375,19.820026245117187,9.6900639375,19.710026245117188C9.6300049375,19.600026245117185,9.5900879375,19.490026245117186,9.5400389375,19.370026245117188C9.4899899375,19.26002624511719,9.4500729375,19.140026245117188,9.4100339375,19.030026245117188C9.3699949375,18.910016245117188,9.3300779375,18.80000624511719,9.2900389375,18.679996245117188C9.2499999375,18.560006245117187,9.2200929375,18.439996245117186,9.1900639375,18.329996245117187C9.1600339375,18.20999624511719,9.1300049375,18.08998624511719,9.1101069375,17.969996245117187C9.0900879375,17.84999624511719,9.0700679375,17.72998624511719,9.0500488375,17.609996245117188C9.0300293375,17.489996245117187,9.0200195375,17.36998624511719,9.0000000375,17.239996245117187C8.9899902375,17.12000624511719,8.9799804375,16.999996245117188,8.9699707375,16.87000624511719C8.9599609375,16.750006245117188,8.9599609375,16.62000624511719,8.9599609375,16.500006245117188C8.9599609375,16.380016245117186,8.9599609375,16.250006245117188,8.9699707375,16.130016245117186C8.9799804375,16.010016245117185,8.9899902375,15.890006245117188,9.0000000375,15.760016245117187C9.0100097375,15.640026245117188,9.0300293375,15.520016245117187,9.0500488375,15.390026245117188C9.0700679375,15.270026245117187,9.0900879375,15.150016245117188,9.1101069375,15.030026245117188C9.1301269375,14.910026245117187,9.1601559375,14.790016245117187,9.1900639375,14.670016245117187C9.2200929375,14.550026245117188,9.2501219375,14.430016245117187,9.2900389375,14.320016245117188C9.3300779375,14.200016245117187,9.3599849375,14.090016245117187,9.4100339375,13.970016245117186C9.4500729375,13.850016245117187,9.4999999375,13.740016245117188,9.5400389375,13.630016245117186C9.5900879375,13.520016245117187,9.6400149375,13.400016245117188,9.6900639375,13.290026245117186C9.7401119375,13.180026245117187,9.8000489375,13.070026245117187,9.8601069375,12.960026245117188C9.9201659375,12.850026245117188,9.9801009375,12.740016245117188,10.0401609375,12.640026245117188C10.1002209375,12.530026245117188,10.1701709375,12.430026245117187,10.240110937499999,12.330026245117187C10.3100609375,12.230026245117188,10.3801309375,12.130026245117188,10.4500709375,12.030026245117188C10.5200209375,11.930016245117187,10.6001009375,11.830026245117187,10.680050937499999,11.740016245117188C10.7600109375,11.650016245117188,10.8400909375,11.550016245117188,10.9200409375,11.460026245117188C11.0000009375,11.370026245117188,11.0900909375,11.280026245117188,11.1700409375,11.190026245117188C11.2600109375,11.100026245117188,11.3501009375,11.020026245117187,11.4400609375,10.940026245117188C11.5300309375,10.860026245117187,11.6201209375,10.780026245117188,11.7200909375,10.700026245117188C11.8100609375,10.620026245117188,11.9100309375,10.550026245117188,12.0101309375,10.470026245117188C12.110230937499999,10.390026245117188,12.210080937499999,10.330026245117187,12.3101809375,10.260026245117187C12.4102809375,10.190026245117188,12.520140937499999,10.130026245117188,12.6202409375,10.060026245117188C12.7302209375,10.000026245117187,12.830200937499999,9.940025245117187,12.9401809375,9.880028245117188C13.050170937499999,9.820030245117188,13.160160937499999,9.770027245117188,13.270140937499999,9.710029245117187C13.380130937499999,9.660026245117187,13.490110937499999,9.610031245117188,13.6101109375,9.560028245117188C13.7200909375,9.510025245117188,13.840090937500001,9.470031245117188,13.9500709375,9.430031245117188C14.070070937499999,9.390030245117188,14.180050937499999,9.350029245117188,14.3000509375,9.310028245117188C14.4200409375,9.270027245117188,14.540040937499999,9.240028245117188,14.650020937499999,9.210029245117187C14.7700209375,9.180031245117188,14.8900109375,9.150032245117188,15.010010937499999,9.130028245117188C15.1300009375,9.110031245117188,15.250000937500001,9.090027245117188,15.369990937499999,9.070030245117188C15.4899909375,9.050033545117188,15.6099809375,9.040031445117188,15.7399909375,9.020027145117188C15.8599809375,9.010025045117187,15.979980937499999,9.000030545117188,16.109980937499998,8.990028345117187C16.2299809375,8.980026245117188,16.359980937499998,8.980026245117188,16.4799809375,8.980026245117188C16.5999709375,8.980026245117188,16.7299809375,8.980026245117188,16.8499709375,8.990028345117187C16.9699709375,9.000030545117188,17.089960937500003,9.010025045117187,17.2199709375,9.020027145117188C17.3499709375,9.030029345117187,17.4599609375,9.050025945117188,17.589960937500003,9.070030245117188C17.7199709375,9.090034245117188,17.829960937499997,9.110031245117188,17.9499509375,9.130028245117188C18.0699509375,9.150024245117187,18.189940937499998,9.180031245117188,18.309940937500002,9.210029245117187C18.4299309375,9.240028245117188,18.5499309375,9.270027245117188,18.6599109375,9.310028245117188C18.7799109375,9.350029245117188,18.8898909375,9.380028245117188,19.0098609375,9.430031245117188C19.1298609375,9.470031245117188,19.239860937499998,9.520027245117188,19.3498609375,9.560028245117188C19.4598609375,9.610031245117188,19.5798609375,9.660026245117187,19.6898609375,9.710029245117187C19.7997609375,9.760032245117188,19.9097609375,9.820030245117188,20.0197609375,9.880028245117188C20.129760937500002,9.940025245117187,20.2297609375,10.000026245117187,20.3397609375,10.060026245117188C20.4496609375,10.120026245117188,20.5496609375,10.190026245117188,20.649760937499998,10.260026245117187C20.7498609375,10.330026245117187,20.8497609375,10.400026245117187,20.9498609375,10.470026245117188C21.0497609375,10.540026245117188,21.149760937499998,10.620026245117188,21.239860937499998,10.700026245117188C21.329960937499997,10.780026245117188,21.4297609375,10.860026245117187,21.5198609375,10.940026245117188C21.609860937500002,11.020026245117187,21.699960937500002,11.110026245117187,21.7899609375,11.190026245117188C21.8798609375,11.280026245117188,21.9599609375,11.370026245117188,22.0399609375,11.460026245117188C22.1198609375,11.550016245117188,22.199960937500002,11.640026245117188,22.2798609375,11.740016245117188C22.359860937500002,11.830016245117188,22.4299609375,11.930026245117187,22.5098609375,12.030026245117188C22.5898609375,12.130016245117186,22.6498609375,12.230016245117188,22.719860937500002,12.330026245117187C22.7897609375,12.430026245117187,22.8498609375,12.540026245117188,22.9197609375,12.640026245117188C22.9798609375,12.750026245117187,23.0397609375,12.850026245117188,23.0998609375,12.960026245117188C23.1599609375,13.070026245117187,23.2098609375,13.180026245117187,23.2698609375,13.290026245117186C23.329960937499997,13.400026245117187,23.3698609375,13.510026245117189,23.4199609375,13.630016245117186C23.469960937499998,13.740016245117188,23.5098609375,13.860026245117187,23.5499609375,13.970016245117186C23.589960937500003,14.090016245117187,23.6298609375,14.200016245117187,23.6699609375,14.320016245117188C23.7099609375,14.440006245117187,23.739860937499998,14.560016245117186,23.7698609375,14.670016245117187C23.7999609375,14.790016245117187,23.829960937499997,14.910026245117187,23.8498609375,15.030026245117188C23.8698609375,15.150016245117188,23.8898609375,15.270026245117187,23.9099609375,15.390026245117188C23.9299609375,15.510016245117187,23.9399609375,15.630026245117188,23.9599609375,15.760016245117187C23.9799609375,15.890006245117188,23.9799609375,16.000026245117187,23.9899609375,16.130016245117186C23.9999609375,16.250006245117188,23.9999609375,16.379996245117187,23.9999609375,16.500006245117188Z" fill="#457DFF" fill-opacity="1"/></g></g><g mask="url(#master_svg0_20_19779)"><g><g mask="url(#master_svg1_20_19783)"><g><g><rect x="0" y="0" width="22.239999771118164" height="24" rx="0" fill="#D8D8D8" fill-opacity="0.009999999776482582"/></g></g></g><g mask="url(#master_svg2_20_19790)"><g><g mask="url(#master_svg3_20_19794)"><g><g><rect x="0" y="0" width="22.239999771118164" height="24" rx="0" fill="#D8D8D8" fill-opacity="0.009999999776482582"/></g></g></g><g mask="url(#master_svg4_20_19799)"><g><g><path d="M4.97998053125,8.070003967285157L12.93993953125,8.070003967285157C13.12987953125,8.070003967285157,13.30993953125,7.989993967285156,13.43993953125,7.860003967285156C13.56994953125,7.730003967285156,13.64989953125,7.550003967285156,13.64989953125,7.360003967285156L13.64989953125,3.800002967285156C13.64989953125,3.4000019672851565,13.32995953125,3.0900039672851562,12.93993953125,3.0900039672851562L4.97998053125,3.0900039672851562C4.79003953125,3.0900039672851562,4.60998553125,3.160003667285156,4.47998053125,3.300002967285156C4.34997563125,3.4299999672851564,4.27001953125,3.6100009672851563,4.27001953125,3.800002967285156L4.27001953125,7.360003967285156C4.27001953125,7.550003967285156,4.34997563125,7.730003967285156,4.47998053125,7.860003967285156C4.59997553125,7.989993967285156,4.78002953125,8.070003967285157,4.97998053125,8.070003967285157ZM12.219969531250001,4.500003967285156L5.67992953125,4.500003967285156L5.67992953125,6.640003967285156L12.219969531250001,6.640003967285156L12.219969531250001,4.500003967285156ZM8.83996953125,12.820003967285157L10.510009531249999,12.820003967285157L10.510009531249999,12.809993967285155C10.77001953125,12.809993967285155,11.02001953125,12.949993967285156,11.140019531250001,13.190003967285156C11.27001953125,13.420003967285156,11.249999531250001,13.710003967285155,11.09997953125,13.920003967285156L8.900019531249999,17.200003967285156C8.77001953125,17.40000396728516,8.55004953125,17.520003967285156,8.310059531250001,17.520003967285156C8.17003953125,17.520003967285156,8.03002953125,17.480003967285157,7.91002953125,17.40000396728516C7.749999531249999,17.290003967285156,7.64001953125,17.130003967285155,7.59997953125,16.940003967285158C7.55993953125,16.750003967285156,7.60998953125,16.560003967285155,7.70995953125,16.410003967285157L9.159909531250001,14.240003967285157L7.36986953125,14.240003967285157C7.08983953125,14.240003967285157,6.849849531249999,14.090003967285156,6.72985953125,13.840003967285156C6.609859531250001,13.590003967285156,6.639889531250001,13.310003967285157,6.80980953125,13.090003967285156L9.109859531249999,10.110003967285156C9.21984953125,9.960003967285157,9.389889531249999,9.860003967285156,9.579829531249999,9.840013967285156C9.76977953125,9.820013967285156,9.959839531250001,9.860003967285156,10.109859531249999,9.980013967285156C10.25988953125,10.090013967285156,10.359859531249999,10.260013967285158,10.379879531250001,10.450013967285155C10.39989953125,10.640013967285157,10.349849531250001,10.830013967285156,10.239869531250001,10.980013967285156L8.83996953125,12.820003967285157Z" fill-rule="evenodd" fill="#2B2F38" fill-opacity="0.8999999761581421"/></g></g></g><g mask="url(#master_svg5_20_19806)"><g><g><path d="M0.7099610703125,20.29004659423828L1.1400120703125,20.29004659423828L1.1400120703125,2.840006594238281C1.1500220703125,1.2600065942382812,2.4400620703125,-0.00999450576171875,4.0100120703125,0.000007629438281250001L13.9000220703125,0.000007629438281250001C15.4800220703125,-0.00999450576171875,16.7700220703125,1.2700065942382812,16.7800220703125,2.840006594238281L16.7800220703125,7.950006594238281L18.8500220703125,7.950006594238281C19.2400220703125,7.950006594238281,19.5599220703125,8.270006594238282,19.5599220703125,8.660006594238281L19.5599220703125,15.950046594238282L20.8099220703125,15.950046594238282L20.8099220703125,5.8000065942382815L18.8099220703125,3.149996594238281C18.6999220703125,2.999996594238281,18.6399220703125,2.8100065942382813,18.6699220703125,2.6200065942382813C18.6899220703125,2.4299965942382813,18.7899220703125,2.270006594238281,18.9399220703125,2.149996594238281C19.2599220703125,1.9100065942382813,19.6999220703125,1.9699965942382813,19.9399220703125,2.2799965942382814L22.0899220703125,5.129996594238281C22.1899220703125,5.259996594238281,22.2300220703125,5.409996594238281,22.2300220703125,5.559996594238282L22.2300220703125,16.65994659423828C22.2300220703125,17.049946594238282,21.9100220703125,17.370046594238282,21.5200220703125,17.370046594238282L18.8399220703125,17.370046594238282C18.4499220703125,17.370046594238282,18.1300220703125,17.049946594238282,18.1300220703125,16.65994659423828L18.1300220703125,9.369996594238282L16.7700220703125,9.369996594238282L16.7700220703125,20.279946594238282L17.2001220703125,20.279946594238282C17.3900220703125,20.279946594238282,17.5700220703125,20.35994659423828,17.7001220703125,20.490046594238283C17.8301220703125,20.63004659423828,17.9100220703125,20.81004659423828,17.9100220703125,20.990046594238283L17.9100220703125,23.27004659423828C17.9100220703125,23.669946594238283,17.5901220703125,23.98004659423828,17.2001220703125,23.98004659423828L0.7100830703125,23.98004659423828C0.3100590703125,23.98004659423828,0.0001220703125,23.65994659423828,0.0001220703125,23.27004659423828L0.0001220703125,20.990046594238283C3.124999999981441e-10,20.61004659423828,0.3200680703125,20.29004659423828,0.7099610703125,20.29004659423828ZM15.3500220703125,20.29004659423828L15.3500220703125,2.840006594238281C15.3399220703125,2.039996594238281,14.6899220703125,1.4100065942382813,13.9000220703125,1.4200065942382813L4.0100120703125,1.4200065942382813C3.2199720703125,1.4100065942382813,2.5700720703125,2.0400065942382812,2.5600620703125,2.840006594238281L2.5600620703125,20.280046594238282L15.3500220703125,20.29004659423828ZM16.4900220703125,21.710046594238282L1.4200420703125,21.710046594238282L1.4200420703125,22.56004659423828L16.4900220703125,22.56004659423828L16.4900220703125,21.710046594238282Z" fill-rule="evenodd" fill="#2B2F38" fill-opacity="0.8999999761581421"/></g></g></g></g></g></g></g></g></svg>