<svg xmlns="http://www.w3.org/2000/svg" xmlns:xlink="http://www.w3.org/1999/xlink" fill="none" version="1.1" width="23.51025390625" height="23.48828125" viewBox="0 0 23.51025390625 23.48828125"><g style="opacity:0.8999999761581421;"><g><g><path d="M23.509978125,16.147486669921875C23.509978125,16.267486669921876,23.509978125,16.387486669921877,23.499978125,16.507476669921875C23.489978125,16.627476669921876,23.489978125,16.747466669921874,23.469978125,16.867466669921875C23.459978125,16.987456669921876,23.439978125,17.107456669921874,23.429978124999998,17.227446669921875C23.409878125,17.347446669921872,23.389878125,17.467436669921874,23.369878125,17.587436669921875C23.349878125,17.707426669921873,23.319778125,17.827426669921877,23.289878125,17.937436669921873C23.259878125,18.057436669921877,23.229878125,18.167446669921873,23.189978125,18.287446669921877C23.159878125,18.407436669921875,23.119978125,18.517456669921877,23.079978125,18.627436669921877C23.039878125,18.737426669921874,22.999978125,18.857486669921876,22.949978125,18.967486669921875C22.899878125,19.077386669921875,22.859978124999998,19.187486669921874,22.799878125,19.297386669921877C22.749878125000002,19.407386669921877,22.689978125,19.517386669921876,22.639878125,19.617386669921874C22.579878125,19.727386669921877,22.519878124999998,19.827386669921875,22.459878125,19.927386669921873C22.399778124999997,20.027386669921874,22.329878125,20.127486669921876,22.269878124999998,20.227386669921877C22.199978125,20.327386669921875,22.129878124999998,20.427386669921873,22.059978125,20.517386669921876C21.989978125,20.617386669921874,21.909878125,20.707386669921874,21.839978125000002,20.797386669921877C21.759978125,20.887386669921874,21.689978125,20.977386669921877,21.599978125,21.067386669921873C21.509978125,21.157386669921877,21.439978125,21.247386669921873,21.349978125,21.327386669921875C21.269978125,21.417386669921875,21.179978124999998,21.497386669921873,21.089978125000002,21.577386669921875C20.999978125,21.657386669921877,20.909878125,21.737386669921875,20.819978125,21.817386669921873C20.729978125000002,21.897386669921875,20.629978125,21.967386669921876,20.539878125,22.037386669921872C20.439978125,22.107386669921873,20.349978125,22.177386669921873,20.249878125000002,22.247386669921873C20.149878125,22.317386669921873,20.049878125,22.377386669921876,19.949878124999998,22.437386669921874C19.849878125,22.497386669921873,19.739878125,22.557386669921875,19.639778125,22.617386669921874C19.529778125,22.677386669921873,19.429778125,22.727386669921877,19.319778125,22.777386669921874C19.209878125,22.827386669921875,19.099878125,22.877386669921876,18.989878125,22.927386669921873C18.879878124999998,22.977386669921877,18.769898124999997,23.017386669921876,18.649898125,23.057386669921875C18.539918125,23.097386669921875,18.419918125000002,23.137386669921874,18.309938125000002,23.167386669921875C18.189938124999998,23.197386669921876,18.079958124999997,23.237386669921875,17.959958125,23.267386669921876C17.839968125,23.297386669921877,17.729978125000002,23.327386669921875,17.609988125,23.347386669921875C17.489988125,23.367386669921874,17.369998125000002,23.387386669921874,17.249998124999998,23.407386669921877C17.130008125,23.427386669921873,17.010008125,23.437386669921874,16.890018124999997,23.447386669921876C16.770018125,23.457386669921874,16.650028125,23.467386669921876,16.530028125,23.477386669921877C16.410038125,23.487386669921875,16.290038125,23.487386669921875,16.170048125,23.487386669921875C16.050048125,23.487386669921875,15.930058125,23.487386669921875,15.810058125000001,23.477386669921877C15.690068125,23.467386669921876,15.570068124999999,23.467386669921876,15.450078125000001,23.447386669921876C15.330078125,23.437386669921874,15.210078124999999,23.417386669921875,15.090088125000001,23.407386669921877C14.970088125,23.387386669921874,14.850098124999999,23.367386669921874,14.730098125,23.347386669921875C14.610108125,23.327386669921875,14.490108124999999,23.297386669921877,14.380128124999999,23.267386669921876C14.260128125,23.237386669921875,14.150148125000001,23.207386669921874,14.030148125,23.167386669921875C13.910158124999999,23.127386669921876,13.800168124999999,23.097386669921875,13.690188124999999,23.057386669921875C13.580198124999999,23.017386669921876,13.460208125000001,22.977386669921877,13.350218125,22.927386669921873C13.240238125000001,22.877386669921876,13.130248125,22.837386669921877,13.020268125000001,22.777386669921874C12.910278125,22.717386669921876,12.800288125,22.667386669921875,12.700318124999999,22.617386669921874C12.590328125,22.557386669921875,12.490358125,22.497386669921873,12.390258124999999,22.437386669921874C12.290288125,22.377386669921876,12.190308125,22.307386669921875,12.090208125,22.247386669921873C11.990238125,22.177386669921873,11.890258124999999,22.107386669921873,11.800168124999999,22.037386669921872C11.700198125,21.967386669921876,11.610228124999999,21.887386669921874,11.520138124999999,21.817386669921873C11.430178125,21.737386669921875,11.340088125,21.667386669921875,11.250118125,21.577386669921875C11.160158125,21.497386669921873,11.070068125,21.417386669921875,10.990108124999999,21.327386669921875C10.910158125,21.247386669921873,10.820068125,21.157386669921877,10.740108124999999,21.067386669921873C10.660158125,20.977386669921877,10.580078125,20.887386669921874,10.500118125,20.797386669921877C10.420168125,20.707386669921874,10.350098125,20.607386669921873,10.280148125,20.517386669921876C10.210208125,20.417386669921875,10.140138125,20.327386669921875,10.070188125,20.227386669921877C10.000248125,20.127386669921876,9.940188125,20.027386669921874,9.880248125,19.927386669921873C9.820190125,19.827386669921875,9.760254125,19.717486669921875,9.700195125,19.617386669921874C9.640137125,19.507486669921875,9.590210125,19.407486669921873,9.540161125000001,19.297386669921877C9.490112125,19.187486669921874,9.440185125,19.077386669921875,9.390137125,18.967486669921875C9.340088125,18.857486669921876,9.300171125,18.747436669921875,9.260132125,18.627436669921877C9.220093125,18.517456669921877,9.180176125,18.397426669921877,9.150146125,18.287446669921877C9.120117125,18.177456669921874,9.080200125,18.057436669921877,9.050171125,17.937436669921873C9.020141125,17.817446669921875,8.990112125,17.707426669921873,8.970215125,17.587436669921875C8.950195125,17.467436669921874,8.930176125,17.347446669921872,8.910156225,17.227446669921875C8.890136725,17.107456669921874,8.880126925,16.987456669921876,8.870117225,16.867466669921875C8.860107425,16.747466669921874,8.850097625,16.627476669921876,8.840087925,16.507476669921875C8.830078125,16.387486669921877,8.830078125,16.267486669921876,8.830078125,16.147486669921875C8.830078125,16.027496669921874,8.830078125,15.907496669921876,8.840087925,15.787506669921875C8.850097625,15.667506669921874,8.850097625,15.547516669921876,8.870117225,15.427516669921875C8.880126925,15.307526669921874,8.900146525,15.187526669921876,8.910156225,15.067536669921875C8.930176125,14.947536669921874,8.950195125,14.827546669921876,8.970215125,14.707546669921875C8.990234125,14.587556669921874,9.020264125,14.467556669921876,9.050171125,14.357546669921874C9.080200125,14.237546669921876,9.110229125,14.127536669921875,9.150146125,14.007536669921876C9.190063125,13.887546669921875,9.220093125,13.777526669921876,9.260132125,13.667536669921876C9.300171125,13.557556669921876,9.340088125,13.437526669921876,9.390137125,13.327546669921876C9.440185125,13.217556669921876,9.480102125,13.107546669921874,9.540161125000001,12.997556669921874C9.590210125,12.887576669921874,9.650146125,12.777556669921875,9.700195125,12.677546669921874C9.750244125,12.577546669921876,9.820190125,12.467556669921875,9.880248125,12.367556669921875C9.940308125,12.267546669921876,10.010258125,12.167536669921875,10.070188125,12.067566669921876C10.140138125,11.967556669921875,10.210208125,11.867556669921875,10.280148125,11.777556669921875C10.350098125,11.677546669921874,10.430178125,11.587556669921875,10.500118125,11.497556669921876C10.580078125,11.407566669921875,10.650148125,11.317566669921876,10.740108124999999,11.227566669921874C10.820068125,11.137576669921875,10.900148125,11.047576669921876,10.990108124999999,10.967556669921875C11.070068125,10.877566669921876,11.160158125,10.797546669921875,11.250118125,10.717556669921875C11.340088125,10.637576669921875,11.430178125,10.557556669921874,11.520138124999999,10.477566669921876C11.610108125,10.397586669921875,11.710078124999999,10.327576669921875,11.800168124999999,10.257566669921875C11.890258124999999,10.187556669921875,11.990108124999999,10.117556669921875,12.090208125,10.047576669921876C12.190188125,9.977566669921876,12.290158125,9.917576669921875,12.390258124999999,9.857576669921874C12.490238125,9.797576669921876,12.600218125,9.737579669921875,12.700318124999999,9.677581669921874C12.810298125,9.617584669921875,12.910278125,9.567596669921874,13.020268125000001,9.517577669921875C13.130248125,9.467559669921876,13.240238125000001,9.417571669921875,13.350218125,9.367584669921875C13.460208125000001,9.317596669921874,13.570188125,9.277587669921875,13.690188124999999,9.237579669921875C13.810178125,9.197570669921875,13.920168125,9.157592669921875,14.030148125,9.127593669921875C14.140138125,9.097595669921875,14.260128125,9.057586669921875,14.380128124999999,9.027587669921875C14.500118125,8.997588669921875,14.610108125,8.967590669921876,14.730098125,8.947601669921875C14.850098124999999,8.927612669921874,14.970088125,8.907592669921875,15.090088125000001,8.887603769921874C15.210078124999999,8.867614769921875,15.330078125,8.857604969921875,15.450078125000001,8.847595169921876C15.570068124999999,8.837585469921875,15.690068125,8.827606169921875,15.810058125000001,8.817596469921876C15.930058125,8.807586669921875,16.050048125,8.807586669921875,16.170048125,8.807586669921875C16.290038125,8.807586669921875,16.410038125,8.807586669921875,16.530028125,8.817596469921876C16.650028125,8.827606169921875,16.770018125,8.827606169921875,16.890018124999997,8.847595169921876C17.010008125,8.867584269921876,17.130008125,8.877593969921875,17.249998124999998,8.887603769921874C17.369998125000002,8.897613569921875,17.489988125,8.927612669921874,17.609988125,8.947601669921875C17.729978125000002,8.967590669921876,17.849978125,8.997588669921875,17.959958125,9.027587669921875C18.079958124999997,9.057586669921875,18.189938124999998,9.087585669921875,18.309938125000002,9.127593669921875C18.419918125000002,9.157592669921875,18.539918125,9.197601669921875,18.649898125,9.237579669921875C18.759888125,9.277587669921875,18.879878124999998,9.317565669921875,18.989878125,9.367584669921875C19.099878125,9.417571669921875,19.209878125,9.457580669921875,19.319778125,9.517577669921875C19.429778125,9.567565669921875,19.539778124999998,9.627563669921875,19.639778125,9.677581669921874C19.749778125,9.737579669921875,19.849778125,9.797576669921876,19.949878124999998,9.857576669921874C20.049778125,9.917576669921875,20.149778124999997,9.987576669921875,20.249878125000002,10.047576669921876C20.349878125,10.117586669921875,20.449878124999998,10.187586669921874,20.539878125,10.257566669921875C20.639878125,10.327576669921875,20.729878125,10.407566669921875,20.819978125,10.477566669921876C20.909878125,10.557556669921874,20.999978125,10.627566669921874,21.089978125000002,10.717556669921875C21.179978124999998,10.807556669921874,21.269978125,10.877566669921876,21.349978125,10.967556669921875C21.439978125,11.047546669921875,21.519978125,11.137576669921875,21.599978125,11.227566669921874C21.679978124999998,11.317566669921876,21.759978125,11.407566669921875,21.839978125000002,11.497556669921876C21.919878125,11.587556669921875,21.989978125,11.687556669921875,22.059978125,11.777556669921875C22.129878124999998,11.877566669921876,22.199978125,11.967556669921875,22.269878124999998,12.067566669921876C22.339878125,12.167576669921875,22.399878125,12.267576669921874,22.459878125,12.367556669921875C22.519878124999998,12.467556669921875,22.579878125,12.577546669921876,22.639878125,12.677546669921874C22.699978125,12.777556669921875,22.749878125000002,12.887546669921875,22.799878125,12.997556669921874C22.849978125,13.107546669921874,22.899878125,13.217556669921876,22.949978125,13.327546669921876C22.999978125,13.437526669921876,23.039878125,13.547546669921875,23.079978125,13.667536669921876C23.119978125,13.777526669921876,23.159878125,13.897556669921876,23.189978125,14.007536669921876C23.219978125,14.127536669921875,23.259878125,14.237546669921876,23.289878125,14.357546669921874C23.319978125,14.477536669921875,23.349978125,14.587556669921874,23.369878125,14.707546669921875C23.389878125,14.827546669921876,23.409878125,14.947536669921874,23.429978124999998,15.067536669921875C23.449978125,15.187526669921876,23.459978125,15.307526669921874,23.469978125,15.427516669921875C23.479978125000002,15.547516669921876,23.489978125,15.667506669921874,23.499978125,15.787506669921875C23.499978125,15.907496669921876,23.509978125,16.027496669921874,23.509978125,16.147486669921875Z" fill="#457DFF" fill-opacity="1"/></g></g><g><g><g><g><path d="M17.0699462890625,9.317471689453125L18.0399172890625,10.287471689453124L19.9699662890625,8.357482689453125L19.0100062890625,7.387481689453125L17.0699462890625,9.317471689453125Z" fill-rule="evenodd" fill="#2B2F38" fill-opacity="0.8999999761581421"/></g></g><g><g><path d="M17.0699462890625,9.317471689453125L18.0399172890625,10.287471689453124L19.9699662890625,8.357482689453125L19.0100062890625,7.387481689453125L17.0699462890625,9.317471689453125Z" fill-rule="evenodd" fill="#2B2F38" fill-opacity="0.8999999761581421"/></g></g><g><g><path d="M15.74,0.247498C15.41,-0.082489,14.86,-0.082489,14.53,0.247498L0.25,14.5275C0.0899658,14.6875,0,14.9075,0,15.1375C0,15.3575,0.0899658,15.5775,0.25,15.7475L1.93994,17.4375C2.09998,17.5975,2.31995,17.6875,2.54993,17.6875C2.77991,17.6875,2.99988,17.5975,3.15991,17.4375L3.5199,17.0775L6.8999,20.4675C7.16992,20.7275,7.60986,20.7275,7.86987,20.4675L9.33984,18.9975L10.6798,20.3475C11.0098,20.6775,11.5598,20.6775,11.8898,20.3475L14.4797,17.7575L16.2798,15.9575L16.2698,15.9475L18.4597,13.7575L20.6697,11.5375L20.6797,11.5475L23.2397,8.98752C23.5697,8.65753,23.5697,8.10751,23.2397,7.77753L15.74,0.247498Z" fill-rule="evenodd" fill="#2B2F38" fill-opacity="0.8999999761581421"/></g></g><g><g><path d="M8.359990234375001,18.02749244140625L5.449951234375,15.12750244140625L4.489990234375,16.09750344140625L7.390010234375,18.99750244140625L8.359990234375001,18.02749244140625Z" fill-rule="evenodd" fill="#2B2F38" fill-opacity="0.8999999761581421"/></g></g><g><g><path d="M21.929933984375,8.357484365234374L15.139933984375,1.567474365234375L1.579833984375,15.127474365234375L2.539794984375,16.097474365234376L5.469843984375,13.167474365234375L11.289793984375,18.987474365234377L12.549833984375,17.727474365234375L13.869733984375,16.407474365234375L16.109733984374998,14.167474365234375L16.099733984375,14.157474365234375L16.529833984375,13.727474365234375L18.999733984375,11.257474365234375L19.009733984375,11.267484365234376L21.929933984375,8.357484365234374Z" fill-rule="evenodd" fill="#2B2F38" fill-opacity="0.8999999761581421"/></g></g><g><g><path d="M19.010008359375,7.387481689453125L17.070068359375,9.317471689453125L18.040039359375,10.287471689453124L19.970088359375,8.357482689453125L19.010008359375,7.387481689453125Z" fill-rule="evenodd" fill="#2B2F38" fill-opacity="0.8999999761581421"/></g></g><g><g><path d="M17.0699462890625,9.317471689453125L18.0399172890625,10.287471689453124L19.9699662890625,8.357482689453125L19.0100062890625,7.387481689453125L17.0699462890625,9.317471689453125Z" fill-rule="evenodd" fill="#2B2F38" fill-opacity="0.8999999761581421"/></g></g><g><g><path d="M17.0699462890625,9.317471689453125L18.0399172890625,10.287471689453124L19.9699662890625,8.357482689453125L19.0100062890625,7.387481689453125L17.0699462890625,9.317471689453125Z" fill-rule="evenodd" fill="#2B2F38" fill-opacity="0.8999999761581421"/></g></g></g><g><g><path d="M16.5400365234375,13.72747806171875L16.1099865234375,14.15747026171875L16.1199965234375,14.16748026171875L15.2399865234375,15.04748826171875L22.189936523437503,15.04748826171875L22.189936523437503,16.40746826171875L13.8798865234375,16.40746826171875L12.5599365234375,17.72747826171875L22.8499365234375,17.72747826171875C23.2099365234375,17.72747826171875,23.5100365234375,17.43746826171875,23.5100365234375,17.06747826171875L23.5100365234375,14.37747226171875C23.5100365234375,14.01748626171875,23.2199365234375,13.71746826171875,22.8499365234375,13.71746826171875L16.5400365234375,13.71746826171875L16.5400365234375,13.72747806171875Z" fill-rule="evenodd" fill="#2B2F38" fill-opacity="0.8999999761581421"/></g></g><g><g><path d="M23.51001140625,19.467494130859375L23.51001140625,11.987488130859376C23.51001140625,11.627502130859375,23.20996140625,11.327484130859375,22.84997540625,11.327484130859375C22.48999040625,11.327484130859375,22.18994140625,11.617493130859375,22.18994140625,11.987488130859376L22.18994140625,19.467494130859375C22.18994140625,19.827484130859375,22.47998040625,20.127504130859375,22.84997540625,20.127504130859375C23.21997140625,20.127504130859375,23.51001140625,19.827484130859375,23.51001140625,19.467494130859375Z" fill-rule="evenodd" fill="#2B2F38" fill-opacity="0.8999999761581421"/></g></g></g></g></svg>