<svg xmlns="http://www.w3.org/2000/svg" xmlns:xlink="http://www.w3.org/1999/xlink" fill="none" version="1.1" width="23.5" height="23.509765625" viewBox="0 0 23.5 23.509765625"><defs><mask id="master_svg0_24_16411"><g><g><rect x="0" y="0" width="18.149999618530273" height="23.510000228881836" rx="0" fill="#FFFFFF" fill-opacity="0.8999999761581421"/></g></g></mask><mask id="master_svg1_24_16407"><g><g><rect x="0" y="0" width="18.149999618530273" height="23.510000228881836" rx="0" fill="#FFFFFF" fill-opacity="0.8999999761581421"/></g></g></mask><mask id="master_svg2_24_16402"><g><g><rect x="0" y="0" width="18.149999618530273" height="23.510000228881836" rx="0" fill="#FFFFFF" fill-opacity="0.8999999761581421"/></g></g></mask><mask id="master_svg3_24_16399"><g><g><rect x="0" y="0" width="18.149999618530273" height="23.510000228881836" rx="0" fill="#FFFFFF" fill-opacity="0.8999999761581421"/></g></g></mask><mask id="master_svg4_24_16392"><g><g><rect x="0" y="0" width="18.149999618530273" height="23.510000228881836" rx="0" fill="#FFFFFF" fill-opacity="0.8999999761581421"/></g></g></mask><mask id="master_svg5_24_16373"><g><g><rect x="0" y="0" width="18.149999618530273" height="23.510000228881836" rx="0" fill="#FFFFFF" fill-opacity="0.8999999761581421"/></g></g></mask><mask id="master_svg6_24_16384"><g><g><rect x="0" y="0" width="18.149999618530273" height="23.510000228881836" rx="0" fill="#FFFFFF" fill-opacity="0.8999999761581421"/></g></g></mask><mask id="master_svg7_24_16389"><g><g><rect x="0" y="0" width="18.149999618530273" height="23.510000228881836" rx="0" fill="#FFFFFF" fill-opacity="0.8999999761581421"/></g></g></mask><mask id="master_svg8_24_16377"><g><g><rect x="0" y="0" width="18.149999618530273" height="23.510000228881836" rx="0" fill="#FFFFFF" fill-opacity="0.8999999761581421"/></g></g></mask></defs><g style="opacity:0.8999999761581421;"><g><g><path d="M23.499968359375,16.159998876953125C23.499968359375,16.279998876953126,23.499968359375,16.399998876953127,23.489968359375,16.519988876953125C23.479968359375,16.639988876953126,23.479968359375,16.759978876953124,23.459968359375,16.879978876953125C23.449968359375,16.999968876953126,23.429968359375,17.119968876953124,23.419968359374998,17.239958876953125C23.399868359375,17.359958876953122,23.379868359375,17.479948876953124,23.359868359375,17.599948876953125C23.339868359375,17.719938876953123,23.309768359375,17.839938876953127,23.279868359375,17.949948876953123C23.249868359375,18.069948876953127,23.219868359375,18.179958876953123,23.179968359375,18.299958876953127C23.149868359375,18.419948876953125,23.109968359375,18.529968876953127,23.069968359375,18.639948876953127C23.029868359375,18.749938876953124,22.989968359375,18.869998876953126,22.939968359375,18.979998876953125C22.889868359375,19.089898876953125,22.849968359374998,19.199998876953124,22.789868359375,19.309898876953127C22.739868359375002,19.419898876953127,22.679968359375,19.529898876953126,22.629868359375,19.629898876953124C22.569868359375,19.739898876953127,22.509868359374998,19.839898876953125,22.449868359375,19.939898876953123C22.389768359374997,20.039898876953124,22.319868359375,20.139998876953126,22.259868359374998,20.239898876953127C22.189968359375,20.339898876953125,22.119868359374998,20.439898876953123,22.049968359375,20.529898876953126C21.979968359375,20.629898876953124,21.899868359375,20.719898876953124,21.829968359375002,20.809898876953127C21.749968359375,20.899898876953124,21.679968359375,20.989898876953127,21.589968359375,21.079898876953123C21.509968359375,21.169898876953127,21.429968359375,21.259898876953123,21.339968359375,21.339898876953125C21.259968359375,21.429898876953125,21.169968359374998,21.509898876953123,21.079968359375002,21.589898876953125C20.989968359375,21.669898876953127,20.899868359375,21.749898876953125,20.809968359375,21.829898876953123C20.719968359375002,21.909898876953125,20.619968359375,21.979898876953126,20.529868359375,22.049898876953122C20.439868359374998,22.119898876953123,20.339968359375,22.189898876953123,20.239868359375002,22.259898876953123C20.139868359375,22.329898876953123,20.039868359375,22.389898876953126,19.939868359374998,22.449898876953124C19.839868359375,22.509898876953123,19.729868359375,22.569898876953125,19.629768359375,22.629898876953124C19.519768359375,22.689898876953123,19.419768359375,22.739898876953127,19.309768359375,22.789898876953124C19.199868359375,22.839898876953125,19.089868359375,22.889898876953126,18.979868359375,22.939898876953123C18.869868359374998,22.989898876953127,18.759888359374997,23.029898876953126,18.639888359375,23.069898876953125C18.529908359375,23.109898876953125,18.409908359375002,23.149898876953124,18.299928359375002,23.179898876953125C18.179928359374998,23.209898876953126,18.069948359374997,23.249898876953125,17.949948359375,23.279898876953126C17.829958359375,23.309898876953127,17.719968359375002,23.339898876953125,17.599978359375,23.359898876953125C17.479978359375,23.379898876953124,17.359988359375002,23.399898876953124,17.239988359374998,23.419898876953127C17.119998359375,23.439898876953123,16.999998359375,23.449898876953124,16.880008359374997,23.459898876953126C16.760008359375,23.469898876953124,16.640018359375,23.479898876953126,16.520018359375,23.489898876953127C16.400028359375,23.499898876953125,16.280028359375,23.499898876953125,16.160038359375,23.499898876953125C16.040038359375,23.499898876953125,15.920048359375,23.499898876953125,15.800048359375001,23.489898876953127C15.680058359375,23.479898876953126,15.560058359374999,23.479898876953126,15.440068359375001,23.459898876953126C15.320068359375,23.449898876953124,15.200068359374999,23.429898876953125,15.080078359375001,23.419898876953127C14.960078359375,23.399898876953124,14.840088359374999,23.379898876953124,14.720088359375,23.359898876953125C14.600098359375,23.339898876953125,14.480098359374999,23.309898876953127,14.370118359374999,23.279898876953126C14.250118359375,23.249898876953125,14.140138359375001,23.219898876953124,14.020138359375,23.179898876953125C13.910158359375,23.149898876953124,13.790158359374999,23.109898876953125,13.680178359374999,23.069898876953125C13.570188359374999,23.029898876953126,13.450198359375001,22.989898876953127,13.340208359375,22.939898876953123C13.230228359375001,22.889898876953126,13.120238359375,22.849898876953127,13.010258359375001,22.789898876953124C12.900268359375,22.739898876953127,12.790278359375,22.679898876953125,12.690308359374999,22.629898876953124C12.580318359375,22.569898876953125,12.480348359375,22.509898876953123,12.380248359374999,22.449898876953124C12.280278359375,22.389898876953126,12.180298359375,22.319898876953125,12.080198359375,22.259898876953123C11.980228359375,22.189898876953123,11.880248359374999,22.119898876953123,11.790158359374999,22.049898876953122C11.700068359374999,21.979998876953125,11.600218359374999,21.899898876953124,11.510128359374999,21.829898876953123C11.420168359375,21.749898876953125,11.330078359375,21.679898876953125,11.240108359375,21.589898876953125C11.150148359375,21.509898876953123,11.060058359375,21.429898876953125,10.980098359374999,21.339898876953125C10.890138359375,21.259898876953123,10.810058359375,21.169898876953127,10.730098359374999,21.079898876953123C10.650148359375,20.989898876953127,10.570068359375,20.899898876953124,10.490108359375,20.809898876953127C10.410158359375,20.719898876953124,10.340088359375,20.619898876953123,10.270138359375,20.529898876953126C10.200198359375,20.429898876953125,10.130128359375,20.339898876953125,10.060178359375,20.239898876953127C9.990238359375,20.139898876953126,9.930178359375,20.039898876953124,9.870238359375,19.939898876953123C9.810302359375,19.839998876953125,9.750244359375,19.729998876953125,9.690185359375,19.629898876953124C9.630127359375,19.519998876953125,9.580200359375,19.419998876953123,9.530151359375001,19.309898876953127C9.480102359375,19.199998876953124,9.430175359375,19.089898876953125,9.380127359375,18.979998876953125C9.330078359375,18.869998876953126,9.290161359375,18.759948876953125,9.250122359375,18.639948876953127C9.210083359375,18.529968876953127,9.170166359375,18.409938876953127,9.140136359375,18.299958876953127C9.110107359375,18.179958876953123,9.070190359375,18.069948876953127,9.040161359375,17.949948876953123C9.010131359375,17.829958876953125,8.980102359375,17.719938876953123,8.960205359375,17.599948876953125C8.940185359375,17.479948876953124,8.920166359375,17.359958876953122,8.900146459375,17.239958876953125C8.880126959375,17.119968876953124,8.870117159375,16.999968876953126,8.860107459375,16.879978876953125C8.850097659375,16.759978876953124,8.840087859375,16.639988876953126,8.830078159375,16.519988876953125C8.820068359375,16.399998876953127,8.820068359375,16.279998876953126,8.820068359375,16.159998876953125C8.820068359375,16.040008876953124,8.820068359375,15.920008876953126,8.830078159375,15.800018876953125C8.840087859375,15.680018876953124,8.840087859375,15.560028876953126,8.860107459375,15.440028876953125C8.870117159375,15.320038876953124,8.890136759375,15.200038876953126,8.900146459375,15.080048876953125C8.920166359375,14.960048876953124,8.940185359375,14.840058876953126,8.960205359375,14.720058876953125C8.980224359375,14.600068876953124,9.010254359375,14.480068876953126,9.040161359375,14.370058876953124C9.070190359375,14.250058876953126,9.100219359375,14.140048876953125,9.140136359375,14.020048876953126C9.170166359375,13.900058876953125,9.210083359375,13.790038876953126,9.250122359375,13.680048876953126C9.290161359375,13.570068876953126,9.330078359375,13.450038876953126,9.380127359375,13.340058876953126C9.430175359375,13.230068876953126,9.470092359375,13.120058876953124,9.530151359375001,13.010068876953124C9.580200359375,12.900088876953124,9.640136359375,12.790068876953125,9.690185359375,12.690058876953124C9.750244359375,12.580078876953126,9.810180359375,12.480068876953125,9.870238359375,12.380068876953125C9.930298359375,12.280058876953126,10.000248359375,12.180048876953125,10.060178359375,12.080078876953126C10.120118359375,11.980098876953125,10.200198359375,11.880068876953125,10.270138359375,11.790068876953125C10.340088359375,11.700068876953125,10.420168359375,11.600068876953125,10.490108359375,11.510068876953126C10.560058359375,11.420078876953125,10.640138359375,11.330078876953126,10.730098359374999,11.240078876953124C10.810058359375,11.150088876953125,10.890138359375,11.060088876953126,10.980098359374999,10.980068876953125C11.060058359375,10.900088876953125,11.150148359375,10.810058876953125,11.240108359375,10.730068876953125C11.330078359375,10.650088876953125,11.420168359375,10.570068876953124,11.510128359374999,10.490078876953126C11.600098359375,10.410098876953125,11.700068359374999,10.340088876953125,11.790158359374999,10.270078876953125C11.890138359375,10.200068876953125,11.980098359374999,10.130068876953125,12.080198359375,10.060088876953126C12.180178359375,9.990078876953126,12.280148359375,9.930088876953125,12.380248359374999,9.870088876953124C12.480228359375,9.810088876953126,12.590208359375,9.750091876953125,12.690308359374999,9.690093876953124C12.800288359375,9.630096876953125,12.900268359375,9.580108876953124,13.010258359375001,9.530089876953125C13.120238359375,9.480102876953126,13.230228359375001,9.430083876953125,13.340208359375,9.380096876953125C13.450198359375001,9.330108876953124,13.560178359375,9.290099876953125,13.680178359374999,9.250091876953125C13.800168359375,9.210082876953125,13.910158359375,9.170104876953125,14.020138359375,9.140105876953125C14.140138359375001,9.110107876953125,14.250118359375,9.070098876953125,14.370118359374999,9.040099876953125C14.490108359375,9.010100876953125,14.600098359375,8.980102876953126,14.720088359375,8.960113876953125C14.840088359374999,8.940124876953124,14.960078359375,8.920104876953125,15.080078359375001,8.900115976953124C15.200068359374999,8.880126976953125,15.320068359375,8.870117176953125,15.440068359375001,8.860107376953126C15.560058359374999,8.850097676953125,15.680058359375,8.840118376953125,15.800048359375001,8.830108676953126C15.920048359375,8.820098876953125,16.040038359375,8.820098876953125,16.160038359375,8.820098876953125C16.280028359375,8.820098876953125,16.400028359375,8.820098876953125,16.520018359375,8.830108676953126C16.640018359375,8.840118376953125,16.760008359375,8.840118376953125,16.880008359374997,8.860107376953126C16.999998359375,8.880096476953126,17.119998359375,8.890106176953125,17.239988359374998,8.900115976953124C17.359988359375002,8.910125776953125,17.479978359375,8.940124876953124,17.599978359375,8.960113876953125C17.719968359375002,8.980102876953126,17.839968359375,9.010100876953125,17.949948359375,9.040099876953125C18.059938359375,9.070098876953125,18.179928359374998,9.100097876953125,18.299928359375002,9.140105876953125C18.409908359375002,9.170104876953125,18.529908359375,9.210113876953125,18.639888359375,9.250091876953125C18.749878359375,9.290099876953125,18.869868359374998,9.330077876953125,18.979868359375,9.380096876953125C19.089868359375,9.430083876953125,19.199868359375,9.470092876953125,19.309768359375,9.530089876953125C19.419768359375,9.580077876953125,19.529768359374998,9.640075876953125,19.629768359375,9.690093876953124C19.739768359375,9.750091876953125,19.839768359375,9.810088876953126,19.939868359374998,9.870088876953124C20.039768359375,9.930088876953125,20.139768359374997,10.000088876953125,20.239868359375002,10.060088876953126C20.339868359375,10.130098876953125,20.439868359374998,10.200098876953124,20.529868359375,10.270078876953125C20.629868359375,10.340088876953125,20.719868359375,10.420078876953125,20.809968359375,10.490078876953126C20.899868359375,10.570068876953124,20.989968359375,10.640078876953124,21.079968359375002,10.730068876953125C21.169968359374998,10.820068876953124,21.259968359375,10.890078876953126,21.339968359375,10.980068876953125C21.419968359374998,11.070068876953124,21.509968359375,11.150088876953125,21.589968359375,11.240078876953124C21.669968359374998,11.330078876953126,21.749968359375,11.420078876953125,21.829968359375002,11.510068876953126C21.909868359375,11.600068876953125,21.979968359375,11.700068876953125,22.049968359375,11.790068876953125C22.119868359374998,11.890078876953126,22.189968359375,11.980068876953125,22.259868359374998,12.080078876953126C22.329868359375,12.180088876953125,22.389868359375,12.280088876953124,22.449868359375,12.380068876953125C22.509868359374998,12.480068876953125,22.569868359375,12.590058876953126,22.629868359375,12.690058876953124C22.689968359375,12.800048876953126,22.739868359375002,12.900058876953125,22.789868359375,13.010068876953124C22.839968359375,13.120088876953126,22.889868359375,13.230068876953126,22.939968359375,13.340058876953126C22.989968359375,13.450038876953126,23.029868359375,13.560058876953125,23.069968359375,13.680048876953126C23.109968359375,13.790038876953126,23.149868359375,13.910068876953126,23.179968359375,14.020048876953126C23.209968359375,14.140048876953125,23.249868359375,14.250058876953126,23.279868359375,14.370058876953124C23.309968359375,14.490048876953125,23.339968359375,14.600068876953124,23.359868359375,14.720058876953125C23.379768359375,14.840058876953126,23.399868359375,14.960048876953124,23.419968359374998,15.080048876953125C23.439968359375,15.200038876953126,23.449968359375,15.320038876953124,23.459968359375,15.440028876953125C23.469968359375002,15.560028876953126,23.479968359375,15.680018876953124,23.489968359375,15.800018876953125C23.499968359375,15.919978876953124,23.499968359375,16.039978876953125,23.499968359375,16.159998876953125Z" fill="#457DFF" fill-opacity="1"/></g></g><g mask="url(#master_svg0_24_16411)"><g><g mask="url(#master_svg1_24_16407)"><g><g><rect x="0" y="0" width="18.149999618530273" height="23.510000228881836" rx="0" fill="#D8D8D8" fill-opacity="0.009999999776482582"/></g></g></g><g mask="url(#master_svg2_24_16402)"><g><g><path d="M0,1.81C0,0.809998,0.810059,0,1.81995,0L16.34,0C17.34,0,18.1599,0.809998,18.1599,1.81L18.1599,22.81C18.1599,23.19,17.8499,23.5,17.46,23.5L0.709961,23.5C0.319946,23.5,0.0100098,23.19,0.0100098,22.81L0.0100098,1.81L0,1.81ZM16.34,1.38998C16.5699,1.38998,16.76,1.57999,16.76,1.81L16.76,22.12L1.40002,22.12L1.40002,1.81C1.40002,1.70001,1.45007,1.59,1.52002,1.51999C1.59998,1.44,1.70007,1.39999,1.81006,1.39999L16.34,1.39999L16.34,1.38998Z" fill-rule="evenodd" fill="#2B2F38" fill-opacity="0.8999999761581421"/></g></g></g><g mask="url(#master_svg3_24_16399)"><g><g><path d="M14.6600390625,11.060000986328125L3.4899900625,11.060000986328125C3.0999760625,11.060000986328125,2.7900390625,10.750000986328125,2.7900390625,10.359980986328125L2.7900390625,3.679992986328125C2.7900390625,3.499999986328125,2.8699951625,3.320006986328125,3.0000000625,3.190001986328125C3.1300050625,3.049987786328125,3.3100590625,2.980010986328125,3.4899900625,2.980010986328125L14.6600390625,2.980010986328125C14.8400390625,2.980010986328125,15.0200390625,3.050018286328125,15.1500390625,3.190001986328125C15.2800390625,3.320006986328125,15.3599390625,3.499999986328125,15.3599390625,3.679992986328125L15.3599390625,10.350010986328126C15.3599390625,10.739990986328124,15.0400390625,11.060000986328125,14.6600390625,11.060000986328125ZM4.1899390625,4.379970986328125L13.9599390625,4.379970986328125L13.9599390625,9.659970986328126L4.1899390625,9.659970986328126L4.1899390625,4.379970986328125Z" fill-rule="evenodd" fill="#2B2F38" fill-opacity="0.8999999761581421"/></g></g></g><g mask="url(#master_svg4_24_16392)"><g><g><path d="M2.979980296875,13.81997291015625C3.359989296875,13.81997291015625,3.6699192968750003,13.50998291015625,3.6699192968750003,13.11996491015625C3.6699192968750003,12.93997191015625,3.599979296875,12.75997891015625,3.469969296875,12.62997391015625C3.329959296875,12.48995971015625,3.159912296875,12.41998291015625,2.979980296875,12.41998291015625C2.589966296875,12.41998291015625,2.280029296875,12.72998091015625,2.280029296875,13.10998491015625C2.280029296875,13.29998791015625,2.349975596875,13.46997291015625,2.489990296875,13.59997291015625C2.619995296875,13.75000291015625,2.790039296875,13.81997291015625,2.979980296875,13.81997291015625Z" fill-rule="evenodd" fill="#2B2F38" fill-opacity="0.8999999761581421"/></g></g></g><g mask="url(#master_svg5_24_16373)"><g><g mask="url(#master_svg6_24_16384)"><g><g><path d="M5.5499267578125,8.11999779296875L9.6298867578125,8.11999779296875L9.6298867578125,5.29998779296875L5.5499267578125,5.29998779296875L5.5499267578125,8.11999779296875Z" fill-rule="evenodd" fill="#2B2F38" fill-opacity="0.8999999761581421"/></g></g></g><g mask="url(#master_svg7_24_16389)"><g><g><path d="M11.47998046875,6.399998544921875L12.599980468750001,6.399998544921875L12.599980468750001,5.290008544921875L11.47998046875,5.290008544921875L11.47998046875,6.399998544921875Z" fill-rule="evenodd" fill="#2B2F38" fill-opacity="0.8999999761581421"/></g></g></g><g mask="url(#master_svg8_24_16377)"><g><g><path d="M11.47998046875,8.120000000000001L12.599980468750001,8.120000000000001L12.599980468750001,7L11.47998046875,7L11.47998046875,8.120000000000001Z" fill-rule="evenodd" fill="#2B2F38" fill-opacity="0.8999999761581421"/></g></g></g></g></g></g></g></g></svg>