<?xml version="1.0" standalone="no"?><!DOCTYPE svg PUBLIC "-//W3C//DTD SVG 1.1//EN" "http://www.w3.org/Graphics/SVG/1.1/DTD/svg11.dtd"><svg t="1681435531369" class="icon" viewBox="0 0 1024 1024" version="1.1" xmlns="http://www.w3.org/2000/svg" p-id="3672" xmlns:xlink="http://www.w3.org/1999/xlink" width="200" height="200"><path d="M956.696 512.76c0 245.272-199.056 444.136-444.616 444.136-245.536 0-444.52-198.872-444.52-444.136 0-188.264 117.184-349.112 282.672-413.752a431.688 431.688 0 0 1 161.864-31.312 431.744 431.744 0 0 1 161.92 31.312c165.488 64.64 282.68 225.488 282.68 413.752z" fill="#BFDEFF" p-id="3673"></path><path d="M341.216 419.088c0 74.848 38.344 139.656 94.096 171.368 23.12 13.16 49.152 20.744 76.768 20.744 26.648 0 51.776-7.096 74.288-19.36 57.064-31.104 96.648-96.704 96.648-172.736 0-105.864-76.664-192.04-170.936-192.04-94.216-0.008-170.864 86.16-170.864 192.024z" fill="#FFFFFF" p-id="3674"></path><path d="M513.888 928.112c129.88 0 245.744-59.728 321.68-153.208-8.96-73.744-80.816-136.512-182.512-167.824-38.4 34.552-87.48 55.336-140.984 55.336-54.704 0-104.776-21.904-143.552-57.96-98.928 28.24-171.384 85.824-188.368 154.832 75.36 102.368 196.816 168.824 333.736 168.824z" fill="#FFFFFF" p-id="3675"></path></svg>