<svg xmlns="http://www.w3.org/2000/svg" xmlns:xlink="http://www.w3.org/1999/xlink" viewBox="0 0 359 180"><defs><style>.cls-1,.cls-3,.cls-4,.cls-5{fill-rule:evenodd;}.cls-1{fill:url(#未命名的渐变_54);}.cls-2{opacity:0.5;}.cls-3{fill:url(#未命名的渐变_2);}.cls-4{fill:#c4cbdd;}.cls-5{fill:#b4bbd0;}</style><linearGradient id="未命名的渐变_54" x1="-676.89" y1="86.79" x2="-677.89" y2="87.79" gradientTransform="matrix(359, 0, 0, -180, 243362.66, 15802.98)" gradientUnits="userSpaceOnUse"><stop offset="0" stop-color="#f7f7f7"/><stop offset="1" stop-color="#f0f1f5"/></linearGradient><linearGradient id="未命名的渐变_2" x1="-677.43" y1="86.48" x2="-676.43" y2="86.83" gradientTransform="matrix(164.28, 0, 0, -154.45, 111476.76, 13468.27)" gradientUnits="userSpaceOnUse"><stop offset="0" stop-color="#a5adc4"/><stop offset="1" stop-color="#d1d7e8"/></linearGradient></defs><g id="图层_2" data-name="图层 2"><g id="图层_1-2" data-name="图层 1"><g id="矩形_5" data-name="矩形 5"><path id="矩形_5-2" data-name="矩形 5" class="cls-1" d="M8,180H351a8,8,0,0,0,8-8V8a8,8,0,0,0-8-8H8A8,8,0,0,0,0,8V172A8,8,0,0,0,8,180Z"/></g><g class="cls-2"><path id="路径_1" data-name="路径 1" class="cls-3" d="M307.37,91.82a5.29,5.29,0,0,1,6.53,3.62,5.19,5.19,0,0,1-.47,4,5.25,5.25,0,0,1-3.15,2.48l-56.85,15.23a5.24,5.24,0,0,0-3.69,6.41,5.33,5.33,0,0,0,6.54,3.62l23.32-6.25a5.28,5.28,0,0,1,6.53,3.62,5.19,5.19,0,0,1-.47,4,5.27,5.27,0,0,1-3.15,2.47l-43.36,11.62a5.36,5.36,0,0,0,1.16,10.5l3.17-.85a5.32,5.32,0,0,1,6.53,3.62,5.23,5.23,0,0,1-3.81,6.57l-18.34,4.91a3.82,3.82,0,0,1-4.66-2.68,3.68,3.68,0,0,1-.12-1.32L234.8,90.67l-44.41,11.9a2.69,2.69,0,0,1-2.7-4.4L222.91,58.9l11.18-12.48,14.65-16.33,9.57-10.66a7,7,0,0,1,3.37-2.11L277,13.2a5.32,5.32,0,0,1,6.53,3.62,5.19,5.19,0,0,1-.47,4A5.25,5.25,0,0,1,280,23.27l-16,4.28A5.17,5.17,0,0,0,260.78,30a5.24,5.24,0,0,0-.52,4,5.33,5.33,0,0,0,6.54,3.62l6.92-1.86a5.29,5.29,0,0,1,6.53,3.62,5.23,5.23,0,0,1-3.63,6.44L256.4,51.19a5.21,5.21,0,1,0,2.85,10L302,49.76a5.31,5.31,0,0,1,6.54,3.62,5.23,5.23,0,0,1-3.63,6.44L251.6,74.11a5.24,5.24,0,0,0-3.69,6.41,5.32,5.32,0,0,0,6.53,3.62L344.64,60a5.31,5.31,0,0,1,6.44,3.83,5.23,5.23,0,0,1-3.63,6.44L272.52,90.32a5.22,5.22,0,0,0-3.68,6.4v0a5.32,5.32,0,0,0,6.53,3.62Z"/><path id="路径_2" data-name="路径 2" class="cls-4" d="M291.53,31a5.24,5.24,0,1,0,6.4,3.71A5.24,5.24,0,0,0,291.53,31Z"/><path id="路径_3" data-name="路径 3" class="cls-5" d="M261.9,147.34a5.24,5.24,0,1,0,6.4,3.71A5.23,5.23,0,0,0,261.9,147.34Z"/></g></g></g></svg>