<svg xmlns="http://www.w3.org/2000/svg" xmlns:xlink="http://www.w3.org/1999/xlink" viewBox="0 0 826.06 227.22"><defs><style>.cls-1,.cls-2{fill:#48b7ae;}.cls-2{font-size:53.98px;font-family:YouSheBiaoTiHei;}.cls-3{fill:url(#未命名的渐变_110);}.cls-4{fill:#3ab28c;}.cls-5{fill:#41b59d;}</style><linearGradient id="未命名的渐变_110" y1="113.61" x2="281.28" y2="113.61" gradientUnits="userSpaceOnUse"><stop offset="0" stop-color="#48b7ae"/><stop offset="0.99" stop-color="#34b07d"/></linearGradient></defs><g id="图层_2" data-name="图层 2"><g id="图层_1-2" data-name="图层 1"><path class="cls-1" d="M436.73,4.55h0Z"/><path class="cls-1" d="M458.9,88.65H341l-7.1,50.23,10,10h21L367,132.78h0l.74-5.28.13-1,.06-.36,2-14.22.09-.56,1-6.83h67.77l-1.1,7.39h-66l-1.92,14.22h65.87l-.92,6.64h-66l-.63,4.62-1.53,11.45h96.77l6.88-48.79Z"/><polygon class="cls-1" points="416.15 43.77 418.92 24.93 369.8 24.93 374.41 18.1 342.65 18.1 347.45 20.69 331.75 44.69 356.68 44.69 357.24 43.77 362.59 43.77 362.04 47.46 331.75 47.46 329.35 64.82 348.37 64.82 328.8 84.95 362.59 84.95 373.67 71.66 381.43 84.77 413.01 84.77 401.38 64.82 413.56 64.82 415.96 47.46 391.22 47.46 391.77 43.77 416.15 43.77"/><path class="cls-1" d="M500.82,148.11h-.09l0,0Z"/><polygon class="cls-1" points="634.44 57.07 647.55 91.05 618.55 91.05 617.26 87.73 514.03 91.42 516.24 74.99 536.37 48.02 511.07 48.02 513.29 31.4 569.06 31.4 569.99 25.31 563.89 18.29 607.47 18.29 605.63 31.4 660.85 31.4 658.63 48.02 571.83 48.02 553 73.14 610.98 71.48 605.44 57.07 634.44 57.07"/><polygon class="cls-1" points="614.67 126.69 611.87 147.74 591.55 147.74 579.94 136.13 585.87 94.19 619.29 94.19 615.01 124.4 614.67 126.69 614.67 126.69"/><polygon class="cls-1" points="648.66 120.04 644.78 147.74 613.64 147.74 616.47 126.69 641.27 126.69 648.66 120.04"/><path class="cls-1" d="M793.9,108H677.1l-3.49,24.71,14.44,14.44H708.6l1.92-15.14h0l1.3-8.87h56.32l-1.29,8.87H712.41l-2,15.14h91.38l3.88-27.43Z"/><path class="cls-1" d="M806.18,54.85h17.73l2.15-15.25L814.9,28.44H772.76l1.48-10.16H728.81l5.9,6.84-.55,3.32H680.6l-3.69,26.41h16.81L673,84.4h26.78L703.5,79l14.22,6.47-7.38,2.77H672.29l-2.21,15.51h55.77L743,97l15.14,6.83h55l2.22-15.51h-46l-2.21-.93L803.6,73ZM745.43,78.3,719.2,67.22h51.34Zm47.27-27H723.27l1.47-2H709.05l.73-5h84Z"/><polygon class="cls-1" points="368.96 132.78 368.34 137.4 368.19 137.4 368.82 132.78 368.96 132.78"/><path class="cls-1" d="M459.46,18.29H430a3.1,3.1,0,0,0-3.12,3.12V82.83h35.72V21.41A3.13,3.13,0,0,0,459.46,18.29Zm-25.8,9.27a3.1,3.1,0,0,1,3.12-3.12h15.91a3.1,3.1,0,0,1,3.12,3.12v9.32A3.12,3.12,0,0,1,452.69,40H436.78a3.12,3.12,0,0,1-3.12-3.12Zm4.62,33.72,7-14.16-2.31,11h8.2l-8.05,16.47,2.34-13.35Z"/><rect class="cls-1" x="422.2" y="81.73" width="45.08" height="3.22"/><rect class="cls-1" x="459.84" y="30.46" width="8.72" height="13.11" rx="0.91"/><path class="cls-1" d="M571.09,94,536,148.11H500.82l-.07,0a14.73,14.73,0,0,1-3.66-1.36,27.36,27.36,0,0,1-7.55-6.45,53.35,53.35,0,0,1-11.75-26.59c-1.6-11.32,2.16-20.81,6.13-31.21,3.35-8.79,6.21-18.65,4.9-28.15-2.49-17.85-20.56-16.64-21.33-16.58a1.63,1.63,0,0,1-1.77-1.51,1.69,1.69,0,0,1,1.51-1.8c.22,0,22-1.55,24.86,19.45,1.22,8.77-.8,17.6-3.51,25.91-2.66,8.09-7.26,16.29-7.92,24.86A45.76,45.76,0,0,0,484.72,127c3.14,6.82,8.59,14.39,15.73,17.49.82.37,1.6.74,2.06.38a9.67,9.67,0,0,0,1.29-1.57L535.63,94Z"/><text class="cls-2" transform="translate(333.89 208.27)">ZHI CHONG KE</text><path class="cls-3" d="M281.28,113.53a8.74,8.74,0,0,1-8.74,8.82H142.63a8.74,8.74,0,0,0-8.74,8.82,8.88,8.88,0,0,0,9,8.66h55.43a8.88,8.88,0,0,1,9,8.66,8.74,8.74,0,0,1-8.74,8.82H100a8.74,8.74,0,0,0-8.74,8.82,8.89,8.89,0,0,0,9,8.66h40.44a8.88,8.88,0,0,1,9,8.66,8.74,8.74,0,0,1-8.74,8.82H65.78A8.74,8.74,0,0,0,57,201c0,4.05,2.35,7.75,6.1,8.73h5.49a8.89,8.89,0,0,1,9,8.66,8.74,8.74,0,0,1-8.74,8.82H37.05a6.36,6.36,0,0,1-6-8.52h0L81.51,106.59H4.5a4.49,4.49,0,0,1-2.45-8.26l74-48.12L99.54,35l30.78-20,20.1-13.06A11.7,11.7,0,0,1,156.79,0h26.63a8.89,8.89,0,0,1,9,8.66,8.74,8.74,0,0,1-8.74,8.82H156a8.74,8.74,0,0,0-8.74,8.82,8.88,8.88,0,0,0,9,8.66h12a8.88,8.88,0,0,1,9,8.66,8.74,8.74,0,0,1-8.73,8.82H133.46a8.74,8.74,0,0,0-8.73,8.81,8.88,8.88,0,0,0,9,8.66h74.18a8.89,8.89,0,0,1,9,8.66,8.74,8.74,0,0,1-8.74,8.82H115.68a8.74,8.74,0,0,0-8.74,8.82,8.88,8.88,0,0,0,9,8.66h156.4A8.9,8.9,0,0,1,281.28,113.53Z"/><circle class="cls-4" cx="199.14" cy="43.7" r="8.74"/><circle class="cls-5" cx="100.78" cy="218.48" r="8.74"/></g></g></svg>