<svg xmlns="http://www.w3.org/2000/svg" xmlns:xlink="http://www.w3.org/1999/xlink" width="1214px" height="1256px" viewBox="0 296 1214 1256">
<path fill-rule="evenodd" fill="rgb(198, 210, 239)" d="M1053.282,91.040 C1154.879,185.470 1207.188,358.420 1160.407,494.359 C1141.809,548.400 1099.911,586.740 1086.446,657.919 C1068.977,750.259 1104.225,825.440 1124.580,873.949 C1162.167,963.524 1191.111,1065.237 1203.326,1150.139 C1227.048,1315.023 1213.682,1473.807 1121.605,1558.694 C953.143,1714.001 459.106,1791.402 258.264,1585.985 C-64.936,1255.423 66.675,386.497 411.293,130.745 C574.723,9.458 879.684,-70.311 1053.282,91.040 Z"/>
<path fill-rule="evenodd" fill="rgb(30, 77, 172)" d="M1081.374,114.810 C1176.628,215.636 1217.601,391.616 1162.094,524.232 C1140.028,576.951 1095.730,612.491 1077.673,682.646 C1054.247,773.658 1084.542,850.968 1101.705,900.695 C1133.399,992.522 1155.680,1095.898 1162.358,1181.414 C1175.328,1347.491 1151.684,1505.073 1054.291,1583.804 C876.105,1727.848 378.086,1773.020 190.1000,1554.1000 C-110.063,1204.157 77.670,345.606 438.161,112.761 C609.119,2.338 918.614,-57.468 1081.374,114.810 Z"/>
<path fill-rule="evenodd" fill="rgb(32, 75, 174)" d="M-0.000,296.000 L366.1000,296.000 L366.1000,1552.1000 L-0.000,1552.1000 L-0.000,296.000 Z"/>
</svg>
