<svg 
 xmlns="http://www.w3.org/2000/svg"
 xmlns:xlink="http://www.w3.org/1999/xlink"
 width="624.5px" height="324.5px">
<path fill-rule="evenodd"  fill="rgb(149, 244, 102)"
 d="M537.893,244.500 C537.893,244.500 513.618,166.974 540.457,143.679 C540.457,143.679 544.268,125.215 554.127,114.629 C577.121,89.943 612.382,91.034 621.554,95.805 C627.140,98.710 590.191,121.924 590.867,147.951 C591.543,173.979 576.006,220.367 558.389,234.114 C540.771,247.860 537.893,244.500 537.893,244.500 Z"/>
<path fill-rule="evenodd"  fill="rgb(255, 255, 255)"
 d="M542.719,244.651 C542.719,244.651 534.767,121.682 587.793,111.051 C587.793,111.051 557.073,135.592 552.972,237.815 C551.112,284.169 543.051,248.303 542.719,244.651 Z"/>
<path fill-rule="evenodd"  fill="rgb(38, 211, 155)"
 d="M497.402,249.361 C497.402,249.361 466.461,150.544 500.669,120.853 C500.669,120.853 488.382,116.908 518.094,83.825 C546.826,51.832 568.947,37.744 587.793,31.551 C595.418,29.045 564.061,93.123 564.923,126.298 C565.785,159.473 559.063,220.949 536.608,238.470 C514.152,255.991 497.402,249.361 497.402,249.361 Z"/>
<path fill-rule="evenodd"  fill="rgb(255, 255, 255)"
 d="M495.224,253.717 C495.224,253.717 522.176,90.271 550.765,75.113 C550.765,75.113 515.128,186.270 508.292,245.004 C501.457,303.739 495.647,258.372 495.224,253.717 Z"/>
<path fill-rule="evenodd"  fill="rgb(176, 255, 219)"
 d="M173.954,119.764 C177.818,119.281 228.398,114.883 243.653,170.949 C258.909,227.015 236.030,226.491 236.030,226.491 L203.358,205.799 C203.358,205.799 203.999,177.626 203.358,167.682 C202.719,157.738 191.856,133.337 185.934,129.565 C180.011,125.793 170.875,120.148 173.954,119.764 Z"/>
<path fill-rule="evenodd"  fill="rgb(26, 56, 126)"
 d="M508.292,287.477 C513.311,287.280 573.671,284.378 581.259,283.121 C588.847,281.864 600.953,278.449 594.327,277.676 C587.702,276.903 485.272,280.013 487.601,285.299 C489.929,290.586 502.410,287.709 508.292,287.477 Z"/>
<path fill-rule="evenodd"  fill="rgb(0, 246, 255)"
 d="M433.792,224.739 L456.381,224.739 L456.381,232.543 C456.381,234.200 455.038,235.543 453.381,235.543 L436.792,235.543 C435.135,235.543 433.792,234.200 433.792,232.543 L433.792,224.739 Z"/>
<path fill-rule="evenodd"  fill="rgb(137, 162, 255)"
 d="M250.604,36.074 L455.845,36.074 C465.786,36.074 473.845,44.133 473.845,54.074 L473.845,209.455 L232.604,209.455 L232.604,54.074 C232.604,44.133 240.662,36.074 250.604,36.074 Z"/>
<path fill-rule="evenodd"  fill="rgb(255, 255, 255)"
 d="M253.134,51.880 L453.345,51.880 C456.107,51.880 458.345,54.119 458.345,56.880 L458.345,183.768 C458.345,186.529 456.107,188.768 453.345,188.768 L253.134,188.768 C250.372,188.768 248.134,186.529 248.134,183.768 L248.134,56.880 C248.134,54.119 250.372,51.880 253.134,51.880 Z"/>
<path fill-rule="evenodd"  fill="rgb(43, 69, 165)"
 d="M212.821,197.555 L295.215,197.555 C295.215,197.555 298.693,204.888 304.443,205.464 C310.192,206.041 307.739,205.464 307.739,205.464 L372.336,205.464 C372.336,205.464 378.318,206.116 382.223,198.873 L476.482,198.873 L476.482,207.442 C476.482,207.442 476.650,220.052 464.617,221.284 L228.640,221.284 C228.640,221.284 219.123,222.247 212.821,207.442 L212.821,197.555 Z"/>
<path fill-rule="evenodd"  fill="rgb(64, 47, 172)"
 d="M408.111,11.673 L488.169,11.673 C497.006,11.673 504.169,18.837 504.169,27.673 L504.169,209.230 C504.169,218.067 497.006,225.230 488.169,225.230 L408.111,225.230 C399.275,225.230 392.111,218.067 392.111,209.230 L392.111,27.673 C392.111,18.837 399.275,11.673 408.111,11.673 Z"/>
<path fill-rule="evenodd"  fill="rgb(255, 255, 255)"
 d="M410.513,17.904 L485.736,17.904 C492.916,17.904 498.736,23.724 498.736,30.904 L498.736,206.031 C498.736,213.210 492.916,219.031 485.736,219.031 L410.513,219.031 C403.334,219.031 397.513,213.210 397.513,206.031 L397.513,30.904 C397.513,23.724 403.334,17.904 410.513,17.904 Z"/>
<path fill-rule="evenodd"  fill="rgb(197, 255, 253)"
 d="M427.704,115.161 C427.704,115.161 441.476,115.436 468.572,154.051 C468.572,154.051 481.786,174.060 512.076,173.825 C542.366,173.590 514.304,233.390 500.211,238.422 C486.119,243.454 405.580,242.567 393.428,203.487 C381.277,164.407 388.377,142.003 394.747,132.299 C401.116,122.594 419.921,112.566 427.704,115.161 Z"/>
<path fill-rule="evenodd"  fill="rgb(26, 38, 159)"
 d="M424.737,182.339 L424.737,183.023 L313.999,183.023 C301.625,183.023 291.593,172.992 291.593,160.618 L291.593,156.628 C291.593,144.254 301.625,134.222 313.999,134.222 L395.684,134.222 C401.201,124.024 411.990,117.096 424.399,117.096 C442.418,117.096 457.025,131.703 457.025,149.722 C457.025,167.628 442.599,182.157 424.737,182.339 Z"/>
<path fill-rule="evenodd"  fill="rgb(70, 131, 255)"
 d="M422.435,176.452 L422.435,177.136 L311.697,177.136 C299.323,177.136 289.292,167.104 289.292,154.730 L289.292,150.740 C289.292,138.366 299.323,128.335 311.697,128.335 L317.629,128.335 C317.628,128.232 317.621,128.131 317.621,128.028 C317.621,101.635 339.016,80.240 365.409,80.240 C386.627,80.240 404.605,94.073 410.843,113.209 C414.352,111.919 418.141,111.209 422.098,111.209 C440.116,111.209 454.723,125.816 454.723,143.834 C454.723,161.740 440.298,176.270 422.435,176.452 Z"/>
<path fill-rule="evenodd"  fill="rgb(26, 38, 159)"
 d="M317.625,127.690 C317.608,127.753 316.031,133.670 319.603,140.208 C319.603,140.208 316.013,138.778 314.046,127.690 L317.625,127.690 Z"/>
<path fill-rule="evenodd"  fill="rgb(26, 38, 159)"
 d="M409.248,127.685 C413.306,123.488 411.226,113.183 411.226,113.183 C411.230,113.148 411.238,113.104 411.243,113.065 C413.631,112.223 416.143,111.644 418.749,111.379 C418.187,121.113 409.248,127.685 409.248,127.685 Z"/>
<path fill-rule="evenodd"  fill="rgb(44, 9, 255)"
 d="M448.140,22.232 C449.233,22.232 450.120,23.111 450.120,24.196 C450.120,25.281 449.233,26.160 448.140,26.160 C447.047,26.160 446.160,25.281 446.160,24.196 C446.160,23.111 447.047,22.232 448.140,22.232 Z"/>
<path fill-rule="evenodd"  fill="rgb(255, 255, 255)"
 d="M338.719,124.188 C338.719,124.188 345.113,107.050 363.107,107.050 C381.102,107.050 384.859,117.597 384.859,117.597 C384.859,117.597 387.989,114.881 390.133,116.278 C392.276,117.675 392.369,119.277 391.451,121.551 C390.533,123.826 389.687,129.634 387.496,130.780 C385.305,131.925 375.814,127.963 374.972,127.484 C374.130,127.004 373.470,124.462 374.313,123.529 C375.156,122.596 376.950,121.551 376.950,121.551 C376.950,121.551 371.005,114.471 360.471,116.278 C349.937,118.085 346.923,127.934 345.969,128.802 C345.016,129.670 342.835,129.179 340.696,128.143 C338.557,127.107 338.104,124.906 338.719,124.188 Z"/>
<path fill-rule="evenodd"  fill="rgb(255, 255, 255)"
 d="M391.760,141.532 C391.760,141.532 385.366,158.670 367.371,158.670 C349.377,158.670 345.619,148.124 345.619,148.124 C345.619,148.124 342.489,150.839 340.346,149.442 C338.203,148.045 338.110,146.444 339.028,144.169 C339.946,141.894 340.791,136.086 342.983,134.941 C345.174,133.795 354.665,137.757 355.507,138.236 C356.348,138.716 357.008,141.258 356.166,142.191 C355.323,143.124 353.529,144.169 353.529,144.169 C353.529,144.169 359.474,151.249 370.008,149.442 C380.542,147.635 383.555,137.786 384.509,136.918 C385.463,136.050 387.643,136.541 389.783,137.577 C391.922,138.613 392.375,140.814 391.760,141.532 Z"/>
<path fill-rule="evenodd"  fill="rgb(55, 56, 59)"
 d="M578.521,246.868 C585.327,246.868 590.844,254.577 590.844,264.087 C590.844,273.596 585.327,281.305 578.521,281.305 C571.715,281.305 566.198,273.596 566.198,264.087 C566.198,254.577 571.715,246.868 578.521,246.868 Z"/>
<path fill-rule="evenodd"  fill="rgb(74, 131, 248)"
 d="M597.683,182.928 C597.317,183.949 596.753,191.631 596.707,192.693 C596.663,193.680 594.098,194.249 589.875,194.375 C589.873,194.385 589.873,194.392 589.871,194.402 C589.416,196.403 588.650,205.388 588.650,205.388 C588.650,205.388 588.271,204.122 587.430,203.191 C586.589,202.260 587.674,194.646 587.674,194.646 C587.674,194.646 587.782,194.555 587.948,194.427 C583.366,194.601 578.384,195.390 576.932,190.252 C575.380,184.758 576.932,190.008 576.932,190.008 C576.932,190.008 577.051,185.141 577.909,183.660 C578.766,182.180 579.920,181.615 581.082,181.463 C581.082,181.463 586.091,181.344 588.895,181.463 C591.698,181.582 596.752,180.343 597.439,180.731 C598.126,181.119 598.049,181.907 597.683,182.928 Z"/>
<path fill-rule="evenodd"  fill="rgb(204, 236, 255)"
 d="M504.670,162.421 C504.670,162.421 513.040,154.051 517.365,154.121 C521.690,154.191 518.915,156.846 518.341,158.515 C517.768,160.185 511.492,160.794 507.600,164.374 C507.600,164.374 504.892,165.603 504.670,162.421 Z"/>
<path fill-rule="evenodd"  fill="rgb(204, 236, 255)"
 d="M535.430,165.839 C535.430,165.839 542.813,150.753 548.125,150.215 C553.437,149.677 573.744,151.655 574.247,151.924 C574.749,152.193 574.958,154.879 574.003,155.830 C574.003,155.830 550.916,152.823 547.393,153.877 C543.869,154.931 538.579,163.457 537.627,165.351 C536.676,167.244 534.942,169.745 534.942,169.745 C534.942,169.745 535.430,166.135 535.430,165.839 Z"/>
<path fill-rule="evenodd"  fill="rgb(204, 236, 255)"
 d="M520.538,158.759 C520.538,158.759 524.945,166.082 523.712,168.524 C522.480,170.967 536.325,167.101 537.139,164.862 C537.954,162.624 542.274,154.996 542.998,155.586 C543.722,156.175 530.697,147.591 520.538,158.759 Z"/>
<path fill-rule="evenodd"  fill="rgb(255, 255, 255)"
 d="M580.224,256.383 C583.276,256.383 585.749,259.839 585.749,264.102 C585.749,268.365 583.276,271.821 580.224,271.821 C577.173,271.821 574.700,268.365 574.700,264.102 C574.700,259.839 577.173,256.383 580.224,256.383 Z"/>
<path fill-rule="evenodd"  fill="rgb(204, 236, 255)"
 d="M544.219,215.397 C544.219,215.397 544.412,215.485 544.219,216.130 C544.026,216.774 542.922,218.258 542.510,219.059 C542.098,219.860 542.716,240.268 542.754,241.519 C542.792,242.770 544.534,248.257 549.102,248.599 C553.669,248.941 588.610,249.475 587.186,240.298 C585.761,231.122 587.477,208.784 588.162,207.341 C588.847,205.898 589.892,206.241 589.871,205.144 C589.850,204.046 591.348,198.819 587.430,197.820 C583.511,196.821 576.620,198.869 572.782,198.796 C568.944,198.724 563.395,196.507 559.111,196.111 C554.827,195.715 548.703,195.367 546.172,202.947 C543.641,210.526 543.770,209.603 543.243,210.759 C542.715,211.914 542.176,212.837 542.510,214.176 C542.844,215.516 543.868,215.370 544.219,215.397 Z"/>
<path fill-rule="evenodd"  fill="rgb(74, 131, 248)"
 d="M544.219,215.153 C544.219,215.153 548.448,215.658 555.205,215.641 C561.961,215.625 569.260,212.125 570.829,211.735 C572.360,211.355 570.525,215.232 569.364,215.153 C568.204,215.074 562.146,216.918 559.843,218.083 C557.113,219.463 554.965,222.022 549.834,221.256 C545.120,220.240 544.169,219.376 542.754,218.327 C542.592,217.277 543.485,215.887 544.219,215.153 Z"/>
<path fill-rule="evenodd"  fill="rgb(74, 131, 248)"
 d="M511.750,167.548 C511.750,167.548 519.775,163.432 526.886,163.642 C533.997,163.851 544.001,164.746 545.440,166.571 C546.878,168.397 537.908,194.378 536.407,201.238 C534.906,208.097 541.510,228.657 540.557,232.242 C539.604,235.827 539.865,233.857 539.825,235.416 C539.784,236.975 545.196,244.448 545.196,244.448 C545.196,244.448 546.536,245.506 548.613,245.669 C550.690,245.832 583.936,243.483 584.988,243.228 C586.041,242.973 585.516,238.910 584.988,238.833 C584.461,238.758 584.534,239.052 583.768,238.833 C583.002,238.615 575.620,227.167 574.247,225.406 C572.874,223.646 566.679,218.346 568.144,214.421 C569.608,210.495 572.105,211.707 575.712,209.294 C579.319,206.881 588.412,206.267 588.895,207.097 C589.378,207.926 588.831,208.519 589.627,209.050 C590.423,209.581 595.883,211.569 596.463,213.688 C597.042,215.808 600.740,225.154 598.416,228.580 C596.092,232.006 593.276,236.296 590.848,237.613 C588.420,238.930 588.406,238.589 588.406,238.589 C588.406,238.589 588.587,247.657 589.139,248.355 C589.690,249.052 593.744,249.628 594.510,250.552 C595.275,251.475 599.294,255.894 599.392,256.899 C599.491,257.904 599.490,260.401 599.148,261.049 C598.806,261.697 597.411,264.272 595.974,264.223 C594.538,264.174 585.187,260.398 581.326,260.073 C577.466,259.748 576.265,259.200 572.782,260.317 C569.299,261.434 569.204,265.329 565.458,265.199 C561.712,265.069 542.069,266.914 532.501,266.176 C522.933,265.438 513.262,263.215 510.773,259.585 C508.285,255.954 494.244,219.300 493.440,216.130 C492.636,212.959 491.952,210.820 491.731,206.120 C491.510,201.420 491.048,196.608 494.661,191.717 C498.274,186.825 509.748,169.129 511.750,167.548 Z"/>
<path fill-rule="evenodd"  fill="rgb(255, 244, 216)"
 d="M495.618,192.693 C495.618,192.693 498.720,190.748 507.092,189.764 C515.465,188.779 521.687,189.282 523.205,189.764 C524.722,190.245 526.748,191.046 527.355,198.552 C527.962,206.058 528.266,210.419 526.378,211.247 C524.491,212.075 494.642,212.956 494.642,212.956 C494.642,212.956 494.160,208.598 493.665,207.097 C493.170,205.595 492.925,197.761 494.398,195.623 C495.870,193.485 495.541,193.696 495.618,192.693 Z"/>
<path fill-rule="evenodd"  fill="rgb(134, 177, 255)"
 d="M482.535,235.694 C482.535,235.694 481.178,231.301 499.673,226.466 C499.673,226.466 507.105,225.475 511.273,226.178 C515.441,226.880 522.180,231.767 520.501,238.866 C520.501,238.866 520.199,239.881 520.765,242.327 C521.330,244.772 525.129,252.180 525.247,257.899 C525.247,257.899 525.683,258.522 525.247,258.476 C524.811,258.430 505.210,257.899 505.210,257.899 C505.210,257.899 494.289,240.589 485.172,237.424 C485.172,237.424 482.843,236.502 482.535,235.694 Z"/>
<path fill-rule="evenodd"  fill="rgb(88, 100, 98)"
 d="M481.745,235.983 C481.745,235.983 486.053,234.776 497.564,235.117 C509.238,235.464 519.062,243.269 523.401,255.592 C523.401,255.592 523.334,256.530 524.983,257.611 C526.632,258.692 527.922,262.410 527.092,263.379 C526.263,264.347 479.853,258.882 481.481,235.694 "/>
<path fill-rule="evenodd"  fill="rgb(59, 55, 55)"
 d="M483.290,240.948 C484.621,238.714 486.207,236.781 487.983,235.210 C490.547,235.044 493.828,234.902 497.346,234.927 C504.596,234.980 511.094,238.096 515.799,243.300 C517.851,247.602 519.055,252.726 519.055,258.240 C519.055,258.331 519.045,258.419 519.045,258.510 C508.798,257.139 487.807,252.284 483.290,240.948 Z"/>
<path fill-rule="evenodd"  fill="rgb(55, 56, 59)"
 d="M487.578,235.562 C490.266,239.927 495.191,244.607 501.554,248.384 C507.646,252.000 513.833,254.063 518.843,254.471 C518.968,255.706 519.055,256.958 519.055,258.240 C519.055,273.403 510.040,285.694 498.920,285.694 C487.801,285.694 478.786,273.403 478.786,258.240 C478.786,248.816 482.272,240.506 487.578,235.562 Z"/>
<path fill-rule="evenodd"  fill="rgb(255, 255, 255)"
 d="M501.115,245.518 C506.565,245.518 510.982,251.544 510.982,258.977 C510.982,266.410 506.565,272.435 501.115,272.435 C495.665,272.435 491.247,266.410 491.247,258.977 C491.247,251.544 495.665,245.518 501.115,245.518 Z"/>
<path fill-rule="evenodd"  fill="rgb(134, 177, 255)"
 d="M491.731,233.219 C491.731,233.219 501.936,234.265 504.914,237.857 C504.914,237.857 506.936,239.667 506.623,241.519 C506.623,241.519 510.766,244.467 511.506,244.937 C512.245,245.406 512.827,245.798 513.215,245.913 C513.602,246.028 516.106,243.478 516.388,243.716 C516.670,243.955 516.877,241.519 516.877,241.519 L513.947,237.125 L508.820,233.707 L491.731,233.219 Z"/>
<path fill-rule="evenodd"  fill="rgb(25, 48, 133)"
 d="M514.191,163.154 C514.191,163.154 517.372,153.219 521.271,151.435 C525.170,149.652 534.588,147.521 539.092,150.215 C539.092,150.215 539.635,150.392 539.581,152.168 C539.526,153.944 538.762,156.737 538.848,157.783 C538.934,158.828 537.816,159.800 536.895,159.980 C535.974,160.160 529.682,160.303 527.130,160.712 C524.578,161.122 516.384,162.447 515.412,163.154 C514.439,163.860 514.043,163.672 514.191,163.154 Z"/>
<path fill-rule="evenodd"  fill="rgb(74, 131, 248)"
 d="M549.282,225.476 L553.711,225.476 C554.980,225.476 556.008,226.504 556.008,227.773 L556.008,228.182 C556.008,229.450 554.980,230.479 553.711,230.479 L549.282,230.479 C548.013,230.479 546.985,229.450 546.985,228.182 L546.985,227.773 C546.985,226.504 548.013,225.476 549.282,225.476 Z"/>
<path fill-rule="evenodd"  fill="rgb(55, 56, 59)"
 d="M283.415,218.506 C283.415,218.506 291.539,217.307 296.232,218.981 C300.925,220.656 306.709,234.240 308.100,243.666 C309.490,253.092 309.888,258.921 311.423,259.807 C312.957,260.692 315.220,260.756 315.220,260.756 C315.220,260.756 315.282,266.030 311.423,270.725 C307.564,275.420 302.403,276.897 302.403,276.897 C302.403,276.897 287.472,281.835 280.091,274.998 C272.711,268.160 265.914,259.784 268.224,242.242 C270.533,224.701 279.162,217.988 283.415,218.506 Z"/>
<path fill-rule="evenodd"  fill="rgb(44, 41, 41)"
 d="M67.418,214.234 L66.944,244.616 L84.508,256.484 L99.224,260.281 L173.755,267.877 L230.246,265.503 L205.086,209.962 L160.938,209.012 L67.418,214.234 Z"/>
<path fill-rule="evenodd"  fill="rgb(153, 237, 221)"
 d="M281.984,229.558 C286.679,229.558 290.486,237.260 290.486,246.761 C290.486,256.262 286.679,263.964 281.984,263.964 C277.289,263.964 273.482,256.262 273.482,246.761 C273.482,237.260 277.289,229.558 281.984,229.558 Z"/>
<path fill-rule="evenodd"  fill="rgb(38, 96, 176)"
 d="M63.621,237.970 C63.621,237.970 65.709,246.590 67.418,247.464 C69.128,248.338 65.919,234.223 68.368,228.001 C70.817,221.778 73.234,219.857 78.812,220.405 C84.390,220.954 90.287,229.822 93.053,249.363 C93.053,249.363 93.198,258.762 98.275,260.281 C103.353,261.801 173.280,268.352 173.280,268.352 C173.280,268.352 161.819,222.781 186.098,223.254 C210.376,223.726 213.914,264.013 214.581,268.352 C215.247,272.690 221.104,272.323 224.550,272.149 C227.996,271.976 316.714,264.889 322.341,263.130 C327.969,261.371 330.971,257.405 330.411,253.635 C329.852,249.866 318.712,233.177 304.777,237.495 C290.841,241.813 241.162,219.599 225.024,216.133 C208.887,212.666 168.106,207.019 156.665,211.860 C145.224,216.702 116.967,218.439 103.972,213.759 C90.976,209.080 68.242,211.252 66.944,215.658 C65.646,220.064 63.621,237.970 63.621,237.970 Z"/>
<path fill-rule="evenodd"  fill="rgb(59, 55, 55)"
 d="M259.679,181.479 C259.679,181.479 269.180,181.244 269.648,184.802 C270.116,188.359 267.611,189.633 266.799,189.549 C265.988,189.464 256.707,183.690 259.679,181.479 Z"/>
<path fill-rule="evenodd"  fill="rgb(9, 140, 255)"
 d="M329.462,255.060 C328.573,254.141 326.665,246.464 324.240,246.515 C321.815,246.565 270.293,250.983 269.173,250.787 C268.053,250.591 254.830,261.926 253.033,263.130 C251.235,264.334 220.582,263.233 219.328,263.130 C218.074,263.027 216.954,261.231 216.954,261.231 C216.537,255.661 210.711,215.781 185.623,217.082 C160.535,218.384 167.584,255.534 167.584,255.534 C167.584,255.534 164.330,255.740 162.362,255.060 C160.394,254.379 159.691,253.005 152.393,250.312 C147.819,248.625 117.105,244.740 94.105,241.973 C94.069,241.893 94.035,241.821 94.003,241.768 C93.221,240.470 93.927,234.136 88.781,223.728 C83.634,213.321 76.913,214.709 76.913,214.709 C62.542,215.948 67.562,236.924 66.609,238.781 C66.020,238.761 65.498,238.754 65.045,238.698 C64.531,238.506 64.009,238.228 63.552,237.951 C63.381,237.716 63.244,237.417 63.146,237.020 C62.576,234.712 62.053,203.175 63.146,199.518 C64.239,195.861 80.711,173.408 80.711,173.408 C80.711,173.408 80.563,173.071 80.236,172.459 C79.909,171.847 80.501,170.402 81.185,168.186 C81.869,165.970 91.050,164.570 91.629,164.389 C92.208,164.207 93.842,161.964 94.952,161.540 C96.062,161.117 119.965,155.449 132.455,154.420 C144.944,153.390 151.114,154.869 151.918,154.894 C152.722,154.920 192.440,156.318 196.541,156.319 C200.643,156.319 211.922,156.416 215.055,156.793 C218.189,157.170 222.176,160.116 222.176,160.116 C224.652,160.267 232.620,163.439 232.620,163.439 C248.065,170.257 271.547,191.922 271.547,191.922 C291.107,193.299 305.366,195.662 309.524,197.619 C313.681,199.576 317.906,204.454 319.018,204.740 C320.130,205.025 321.274,204.603 322.341,205.214 C323.409,205.826 326.814,211.367 327.563,212.335 C328.312,213.304 328.038,214.709 328.038,214.709 C331.671,218.512 326.189,237.782 326.139,239.394 C326.089,241.005 329.638,249.437 330.411,250.787 C331.185,252.137 330.351,255.978 329.462,255.060 Z"/>
<path fill-rule="evenodd"  fill="rgb(59, 55, 55)"
 d="M326.614,214.234 C326.614,214.234 328.804,216.228 328.513,223.728 C328.221,231.228 328.038,232.273 328.038,232.273 C328.038,232.273 332.429,215.293 329.937,214.234 C327.445,213.175 326.808,213.360 326.614,214.234 Z"/>
<path fill-rule="evenodd"  fill="rgb(224, 234, 246)"
 d="M157.615,161.066 C157.615,161.066 165.961,169.980 170.907,177.681 C175.852,185.382 180.613,192.441 180.401,192.872 C180.401,192.872 266.879,190.919 269.173,191.922 C271.467,192.925 238.973,165.322 221.227,161.066 C221.227,161.066 157.143,159.746 157.615,161.066 Z"/>
<path fill-rule="evenodd"  fill="rgb(38, 96, 176)"
 d="M69.317,190.023 C69.317,190.023 80.937,176.178 81.185,175.782 C81.433,175.386 88.547,172.037 88.781,172.459 C89.014,172.881 80.802,184.611 81.185,186.226 C81.568,187.841 91.274,191.739 94.003,191.922 C96.731,192.105 161.465,195.473 165.685,194.771 C169.905,194.068 171.381,193.346 171.381,193.346 C171.381,193.346 159.093,166.385 146.696,163.439 C134.299,160.494 118.217,163.477 112.042,164.389 C105.867,165.300 86.283,169.197 80.711,173.408 C80.711,173.408 74.055,180.834 68.843,190.023 "/>
<path fill-rule="evenodd"  fill="rgb(224, 234, 246)"
 d="M90.680,171.984 C90.680,171.984 94.260,170.218 94.952,170.560 C95.644,170.902 95.317,172.395 94.477,173.883 C93.638,175.371 90.075,185.221 89.730,185.751 C89.385,186.281 88.341,186.703 87.831,186.226 C87.321,185.748 83.892,184.402 84.508,183.377 C85.124,182.353 90.147,172.184 90.680,171.984 Z"/>
<path fill-rule="evenodd"  fill="rgb(224, 234, 246)"
 d="M102.073,166.288 C102.073,166.288 121.657,161.219 128.657,162.490 C128.657,162.490 122.847,185.404 122.960,190.498 C122.960,190.498 96.426,190.229 95.901,189.549 C95.901,189.549 99.543,169.816 102.073,166.288 Z"/>
<path fill-rule="evenodd"  fill="rgb(0, 96, 180)"
 d="M80.711,171.984 C80.711,171.984 81.177,170.516 84.508,169.611 C87.840,168.705 130.587,156.743 146.696,162.015 C162.805,167.287 171.147,191.051 173.755,193.346 L179.452,192.872 C179.452,192.872 162.146,164.996 154.766,160.116 C147.387,155.236 132.079,154.629 108.719,160.116 C85.359,165.603 83.873,166.453 82.135,167.712 C80.397,168.971 80.711,171.541 80.711,171.984 Z"/>
<path fill-rule="evenodd"  fill="rgb(224, 234, 246)"
 d="M134.828,162.015 C134.828,162.015 146.978,160.362 154.766,168.186 C162.555,176.011 168.058,186.226 168.058,186.226 C168.058,186.226 167.150,191.523 165.685,191.922 C164.219,192.322 129.481,190.938 129.606,190.498 C129.732,190.058 133.097,163.014 134.828,162.015 Z"/>
<path fill-rule="evenodd"  stroke="rgb(38, 96, 176)" stroke-width="2px" stroke-linecap="butt" stroke-linejoin="miter" fill="none"
 d="M89.255,189.549 C89.255,189.549 85.300,196.830 83.559,199.992 C81.818,203.155 79.374,205.754 81.185,220.405 "/>
<path fill-rule="evenodd"  stroke="rgb(38, 96, 176)" stroke-width="2px" stroke-linecap="butt" stroke-linejoin="miter" fill="none"
 d="M124.859,191.448 C124.859,191.448 123.952,197.052 122.960,199.043 C121.969,201.034 120.223,202.297 120.587,209.012 C120.951,215.727 119.843,227.015 121.536,235.121 C123.229,243.228 121.971,252.093 122.011,253.161 "/>
<path fill-rule="evenodd"  fill="rgb(0, 96, 180)"
 d="M149.070,154.894 C149.070,154.894 213.301,156.373 214.581,156.793 C215.861,157.213 220.074,158.456 221.701,160.116 C223.329,161.777 159.926,157.311 155.716,158.692 C155.716,158.692 150.729,154.894 149.070,154.894 Z"/>
<path fill-rule="evenodd"  fill="rgb(0, 96, 180)"
 d="M93.053,163.914 C93.053,163.914 126.987,152.480 146.696,155.844 C146.696,155.844 151.201,155.874 157.615,160.591 C157.615,160.591 157.094,156.287 147.646,154.420 C138.198,152.553 119.414,155.880 108.719,158.217 C98.024,160.555 94.502,161.649 92.579,163.439 C90.655,165.230 92.657,163.993 93.053,163.914 Z"/>
<path fill-rule="evenodd"  fill="rgb(59, 55, 55)"
 d="M64.570,192.397 C65.252,191.579 66.265,190.741 70.267,190.498 C74.268,190.255 73.665,190.928 73.115,191.922 C72.565,192.916 70.317,197.718 64.096,199.043 C64.096,199.043 61.498,199.411 63.146,196.669 C64.794,193.928 64.304,192.716 64.570,192.397 Z"/>
<path fill-rule="evenodd"  fill="rgb(59, 55, 55)"
 d="M141.949,188.599 C141.961,187.029 148.105,182.426 157.615,183.852 C157.615,183.852 163.932,185.572 163.786,189.074 C163.640,192.576 162.577,192.619 163.786,194.296 C164.995,195.973 166.948,199.016 167.109,199.043 C167.269,199.070 166.051,203.750 159.039,204.265 C159.039,204.265 157.269,199.839 157.140,199.043 C157.011,198.247 153.152,198.085 150.969,198.094 C148.785,198.102 141.900,194.987 141.949,188.599 Z"/>
<path fill-rule="evenodd"  fill="rgb(38, 96, 176)"
 d="M143.373,193.346 C143.373,193.346 155.488,192.290 158.089,194.296 C160.690,196.302 166.166,200.261 166.160,201.891 C166.153,203.522 161.412,206.164 161.412,206.164 L152.393,206.164 L146.696,199.992 L143.373,193.346 Z"/>
<path fill-rule="evenodd"  fill="rgb(38, 96, 176)"
 d="M73.115,199.043 C73.893,198.513 77.464,198.090 77.862,199.043 C78.260,199.996 76.847,203.584 76.438,204.740 C76.029,205.895 74.081,210.604 70.741,210.436 C70.741,210.436 67.964,209.461 70.741,203.315 C70.741,203.315 71.944,199.841 73.115,199.043 Z"/>
<path fill-rule="evenodd"  fill="rgb(38, 96, 176)"
 d="M86.407,204.265 C86.407,204.265 86.545,204.714 88.781,204.740 C91.017,204.766 91.711,204.794 92.104,204.740 C92.496,204.686 93.480,204.665 93.528,203.315 C93.576,201.966 92.022,202.531 90.680,202.366 C89.337,202.201 86.207,201.625 85.932,203.315 C85.932,203.315 85.807,203.985 86.407,204.265 Z"/>
<path fill-rule="evenodd"  fill="rgb(38, 96, 176)"
 d="M124.581,206.725 C124.581,206.725 124.733,207.221 127.205,207.250 C129.678,207.278 130.446,207.310 130.880,207.250 C131.314,207.190 132.401,207.167 132.455,205.675 C132.508,204.183 130.790,204.808 129.305,204.625 C127.820,204.443 124.359,203.806 124.056,205.675 C124.056,205.675 123.917,206.415 124.581,206.725 Z"/>
<path fill-rule="evenodd"  fill="rgb(55, 56, 59)"
 d="M92.104,243.666 C94.723,260.165 94.506,258.097 98.275,260.281 L100.823,260.581 C99.385,270.598 93.053,272.149 93.053,272.149 C93.053,272.149 82.672,273.984 75.963,270.725 C69.254,267.467 67.281,255.606 67.893,242.242 C68.505,228.879 75.963,225.627 75.963,225.627 C78.790,225.108 82.235,225.156 85.355,225.400 C87.670,228.657 90.633,234.401 92.104,243.666 Z"/>
<path fill-rule="evenodd"  fill="rgb(255, 255, 255)"
 d="M76.914,234.377 C80.939,234.377 84.203,240.979 84.203,249.124 C84.203,257.269 80.939,263.872 76.914,263.872 C72.888,263.872 69.624,257.269 69.624,249.124 C69.624,240.979 72.888,234.377 76.914,234.377 Z"/>
<path fill-rule="evenodd"  fill="rgb(55, 56, 59)"
 d="M187.996,229.900 C187.996,229.900 196.121,228.700 200.814,230.374 C205.507,232.049 211.291,245.634 212.682,255.060 C214.072,264.486 214.470,270.315 216.005,271.200 C217.539,272.085 219.802,272.149 219.802,272.149 C219.802,272.149 219.864,277.423 216.005,282.118 C212.146,286.814 206.985,288.290 206.985,288.290 C206.985,288.290 189.006,291.292 183.724,287.340 C175.668,281.313 172.071,273.014 172.805,253.635 C173.476,235.955 183.744,229.381 187.996,229.900 Z"/>
<path fill-rule="evenodd"  fill="rgb(255, 255, 255)"
 d="M186.562,240.945 C191.257,240.945 195.064,248.647 195.064,258.148 C195.064,267.649 191.257,275.351 186.562,275.351 C181.866,275.351 178.060,267.649 178.060,258.148 C178.060,248.647 181.866,240.945 186.562,240.945 Z"/>
<path fill-rule="evenodd"  fill="rgb(0, 96, 180)"
 d="M230.721,218.506 C230.721,218.506 232.667,221.950 231.670,226.102 C230.674,230.254 228.262,243.432 228.822,244.141 C229.382,244.851 229.167,244.787 229.771,244.616 C230.377,244.445 234.837,240.485 234.993,240.343 C235.150,240.202 236.734,225.705 237.367,224.203 C238.000,222.701 236.603,218.313 235.943,217.557 C235.282,216.801 230.588,217.976 230.721,218.506 Z"/>
<path fill-rule="evenodd"  fill="rgb(255, 244, 216)"
 d="M221.227,206.164 C221.227,206.164 260.321,209.342 285.313,208.537 C310.306,207.733 319.240,208.523 319.968,207.113 C320.695,205.703 321.372,206.158 321.392,205.214 C321.411,204.271 327.744,211.911 327.563,213.285 C327.382,214.658 308.902,215.327 306.201,217.082 C303.500,218.837 303.352,219.931 303.352,219.931 C303.352,219.931 296.731,220.188 295.757,219.931 C294.783,219.673 292.838,218.187 291.959,217.557 C291.081,216.927 257.512,216.055 251.608,216.133 C251.608,216.133 246.613,218.648 244.488,218.981 C242.362,219.315 232.579,218.659 230.246,218.032 C227.913,217.404 218.719,204.373 221.227,206.164 Z"/>
<path fill-rule="evenodd"  stroke="rgb(0, 246, 255)" stroke-width="2px" stroke-linecap="round" stroke-linejoin="miter" fill="none"
 d="M548.703,228.668 C548.703,228.668 541.570,281.446 564.418,282.686 C587.265,283.926 598.452,282.611 598.793,289.561 C599.134,296.512 556.327,293.846 534.953,297.419 C497.288,303.715 472.842,330.605 448.524,319.026 C424.206,307.448 435.323,282.861 439.684,266.972 C444.045,251.083 444.385,237.182 443.613,235.543 "/>
<path fill-rule="evenodd"  fill="rgb(0, 246, 255)"
 d="M546.128,226.704 L550.297,226.704 C551.044,226.704 551.650,227.309 551.650,228.056 L551.650,228.297 C551.650,229.044 551.044,229.650 550.297,229.650 L546.128,229.650 C545.380,229.650 544.775,229.044 544.775,228.297 L544.775,228.056 C544.775,227.309 545.380,226.704 546.128,226.704 Z"/>
<path fill-rule="evenodd"  fill="rgb(24, 255, 247)"
 d="M69.124,201.655 L73.293,201.655 C74.040,201.655 74.646,202.261 74.646,203.008 L74.646,203.249 C74.646,203.996 74.040,204.602 73.293,204.602 L69.124,204.602 C68.377,204.602 67.771,203.996 67.771,203.249 L67.771,203.008 C67.771,202.261 68.377,201.655 69.124,201.655 Z"/>
<path fill-rule="evenodd"  stroke="rgb(24, 255, 247)" stroke-width="2px" stroke-linecap="round" stroke-linejoin="miter" fill="none"
 d="M72.673,203.620 C72.673,203.620 63.968,213.621 65.049,230.847 C66.130,248.072 79.336,263.831 68.316,271.142 C57.297,278.452 21.125,273.284 13.864,279.854 C6.603,286.424 -1.542,281.162 1.884,275.498 C5.310,269.833 10.589,264.948 47.624,264.607 C84.659,264.267 87.658,254.202 97.721,242.826 "/>
<path fill-rule="evenodd"  fill="rgb(216, 248, 255)"
 d="M98.270,0.240 L237.355,0.240 C246.192,0.240 253.355,7.404 253.355,16.240 L253.355,90.150 C253.355,98.987 246.192,106.150 237.355,106.150 L98.270,106.150 C89.433,106.150 82.270,98.987 82.270,90.150 L82.270,16.240 C82.270,7.404 89.433,0.240 98.270,0.240 Z"/>
<path fill-rule="evenodd"  fill="rgb(130, 204, 255)"
 d="M184.921,69.489 L237.876,69.489 L237.876,90.671 L184.921,90.671 L184.921,69.489 Z"/>
<path fill-rule="evenodd"  stroke="rgb(216, 248, 255)" stroke-width="2px" stroke-linecap="butt" stroke-linejoin="miter" fill="none"
 d="M184.921,68.674 L238.691,89.856 "/>
<path fill-rule="evenodd"  stroke="rgb(216, 248, 255)" stroke-width="2px" stroke-linecap="butt" stroke-linejoin="miter" fill="none"
 d="M239.505,69.489 L184.921,91.486 "/>
<path fill-rule="evenodd"  fill="rgb(255, 255, 255)"
 d="M134.410,27.125 L237.876,27.125 L237.876,36.087 L134.410,36.087 L134.410,27.125 Z"/>
<path fill-rule="evenodd"  fill="rgb(255, 255, 255)"
 d="M180.033,45.048 L237.876,45.048 L237.876,51.566 L180.033,51.566 L180.033,45.048 Z"/>
<path fill-rule="evenodd"  stroke="rgb(45, 51, 63)" stroke-width="3px" stroke-linecap="round" stroke-linejoin="miter" fill="none"
 d="M96.934,91.486 L126.263,62.157 L141.742,80.080 L158.036,71.933 L171.886,76.821 "/>
<path fill-rule="evenodd"  fill="rgb(255, 255, 255)"
 d="M93.950,10.291 L106.985,10.291 L106.985,23.326 L93.950,23.326 L93.950,10.291 Z"/>
<path fill-rule="evenodd"  fill="rgb(255, 255, 255)"
 d="M116.487,18.164 L237.876,18.164 L237.876,19.793 L116.487,19.793 L116.487,18.164 Z"/>
<path fill-rule="evenodd"  fill="rgb(0, 84, 255)"
 d="M126.263,61.342 C128.063,61.342 129.522,62.801 129.522,64.601 C129.522,66.401 128.063,67.860 126.263,67.860 C124.463,67.860 123.004,66.401 123.004,64.601 C123.004,62.801 124.463,61.342 126.263,61.342 Z"/>
<path fill-rule="evenodd"  fill="rgb(0, 84, 255)"
 d="M141.742,77.636 C143.542,77.636 145.001,79.095 145.001,80.895 C145.001,82.695 143.542,84.154 141.742,84.154 C139.943,84.154 138.484,82.695 138.484,80.895 C138.484,79.095 139.943,77.636 141.742,77.636 Z"/>
<path fill-rule="evenodd"  fill="rgb(0, 84, 255)"
 d="M158.036,70.304 C159.836,70.304 161.295,71.763 161.295,73.563 C161.295,75.362 159.836,76.821 158.036,76.821 C156.236,76.821 154.777,75.362 154.777,73.563 C154.777,71.763 156.236,70.304 158.036,70.304 Z"/>
<path fill-rule="evenodd"  fill="rgb(0, 84, 255)"
 d="M172.701,75.192 C174.500,75.192 175.959,76.651 175.959,78.451 C175.959,80.251 174.500,81.710 172.701,81.710 C170.901,81.710 169.442,80.251 169.442,78.451 C169.442,76.651 170.901,75.192 172.701,75.192 Z"/>
<path fill-rule="evenodd"  fill="rgb(0, 84, 255)"
 d="M97.749,89.856 C99.549,89.856 101.008,91.315 101.008,93.115 C101.008,94.915 99.549,96.374 97.749,96.374 C95.949,96.374 94.490,94.915 94.490,93.115 C94.490,91.315 95.949,89.856 97.749,89.856 Z"/>
<path fill-rule="evenodd"  fill="rgb(44, 20, 81)"
 d="M267.760,76.672 L277.647,110.948 L283.579,103.697 L292.148,114.903 L298.740,110.948 L289.512,99.083 L298.740,95.128 L267.760,76.672 Z"/>
<path fill-rule="evenodd"  fill="rgb(102, 0, 255)"
 d="M265.581,70.138 L275.469,104.413 L281.401,97.163 L289.970,108.368 L296.562,104.413 L287.334,92.549 L296.562,88.594 L265.581,70.138 Z"/>
<path fill-rule="evenodd"  fill="rgb(255, 255, 255)"
 d="M164.153,162.237 C164.153,162.237 179.413,182.539 182.667,188.374 C185.921,194.208 184.933,189.014 182.667,185.107 C180.400,181.199 170.430,167.419 171.776,166.593 C173.123,165.766 192.496,164.609 196.824,163.326 C201.153,162.042 181.275,162.220 176.132,162.237 C170.990,162.253 164.278,161.358 164.153,162.237 Z"/>
<path fill-rule="evenodd"  fill="rgb(255, 255, 255)"
 d="M136.926,165.504 C133.996,166.930 132.881,182.575 133.659,182.928 C134.437,183.282 136.279,183.183 136.926,176.394 C137.574,169.606 137.920,167.841 140.194,167.682 C142.468,167.523 147.139,168.719 147.817,167.682 C148.495,166.644 139.857,164.078 136.926,165.504 Z"/>
<path fill-rule="evenodd"  fill="rgb(255, 255, 255)"
 d="M103.166,169.860 C103.166,169.860 100.201,177.747 99.899,179.661 C99.596,181.576 103.940,173.040 105.344,172.038 C106.748,171.036 107.934,167.727 103.166,169.860 Z"/>
<path fill-rule="evenodd"  fill="rgb(255, 255, 255)"
 d="M498.491,210.155 C498.491,210.155 521.311,211.012 523.539,209.066 C525.767,207.119 524.633,201.333 524.628,200.353 C524.623,199.373 524.447,197.757 523.539,200.353 C522.631,202.949 522.698,205.600 520.272,206.888 C517.846,208.175 496.731,208.218 498.491,210.155 Z"/>
</svg>