<svg xmlns="http://www.w3.org/2000/svg" viewBox="0 0 281.28 227.22"><defs><style>.cls-1{fill:#fff;}</style></defs><g id="图层_2" data-name="图层 2"><g id="图层_1-2" data-name="图层 1"><path class="cls-1" d="M281.28,113.53a8.73,8.73,0,0,1-8.66,8.82h-130a8.74,8.74,0,0,0-8.74,8.74v.08a8.88,8.88,0,0,0,9,8.66h55.43a8.88,8.88,0,0,1,9,8.66,8.73,8.73,0,0,1-8.66,8.82H100a8.74,8.74,0,0,0-8.74,8.74v.08a8.9,8.9,0,0,0,9,8.66H140.7a8.88,8.88,0,0,1,9,8.66,8.73,8.73,0,0,1-8.66,8.82H65.78A8.74,8.74,0,0,0,57,201v0c0,4.05,2.35,7.75,6.1,8.73h5.49a8.89,8.89,0,0,1,9,8.66,8.73,8.73,0,0,1-8.66,8.82H37.05a6.36,6.36,0,0,1-6.38-6.34,6.5,6.5,0,0,1,.38-2.18h0l50.46-112.1H4.5a4.49,4.49,0,0,1-2.45-8.26l74-48.12L99.54,35l30.78-20,20.1-13.06A11.72,11.72,0,0,1,156.79,0h26.63a8.89,8.89,0,0,1,9,8.66,8.73,8.73,0,0,1-8.66,8.82H156a8.74,8.74,0,0,0-8.74,8.74v.08a8.88,8.88,0,0,0,9,8.66h12a8.88,8.88,0,0,1,9,8.66,8.73,8.73,0,0,1-8.66,8.82H133.46a8.74,8.74,0,0,0-8.73,8.75v.06a8.88,8.88,0,0,0,9,8.66h74.18a8.89,8.89,0,0,1,9,8.66,8.73,8.73,0,0,1-8.66,8.82H115.68a8.74,8.74,0,0,0-8.74,8.74v.08a8.88,8.88,0,0,0,9,8.66h156.4A8.9,8.9,0,0,1,281.28,113.53Z"/><circle class="cls-1" cx="199.14" cy="43.7" r="8.74"/><circle class="cls-1" cx="100.78" cy="218.48" r="8.74"/></g></g></svg>