<svg xmlns="http://www.w3.org/2000/svg" xmlns:xlink="http://www.w3.org/1999/xlink" width="30" height="30" viewBox="0 0 30 30" fill="none"><g opacity="1"  transform="translate(0 0)  rotate(0)"><path id="路径 1" fill-rule="evenodd" style="fill:#B0C8FF" opacity="1" d="M15,0c8.28,0 15,6.72 15,15c0,8.28 -6.72,15 -15,15c-8.28,0 -15,-6.72 -15,-15c0,-8.28 6.72,-15 15,-15zM1.58,15c0,7.41 6.01,13.42 13.42,13.42c7.41,0 13.42,-6.01 13.42,-13.42c0,-7.41 -6.01,-13.42 -13.42,-13.42c-7.41,0 -13.42,6.01 -13.42,13.42zM15,3.16c6.54,0 11.84,5.3 11.84,11.84c0,6.54 -5.3,11.84 -11.84,11.84c-6.54,0 -11.84,-5.3 -11.84,-11.84c0,-6.54 5.3,-11.84 11.84,-11.84zM14.8,7.86c-3.85,0.11 -6.94,3.26 -6.94,7.14c0,3.88 3.09,7.03 6.94,7.14h0.2h0.2c3.79,-0.1 6.84,-3.15 6.94,-6.94v-0.2v-0.2c-0.11,-3.85 -3.26,-6.94 -7.14,-6.94z"></path><path id="文本 5" fill-rule="evenodd" style="fill:#B0C8FF" opacity="1" d="M12,18l2.19,-7h1.62l2.19,7h-1.44l-0.48,-1.79h-2.21l-0.48,1.79zM15.79,15.12l-0.2,-0.77c-0.22,-0.72 -0.4,-1.54 -0.6,-2.28h-0.04c-0.19,0.76 -0.38,1.56 -0.58,2.28l-0.21,0.77z"></path></g></svg>