<svg xmlns="http://www.w3.org/2000/svg" xmlns:xlink="http://www.w3.org/1999/xlink" width="30" height="30" viewBox="0 0 30 30" fill="none"><g opacity="1"  transform="translate(0 0)  rotate(0)"><path id="圆形 2" fill-rule="evenodd" style="fill:#EBF0FF" opacity="1" d="M15 0C6.72 0 0 6.72 0 15C0 23.28 6.72 30 15 30C23.28 30 30 23.28 30 15C30 6.72 23.28 0 15 0Z"></path><path id="圆形 2" fill-rule="evenodd" style="fill:#B0C8FF" opacity="1" d="M15 15L15 0C12.03 0 9.13 0.88 6.67 2.53C4.2 4.18 2.28 6.52 1.14 9.26C0.01 12 -0.29 15.02 0.29 17.93C0.87 20.84 2.3 23.51 4.39 25.61C6.49 27.7 9.16 29.13 12.07 29.71C14.98 30.29 18 29.99 20.74 28.86C23.48 27.72 25.82 25.8 27.47 23.33C29.12 20.87 30 17.97 30 15L15 15Z"></path><path id="圆形 2" fill-rule="evenodd" style="fill:#F7F9FF" opacity="1" d="M14.9974 2.85742C8.29741 2.85742 2.85742 8.29742 2.85742 14.9974C2.85742 21.7074 8.29741 27.1474 14.9974 27.1474C21.7074 27.1474 27.1474 21.7074 27.1474 14.9974C27.1474 8.29742 21.7074 2.85742 14.9974 2.85742Z"></path><path id="文本 5" fill-rule="evenodd" style="fill:#B0C8FF" opacity="1" d="M9,22l4.38,-14h3.24l4.38,14h-2.88l-0.97,-3.59h-4.42l-0.96,3.59zM16.58,16.24l-0.41,-1.53c-0.42,-1.46 -0.79,-3.08 -1.2,-4.58h-0.07c-0.37,1.54 -0.76,3.12 -1.17,4.58l-0.4,1.53z"></path></g></svg>