<svg xmlns="http://www.w3.org/2000/svg" xmlns:xlink="http://www.w3.org/1999/xlink" width="30" height="30" viewBox="0 0 30 30" fill="none"><path id="路径 1" fill-rule="evenodd" style="fill:#B0C8FF" opacity="1" d="M15.02,0c8.28,0.02 14.97,6.73 14.98,15c0,6.07 -3.66,11.54 -9.26,13.86c-5.61,2.32 -12.07,1.03 -16.35,-3.26c-4.29,-4.3 -5.57,-10.75 -3.24,-16.36c2.33,-5.6 7.8,-9.25 13.87,-9.24zM19.29,9.87l-6.41,4.58c-1.43,0.41 -2.33,1.83 -2.07,3.29c0.26,1.47 1.59,2.5 3.08,2.38c1.48,-0.11 2.63,-1.33 2.67,-2.82zM27.37,15.15c0,-5.64 -3.82,-10.57 -9.29,-11.97c-5.47,-1.39 -11.2,1.1 -13.9,6.06c-2.7,4.95 -1.7,11.11 2.43,14.95c0.61,0.49 1.48,0.44 2.02,-0.13c0.53,-0.57 0.52,-1.45 -0.02,-2.01c-2.84,-2.64 -3.77,-6.75 -2.34,-10.36c1.42,-3.6 4.91,-5.97 8.78,-5.96c3.88,0.01 7.35,2.38 8.76,5.99c1.41,3.61 0.47,7.72 -2.37,10.35c-0.28,0.26 -0.45,0.63 -0.46,1.01c-0.02,0.4 0.13,0.78 0.41,1.07c0.28,0.28 0.66,0.44 1.05,0.44c0.37,0 0.73,-0.14 0.99,-0.4c2.5,-2.34 3.92,-5.61 3.94,-9.04z"></path></svg>