<svg xmlns="http://www.w3.org/2000/svg" xmlns:xlink="http://www.w3.org/1999/xlink" width="30" height="30" viewBox="0 0 30 30" fill="none"><g opacity="1"  transform="translate(0 0)  rotate(0)"><path id="路径 1" fill-rule="evenodd" style="fill:#B0C8FF" opacity="1" d="M17.68,27c1.21,-3.91 1.22,-8.09 0.03,-12h11.15c-1.43,4.84 -1.08,10.03 0.98,14.64l0.16,0.36h-30l0.22,-0.48c2.75,-5.97 3.2,-12.74 1.26,-19.02h13.62c-1.75,5.37 -1.69,11.16 0.16,16.5zM24.3,11.25c-0.31,0.87 -1.22,1.39 -2.13,1.21c-0.11,0.63 -0.66,1.07 -1.3,1.03c-0.63,-0.03 -1.13,-0.53 -1.18,-1.15c-0.04,-0.63 0.39,-1.2 1.01,-1.32c-0.2,-0.92 0.32,-1.85 1.21,-2.16c-0.05,-1.03 0.55,-1.99 1.49,-2.4c0.94,-0.41 2.05,-0.21 2.77,0.52c0.73,0.73 0.94,1.83 0.53,2.78c-0.42,0.94 -1.37,1.53 -2.4,1.49zM10.37,6c-0.37,1.05 -1.45,1.67 -2.55,1.46c-0.13,0.74 -0.8,1.27 -1.56,1.23c-0.75,-0.04 -1.36,-0.63 -1.41,-1.39c-0.06,-0.75 0.46,-1.43 1.2,-1.58c-0.24,-1.1 0.38,-2.22 1.45,-2.59c-0.05,-1.24 0.66,-2.38 1.79,-2.88c1.13,-0.49 2.46,-0.25 3.33,0.63c0.87,0.87 1.12,2.19 0.63,3.33c-0.5,1.13 -1.64,1.84 -2.88,1.79z"></path></g></svg>