<svg xmlns="http://www.w3.org/2000/svg" xmlns:xlink="http://www.w3.org/1999/xlink" width="30" height="30" viewBox="0 0 30 30" fill="none"><g opacity="1"  transform="translate(0 0)  rotate(0)"><path id="路径 1" fill-rule="evenodd" style="fill:#B0C8FF" opacity="1" d="M15,0c8.27,0 14.9999,6.73 14.9999,15c0,8.27 -6.7299,15 -14.9999,15c-8.27001,0 -15,-6.73 -15,-15c0,-8.27 6.72999,-15 15,-15zM21.62,21.62c-0.87,0.87 -1.9,1.56 -3.04,2.03c-0.26,0.11 -0.47,0.32 -0.58,0.58c-0.11,0.26 -0.11,0.56 0,0.82c0.23,0.55 0.86,0.81 1.41,0.58c2.82,-1.17 5.06,-3.41 6.2299,-6.23c0.22,-0.55 -0.0399,-1.17 -0.59,-1.4c-0.5399,-0.23 -1.1699,0.03 -1.3999,0.58c-0.47,1.14 -1.16,2.17 -2.03,3.04zM4.35999,19.4c0.58,1.4 1.43,2.67 2.5,3.74c1.06999,1.07 2.33999,1.91 3.74001,2.49c0.54,0.2 1.14,-0.06 1.36,-0.6c0.22,-0.53 -0.02,-1.14 -0.54,-1.38c-2.30002,-0.95 -4.12001,-2.77 -5.08001,-5.07c-0.1,-0.26 -0.31,-0.47 -0.58,-0.58c-0.26,-0.11 -0.56,-0.11 -0.82,0c-0.54,0.23 -0.8,0.86 -0.58,1.4zM10.71,15c0.01,2.37 1.92,4.28 4.29,4.29c2.37,-0.01 4.28,-1.92 4.29,-4.29c-0.01,-2.37 -1.92,-4.28 -4.29,-4.29c-2.37,0.01 -4.28,1.92 -4.29,4.29zM15,12.86c1.18,0 2.14,0.96 2.14,2.14c0,1.18 -0.96,2.14 -2.14,2.14c-1.18,0 -2.14,-0.96 -2.14,-2.14c0,-1.18 0.96,-2.14 2.14,-2.14zM18.58,6.35c1.14,0.47 2.17,1.16 3.04,2.03c0.87,0.87 1.56,1.9 2.03,3.04c0.23,0.55 0.86,0.81 1.3999,0.58c0.2701,-0.11 0.4701,-0.32 0.58,-0.58c0.11,-0.26 0.11,-0.56 0,-0.82c-0.58,-1.4 -1.4199,-2.67 -2.4899,-3.74c-1.07,-1.07 -2.34,-1.92 -3.74,-2.5c-0.54,-0.2 -1.15,0.06 -1.37,0.6c-0.23,0.54 0.02,1.15 0.55,1.39zM4.36999,10.59c-0.11,0.26 -0.11,0.56 0,0.82c0.1,0.27 0.31,0.48 0.58,0.59c0.26,0.11 0.55,0.11 0.82,0c0.26,-0.11 0.47,-0.32 0.58,-0.58c0.47,-1.14 1.16,-2.17 2.02999,-3.04c0.87,-0.87 1.90002,-1.56 3.04002,-2.04c0.26,-0.1 0.47,-0.31 0.58,-0.58c0.11,-0.26 0.11,-0.55 0,-0.82c-0.11,-0.26 -0.32,-0.47 -0.58,-0.58c-0.26,-0.11 -0.56,-0.11 -0.82,0v0c-2.82002,1.17 -5.06001,3.41 -6.23001,6.23z"></path></g></svg>