<svg xmlns="http://www.w3.org/2000/svg" xmlns:xlink="http://www.w3.org/1999/xlink" width="24" height="30" viewBox="0 0 24 30" fill="none"><g opacity="1"  transform="translate(0 0)  rotate(0)"><path id="路径 1" fill-rule="evenodd" style="fill:#B0C8FF" opacity="1" d="M11.46,17.57c1.41,1.34 2.19,3.03 2.25,5.19c0,3.97 -3.04,7.24 -6.86,7.24c-3.81,0 -6.85,-3.21 -6.85,-7.24c0,-2.16 0.9,-3.97 2.3,-5.32v-12.48c0,-2.68 2.03,-4.96 4.55,-4.96c2.47,0 4.61,2.34 4.61,5.02zM10.37,22.35c0,-0.96 -0.43,-1.92 -1.23,-2.69l-0.93,-0.83v-4.04c0,-0.77 -0.62,-1.48 -1.36,-1.48c-0.8,0 -1.42,0.71 -1.42,1.48v3.97l-0.92,0.84c-0.74,0.7 -1.17,1.73 -1.17,2.75c0,2.06 1.6,3.73 3.51,3.73c1.98,0 3.52,-1.67 3.52,-3.73z"></path><path id="路径 1" fill-rule="evenodd" style="fill:#B0C8FF" opacity="1" d="M14,10.55zM14,10.55l0.37,-0.52l4.53,-6.43l1.14,-1.6v6.45h3.96l-6.04,8.55v-6.45z"></path></g></svg>