<svg xmlns="http://www.w3.org/2000/svg" xmlns:xlink="http://www.w3.org/1999/xlink" width="30" height="30" viewBox="0 0 30 30" fill="none"><g opacity="1"  transform="translate(0 0)  rotate(0)"><path id="路径 1" fill-rule="evenodd" style="fill:#B0C8FF" opacity="1" d="M15,0c8.28,0 15,6.72 15,15c0,8.28 -6.72,15 -15,15c-8.28,0 -15,-6.72 -15,-15c0,-8.28 6.72,-15 15,-15zM1.58,15c0,7.41 6.01,13.42 13.42,13.42c7.41,0 13.42,-6.01 13.42,-13.42c0,-7.41 -6.01,-13.42 -13.42,-13.42c-7.41,0 -13.42,6.01 -13.42,13.42zM15,3.16c6.54,0 11.84,5.3 11.84,11.84c0,6.54 -5.3,11.84 -11.84,11.84c-6.54,0 -11.84,-5.3 -11.84,-11.84c0,-6.54 5.3,-11.84 11.84,-11.84zM14.8,7.86c-3.85,0.11 -6.94,3.26 -6.94,7.14c0,3.88 3.09,7.03 6.94,7.14h0.2h0.2c3.79,-0.1 6.84,-3.15 6.94,-6.94v-0.2v-0.2c-0.11,-3.85 -3.26,-6.94 -7.14,-6.94zM13.56,12.14l1.48,4.12l1.46,-4.12h2.07l-2.45,5.72h-2.2l-2.49,-5.72z"></path></g></svg>