<svg xmlns="http://www.w3.org/2000/svg" xmlns:xlink="http://www.w3.org/1999/xlink" width="4" height="28" viewBox="0 0 4 28" fill="none"><g opacity="1" transform="translate(0 0)  rotate(0 2 14)"><path id="圆形 2" fill-rule="evenodd" style="fill:#A6A6A6" transform="translate(0 0)  rotate(0 2 2)" opacity="1" d="M2,0C0.9,0 0,0.9 0,2C0,3.1 0.9,4 2,4C3.1,4 4,3.1 4,2C4,0.9 3.1,0 2,0Z " /><path id="圆形 2" fill-rule="evenodd" style="fill:#A6A6A6" transform="translate(0 12)  rotate(0 2 2)" opacity="1" d="M2,0C0.9,0 0,0.9 0,2C0,3.1 0.9,4 2,4C3.1,4 4,3.1 4,2C4,0.9 3.1,0 2,0Z " /><path id="圆形 2" fill-rule="evenodd" style="fill:#A6A6A6" transform="translate(0 24)  rotate(0 2 2)" opacity="1" d="M2,0C0.9,0 0,0.9 0,2C0,3.1 0.9,4 2,4C3.1,4 4,3.1 4,2C4,0.9 3.1,0 2,0Z " /></g></svg>