<svg xmlns="http://www.w3.org/2000/svg" xmlns:xlink="http://www.w3.org/1999/xlink" width="11" height="10" viewBox="0 0 11 10" fill="none"><g opacity="1" transform="translate(0 0.0009765625)  rotate(0 5.5 4.812500000000001)"><path id="路径 1" fill-rule="evenodd" style="fill:#0090FF" transform="translate(0 2.1477560446286983)  rotate(0 5.5 3.738621977685652)" opacity="1" d="M7.15,3.48C7.15,3.2 7.25,2.97 7.47,2.78C7.68,2.59 7.94,2.49 8.25,2.49L11,2.49L11,1C11,0.72 10.89,0.48 10.68,0.29C10.46,0.1 10.2,0 9.9,0L1.1,0C0.8,0 0.54,0.1 0.32,0.29C0.11,0.48 0,0.72 0,1L0,6.48C0,6.62 0.03,6.75 0.09,6.87C0.15,6.99 0.23,7.09 0.34,7.19C0.44,7.28 0.57,7.35 0.7,7.4C0.84,7.45 0.99,7.48 1.14,7.48L9.93,7.48C10.09,7.48 10.23,7.45 10.36,7.4C10.49,7.35 10.6,7.28 10.7,7.19C10.79,7.09 10.87,6.99 10.92,6.87C10.97,6.75 11,6.62 11,6.48L11,4.48L8.25,4.48C7.97,4.48 7.75,4.43 7.6,4.33C7.45,4.22 7.35,4.11 7.28,3.99C7.2,3.84 7.16,3.67 7.15,3.48Z " /><path id="路径 2" fill-rule="evenodd" style="fill:#0090FF" transform="translate(3.852422907488986 0)  rotate(0 2.75 0.8213426170668597)" opacity="1" d="M4.8,0.42C4.67,0.29 4.51,0.19 4.34,0.11C4.18,0.05 4,0.01 3.77,0C3.55,-0.01 3.3,0.05 3.02,0.19C2.83,0.28 2.57,0.41 2.24,0.57C1.91,0.73 1.57,0.89 1.24,1.05C0.85,1.24 0.44,1.44 0,1.64L5.5,1.64L4.8,0.42Z " /><path id="路径 3" fill-rule="evenodd" style="fill:#0090FF" transform="translate(7.704845814977972 5.134261706685956)  rotate(0 0.545154185022027 0.49958091038090185)" opacity="1" d="M0.16,0.85C0.26,0.95 0.39,1 0.55,1C0.7,1 0.83,0.95 0.93,0.85C1.04,0.75 1.09,0.63 1.09,0.49C1.09,0.36 1.04,0.24 0.93,0.14C0.83,0.05 0.7,0 0.55,0C0.39,0 0.26,0.05 0.16,0.14C0.05,0.24 0,0.36 0,0.49C0,0.63 0.05,0.75 0.16,0.85Z " /></g></svg>