<svg xmlns="http://www.w3.org/2000/svg" xmlns:xlink="http://www.w3.org/1999/xlink" width="58" height="58" viewBox="0 0 58 58" fill="none"><defs><rect id="path_0" x="0" y="0" width="58" height="58" /></defs><g opacity="1" transform="translate(0 0)  rotate(0 29 29)"><rect fill="#FFFFFF" opacity="0" transform="translate(0 0)  rotate(0 29 29)" x="0" y="0" width="58" height="58" rx="29" /><mask id="bg-mask-0" fill="white"><use xlink:href="#path_0"></use></mask><g mask="url(#bg-mask-0)" ><path id="分组 1" fill-rule="evenodd" style="fill:#0090FF" transform="translate(0 0)  rotate(0 29.00001275665192 25)" opacity="1" d="M49.84 50C55.08 44.51 58.01 37.15 58 29.5C58 13.22 45 0 29 0C12.99 0 0 13.22 0 29.51C0 37.47 3.12 44.69 8.16 50C8.45 46.96 9.93 37.39 19.87 32.19C25.24 36.51 32.82 36.5 38.18 32.16C48.16 37.34 49.55 46.83 49.84 50Z M28.9974 31.9202C35.2874 31.9202 40.3974 26.7202 40.3974 20.3302C40.3974 13.9402 35.2874 8.74022 28.9974 8.74022C22.7174 8.74022 17.6074 13.9402 17.6074 20.3302C17.6074 26.7302 22.7174 31.9202 28.9974 31.9202Z " /></g></g></svg>