<svg xmlns="http://www.w3.org/2000/svg" xmlns:xlink="http://www.w3.org/1999/xlink" width="22" height="22" viewBox="0 0 22 22" fill="none"><path id="电瓶车" fill-rule="evenodd" style="fill:#00B386" transform="translate(0 0)  rotate(0 11 11)" opacity="1" d="M22 11C22 17.08 17.08 22 11 22C4.92 22 0 17.08 0 11C0 4.92 4.92 0 11 0C17.08 0 22 4.92 22 11ZM6.4759 5.07266C6.2059 5.07266 5.9759 5.29266 5.9759 5.57266L5.9759 6.30266C5.9759 6.58266 6.2059 6.80266 6.4759 6.80266L7.5959 6.80266C7.6359 6.80266 7.6659 6.85266 7.6459 6.89266L6.1159 10.9627C6.1159 10.9627 3.8759 11.2327 3.1859 12.0627C3.0959 12.1727 3.0959 12.3327 3.1959 12.4327C3.2459 12.4827 3.3159 12.5027 3.3859 12.5027C3.4159 12.5027 3.4559 12.5027 3.4959 12.4827C3.6859 12.3927 3.9959 12.2727 4.1659 12.2727C4.1959 12.2727 4.2259 12.2727 4.2459 12.2827L4.2459 12.2858C4.33683 12.2349 4.43128 12.1889 4.52926 12.1473C4.86926 11.9973 5.22926 11.9273 5.59926 11.9273C5.96926 11.9273 6.32926 11.9973 6.66926 12.1473C6.99926 12.2873 7.28926 12.4773 7.53926 12.7373C7.79926 12.9873 7.98926 13.2773 8.12926 13.6073C8.27926 13.9473 8.34926 14.3073 8.34926 14.6773C8.34926 14.8689 8.33049 15.0578 8.29157 15.2427L13.3055 15.2427C13.219 14.977 13.1758 14.7002 13.1758 14.4173C13.1758 14.0473 13.2458 13.7073 13.3858 13.3673C13.5258 13.0473 13.7158 12.7673 13.9658 12.5173C14.2058 12.2673 14.4958 12.0773 14.8158 11.9373C15.1458 11.7973 15.4958 11.7273 15.8558 11.7273C16.2258 11.7273 16.5658 11.7973 16.9058 11.9373C17.2258 12.0773 17.5158 12.2673 17.7558 12.5173C18.0058 12.7573 18.1958 13.0473 18.3358 13.3673C18.3532 13.4096 18.3695 13.4518 18.3848 13.4941C18.4752 13.4134 18.5723 13.3329 18.6659 13.2627C18.8659 13.1327 18.9359 12.8727 18.8359 12.6527C18.6759 12.3027 18.4759 11.8027 18.3859 11.3627C18.3459 11.1327 18.1359 10.9627 17.8959 10.9627L12.4259 10.9627C12.1659 10.9627 11.9559 11.1527 11.9259 11.4127C11.8759 11.9227 11.7159 12.7227 11.1959 13.1527L9.5259 13.1527C9.5259 13.1527 8.9659 11.8627 8.2659 11.4427C8.2659 11.4427 8.5659 9.18266 8.8059 7.85266C8.9059 7.32266 9.4059 6.97266 9.9459 7.05266L10.6659 7.16266L10.7059 7.16266C10.8259 7.16266 10.9259 7.09266 10.9659 6.98266C11.0159 6.83266 10.9259 6.66266 10.7659 6.63266L9.6359 6.37266C9.4159 6.33266 9.2259 6.21266 9.0859 6.04266L8.4159 5.25266C8.3259 5.14266 8.1859 5.07266 8.0359 5.07266L6.4759 5.07266ZM12.308 9.86047C12.158 9.86047 12.038 9.74047 12.038 9.60047C12.038 9.45047 12.158 9.33047 12.308 9.33047L17.998 9.33047C18.148 9.33047 18.268 9.45047 18.268 9.60047C18.268 9.74047 18.148 9.86047 17.998 9.86047L12.308 9.86047ZM17.8758 13.5673C17.9858 13.8373 18.0458 14.1173 18.0458 14.4173C18.0458 14.7173 17.9858 14.9973 17.8758 15.2673C17.7658 15.5273 17.6058 15.7573 17.4058 15.9573C17.2058 16.1573 16.9758 16.3173 16.7058 16.4273C16.4358 16.5373 16.1558 16.5973 15.8558 16.5973C15.5558 16.5973 15.2758 16.5373 15.0058 16.4273C14.7458 16.3173 14.5158 16.1573 14.3158 15.9573C14.1158 15.7573 13.9558 15.5273 13.8458 15.2673C13.7358 14.9973 13.6758 14.7173 13.6758 14.4173C13.6758 14.1173 13.7358 13.8373 13.8458 13.5673C13.9558 13.2973 14.1158 13.0673 14.3158 12.8673C14.5158 12.6673 14.7458 12.5073 15.0058 12.3973C15.2758 12.2873 15.5558 12.2273 15.8558 12.2273C16.1558 12.2273 16.4358 12.2873 16.7058 12.3973C16.9758 12.5073 17.2058 12.6673 17.4058 12.8673C17.6058 13.0673 17.7658 13.2973 17.8758 13.5673ZM3.34926 14.6773C3.34926 14.3673 3.40926 14.0773 3.52926 13.7973C3.63926 13.5373 3.79926 13.2973 4.00926 13.0873C4.21926 12.8773 4.45926 12.7173 4.71926 12.6073C4.99926 12.4873 5.28926 12.4273 5.59926 12.4273C5.90926 12.4273 6.19926 12.4873 6.47926 12.6073C6.73926 12.7173 6.97926 12.8773 7.18926 13.0873C7.39926 13.2973 7.55926 13.5373 7.66926 13.7973C7.78926 14.0773 7.84926 14.3673 7.84926 14.6773C7.84926 14.9873 7.78926 15.2773 7.66926 15.5573C7.55926 15.8173 7.39926 16.0573 7.18926 16.2673C6.97926 16.4773 6.73926 16.6373 6.47926 16.7473C6.19926 16.8673 5.90926 16.9273 5.59926 16.9273C5.28926 16.9273 4.99926 16.8673 4.71926 16.7473C4.45926 16.6373 4.21926 16.4773 4.00926 16.2673C3.79926 16.0573 3.63926 15.8173 3.52926 15.5573C3.40926 15.2773 3.34926 14.9873 3.34926 14.6773ZM15.8557 13.4764C16.3757 13.4764 16.7957 13.8964 16.7957 14.4164C16.7957 14.9264 16.3757 15.3464 15.8557 15.3464C15.3457 15.3464 14.9257 14.9264 14.9257 14.4164C14.9257 13.8964 15.3457 13.4764 15.8557 13.4764ZM5.5655 13.8055C6.0755 13.8055 6.4955 14.2255 6.4955 14.7455C6.4955 15.2555 6.0755 15.6755 5.5555 15.6755C5.0455 15.6755 4.6255 15.2555 4.6255 14.7455C4.6255 14.2255 5.0455 13.8055 5.5555 13.8055L5.5655 13.8055Z " /></svg>