<svg xmlns="http://www.w3.org/2000/svg" xmlns:xlink="http://www.w3.org/1999/xlink" width="12" height="12" viewBox="0 0 12 12" fill="none"><g opacity="1"  transform="translate(0 0)  rotate(0)"><path id="路径 1" fill-rule="evenodd" style="fill:#0090FF" opacity="1" d="M3.3305,5.42171c0.01,-0.11 0.05,-0.22 0.13,-0.29l4.58,-4.55999c0.82,-0.82 2.24,-0.72 3.18,0.2c0.93,0.93 1.03,2.33999 0.21,3.15999l-0.6,0.6l-0.85,0.85l-3.14,3.11999c-0.08,0.08 -0.18,0.12 -0.28,0.12l-2.13,0.12c-0.56,0.01 -1.05,-0.39 -1.15,-0.93999c-0.02,-0.07 -0.02,-0.14 -0.02,-0.21zM8.3005,2.00172l1.69,1.68999l0.46,-0.47c0.2,-0.22 0.31,-0.51 0.3,-0.82c-0.01,-0.29999 -0.14,-0.57999 -0.36,-0.78999c-0.44001,-0.46 -1.16,-0.49 -1.63,-0.06zM4.4405,7.55171l1.8,-0.14l2.9,-2.88l-1.69,-1.68l-2.89,2.88z"></path><path id="路径 2" fill-rule="evenodd" style="fill:#0090FF" opacity="1" d="M10.8 7.8L10.8 10.2C10.8 10.53 10.53 10.8 10.2 10.8L1.8 10.8C1.47 10.8 1.2 10.53 1.2 10.2L1.2 1.8C1.2 1.47 1.47 1.2 1.8 1.2L4.2 1.2C4.53 1.2 4.8 0.93 4.8 0.6C4.8 0.27 4.53 0 4.2 0L1.8 0C0.81 0 0 0.81 0 1.8L0 10.2C0 11.19 0.81 12 1.8 12L10.2 12C11.19 12 12 11.19 12 10.2L12 7.8C12 7.47 11.73 7.2 11.4 7.2C11.07 7.2 10.8 7.47 10.8 7.8Z"></path></g></svg>