<svg xmlns="http://www.w3.org/2000/svg" xmlns:xlink="http://www.w3.org/1999/xlink" width="12" height="14" viewBox="0 0 12 14" fill="none"><g opacity="1" transform="translate(0 0)  rotate(0 5.9986666640625 7)"><path id="分组 1" fill-rule="evenodd" style="fill:#0090FF" transform="translate(0 0)  rotate(0 5.9986666640625 7)" opacity="1" d="M1 2.66667C0.45 2.66667 0 3.11667 0 3.66667L0 12.9967C0 13.5567 0.45 13.9967 1 13.9967L8.33 13.9967C8.89 13.9967 9.33 13.5567 9.33 12.9967L9.33 3.66667C9.33 3.11667 8.89 2.66667 8.33 2.66667L1 2.66667ZM1.33333 4L1.33333 12.67L8.00333 12.67L8.00333 4L1.33333 4ZM11.9933 0.9C11.9433 0.39 11.5133 -1.94643e-07 10.9933 -1.94643e-07L4.00333 -1.94643e-07L3.92333 -1.94643e-07C3.58333 0.0399998 3.33333 0.33 3.33333 0.67L3.33333 0.74C3.37333 1.08 3.66333 1.33 4.00333 1.33L10.6633 1.33L10.6633 10L10.6733 10.07C10.7133 10.42 11.0133 10.68 11.3733 10.66C11.7233 10.64 11.9933 10.35 11.9933 10L11.9933 1L11.9933 0.9Z " /></g></svg>