<svg xmlns="http://www.w3.org/2000/svg" xmlns:xlink="http://www.w3.org/1999/xlink" width="37.6800537109375" height="32.66015625" viewBox="0 0 37.6800537109375 32.66015625" fill="none"><path id="减去顶层" fill-rule="evenodd" style="fill:#FFFFFF" opacity="1" d="M0.38,31.16l17.59,-30.48c0.38,-0.68 1.36,-0.68 1.74,0l17.59,30.48c0.38,0.66 -0.09,1.5 -0.86,1.5h-35.2c-0.77,0 -1.24,-0.84 -0.86,-1.5zM16.9797,13.55v7.18c0,0.77 0.83,1.39 1.86,1.39c1.03,0 1.86,-0.62 1.86,-1.39v-7.18c-0.03,-0.75 -0.85,-1.35 -1.86,-1.35c-1,0 -1.83,0.6 -1.86,1.35zM20.6997,26.4599c0,-1.03 -0.83,-1.86 -1.86,-1.86c-1.03,0 -1.86,0.83 -1.86,1.86c0,1.03 0.83,1.86 1.86,1.86c1.03,0 1.86,-0.83 1.86,-1.86z"></path></svg>