<svg xmlns="http://www.w3.org/2000/svg" xmlns:xlink="http://www.w3.org/1999/xlink" width="33.47998046875" height="33.47998046875" viewBox="0 0 33.47998046875 33.47998046875" fill="none"><g opacity="1" transform="translate(0 0)  rotate(0)"><path id="减去顶层" fill-rule="evenodd" style="fill:#FF8D1A" opacity="1" d="M16.74,33.48c-9.24,0 -16.74,-7.5 -16.74,-16.74c0,-3.7261 1.21963,-7.16927 3.28117,-9.95175l-2.76213,-2.76213l1.75342,-1.75341l28.93484,28.93479l-1.7535,1.7534l-2.7621,-2.7621c-2.7824,2.0616 -6.2256,3.2812 -9.9517,3.2812zM6.78821,3.28121c2.78249,-2.06157 6.22569,-3.28121 9.95179,-3.28121c9.24,0 16.74,7.5 16.74,16.74c0,3.7261 -1.2196,7.1693 -3.2812,9.9518z"></path><path id="路径 1" fill-rule="evenodd" style="fill:#FFFFFF" opacity="1" d="M4.18506 16.7413C4.18506 18.4813 5.56506 19.8813 7.32506 19.8813C9.05506 19.8813 10.4651 18.4713 10.4651 16.7413C10.4651 15.0113 9.05506 13.6013 7.32506 13.6013C5.59506 13.6013 4.18506 15.0113 4.18506 16.7413Z"></path><path id="路径 2" fill-rule="evenodd" style="fill:#FFFFFF" opacity="1" d="M23.0176 16.7413C23.0176 18.4713 24.4276 19.8813 26.1576 19.8813C27.8876 19.8813 29.2976 18.4713 29.2976 16.7413C29.2976 15.0113 27.8876 13.6013 26.1576 13.6013C24.4276 13.6013 23.0176 15.0113 23.0176 16.7413Z"></path></g></svg>