<svg xmlns="http://www.w3.org/2000/svg" xmlns:xlink="http://www.w3.org/1999/xlink" width="20" height="20" viewBox="0 0 20 20" fill="none"><g opacity="1" transform="translate(0.000004740107783618441 0)  rotate(0 9.594532314948006 9.749999999999998)"><path id="路径 4" fill-rule="evenodd" style="fill:#387EFE" transform="translate(5.422468135947678 3.1774160993024356)  rotate(0 4.231507795226894 4.147271400697544)" opacity="1" d="M4.23,6.88L6.85,8.29L6.35,5.29L8.46,3.17L5.54,2.73L4.23,0L2.92,2.73L0,3.17L2.12,5.29L1.62,8.29L4.23,6.88Z " /><path id="矩形 9 (轮廓)" fill-rule="evenodd" style="fill:#387EFE" transform="translate(0 0)  rotate(0 9.594532314948006 9.749999999999998)" opacity="1" d="M19.19 16.25C19.19 18.04 17.75 19.5 15.99 19.5L3.2 19.5C1.44 19.5 0 18.04 0 16.25L0 3.25C0 1.46 1.44 0 3.2 0L15.99 0C17.75 0 19.19 1.46 19.19 3.25L19.19 16.25ZM2.07 17.4C1.76 17.08 1.6 16.7 1.6 16.25L1.6 3.25C1.6 2.8 1.76 2.42 2.07 2.1C2.38 1.78 2.76 1.62 3.2 1.62L15.99 1.62C16.43 1.62 16.8 1.78 17.12 2.1C17.43 2.42 17.59 2.8 17.59 3.25L17.59 16.25C17.59 16.7 17.43 17.08 17.12 17.4C16.8 17.72 16.43 17.87 15.99 17.87L3.2 17.87C2.76 17.87 2.38 17.72 2.07 17.4Z" /><path id="直线 4 (轮廓)" fill-rule="evenodd" style="fill:#387EFE" transform="translate(3.9977217872422024 12.1875)  rotate(0 5.596810530780196 0.8133125054127197)" opacity="1" d="M0.8,1.63L0.8,1.62L10.39,1.62L10.39,0.81L10.39,1.62C10.5,1.62 10.6,1.6 10.7,1.56C10.8,1.52 10.88,1.46 10.96,1.39C11.03,1.31 11.09,1.22 11.13,1.12C11.17,1.02 11.19,0.92 11.19,0.81C11.19,0.76 11.19,0.71 11.18,0.65C11.17,0.6 11.15,0.55 11.13,0.5C11.11,0.45 11.09,0.41 11.06,0.36C11.03,0.32 11,0.28 10.96,0.24C10.92,0.2 10.88,0.17 10.84,0.14C10.79,0.11 10.75,0.08 10.7,0.06C10.65,0.04 10.6,0.03 10.55,0.02C10.5,0.01 10.45,0 10.39,0L0.8,0L0.8,0.81L0.8,0C0.75,0 0.69,0.01 0.64,0.02C0.59,0.03 0.54,0.04 0.49,0.06C0.44,0.08 0.4,0.11 0.36,0.14C0.31,0.17 0.27,0.2 0.23,0.24C0.2,0.28 0.16,0.32 0.13,0.36C0.11,0.41 0.08,0.45 0.06,0.5C0.04,0.55 0.03,0.6 0.02,0.66C0.01,0.71 0,0.76 0,0.81C0,0.87 0.01,0.92 0.02,0.97C0.03,1.03 0.04,1.08 0.06,1.13C0.08,1.17 0.11,1.22 0.13,1.27C0.16,1.31 0.2,1.35 0.23,1.39C0.27,1.43 0.31,1.46 0.36,1.49C0.4,1.52 0.45,1.54 0.49,1.56C0.54,1.59 0.59,1.6 0.64,1.61C0.7,1.62 0.75,1.63 0.8,1.63Z " /></g></svg>