<?xml version="1.0" standalone="no"?><!DOCTYPE svg PUBLIC "-//W3C//DTD SVG 1.1//EN" "http://www.w3.org/Graphics/SVG/1.1/DTD/svg11.dtd"><svg t="1689139858597" class="icon" viewBox="0 0 1026 1024" version="1.1" xmlns="http://www.w3.org/2000/svg" p-id="1736" xmlns:xlink="http://www.w3.org/1999/xlink" width="64.125" height="64"><path d="M512 669c-65 0-133-16-201-49-53-25-106-60-159-104C64 442 10 369 8 366a40 40 0 0 1 64-47c1 2 53 70 133 138s185 132 307 132c238 0 438-268 440-271a40 40 0 1 1 64 47c-2 3-57 76-145 150-52 44-106 79-159 104-67 34-135 50-200 50z" fill="#666666" p-id="1737"></path><path d="M512 570c-148 0-265-106-270-111a40 40 0 1 1 54-59c1 1 100 89 216 89s215-89 216-89a40 40 0 0 1 54 59c-5 5-122 111-270 111zM512 854a40 40 0 0 1-40-40v-75a40 40 0 0 1 80 0v75a40 40 0 0 1-40 40zM833 763a40 40 0 0 1-28-12l-53-53a40 40 0 0 1 57-57l53 53a40 40 0 0 1-28 68zM199 763a40 40 0 0 1-28-68l53-53a40 40 0 0 1 57 57l-53 53a40 40 0 0 1-29 11z" fill="#666666" p-id="1738"></path></svg>