<svg xmlns="http://www.w3.org/2000/svg" xmlns:xlink="http://www.w3.org/1999/xlink" width="24" height="24" viewBox="0 0 24 24" fill="none"><defs><path id="path_0"
        transform="translate(0 0) rotate(0 11 6.452196382428776)"
        d="M0,9.32C0.11,11.31 1.76,12.9 3.8,12.9C5.27,12.9 6.52,12.11 7.14,10.91C7.26,10.69 7.54,10.69 7.65,10.91C8.34,12.11 9.58,12.9 11,12.9C12.47,12.9 13.72,12.11 14.35,10.91C14.46,10.69 14.74,10.69 14.86,10.91C15.54,12.11 16.78,12.9 18.2,12.9C20.24,12.9 21.89,11.31 22,9.32C22,9.21 21.94,9.1 21.94,8.98L19.56,0.45C19.51,0.17 19.28,0 18.99,0L3.06,0C2.78,0 2.55,0.17 2.44,0.45L0.06,8.98C0,9.1 0,9.21 0,9.32Z" /><linearGradient id="linear_0" x1="0%" y1="6.314%" x2="74.886%" y2="68.708%" gradientUnits="objectBoundingBox"><stop offset="0" stop-color="#75CFFF" stop-opacity="1" /><stop offset="1" stop-color="#FFFFFF" stop-opacity="0" /></linearGradient></defs><g opacity="1" transform="translate(-0.000044419475671020336 9.094947017729282e-13)  rotate(0 12 12.000013647763371)"><g opacity="1" transform="translate(1 1.000000000000271)  rotate(0 11 6.452196382428776)"><mask id="mask-0" fill="white"><use xlink:href="#path_0"></use></mask><g mask="url(#mask-0)"><path id="圆形 3" fill-rule="evenodd" fill="url(#linear_0)" transform="translate(8.529999999999745 -1.5517470258846515)  rotate(-45.109728464584094 7.46896029244464 7.46896029244464)" opacity="1" d="M7.47,0C3.34,0 0,3.34 0,7.47C0,11.59 3.34,14.94 7.47,14.94C11.59,14.94 14.94,11.59 14.94,7.47C14.94,3.34 11.59,0 7.47,0Z " /></g></g><path id="路径 1 (轮廓)" fill-rule="evenodd" style="fill:#383838" transform="translate(0 0)  rotate(0 12 7.45)" opacity="1" d="M21.53 1.22C21.46 0.85 21.27 0.56 20.98 0.33Q20.545 0 19.99 0L4.06 0C3.7 0 3.38 0.1 3.1 0.31C2.83 0.51 2.64 0.76 2.51 1.08L2.49 1.13L0.11 9.65C0.04 9.84 0 10.07 0 10.32L0 10.38C0.04 11 0.18 11.59 0.45 12.15C0.7 12.69 1.05 13.17 1.49 13.58C1.93 14 2.43 14.32 2.98 14.55C3.56 14.78 4.17 14.9 4.8 14.9C5.71 14.9 6.55 14.67 7.31 14.21C7.73 13.95 8.1 13.64 8.41 13.28C8.74 13.65 9.11 13.95 9.53 14.21C10.29 14.67 11.11 14.9 12 14.9C12.91 14.9 13.75 14.67 14.51 14.21C14.93 13.95 15.3 13.64 15.62 13.28C15.94 13.65 16.31 13.95 16.73 14.21C17.49 14.67 18.31 14.9 19.2 14.9C19.83 14.9 20.44 14.78 21.02 14.55C21.57 14.32 22.07 14 22.51 13.58C22.95 13.17 23.3 12.69 23.55 12.15C23.82 11.59 23.96 11 24 10.38L24 10.32C24 10.2 23.98 10.06 23.94 9.91L23.94 9.84L21.53 1.22ZM16.27 10.93C16.06 10.81 15.84 10.75 15.6 10.75C15.36 10.75 15.13 10.81 14.93 10.94C14.72 11.07 14.57 11.24 14.46 11.45C14.23 11.89 13.9 12.24 13.47 12.5C13.03 12.77 12.54 12.9 12 12.9C11.49 12.9 11.01 12.77 10.57 12.5C10.14 12.24 9.79 11.88 9.53 11.43C9.42 11.22 9.27 11.06 9.07 10.94C8.87 10.81 8.64 10.75 8.4 10.75C8.16 10.75 7.94 10.81 7.73 10.93C7.53 11.06 7.38 11.22 7.26 11.43L7.26 11.44L7.25 11.45C7.02 11.89 6.7 12.24 6.27 12.5C5.83 12.77 5.34 12.9 4.8 12.9C4.43 12.9 4.08 12.83 3.74 12.69C3.41 12.56 3.12 12.37 2.86 12.13C2.61 11.89 2.41 11.61 2.26 11.29C2.11 10.99 2.03 10.66 2 10.32L4.32 2L19.68 2L21.95 10.16C21.96 10.23 21.98 10.3 21.99 10.37C21.96 10.69 21.88 11 21.74 11.29C21.59 11.61 21.39 11.89 21.14 12.13C20.88 12.37 20.59 12.56 20.26 12.69C19.92 12.83 19.57 12.9 19.2 12.9C18.69 12.9 18.21 12.77 17.77 12.5C17.34 12.24 16.99 11.88 16.74 11.43C16.62 11.22 16.47 11.06 16.27 10.93Z" /><path id="路径 3 (轮廓)" fill-rule="evenodd" style="fill:#383838" transform="translate(2.37836686071023 13.210027295526743)  rotate(0 5.394985 5.395)" opacity="1" d="M2,1C2,0.93 1.99,0.87 1.98,0.8C1.97,0.74 1.95,0.68 1.92,0.62C1.9,0.56 1.87,0.5 1.83,0.44C1.79,0.39 1.75,0.34 1.71,0.29C1.66,0.25 1.61,0.21 1.56,0.17C1.5,0.13 1.44,0.1 1.38,0.08C1.32,0.05 1.26,0.03 1.2,0.02C1.13,0.01 1.07,0 1,0C0.93,0 0.87,0.01 0.8,0.02C0.74,0.03 0.68,0.05 0.62,0.08C0.56,0.1 0.5,0.13 0.44,0.17C0.39,0.21 0.34,0.25 0.29,0.29C0.25,0.34 0.21,0.39 0.17,0.44C0.13,0.5 0.1,0.56 0.08,0.62C0.05,0.68 0.03,0.74 0.02,0.8C0.01,0.87 0,0.93 0,1L0,7.79C0,8.2 0.08,8.59 0.24,8.96C0.39,9.32 0.6,9.63 0.88,9.91C1.16,10.19 1.47,10.4 1.83,10.55C2.21,10.71 2.59,10.79 3,10.79L9.79,10.79C9.86,10.79 9.92,10.78 9.99,10.77C10.05,10.76 10.11,10.74 10.17,10.71C10.23,10.69 10.29,10.66 10.35,10.62C10.4,10.58 10.45,10.54 10.5,10.5C10.54,10.45 10.58,10.4 10.62,10.35C10.66,10.29 10.69,10.23 10.71,10.17C10.74,10.11 10.76,10.05 10.77,9.99C10.78,9.92 10.79,9.86 10.79,9.79C10.79,9.72 10.78,9.66 10.77,9.59C10.76,9.53 10.74,9.47 10.71,9.41C10.69,9.35 10.66,9.29 10.62,9.23C10.58,9.18 10.54,9.13 10.5,9.08C10.45,9.04 10.4,8.99 10.35,8.96C10.29,8.92 10.23,8.89 10.17,8.87C10.11,8.84 10.05,8.82 9.99,8.81C9.92,8.8 9.86,8.79 9.79,8.79L3,8.79C2.73,8.79 2.49,8.69 2.29,8.5C2.1,8.3 2,8.06 2,7.79L2,1Z " /><g opacity="1" transform="translate(17.789714684637147 17.789714684637204)  rotate(0 2.6051426576815686 2.6051426576815686)"><path id="直线 2 (轮廓)" fill-rule="evenodd" style="fill:#383838" transform="translate(-1.0000000052064024 1.6047704944494399)  rotate(0 3.6051450052060283 1.0003700104042033)" opacity="1" d="M0.08 0.62Q0.11 0.53 0.17 0.44L0.29 0.29C0.34 0.25 0.39 0.2 0.44 0.17Q0.53 0.11 0.62 0.08Q0.71 0.035 0.8 0.02C0.87 0.01 0.93 0 1 0L6.21 0C6.28 0 6.34 0.01 6.41 0.02C6.47 0.03 6.53 0.05 6.59 0.08Q6.68 0.11 6.77 0.17L6.92 0.29C6.96 0.34 7.01 0.39 7.04 0.45C7.08 0.5 7.11 0.56 7.13 0.62C7.16 0.68 7.18 0.74 7.19 0.81C7.2 0.87 7.21 0.94 7.21 1C7.21 1.07 7.2 1.13 7.19 1.2C7.18 1.26 7.16 1.32 7.13 1.38C7.11 1.44 7.08 1.5 7.04 1.56C7.01 1.61 6.96 1.66 6.92 1.71C6.87 1.75 6.82 1.8 6.77 1.83Q6.68 1.89 6.59 1.92C6.53 1.95 6.47 1.97 6.41 1.98C6.34 1.99 6.28 2 6.21 2L1 2C0.93 2 0.87 1.99 0.8 1.98C0.74 1.97 0.68 1.95 0.62 1.92Q0.53 1.89 0.44 1.83L0.29 1.71C0.25 1.66 0.2 1.61 0.17 1.56Q0.11 1.47 0.08 1.38C0.05 1.32 0.03 1.26 0.02 1.19C0.01 1.13 0 1.07 0 1C0 0.93 0.01 0.87 0.02 0.8Q0.035 0.71 0.08 0.62Z" /><path id="直线 2 (轮廓)" fill-rule="evenodd" style="fill:#383838" transform="translate(1.604770489242128 -1.0000000052068572)  rotate(0 1.000370013007421 3.6051450052060283)" opacity="1" d="M1.38 0.08C1.32 0.05 1.26 0.03 1.2 0.02C1.13 0.01 1.07 0 1 0C0.94 0 0.87 0.01 0.81 0.02C0.74 0.03 0.68 0.05 0.62 0.08C0.56 0.1 0.5 0.13 0.45 0.17C0.39 0.2 0.34 0.25 0.29 0.29L0.17 0.44Q0.11 0.53 0.08 0.62Q0.035 0.71 0.02 0.8C0.01 0.87 0 0.93 0 1L0 6.21C0 6.28 0.01 6.34 0.02 6.41C0.03 6.47 0.05 6.53 0.08 6.59Q0.11 6.68 0.17 6.77C0.2 6.82 0.25 6.87 0.29 6.92C0.34 6.96 0.39 7.01 0.44 7.04C0.5 7.08 0.56 7.11 0.62 7.13Q0.71 7.175 0.8 7.19C0.87 7.2 0.93 7.21 1 7.21C1.07 7.21 1.13 7.2 1.19 7.19C1.26 7.18 1.32 7.16 1.38 7.13C1.44 7.11 1.5 7.08 1.56 7.04C1.61 7.01 1.66 6.96 1.71 6.92L1.83 6.77Q1.89 6.68 1.92 6.59C1.95 6.53 1.97 6.47 1.98 6.41C1.99 6.34 2 6.28 2 6.21L2 1C2 0.93 1.99 0.87 1.98 0.81C1.97 0.74 1.95 0.68 1.92 0.62Q1.89 0.53 1.83 0.44C1.8 0.39 1.75 0.34 1.71 0.29L1.56 0.17Q1.47 0.11 1.38 0.08Z" /></g></g></svg>