<svg xmlns="http://www.w3.org/2000/svg" xmlns:xlink="http://www.w3.org/1999/xlink" width="28" height="29" viewBox="0 0 28 29" fill="none"><defs><linearGradient id="linear_0" x1="11.775387813563745%" y1="100.00000000000009%" x2="100.01178710348006%" y2="13.500000000000014%" gradientUnits="objectBoundingBox"><stop offset="0" stop-color="#0090FF" stop-opacity="1" /><stop offset="1" stop-color="#BAFFF0" stop-opacity="1" /></linearGradient></defs><path id="分组 1" fill-rule="evenodd" fill="url(#linear_0)" transform="translate(0 0)  rotate(0 13.99835 14.5)" opacity="1" d="M2.73 3.3C3.05 1.39 4.72 0 6.67 0L24 0C26.21 0 28 1.77 28 3.95L28 25.05C28 27.23 26.21 29 24 29L6.67 29C4.72 29 3.05 27.61 2.73 25.7L4.34 25.7C5.97 25.7 7.3 24.42 7.34 22.81C7.37 21.2 6.11 19.85 4.48 19.78L4.34 19.77L2.67 19.77L2.67 17.47L4.34 17.47C5.94 17.47 7.26 16.22 7.33 14.64L7.34 14.5C7.34 12.92 6.08 11.61 4.48 11.54L4.34 11.53L2.67 11.53L2.67 9.23L4.34 9.23C5.94 9.23 7.26 7.98 7.33 6.4L7.34 6.26C7.34 4.68 6.08 3.37 4.48 3.3L2.73 3.3ZM4.33 5.27C4.89 5.27 5.33 5.71 5.33 6.26C5.33 6.8 4.89 7.25 4.33 7.25L1 7.25C0.45 7.25 0 6.8 0 6.26C0 5.71 0.45 5.27 1 5.27L4.33 5.27ZM21.87 13.33C22.16 13.01 21.93 12.5 21.5 12.5L18.58 12.5L20.13 8.69C20.26 8.36 20.02 8 19.67 8L15.17 8C14.96 8 14.77 8.13 14.7 8.32L12.03 15.32C11.91 15.65 12.15 16 12.5 16L15.18 16L13.85 21.04C13.72 21.55 14.36 21.89 14.71 21.49L21.87 13.33ZM4.33 15.49L1 15.49C0.45 15.49 0 15.04 0 14.5C0 13.95 0.45 13.51 1 13.51L4.33 13.51C4.89 13.51 5.33 13.95 5.33 14.5C5.33 15.04 4.89 15.49 4.33 15.49ZM4.33 21.75L1 21.75C0.45 21.75 0 22.19 0 22.74C0 23.28 0.45 23.73 1 23.73L4.33 23.73C4.89 23.73 5.33 23.28 5.33 22.74C5.33 22.19 4.89 21.75 4.33 21.75Z" /></svg>