<svg xmlns="http://www.w3.org/2000/svg" xmlns:xlink="http://www.w3.org/1999/xlink" width="33.47998046875" height="33.47998046875" viewBox="0 0 33.47998046875 33.47998046875" fill="none"><g opacity="1"  transform="translate(0 0)  rotate(0)"><path id="减去顶层" fill-rule="evenodd" style="fill:#FFFFFF" opacity="1" d="M16.74,33.48c-9.24,0 -16.74,-7.5 -16.74,-16.74c0,-3.726 1.21959,-7.16915 3.28107,-9.95161l-2.76203,-2.76202l1.75363,-1.75363l2.63229,2.6323l0.00016,-0.00016l23.66998,23.67002l-0.0001,0.0001l2.6325,2.6326l-1.7537,1.7536l-2.7622,-2.7623c-2.7824,2.0615 -6.2256,3.2811 -9.9516,3.2811zM6.78849,3.281c2.78244,-2.06144 6.22551,-3.281 9.95151,-3.281c9.24,0 16.74,7.5 16.74,16.74c0,3.726 -1.2196,7.1691 -3.281,9.9515z"></path><path id="路径 1" fill-rule="evenodd" style="fill:#A6A6A6" opacity="1" d="M4.18506 16.7411C4.18506 18.4811 5.56506 19.8811 7.32506 19.8811C9.05506 19.8811 10.4651 18.4711 10.4651 16.7411C10.4651 15.0111 9.05506 13.6011 7.32506 13.6011C5.59506 13.6011 4.18506 15.0111 4.18506 16.7411Z"></path><path id="路径 2" fill-rule="evenodd" style="fill:#A6A6A6" opacity="1" d="M23.0176 16.7411C23.0176 18.4711 24.4276 19.8811 26.1576 19.8811C27.8876 19.8811 29.2976 18.4711 29.2976 16.7411C29.2976 15.0111 27.8876 13.6011 26.1576 13.6011C24.4276 13.6011 23.0176 15.0111 23.0176 16.7411Z"></path></g></svg>