<svg xmlns="http://www.w3.org/2000/svg" xmlns:xlink="http://www.w3.org/1999/xlink" width="15" height="14" viewBox="0 0 15 14" fill="none"><g opacity="1" transform="translate(0 -0.0001562499999998579)  rotate(0 7.1614609375 6.8351406249999975)"><path id="分组 1" fill-rule="evenodd" style="fill:#333333" transform="translate(0 3.2536093749999964)  rotate(0 7.1614609375 5.208335937499999)" opacity="1" d="M1.30208 1.30209L1.30208 9.11209L13.0221 9.11209L13.0221 1.30209L1.30208 1.30209Z M1.3 0C0.58 0 0 0.58 0 1.3L0 9.11C0 9.83 0.58 10.42 1.3 10.42L13.02 10.42C13.74 10.42 14.32 9.83 14.32 9.11L14.32 1.3C14.32 0.58 13.74 0 13.02 0L1.3 0Z " /><path id="分组 2" fill-rule="evenodd" style="fill:#333333" transform="translate(0 0)  rotate(0 7.1614609375 5.2075390625)" opacity="1" d="M9.76456 7.81091C9.40456 7.81091 9.11456 8.10091 9.11456 8.46091C9.11456 8.82091 9.40456 9.11091 9.76456 9.11091L13.0246 9.11091L13.0246 7.81091L9.76456 7.81091Z M9.76248 6.50883C8.68248 6.50883 7.81248 7.37883 7.81248 8.45883C7.81248 9.53883 8.68248 10.4188 9.76248 10.4188L14.3225 10.4188L14.3225 6.50883L9.76248 6.50883Z M1.30208 1.30208L1.30208 3.25208L10.7821 3.25208L10.4421 1.56208L10.4121 1.43208L10.4121 1.30208L1.30208 1.30208Z M1.3 0C0.58 0 0 0.58 0 1.3L0 4.56L12.37 4.56L11.72 1.3C11.72 0.58 11.14 0 10.42 0L1.3 0Z " /></g></svg>