<svg xmlns="http://www.w3.org/2000/svg" xmlns:xlink="http://www.w3.org/1999/xlink" width="34.47998046875" height="34.480010986328125" viewBox="0 0 34.47998046875 34.480010986328125" fill="none"><g opacity="1"  transform="translate(0 0)  rotate(0)"><rect fill="#FFFFFF" opacity="1" transform="translate(0 0)  rotate(0)" x="0" y="0" width="34.4798583984375" height="34.4798583984375" rx="17.23992919921875" /><g opacity="1"  transform="translate(0 0)  rotate(0)"><path id="路径 4" fill-rule="evenodd" style="fill:rgb(56 126 254 / 100%)" opacity="1" d="M5.05,5.05c1.59,-1.59 3.42,-2.82 5.48,-3.69c2.14,-0.91 4.37,-1.36 6.71,-1.36c2.34,0 4.57,0.45 6.71,1.36c2.06,0.87 3.89,2.1 5.48,3.69c1.59,1.59 2.82,3.42 3.69,5.48c0.91,2.14 1.36,4.37 1.36,6.71c0,2.34 -0.45,4.57 -1.36,6.71c-0.87,2.06 -2.1,3.89 -3.69,5.48c-1.59,1.59 -3.42,2.82 -5.48,3.69c-2.14,0.91 -4.37,1.36 -6.71,1.36c-2.34,0 -4.57,-0.45 -6.71,-1.36c-2.06,-0.87 -3.89,-2.1 -5.48,-3.69c-1.59,-1.59 -2.82,-3.42 -3.69,-5.48c-0.91,-2.14 -1.36,-4.37 -1.36,-6.71c0,-2.34 0.45,-4.57 1.36,-6.71c0.87,-2.06 2.1,-3.89 3.69,-5.48zM10.92,32.2c2.01,0.85 4.12,1.28 6.32,1.28c2.2,0 4.31,-0.43 6.32,-1.28c1.94,-0.82 3.66,-1.98 5.16,-3.48c1.5,-1.5 2.66,-3.22 3.48,-5.16c0.85,-2.01 1.28,-4.12 1.28,-6.32c0,-2.2 -0.43,-4.31 -1.28,-6.32c-0.82,-1.94 -1.98,-3.66 -3.48,-5.16c-1.5,-1.5 -3.22,-2.66 -5.16,-3.48c-2.01,-0.85 -4.12,-1.28 -6.32,-1.28c-2.2,0 -4.31,0.43 -6.32,1.28c-1.94,0.82 -3.66,1.98 -5.16,3.48c-1.5,1.5 -2.66,3.22 -3.48,5.16c-0.85,2.01 -1.28,4.12 -1.28,6.32c0,2.2 0.43,4.31 1.28,6.32c0.82,1.94 1.98,3.66 3.48,5.16c1.5,1.5 3.22,2.66 5.16,3.48z"></path><path id="路径 1" fill-rule="evenodd" style="fill:rgb(56 126 254 / 100%)" opacity="1" d="M4.68506,17.241c0,-1.73 1.41,-3.14 3.14,-3.14c1.73,0 3.14004,1.41 3.14004,3.14c0,1.73 -1.41004,3.14 -3.14004,3.14c-1.76,0 -3.14,-1.4 -3.14,-3.14z"></path><path id="路径 2" fill-rule="evenodd" style="fill:rgb(56 126 254 / 100%)" opacity="1" d="M23.5175,17.241c0,-1.73 1.41,-3.14 3.14,-3.14c1.73,0 3.14,1.41 3.14,3.14c0,1.73 -1.41,3.14 -3.14,3.14c-1.73,0 -3.14,-1.41 -3.14,-3.14z"></path></g></g></svg>