<svg xmlns="http://www.w3.org/2000/svg" xmlns:xlink="http://www.w3.org/1999/xlink" width="24" height="25" viewBox="0 0 24 25" fill="none"><defs><path id="path_0"
        transform="translate(0 0) rotate(0 9.751264989169385 6.938674948408335)"
        d="M19.23,8.55C19.23,5.93 18.17,3.54 16.41,1.79C14.65,0.05 12.25,0 9.61,0C4.34,0 0,3.31 0,8.55L0,8.78L0,12.88L19.5,13.88L19.5,12.88L19.5,11.88L19.5,10.88L19,8.78L19.23,8.78L19.23,8.55Z" /><linearGradient id="linear_0" x1="0%" y1="6.314%" x2="74.886%" y2="68.708%" gradientUnits="objectBoundingBox"><stop offset="0" stop-color="#75CFFF" stop-opacity="1" /><stop offset="1" stop-color="#FFFFFF" stop-opacity="0" /></linearGradient></defs><g opacity="1" transform="translate(-0.00004622284359356854 0.000038112152651592623)  rotate(0 11.999573643410786 12.000340924542853)"><g opacity="1" transform="translate(2.7585995583585827 1.4151000687897977)  rotate(0 9.751264989169385 6.938674948408335)"><mask id="mask-0" fill="white"><use xlink:href="#path_0"></use></mask><g mask="url(#mask-0)"><path id="圆形 3" fill-rule="evenodd" fill="url(#linear_0)" transform="translate(7.1125299783384435 -2.0326501031840962)  rotate(-45.109728464584094 7.46896029244464 7.46896029244464)" opacity="1" d="M7.47,0C3.34,0 0,3.34 0,7.47C0,11.59 3.34,14.94 7.47,14.94C11.59,14.94 14.94,11.59 14.94,7.47C14.94,3.34 11.59,0 7.47,0Z " /></g></g><path id="路径 7 (轮廓)" fill-rule="evenodd" style="fill:#383838" transform="translate(12.653746770025919 17.130681849085704)  rotate(0 4.85 3.435)" opacity="1" d="M7.36,2.17C7.14,2.7 6.83,3.17 6.43,3.58C6.03,3.98 5.57,4.3 5.06,4.52C4.53,4.75 3.98,4.87 3.41,4.87L0,4.87L0,6.87L3.41,6.87C4.26,6.87 5.08,6.7 5.86,6.36C6.61,6.03 7.28,5.57 7.86,4.97C8.44,4.38 8.89,3.7 9.2,2.94C9.53,2.15 9.7,1.32 9.7,0.46L9.7,0L7.7,0L7.7,0.46C7.7,1.05 7.59,1.62 7.36,2.17Z " /><g opacity="1" transform="translate(0 0)  rotate(0 11.999573643410786 9.469292109425242)"><path id="路径 6 (轮廓)" fill-rule="evenodd" style="fill:#383838" transform="translate(1.7054263565892143 0)  rotate(0 10.325 5.39)" opacity="1" d="M3.03,3.11C2.08,4.09 1.34,5.2 0.81,6.46C0.27,7.77 0,9.13 0,10.55L0,10.78L2,10.78L2,10.55C2,9.4 2.22,8.29 2.66,7.23C3.09,6.21 3.69,5.3 4.46,4.51C5.23,3.72 6.11,3.11 7.11,2.67C8.13,2.22 9.2,2 10.32,2C11.44,2 12.52,2.22 13.54,2.66C14.54,3.09 15.43,3.7 16.21,4.49C16.98,5.29 17.58,6.2 18,7.22C18.43,8.28 18.65,9.39 18.65,10.55L18.65,10.78L20.65,10.78L20.65,10.55C20.65,9.13 20.38,7.77 19.85,6.46C19.33,5.2 18.59,4.07 17.63,3.09C16.67,2.11 15.57,1.36 14.33,0.82C13.06,0.27 11.72,0 10.32,0C8.93,0 7.59,0.28 6.31,0.84C5.08,1.38 3.98,2.13 3.03,3.11Z " /><path id="路径 8 (轮廓)" fill-rule="evenodd" style="fill:#383838" transform="translate(0 9.778584218850483)  rotate(0 2.705 4.58)" opacity="1" d="M2.71 0C2.35 0 2 0.07 1.67 0.21C1.34 0.35 1.06 0.55 0.81 0.8C0.55 1.05 0.36 1.34 0.22 1.67C0.07 2.01 0 2.37 0 2.75L0 6.41C0 6.77 0.07 7.12 0.2 7.45C0.34 7.78 0.53 8.07 0.77 8.32C1.02 8.58 1.3 8.79 1.63 8.93C1.97 9.08 2.33 9.16 2.71 9.16C3.08 9.16 3.44 9.09 3.77 8.95C4.1 8.81 4.39 8.61 4.64 8.35C4.88 8.1 5.07 7.81 5.21 7.47C5.34 7.14 5.41 6.78 5.41 6.41L5.41 2.75C5.41 2.39 5.34 2.04 5.21 1.7C5.07 1.38 4.89 1.09 4.64 0.83C4.4 0.57 4.11 0.37 3.79 0.23C3.44 0.08 3.09 0 2.71 0ZM2.22 6.94C2.07 6.79 2 6.62 2 6.41L2 2.75C2 2.54 2.07 2.36 2.22 2.21C2.36 2.07 2.52 2 2.71 2C2.9 2 3.06 2.07 3.2 2.21C3.34 2.36 3.41 2.54 3.41 2.75L3.41 6.41C3.41 6.63 3.34 6.82 3.2 6.96C3.07 7.09 2.91 7.16 2.71 7.16C2.52 7.16 2.35 7.09 2.22 6.94Z" /><path id="路径 9 (轮廓)" fill-rule="evenodd" style="fill:#383838" transform="translate(18.58914728682157 9.778584218850483)  rotate(0 2.705 4.58)" opacity="1" d="M0.81 0.8C1.06 0.55 1.34 0.35 1.67 0.21C2 0.07 2.35 0 2.71 0C3.09 0 3.44 0.08 3.79 0.23C4.11 0.37 4.4 0.57 4.64 0.83C4.89 1.09 5.07 1.38 5.21 1.7C5.34 2.04 5.41 2.39 5.41 2.75L5.41 6.41C5.41 6.78 5.34 7.14 5.21 7.47C5.07 7.81 4.88 8.1 4.64 8.35C4.39 8.61 4.1 8.81 3.77 8.95C3.44 9.09 3.08 9.16 2.71 9.16C2.33 9.16 1.97 9.08 1.63 8.93C1.3 8.79 1.02 8.58 0.77 8.32C0.53 8.07 0.34 7.78 0.2 7.45C0.07 7.12 0 6.77 0 6.41L0 2.75C0 2.37 0.07 2.01 0.22 1.67C0.36 1.34 0.55 1.05 0.81 0.8ZM2.71 7.16C2.91 7.16 3.07 7.09 3.2 6.96C3.34 6.82 3.41 6.63 3.41 6.41L3.41 2.75Q3.41 2.435 3.2 2.21C3.06 2.07 2.9 2 2.71 2C2.52 2 2.36 2.07 2.22 2.21C2.07 2.36 2 2.54 2 2.75L2 6.41C2 6.62 2.07 6.79 2.22 6.94C2.35 7.09 2.52 7.16 2.71 7.16Z" /></g><path id="路径 10" fill-rule="evenodd" style="fill:#383838" transform="translate(10.114820874315228 21)  rotate(0 1.9395277890106122 1.0000000000000004)" opacity="1" d="M3.88,1.35L3.88,0.65C3.88,0.29 3.58,0 3.2,0L0.68,0C0.3,0 0,0.29 0,0.65L0,1.35C0,1.71 0.3,2 0.68,2L3.2,2C3.58,2 3.88,1.71 3.88,1.35Z " /><path id="路径 10 (轮廓)" fill-rule="evenodd" style="fill:#383838" transform="translate(9.114820874315228 20)  rotate(0 2.94 2)" opacity="1" d="M5.74,3C5.83,2.8 5.88,2.58 5.88,2.35L5.88,1.65C5.88,1.42 5.83,1.2 5.74,1C5.66,0.8 5.53,0.62 5.37,0.47C5.05,0.16 4.66,0 4.2,0L1.68,0C1.22,0 0.83,0.16 0.51,0.47C0.35,0.62 0.22,0.8 0.14,1C0.05,1.2 0,1.42 0,1.65L0,2.35C0,2.58 0.05,2.8 0.14,3C0.22,3.2 0.35,3.38 0.51,3.53C0.83,3.84 1.22,4 1.68,4L4.2,4C4.66,4 5.05,3.84 5.37,3.53C5.53,3.38 5.66,3.2 5.74,3Z " /></g></svg>