<svg xmlns="http://www.w3.org/2000/svg" xmlns:xlink="http://www.w3.org/1999/xlink" width="20" height="20" viewBox="0 0 20 20" fill="none"><g opacity="1" transform="translate(0.0001109182398977282 0)  rotate(0 9.437582692944556 9.522957701947135)"><g opacity="1" transform="translate(0 0)  rotate(0 9.437582692944556 9.522957701947135)"><path id="矩形 5 (轮廓)" fill-rule="evenodd" style="fill:#387EFE" transform="translate(2.1657007628085356 0.35084581007174204)  rotate(0 7.669373294081639 5.159168391328479)" opacity="1" d="M3.16,3.18C3.75,2.57 4.44,2.11 5.22,1.78C6.01,1.45 6.82,1.29 7.67,1.29C8.52,1.29 9.33,1.45 10.12,1.78C10.9,2.11 11.59,2.58 12.19,3.19C12.79,3.79 13.25,4.48 13.57,5.27C13.9,6.06 14.06,6.88 14.06,7.74L14.06,8.66L15.34,8.66L15.34,7.74C15.34,5.69 14.53,3.71 13.09,2.27C11.66,0.81 9.7,0 7.67,0C5.64,0 3.68,0.81 2.25,2.27C0.81,3.71 0,5.69 0,7.74L0,8.66L1.28,8.66L1.28,7.74C1.28,6.88 1.44,6.06 1.76,5.27C2.09,4.48 2.55,3.78 3.16,3.18Z " /><path id="矩形 5 (轮廓)" fill-rule="evenodd" style="fill:#387EFE" transform="translate(0.2483574392879886 8.089598397064462)  rotate(0 2.5564577646938798 3.2244802445802994)" opacity="1" d="M0.75 0.76C1.23 0.27 1.88 0 2.56 0C3.23 0 3.89 0.27 4.36 0.76C4.84 1.24 5.11 1.9 5.11 2.58L5.11 3.87C5.11 4.55 4.84 5.21 4.36 5.69C3.89 6.18 3.23 6.45 2.56 6.45C1.88 6.45 1.23 6.18 0.75 5.69C0.27 5.21 0 4.55 0 3.87L0 2.58C0 1.9 0.27 1.24 0.75 0.76ZM1.65 4.76L1.66 4.78L1.67 4.79C1.91 5.04 2.2 5.16 2.56 5.16C2.91 5.16 3.2 5.04 3.44 4.79L3.45 4.78L3.47 4.76C3.71 4.52 3.83 4.22 3.83 3.87L3.83 2.58C3.83 2.22 3.71 1.93 3.47 1.69L3.45 1.67L3.44 1.66C3.2 1.41 2.91 1.29 2.56 1.29C2.2 1.29 1.91 1.41 1.67 1.66L1.66 1.67L1.65 1.69C1.4 1.93 1.28 2.22 1.28 2.58L1.28 3.87C1.28 4.22 1.4 4.52 1.65 4.76Z" /><path id="矩形 5 (轮廓)" fill-rule="evenodd" style="fill:#387EFE" transform="translate(9.835074056890218 13.51939516209568)  rotate(0 3.8346866470408196 2.766718033270901)" opacity="1" d="M2.45,3.75C1.66,4.08 0.85,4.24 0,4.24L0,5.53C2.03,5.53 3.99,4.72 5.42,3.26C6.14,2.55 6.7,1.83 7.08,1.05C7.47,0.25 7.67,1.03 7.67,0L6.39,0C6.39,0.86 6.23,-0.53 5.91,0.26C5.58,1.05 5.12,1.75 4.51,2.36C3.92,2.96 3.23,3.43 2.45,3.75Z " /><path id="矩形 5 (轮廓)" fill-rule="evenodd" style="fill:#387EFE" transform="translate(14.308875145104324 8.089598397064462)  rotate(0 2.5564577646938798 3.2244802445802994)" opacity="1" d="M0 3.87L0 2.58C0 1.9 0.27 1.24 0.75 0.76C1.23 0.27 1.88 0 2.56 0C3.23 0 3.89 0.27 4.36 0.76C4.84 1.24 5.11 1.9 5.11 2.58L5.11 3.87C5.11 4.55 4.84 5.21 4.36 5.69C3.89 6.18 3.23 6.45 2.56 6.45C1.88 6.45 1.23 6.18 0.75 5.69C0.27 5.21 0 4.55 0 3.87ZM3.83 3.87L3.83 2.58C3.83 2.22 3.71 1.93 3.47 1.69L3.45 1.67L3.44 1.66C3.2 1.41 2.91 1.29 2.56 1.29C2.2 1.29 1.91 1.41 1.67 1.66L1.66 1.67L1.65 1.69C1.4 1.93 1.28 2.22 1.28 2.58L1.28 3.87C1.28 4.22 1.4 4.52 1.65 4.76L1.66 4.78L1.67 4.79C1.91 5.04 2.2 5.16 2.56 5.16C2.91 5.16 3.2 5.04 3.44 4.79L3.45 4.78L3.47 4.76C3.71 4.52 3.83 4.22 3.83 3.87Z" /><path id="圆形 3" fill-rule="evenodd" style="fill:#387EFE" transform="translate(8.5568451745431 17.1181430818893)  rotate(0 1.2782288823469399 1.2897920978321202)" opacity="1" d="M1.28,0C0.57,0 0,0.58 0,1.29C0,2 0.57,2.58 1.28,2.58C1.98,2.58 2.56,2 2.56,1.29C2.56,0.58 1.98,0 1.28,0Z " /></g></g></svg>