<svg xmlns="http://www.w3.org/2000/svg" xmlns:xlink="http://www.w3.org/1999/xlink" width="37.67999815940857" height="32.659999549388885" viewBox="0 0 37.67999815940857 32.659999549388885" fill="none"><path id="离线" fill-rule="evenodd" style="fill:#808080" opacity="1" d="M0.38001,31.1599l17.58999,-30.47997c0.38,-0.68 1.36,-0.68 1.74,0l17.59,30.47997c0.38,0.66 -0.09,1.5 -0.86,1.5h-35.19999c-0.77,0 -1.24,-0.84 -0.86,-1.5zM16.9797,13.55v7.1799c0,0.7701 0.83,1.3901 1.86,1.3901c1.03,0 1.86,-0.62 1.86,-1.3901v-7.1799c-0.03,-0.75 -0.85,-1.35 -1.86,-1.35c-1,0 -1.83,0.6 -1.86,1.35zM20.6997,26.4599c0,-1.03 -0.83,-1.86 -1.86,-1.86c-1.03,0 -1.86,0.83 -1.86,1.86c0,1.03 0.83,1.86 1.86,1.86c1.03,0 1.86,-0.83 1.86,-1.86z"></path></svg>