<svg xmlns="http://www.w3.org/2000/svg" xmlns:xlink="http://www.w3.org/1999/xlink" viewBox="0 0 24.33 23.12"><defs><style>.cls-1{fill:none;}.cls-2{clip-path:url(#clip-path);}.cls-3{fill-rule:evenodd;fill:url(#未命名的渐变_111);}.cls-4{fill:#383838;}</style><clipPath id="clip-path" transform="translate(0 1.03)"><path class="cls-1" d="M5.8,0A1.27,1.27,0,0,0,4.56,1L3.17,7.64a.37.37,0,0,1-.3.29A3.82,3.82,0,0,0,0,11.63v6.63a3.83,3.83,0,0,0,7.63.4A.37.37,0,0,1,8,18.3h8a.37.37,0,0,1,.37.36,3.82,3.82,0,0,0,3.81,3.43h.19a4,4,0,0,0,3.63-4V11.66A3.82,3.82,0,0,0,22.88,9a3.93,3.93,0,0,0-1.76-1,.39.39,0,0,1-.3-.29L19.44,1A1.27,1.27,0,0,0,18.2,0V0Z"/></clipPath><linearGradient id="未命名的渐变_111" x1="190.71" y1="886.56" x2="205.21" y2="887.91" gradientTransform="matrix(1, 0, 0, -1, -180.94, 893.66)" gradientUnits="userSpaceOnUse"><stop offset="0" stop-color="#75cfff"/><stop offset="1" stop-color="#fff" stop-opacity="0"/></linearGradient></defs><g id="图层_2" data-name="图层 2"><g id="图层_1-2" data-name="图层 1"><g class="cls-2"><g id="mask-0"><path class="cls-1" d="M5.8,0A1.27,1.27,0,0,0,4.56,1L3.17,7.64a.37.37,0,0,1-.3.29A3.82,3.82,0,0,0,0,11.63v6.63a3.83,3.83,0,0,0,7.63.4A.37.37,0,0,1,8,18.3h8a.37.37,0,0,1,.37.36,3.82,3.82,0,0,0,3.81,3.43h.19a4,4,0,0,0,3.63-4V11.66A3.82,3.82,0,0,0,22.88,9a3.93,3.93,0,0,0-1.76-1,.39.39,0,0,1-.3-.29L19.44,1A1.27,1.27,0,0,0,18.2,0V0Z" transform="translate(0 1.03)"/></g><path id="圆形_3" data-name="圆形 3" class="cls-3" d="M11.57,1.16a7.47,7.47,0,1,0,10.56,0A7.46,7.46,0,0,0,11.57,1.16Z" transform="translate(0 1.03)"/></g><path class="cls-4" d="M17.61,2l1.26,6.05a2.37,2.37,0,0,0,1.76,1.82,2,2,0,0,1,.84.47A1.85,1.85,0,0,1,22,11.63v6.43a2,2,0,0,1-1.72,2h-.1a1.82,1.82,0,0,1-1.82-1.64A2.38,2.38,0,0,0,16,16.3H8a2.38,2.38,0,0,0-2.36,2.15A1.82,1.82,0,0,1,2,18.26V11.63A1.82,1.82,0,0,1,3.37,9.87,2.39,2.39,0,0,0,5.13,8.05L6.4,2H17.61m.59-2H5.81A1.26,1.26,0,0,0,4.57,1L3.17,7.64a.38.38,0,0,1-.29.29A3.82,3.82,0,0,0,0,11.63v6.63a3.83,3.83,0,0,0,7.63.4A.38.38,0,0,1,8,18.3h8a.38.38,0,0,1,.37.36,3.83,3.83,0,0,0,3.81,3.43h.2a4,4,0,0,0,3.62-4V11.63a3.82,3.82,0,0,0-2.88-3.7.38.38,0,0,1-.29-.29L19.44,1A1.26,1.26,0,0,0,18.2,0Z" transform="translate(0 1.03)"/><rect class="cls-4" x="7.59" y="11.34" width="8" height="2" rx="1"/></g></g></svg>