<?xml version="1.0" standalone="no"?><!DOCTYPE svg PUBLIC "-//W3C//DTD SVG 1.1//EN" "http://www.w3.org/Graphics/SVG/1.1/DTD/svg11.dtd"><svg t="1687761509894" class="icon" viewBox="0 0 1024 1024" version="1.1" xmlns="http://www.w3.org/2000/svg" p-id="4310" width="64" height="64" xmlns:xlink="http://www.w3.org/1999/xlink"><path d="M663.424 345.536a4.8 4.8 0 0 0 0.096-7.072h-0.096l-30.528-28.192a5.728 5.728 0 0 0-7.648 0l-25.728 23.904 38.176 35.264 25.728-23.904zM584.384 418.752l-38.24-35.296-190.496 176.192-16.352 45.504 57.376-12.896z" p-id="4311" data-spm-anchor-id="a313x.7781069.0.i6" class="selected" fill="#3a80fe"></path><path d="M512 0C170.656 0 0 170.656 0 512s170.656 512 512 512 512-170.656 512-512S853.344 0 512 0zM254.432 620.16l31.36-87.392c2.624-7.232 6.976-13.696 12.64-18.912l273.504-253.024a85.6 85.6 0 0 1 114.4 0l30.72 28.224a70.912 70.912 0 0 1 0.64 105.28l-0.416 0.352-0.672 0.512-271.04 250.752a53.824 53.824 0 0 1-24.576 12.8l-104.8 23.52a57.6 57.6 0 0 1-12.384 1.376 54.496 54.496 0 0 1-27.04-7.072 48.32 48.32 0 0 1-23.552-29.792 44.736 44.736 0 0 1 1.216-26.624z m497.888 164.896a37.664 37.664 0 0 1-5.376 0H276.64a39.232 39.232 0 0 1-26.688-10.24 33.152 33.152 0 0 1 0-49.408c7.296-6.656 16.832-10.304 26.688-10.24h470.336a35.072 35.072 0 0 1 5.344 69.888z" p-id="4312" data-spm-anchor-id="a313x.7781069.0.i5" class="selected" fill="#3a80fe"></path></svg>