<svg xmlns="http://www.w3.org/2000/svg" xmlns:xlink="http://www.w3.org/1999/xlink" width="14" height="14" viewBox="0 0 14 14" fill="none"><path id="路径 1" fill-rule="evenodd" style="fill:#0090FF" opacity="1" d="M13.87 11.82L10.85 8.81C10.68 8.64 10.39 8.64 10.22 8.81L9 10.03C9 10.03 7.35 10.28 5.52 8.46C3.69 6.63 3.94 4.98 3.94 4.98L4.44 4.49L5.16 3.77C5.34 3.6 5.34 3.31 5.16 3.14L2.46 0.44L2.14 0.13C1.97 -0.04 1.69 -0.04 1.51 0.13L0.82 0.82C0.8 0.84 0.77 0.87 0.75 0.9L0.71 0.97L0.71 0.97C0.51 1.21 0.34 1.48 0.22 1.79C-0.61 3.87 0.96 7.46 3.58 10.08C5.66 12.15 8.8 14 10.79 14C11.3 14 11.79 13.92 12.22 13.75C12.61 13.59 12.94 13.38 13.21 13.11L13.87 12.45C14.04 12.28 14.04 12 13.87 11.82Z"></path></svg>