<svg xmlns="http://www.w3.org/2000/svg" xmlns:xlink="http://www.w3.org/1999/xlink" width="16" height="15" viewBox="0 0 16 15" fill="none"><g opacity="1" transform="translate(-0.000006779474915674655 0.000732421875)  rotate(0 8.000000000000114 7.000000000000002)"><path id="路径 1" fill-rule="evenodd" style="fill:#387EFE" transform="translate(0 3.124008792187196)  rotate(0 8.000000000000114 5.437995603906404)" opacity="1" d="M10.4,5.06C10.4,4.66 10.55,4.32 10.86,4.04C11.17,3.76 11.55,3.63 12,3.63L16,3.63L16,1.45C16,1.05 15.84,0.71 15.53,0.42C15.22,0.14 14.84,0 14.4,0L1.6,0C1.16,0 0.78,0.14 0.47,0.42C0.16,0.71 0,1.05 0,1.45L0,9.42C0,9.62 0.04,9.81 0.13,9.99C0.22,10.17 0.34,10.32 0.49,10.45C0.65,10.59 0.82,10.69 1.02,10.76C1.22,10.84 1.43,10.88 1.66,10.88L14.45,10.88C14.67,10.88 14.88,10.84 15.07,10.76C15.25,10.69 15.42,10.59 15.56,10.45C15.7,10.32 15.81,10.17 15.89,9.99C15.96,9.81 16,9.62 16,9.42L16,6.52L12,6.52C11.59,6.52 11.27,6.44 11.06,6.29C10.84,6.14 10.68,5.98 10.59,5.8C10.47,5.58 10.41,5.34 10.4,5.06Z " /><path id="路径 2" fill-rule="evenodd" style="fill:#387EFE" transform="translate(5.603524229074969 0)  rotate(0 4.000000000000057 1.194680170279069)" opacity="1" d="M6.98,0.62C6.79,0.42 6.57,0.27 6.31,0.15C6.09,0.07 5.81,0.02 5.49,0C5.17,-0.01 4.8,0.08 4.39,0.28C4.12,0.41 3.74,0.59 3.26,0.82C2.78,1.06 2.29,1.29 1.8,1.53C1.23,1.8 0.63,2.09 0,2.39L8,2.39L6.98,0.62Z " /><path id="路径 3" fill-rule="evenodd" style="fill:#387EFE" transform="translate(11.20704845814994 7.468017027906849)  rotate(0 0.7929515418502323 0.7266631423722211)" opacity="1" d="M0.23,1.24C0.38,1.38 0.57,1.45 0.79,1.45C1.02,1.45 1.2,1.38 1.36,1.24C1.51,1.09 1.59,0.92 1.59,0.72C1.59,0.52 1.51,0.35 1.36,0.21C1.2,0.07 1.02,0 0.79,0C0.57,0 0.38,0.07 0.23,0.21C0.08,0.35 0,0.52 0,0.72C0,0.92 0.08,1.09 0.23,1.24Z " /></g></svg>