<svg xmlns="http://www.w3.org/2000/svg" xmlns:xlink="http://www.w3.org/1999/xlink" width="22" height="22" viewBox="0 0 22 22" fill="none"><path id="汽车" fill-rule="evenodd" style="fill:#0090FF" transform="translate(0 0)  rotate(0 11 11)" opacity="1" d="M22 11C22 17.08 17.08 22 11 22C4.92 22 0 17.08 0 11C0 4.92 4.92 0 11 0C17.08 0 22 4.92 22 11ZM9.7802 14.4227C9.7802 14.4927 9.8302 14.5327 9.88021 14.5327L12.1102 14.5327C12.1602 14.5327 12.2102 14.4827 12.2102 14.4227L12.2102 14.3227C12.2102 12.9227 13.3302 11.7927 14.7402 11.7927C16.1402 11.7927 17.2702 12.9327 17.2702 14.3227L17.2702 14.4227C17.2602 14.4927 17.3102 14.5327 17.3702 14.5327L17.9402 14.5327C18.0602 14.5327 18.1502 14.4327 18.1502 14.3227L18.1502 10.9227C18.1502 10.0027 17.4802 9.60269 17.2302 9.46269L17.1702 9.43269C17.1402 9.42269 17.1202 9.39269 17.1102 9.36269L17.0902 9.30269C17.0002 8.97269 16.7702 8.32269 16.2602 7.69269C15.5902 6.85269 14.3402 5.85269 12.0502 5.85269C8.4802 5.85269 7.3102 7.44269 6.9602 8.13269L6.9402 8.18269C6.9202 8.21269 6.9002 8.23269 6.8702 8.23269L6.8102 8.25269C6.1302 8.45269 3.8502 9.27269 3.8502 11.2427L3.8502 14.2227C3.8502 14.4027 3.9902 14.5327 4.1602 14.5327L4.6202 14.5327C4.6802 14.5327 4.7202 14.4827 4.7202 14.4227L4.7202 14.3227C4.7202 12.9227 5.8602 11.7927 7.2502 11.7927C8.6602 11.7927 9.7802 12.9327 9.7802 14.3227L9.7802 14.4227ZM11.1554 9.9374C11.6354 9.9374 11.6954 9.4774 11.7054 9.4174L11.7054 6.8974C11.7054 6.7574 11.5854 6.7174 11.5554 6.7174C9.44543 6.7774 8.51543 7.5474 8.03543 8.1374C7.85543 8.3674 7.80543 8.5074 7.72543 8.7374C7.71543 8.7674 7.70543 8.7974 7.67543 8.7974C7.29543 9.0074 7.64543 9.9374 9.48543 9.9374L11.1554 9.9374ZM12.8881 9.93462L15.9281 9.93462C16.2281 9.93462 16.3281 9.78462 16.2281 9.44462C16.1181 9.14462 16.0181 8.71462 15.6781 8.27462C15.1681 7.61462 14.2081 6.85462 12.5381 6.73462C12.4581 6.72462 12.3981 6.78462 12.3981 6.87462L12.3981 9.34462L12.3881 9.34462C12.3881 9.69462 12.5081 9.93462 12.8881 9.93462ZM7.8178 11.1611C8.0278 11.1611 8.2078 10.9911 8.2078 10.7911C8.2078 10.5911 8.0378 10.4311 7.8178 10.4311L6.6978 10.4311C6.4878 10.4311 6.3078 10.5911 6.3078 10.7911C6.3078 10.9911 6.4878 11.1611 6.6978 11.1611L7.8178 11.1611ZM7.26309 12.5064C8.26309 12.5064 9.08309 13.3264 9.08309 14.3264C9.08309 15.3264 8.26309 16.1464 7.26309 16.1464C6.26309 16.1464 5.44309 15.3264 5.44309 14.3264C5.44309 13.3264 6.26309 12.5064 7.26309 12.5064ZM14.736 12.5064C15.736 12.5064 16.556 13.3264 16.556 14.3264C16.556 15.3264 15.736 16.1464 14.736 16.1464C13.736 16.1464 12.916 15.3264 12.916 14.3264C12.916 13.3264 13.736 12.5064 14.736 12.5064Z " /></svg>