<?xml version="1.0" standalone="no"?><!DOCTYPE svg PUBLIC "-//W3C//DTD SVG 1.1//EN" "http://www.w3.org/Graphics/SVG/1.1/DTD/svg11.dtd"><svg t="1686792992889" class="icon" viewBox="0 0 1024 1024" version="1.1" xmlns="http://www.w3.org/2000/svg" p-id="5223" xmlns:xlink="http://www.w3.org/1999/xlink" width="200" height="200"><path d="M938.7 469.3c-23.6 0-42.7 19.1-42.7 42.7 0 211.7-172.3 384-384 384-89.7 0-174-30.4-241.5-85.3h70.9c23.6 0 42.7-19.1 42.7-42.7s-19.1-42.7-42.7-42.7H170.7c-0.4 0-0.8 0.1-1.2 0.1-1.4 0-2.8 0.2-4.1 0.4-1.4 0.2-2.8 0.3-4.2 0.6-1.2 0.3-2.4 0.7-3.6 1.1-1.5 0.5-2.9 0.9-4.3 1.6-1 0.5-2 1.1-3 1.6-1.5 0.8-2.9 1.6-4.3 2.6-0.3 0.2-0.6 0.3-0.8 0.5-0.7 0.5-1.2 1.2-1.9 1.7-1.2 1-2.4 2.1-3.5 3.2-0.9 1-1.7 2-2.6 3.1-0.9 1.1-1.7 2.2-2.4 3.4-0.8 1.2-1.4 2.4-2 3.7-0.6 1.2-1.2 2.4-1.7 3.7-0.5 1.4-0.9 2.8-1.3 4.2-0.3 1.2-0.7 2.4-0.9 3.7-0.3 1.6-0.4 3.3-0.5 5 0 0.8-0.2 1.6-0.2 2.4v170.7c0 23.6 19.1 42.7 42.7 42.7s42.7-19.1 42.7-42.7v-64.4c83.1 68.9 187.5 107 298.7 107 258.8 0 469.3-210.5 469.3-469.3-0.3-23.5-19.4-42.6-42.9-42.6zM512 128c89.7 0 174 30.4 241.5 85.3h-70.9c-23.6 0-42.7 19.1-42.7 42.7s19.1 42.7 42.7 42.7h170.7c0.4 0 0.7-0.1 1.1-0.1 1.5 0 2.9-0.3 4.4-0.4 1.3-0.2 2.7-0.3 4-0.6 1.3-0.3 2.5-0.8 3.8-1.2 1.4-0.5 2.8-0.9 4.2-1.5 1.1-0.5 2.1-1.1 3.1-1.7 1.4-0.8 2.9-1.6 4.2-2.5 0.3-0.2 0.6-0.3 0.9-0.5 0.7-0.6 1.3-1.2 2-1.8 1.2-1 2.3-2 3.4-3.1 1-1 1.8-2.1 2.6-3.2s1.7-2.1 2.4-3.3c0.8-1.2 1.4-2.5 2-3.8 0.6-1.2 1.2-2.4 1.6-3.6 0.5-1.4 0.9-2.8 1.3-4.2 0.3-1.2 0.7-2.4 0.9-3.6 0.3-1.7 0.4-3.4 0.5-5 0-0.8 0.2-1.5 0.2-2.4V85.3c0-23.6-19.1-42.7-42.7-42.7s-42.7 19.1-42.7 42.7v64.4c-83.1-68.9-187.5-107-298.7-107C253.2 42.7 42.7 253.2 42.7 512c0 23.6 19.1 42.7 42.7 42.7S128 535.6 128 512c0-211.7 172.3-384 384-384z" fill="#252525" p-id="5224"></path></svg>