<svg xmlns="http://www.w3.org/2000/svg" xmlns:xlink="http://www.w3.org/1999/xlink" width="15.969970703125" height="12" viewBox="0 0 15.969999551773071 12" fill="none"><path id="分组 1" fill-rule="evenodd" style="fill:rgb(56 126 254 / 100%)" opacity="1" d="M12.05,0c3.92,0 3.92,12 0,12h-8.1c-3.95,0 -3.95,-12 0,-12zM6.23056,3.07437c0,-0.33 -0.26,-0.58999 -0.58,-0.58999c-0.33,0 -0.59,0.25999 -0.59,0.58999v2.34001c0,0.32 0.26,0.58999 0.59,0.58999c0.32,0 0.58,-0.26999 0.58,-0.58999zM10.9181,3.07437c0,-0.33 -0.26,-0.58999 -0.58,-0.58999c-0.33,0 -0.59004,0.25999 -0.59004,0.58999v2.34001c0,0.32 0.26004,0.58999 0.59004,0.58999c0.32,0 0.58,-0.26999 0.58,-0.58999zM9.15837,8.92781c0,-0.65 -0.52,-1.17 -1.17,-1.17c-0.64,0 -1.17,0.52 -1.17,1.17v0.59h2.34z"></path></svg>