<svg xmlns="http://www.w3.org/2000/svg" xmlns:xlink="http://www.w3.org/1999/xlink" width="26" height="26" viewBox="0 0 26 26" fill="none"><g opacity="1" transform="translate(0 0)  rotate(0 12.999999999999986 13.000000000000044)"><path id="路径 1" fill-rule="evenodd" style="fill:#FFFFFF" transform="translate(17.789473677458428 0)  rotate(0 4.105263161270771 4.105263161270789)" opacity="1" d="M5.82,2.05C6,2.05 6.16,2.21 6.16,2.39L6.16,7.18C6.16,7.75 6.62,8.21 7.18,8.21C7.75,8.21 8.21,7.75 8.21,7.18L8.21,2.39C8.21,1.07 7.14,0 5.82,0L1.03,0C0.46,0 0,0.46 0,1.03C0,1.59 0.46,2.05 1.03,2.05L5.82,2.05Z " /><path id="路径 2" fill-rule="evenodd" style="fill:#FFFFFF" transform="translate(17.789473677458428 17.789473677458506)  rotate(0 4.105263161270771 4.105263161270789)" opacity="1" d="M6.16,5.82C6.16,6 6,6.16 5.82,6.16L1.03,6.16C0.46,6.16 0,6.62 0,7.18C0,7.75 0.46,8.21 1.03,8.21L5.82,8.21C7.14,8.21 8.21,7.14 8.21,5.82L8.21,1.03C8.21,0.46 7.75,0 7.18,0C6.62,0 6.16,0.46 6.16,1.03L6.16,5.82Z " /><path id="路径 3" fill-rule="evenodd" style="fill:#FFFFFF" transform="translate(0 17.78947367745851)  rotate(0 4.105263161270771 4.105263161270789)" opacity="1" d="M7.18,8.21C7.75,8.21 8.21,7.75 8.21,7.18C8.21,6.62 7.75,6.16 7.18,6.16L2.39,6.16C2.21,6.16 2.05,6 2.05,5.82L2.05,1.03C2.05,0.46 1.59,0 1.03,0C0.46,0 0,0.46 0,1.03L0,5.82C0,7.14 1.07,8.21 2.39,8.21L7.18,8.21Z " /><path id="路径 4" fill-rule="evenodd" style="fill:#FFFFFF" transform="translate(0 0)  rotate(0 4.10526316127077 4.10526316127079)" opacity="1" d="M2.39,2.05L7.18,2.05C7.75,2.05 8.21,1.59 8.21,1.03C8.21,0.46 7.75,0 7.18,0L2.39,0C1.07,0 0,1.07 0,2.39L0,7.18C0,7.75 0.46,8.21 1.03,8.21C1.59,8.21 2.05,7.75 2.05,7.18L2.05,2.39C2.05,2.21 2.21,2.05 2.39,2.05Z " /><path id="路径 5" fill-rule="evenodd" style="fill:#FFFFFF" transform="translate(2.736842096823058 11.973684209682348)  rotate(0 10.263157903176927 1.0263157903176972)" opacity="1" d="M1.03,0C0.46,0 0,0.46 0,1.03C0,1.59 0.46,2.05 1.03,2.05L19.5,2.05C20.07,2.05 20.53,1.59 20.53,1.03C20.53,0.46 20.07,0 19.5,0L1.03,0Z " /></g></svg>