<svg xmlns="http://www.w3.org/2000/svg" xmlns:xlink="http://www.w3.org/1999/xlink" width="27" height="27" viewBox="0 0 27 27" fill="none"><g opacity="1" transform="translate(0 0)  rotate(0 13.000000000000004 13.000000000000005)"><path id="路径 1" fill-rule="evenodd" style="fill:#FFFFFF" transform="translate(6.845000295111863 4.588235294117647)  rotate(0 6.154999704888133 8.41176470588235)" opacity="1" d="M0.04,9.01C-0.11,9.41 0.18,9.85 0.62,9.85L3.92,9.85L2.28,16.05C2.11,16.68 2.91,17.1 3.34,16.61L12.16,6.56C12.5,6.16 12.22,5.54 11.69,5.54L8.1,5.54L10.01,0.85C10.17,0.44 9.87,0 9.44,0L3.9,0C3.64,0 3.41,0.16 3.32,0.4L0.04,9.01Z " /><g opacity="1" transform="translate(0 0)  rotate(0 13.000000000000004 13.000000000000005)"><path id="路径 2" fill-rule="evenodd" style="fill:#FFFFFF" transform="translate(15.999970407718127 17.001860599747687)  rotate(0 4.999998778414308 4.499069700126162)" opacity="1" d="M7,7L1,7C0.45,7 0,7.44 0,8C0,8.55 0.45,9 1,9L7.01,9C8.66,9 10.01,7.65 10,6L10,1C10,0.45 9.55,0 9,0C8.45,0 8,0.45 8,1L8,6C8,6.55 7.55,7 7,7Z " /><path id="路径 3" fill-rule="evenodd" style="fill:#FFFFFF" transform="translate(0 17.001860630996482)  rotate(0 4.4999917074491895 4.499069684501767)" opacity="1" d="M8,9C8.55,9 9,8.55 9,8C9,7.44 8.55,7 8,7L3,7C2.45,7 2,6.55 2,6L2,1C2,0.45 1.55,0 1,0C0.45,0 0,0.45 0,1L0,6C0,7.65 1.34,9 3,9L8,9Z " /><path id="路径 4" fill-rule="evenodd" style="fill:#FFFFFF" transform="translate(0 0)  rotate(0 4.499991691821594 4.499069684501764)" opacity="1" d="M8,0L3,0C1.34,0 0,1.34 0,3L0,8C0,8.55 0.45,9 1,9C1.55,9 2,8.55 2,8L2,3C2,2.45 2.45,2 3,2L8,2C8.55,2 9,1.55 9,1C9,0.45 8.55,0 8,0Z " /><path id="路径 5" fill-rule="evenodd" style="fill:#FFFFFF" transform="translate(15.999970407718127 0)  rotate(0 5.000014796140938 4.499069684501767)" opacity="1" d="M0,1C0,1.55 0.45,2 1,2L7.01,2C7.56,2 8.01,2.45 8.01,3L8.01,8C8.01,8.55 8.45,9 9.01,9C9.56,9 10.01,8.55 10,8L10,3C10,1.34 8.66,0 7,0L1,0C0.45,0 0,0.45 0,1Z " /></g></g></svg>