<svg xmlns="http://www.w3.org/2000/svg" xmlns:xlink="http://www.w3.org/1999/xlink" width="16" height="16" viewBox="0 0 16 16" fill="none"><defs><rect id="path_0" x="0" y="0" width="16" height="16" /></defs><g opacity="1" transform="translate(0 0)  rotate(0 8 8)"><mask id="bg-mask-0" fill="white"><use xlink:href="#path_0"></use></mask><g mask="url(#bg-mask-0)" ><g opacity="1" transform="translate(1.6666666718749998 1.6666666718749996)  rotate(0 6.333333328125001 6.333333328125001)"><path id="路径 1" fill-rule="evenodd" style="fill:#999999" transform="translate(8.666666656250001 2.220446049250313e-16)  rotate(0 2 1.9999999999999998)" opacity="1" d="M2.83,0L0.5,0C0.22,0 0,0.22 0,0.5C0,0.78 0.22,1 0.5,1L2.83,1C2.93,1 3,1.07 3,1.17L3,3.5C3,3.78 3.22,4 3.5,4C3.78,4 4,3.78 4,3.5L4,1.17C4,0.52 3.48,0 2.83,0Z " /><path id="路径 2" fill-rule="evenodd" style="fill:#999999" transform="translate(8.666666656250001 8.66666665625)  rotate(0 2 2)" opacity="1" d="M3,2.83C3,2.93 2.93,3 2.83,3L0.5,3C0.22,3 0,3.22 0,3.5C0,3.78 0.22,4 0.5,4L2.83,4C3.48,4 4,3.48 4,2.83L4,0.5C4,0.22 3.78,0 3.5,0C3.22,0 3,0.22 3,0.5L3,2.83Z " /><path id="路径 3" fill-rule="evenodd" style="fill:#999999" transform="translate(0 8.666666656250001)  rotate(0 2 2)" opacity="1" d="M1,2.83L1,0.5C1,0.22 0.78,0 0.5,0C0.22,0 0,0.22 0,0.5L0,2.83C0,3.48 0.52,4 1.17,4L3.5,4C3.78,4 4,3.78 4,3.5C4,3.22 3.78,3 3.5,3L1.17,3C1.07,3 1,2.93 1,2.83Z " /><path id="路径 4" fill-rule="evenodd" style="fill:#999999" transform="translate(0 0)  rotate(0 1.9999999999999998 2.0000000000000004)" opacity="1" d="M1,1.17C1,1.07 1.07,1 1.17,1L3.5,1C3.78,1 4,0.78 4,0.5C4,0.22 3.78,0 3.5,0L1.17,0C0.52,0 0,0.52 0,1.17L0,3.5C0,3.78 0.22,4 0.5,4C0.78,4 1,3.78 1,3.5L1,1.17Z " /><path id="路径 5" fill-rule="evenodd" style="fill:#999999" transform="translate(1.3333333281250002 5.833333328125001)  rotate(0 5 0.5)" opacity="1" d="M0.5,0C0.22,0 0,0.22 0,0.5C0,0.78 0.22,1 0.5,1L9.5,1C9.78,1 10,0.78 10,0.5C10,0.22 9.78,0 9.5,0L0.5,0Z " /></g></g></g></svg>