<svg xmlns="http://www.w3.org/2000/svg" xmlns:xlink="http://www.w3.org/1999/xlink" width="14" height="13" viewBox="0 0 14 13" fill="none"><g opacity="1" transform="translate(0 0)  rotate(0 6.915121951219512 6.382813989890831)"><path id="路径 1" fill-rule="evenodd" style="fill:#808080" transform="translate(0 0)  rotate(0 5.624405360810815 6.382813989890831)" opacity="1" d="M7.31,6.34L11.06,1.44C11.37,1.05 11.29,0.49 10.9,0.19C10.74,0.07 10.55,0 10.35,0L0.9,0C0.4,0 0,0.4 0,0.9L0,0.92C0,1.11 0.07,1.29 0.19,1.45L3.97,6.36L3.97,10.69C3.97,11.15 4.23,11.58 4.63,11.79L6.3,12.69C6.64,12.86 7.05,12.74 7.23,12.4L7.23,12.39C7.28,12.29 7.31,12.19 7.31,12.08L7.31,6.34Z " /><path id="路径 2" fill-rule="evenodd" style="fill:#808080" transform="translate(8.442692682926827 10.846828125871658)  rotate(0 2.6937756097560985 0.4669140625000008)" opacity="1" d="M0.47,0L0.46,0C0.2,0.01 0,0.21 0,0.47C0,0.72 0.21,0.93 0.47,0.93L4.92,0.93L4.93,0.93C5.18,0.93 5.39,0.72 5.39,0.47C5.39,0.21 5.18,0 4.92,0L0.47,0Z " /><path id="路径 3" fill-rule="evenodd" style="fill:#808080" transform="translate(8.442692682926827 8.332671875871656)  rotate(0 2.6937756097560985 0.4669140625000008)" opacity="1" d="M0.47,0L0.46,0C0.2,0.01 0,0.21 0,0.47C0,0.72 0.21,0.93 0.47,0.93L4.92,0.93L4.93,0.93C5.18,0.93 5.39,0.72 5.39,0.47C5.39,0.21 5.18,0 4.92,0L0.47,0Z " /><path id="路径 4" fill-rule="evenodd" style="fill:#808080" transform="translate(8.442692682926827 5.818500000871657)  rotate(0 2.6937756097560985 0.4669140624999999)" opacity="1" d="M0.47,0L0.46,0C0.2,0.01 0,0.21 0,0.47C0,0.72 0.21,0.93 0.47,0.93L4.92,0.93L4.93,0.93C5.18,0.93 5.39,0.72 5.39,0.47C5.39,0.21 5.18,0 4.92,0L0.47,0Z " /></g></svg>