<svg xmlns="http://www.w3.org/2000/svg" xmlns:xlink="http://www.w3.org/1999/xlink" width="31" height="30" viewBox="0 0 31 30" fill="none"><defs><linearGradient id="linear_0" x1="11.773999999999996%" y1="100%" x2="100%" y2="13.500000000000009%" gradientUnits="objectBoundingBox"><stop offset="0" stop-color="#0090FF" stop-opacity="1" /><stop offset="1" stop-color="#BAFFF0" stop-opacity="1" /></linearGradient><linearGradient id="linear_1" x1="11.773999999999996%" y1="100%" x2="100%" y2="13.500000000000009%" gradientUnits="objectBoundingBox"><stop offset="0" stop-color="#0090FF" stop-opacity="1" /><stop offset="1" stop-color="#BAFFF0" stop-opacity="1" /></linearGradient><linearGradient id="linear_2" x1="11.773999999999996%" y1="100%" x2="100%" y2="13.500000000000009%" gradientUnits="objectBoundingBox"><stop offset="0" stop-color="#0090FF" stop-opacity="1" /><stop offset="1" stop-color="#BAFFF0" stop-opacity="1" /></linearGradient><linearGradient id="linear_3" x1="11.773999999999996%" y1="100%" x2="100%" y2="13.500000000000009%" gradientUnits="objectBoundingBox"><stop offset="0" stop-color="#0090FF" stop-opacity="1" /><stop offset="1" stop-color="#BAFFF0" stop-opacity="1" /></linearGradient></defs><g opacity="1" transform="translate(0 0)  rotate(0 15.49999999999999 14.536378179687485)"><path id="路径 1" fill-rule="evenodd" fill="url(#linear_0)" transform="translate(1.7863750340118858 5.467988625546237)  rotate(0 13.717500019121559 4.253093928693368)" opacity="1" d="M14.01,6.06C14.1,6.61 14.44,7.17 14.97,7.63C15.6,8.18 16.4,8.51 17.12,8.51C17.82,8.51 18.61,8.16 19.24,7.59C19.87,7.01 20.23,6.3 20.23,5.65C20.23,5.16 20.63,4.76 21.12,4.76C21.56,4.76 21.93,5.08 22,5.5C22.02,5.57 22.04,5.65 22.04,5.73C22.07,6.52 22.41,7.26 22.95,7.72C23.53,8.21 24.32,8.41 25.33,8.31C26.78,8.16 27.44,7.16 27.44,6.3C27.44,5.83 27.38,5.47 27.27,5.23L27.26,5.24L27.23,5.15C27.22,5.14 27.21,5.13 27.2,5.11C27.14,5.02 27.09,4.91 27.07,4.8L24.94,0L1.75,0L0.38,4C0.37,4.16 0.32,4.32 0.23,4.46C0.22,4.46 0.22,4.47 0.21,4.48L0.05,4.95C0.02,5.14 0,5.38 0,5.65C0,6.43 0.56,7.43 2.15,7.66C3.02,7.79 3.93,7.53 4.58,6.97C5.01,6.6 5.26,6.15 5.26,5.73C5.26,5.69 5.27,5.65 5.27,5.61C5.29,5.14 5.68,4.76 6.16,4.76C6.65,4.76 7.05,5.16 7.05,5.65C7.05,6.36 7.32,7.06 7.8,7.58C8.27,8.1 8.9,8.39 9.56,8.39C10.24,8.39 10.92,8.09 11.43,7.56C11.85,7.14 12.12,6.6 12.21,6.05C12.2,5.96 12.2,5.86 12.2,5.77C12.2,5.64 12.23,5.52 12.28,5.41C12.38,5.03 12.73,4.76 13.14,4.76C13.63,4.76 14.03,5.16 14.03,5.65C14.03,5.78 14.02,5.92 14.01,6.06Z " /><path id="路径 2" fill-rule="evenodd" fill="url(#linear_1)" transform="translate(5.3087500171336925 17.817171343727107)  rotate(0 10.24550000730784 4.742132372769442)" opacity="1" d="M10.35,0.06C8.89,0.98 7.56,1.31 6.4,1.31C4.66,1.31 3.34,0.58 2.64,0.08C1.99,0.57 1.12,0.91 0.05,1.08L0,9.48L20.49,9.48L20.49,0.92C19.5,0.68 18.68,0.29 18.17,0C16.83,0.9 15.47,1.36 14.12,1.36C13.83,1.36 13.53,1.34 13.24,1.3C11.94,1.11 10.96,0.53 10.35,0.06Z " /><path id="路径 3" fill-rule="evenodd" style="fill:#0091FF" transform="translate(3.16974999464249 0)  rotate(0 12.070625004685722 0.8856601350544625)" opacity="1" d="M23.25,1.77C23.74,1.77 24.14,1.37 24.14,0.89C24.14,0.4 23.74,0 23.25,0L0.89,0C0.4,0 0,0.4 0,0.89C0,1.37 0.4,1.77 0.89,1.77L23.25,1.77Z " /><path id="路径 4" fill-rule="evenodd" fill="url(#linear_2)" transform="translate(0 3.696668355437388)  rotate(0 15.49999999999999 6.024414198802297)" opacity="1" d="M23.57,10.84C24.15,11.33 25.12,11.88 26.61,11.88C26.83,11.88 27.06,11.86 27.3,11.84C29.44,11.62 31,10.03 31,8.07C31,7.27 30.88,6.65 30.62,6.15L27.89,0L2.26,0L0.36,5.55C0.25,5.76 0.17,6 0.11,6.26L0.08,6.36L0.09,6.36C0.03,6.68 0,7.03 0,7.42C0,8.43 0.4,9.32 1.14,10.02C1.79,10.62 2.69,11.04 3.67,11.18C3.9,11.22 4.13,11.23 4.37,11.23C5.52,11.23 6.66,10.82 7.53,10.08C7.61,10.02 7.68,9.95 7.75,9.87C7.9,10.11 8.07,10.34 8.26,10.54C9.08,11.44 10.17,11.93 11.35,11.93C12.5,11.93 13.65,11.44 14.49,10.57C14.65,10.4 14.79,10.24 14.92,10.06C15.11,10.3 15.33,10.53 15.58,10.74C16.54,11.57 17.75,12.05 18.9,12.05C20.05,12.05 21.27,11.54 22.23,10.66C22.46,10.45 22.66,10.24 22.84,10C23.04,10.32 23.29,10.6 23.57,10.84Z " /><path id="路径 6" fill-rule="evenodd" fill="url(#linear_3)" transform="translate(3.5223022353890237 16.023286069263932)  rotate(0 12.037723881292852 6.524735145055519)" opacity="1" d="M0.18,1.3L0.07,1.3L0,11.58C0,11.97 0.15,12.34 0.43,12.62C0.71,12.9 1.07,13.05 1.47,13.05L22.59,13.05C23.4,13.05 24.06,12.39 24.06,11.59L24.06,2.92C24.06,2.92 24.07,2.92 24.08,2.92L24.06,2.04L24.06,1.77L24.06,1.77L24.04,1.15C22.66,1.18 21.4,0.58 20.77,0.22C20.22,-0.1 19.53,-0.07 19,0.29C17.74,1.16 16.49,1.52 15.29,1.34C14.28,1.19 13.53,0.69 13.17,0.4C12.61,-0.04 11.84,-0.07 11.24,0.32C8.51,2.09 6.41,1.12 5.4,0.39C4.8,-0.05 3.97,-0.03 3.39,0.44C2.5,1.15 0.78,1.25 0.19,1.23L0.18,1.3Z " /></g></svg>