<svg xmlns="http://www.w3.org/2000/svg" xmlns:xlink="http://www.w3.org/1999/xlink" width="24" height="24" viewBox="0 0 24 24" fill="none"><defs><path id="path_0"
        transform="translate(0 0) rotate(0 10.712470119711432 11)"
        d="M18.92,3.82C17.75,4.1 16.46,3.93 15.28,3.31C14.11,2.68 13.35,1.65 13,0.51C12.94,0.23 12.65,0 12.3,0L9.13,0C8.84,0 8.54,0.23 8.43,0.51C8.07,1.65 7.31,2.68 6.14,3.31C4.97,3.93 3.68,4.1 2.51,3.82C2.21,3.76 1.86,3.88 1.68,4.16L0.1,6.84C-0.07,7.12 -0.01,7.47 0.22,7.69C1.04,8.55 1.57,9.69 1.57,11C1.57,12.25 1.04,13.45 0.22,14.31C-0.01,14.53 -0.07,14.88 0.1,15.16L1.68,17.84C1.86,18.12 2.15,18.24 2.51,18.18C3.68,17.9 4.97,18.07 6.14,18.69C7.31,19.32 8.07,20.35 8.43,21.49C8.48,21.77 8.78,22 9.13,22L12.3,22C12.65,22 12.94,21.77 13,21.49C13.35,20.35 14.11,19.32 15.28,18.69C16.4,18.07 17.75,17.9 18.92,18.18C19.21,18.24 19.56,18.12 19.74,17.84L21.32,15.16C21.5,14.88 21.44,14.53 21.21,14.31C20.38,13.45 19.86,12.31 19.86,11C19.86,9.75 20.38,8.55 21.21,7.69C21.44,7.47 21.5,7.12 21.32,6.84L19.74,4.16C19.56,3.88 19.27,3.76 18.92,3.82Z" /><linearGradient id="linear_0" x1="0%" y1="6.314%" x2="74.886%" y2="68.708%" gradientUnits="objectBoundingBox"><stop offset="0" stop-color="#75CFFF" stop-opacity="1" /><stop offset="1" stop-color="#FFFFFF" stop-opacity="0" /></linearGradient></defs><g opacity="1" transform="translate(0.0005530190414901881 9.094947017729282e-13)  rotate(0 11.712896155708284 12)"><g opacity="1" transform="translate(0.9992028403335098 1)  rotate(0 10.712470119711432 11)"><mask id="mask-0" fill="white"><use xlink:href="#path_0"></use></mask><g mask="url(#mask-0)"><path id="圆形 3" fill-rule="evenodd" fill="url(#linear_0)" transform="translate(8.390000000000327 -1.0326501031840962)  rotate(-45.109728464584094 7.46896029244464 7.46896029244464)" opacity="1" d="M7.47,0C3.34,0 0,3.34 0,7.47C0,11.59 3.34,14.94 7.47,14.94C11.59,14.94 14.94,11.59 14.94,7.47C14.94,3.34 11.59,0 7.47,0Z " /></g></g><path id="路径 11 (轮廓)" fill-rule="evenodd" style="fill:#383838" transform="translate(7.7116729600452345 8)  rotate(0 4 4)" opacity="1" d="M4 0C4.54 0 5.06 0.1 5.56 0.31C6.04 0.52 6.46 0.8 6.83 1.17C7.2 1.54 7.48 1.96 7.69 2.44C7.9 2.94 8 3.46 8 4C8 4.54 7.9 5.06 7.69 5.56C7.48 6.04 7.2 6.46 6.83 6.83C6.46 7.2 6.04 7.48 5.56 7.69C5.06 7.9 4.54 8 4 8C3.46 8 2.94 7.9 2.44 7.69C1.96 7.48 1.54 7.2 1.17 6.83C0.8 6.46 0.52 6.04 0.31 5.56C0.1 5.06 0 4.54 0 4C0 3.46 0.1 2.94 0.31 2.44C0.52 1.96 0.8 1.54 1.17 1.17C1.54 0.8 1.96 0.52 2.44 0.31C2.94 0.1 3.46 0 4 0ZM2.16 3.22C2.26 2.98 2.4 2.77 2.58 2.58C2.77 2.4 2.98 2.26 3.22 2.16C3.47 2.05 3.73 2 4 2C4.27 2 4.53 2.05 4.78 2.16C5.02 2.26 5.23 2.4 5.42 2.58C5.6 2.77 5.74 2.98 5.84 3.22C5.95 3.47 6 3.73 6 4C6 4.27 5.95 4.53 5.84 4.78C5.74 5.02 5.6 5.23 5.42 5.42C5.23 5.6 5.02 5.74 4.78 5.84C4.53 5.95 4.27 6 4 6C3.73 6 3.47 5.95 3.22 5.84C2.98 5.74 2.77 5.6 2.58 5.42C2.4 5.23 2.26 5.02 2.16 4.78C2.05 4.53 2 4.27 2 4C2 3.73 2.05 3.47 2.16 3.22Z" /><path id="路径 12 (轮廓)" fill-rule="evenodd" style="fill:#383838" transform="translate(0 0)  rotate(0 11.712896155708284 12)" opacity="1" d="M18.22 20.09C17.69 20.16 17.21 20.32 16.75 20.57C16.31 20.81 15.93 21.13 15.62 21.52C15.33 21.88 15.11 22.3 14.96 22.75C14.87 23.12 14.67 23.42 14.36 23.65C14.05 23.88 13.69 24 13.3 24L10.13 24C9.74 24 9.38 23.88 9.07 23.65C8.75 23.42 8.55 23.11 8.46 22.75C8.31 22.29 8.09 21.88 7.81 21.52C7.49 21.13 7.11 20.81 6.67 20.57C6.19 20.32 5.7 20.16 5.19 20.09C4.69 20.02 4.21 20.04 3.74 20.15L3.71 20.16L3.67 20.17C3.31 20.23 2.96 20.19 2.65 20.06C2.31 19.92 2.04 19.7 1.84 19.38L1.83 19.36L0.24 16.68C0.04 16.33 -0.04 15.96 0.02 15.56C0.08 15.19 0.24 14.87 0.51 14.61C0.84 14.26 1.09 13.86 1.28 13.42C1.47 12.95 1.57 12.48 1.57 12C1.57 11.5 1.47 11.02 1.28 10.57C1.1 10.14 0.84 9.75 0.51 9.39C0.24 9.13 0.08 8.81 0.02 8.44C-0.04 8.04 0.03 7.67 0.24 7.33L1.83 4.64L1.84 4.62C2.04 4.3 2.33 4.07 2.69 3.93Q3.185 3.735 3.71 3.84L3.72 3.84L3.74 3.85C4.21 3.96 4.69 3.98 5.19 3.91C5.7 3.84 6.19 3.68 6.67 3.43C7.11 3.19 7.49 2.87 7.81 2.48C8.1 2.11 8.33 1.68 8.48 1.21L8.49 1.18L8.5 1.14C8.62 0.82 8.83 0.56 9.12 0.35C9.43 0.12 9.77 0 10.13 0L13.3 0C13.69 0 14.05 0.12 14.36 0.35C14.67 0.58 14.87 0.88 14.96 1.25C15.11 1.7 15.33 2.12 15.62 2.48C15.93 2.87 16.3 3.19 16.74 3.42C17.23 3.68 17.73 3.84 18.24 3.91C18.74 3.98 19.22 3.96 19.69 3.85L19.72 3.84L19.75 3.83C20.12 3.77 20.46 3.81 20.78 3.94C21.11 4.08 21.38 4.3 21.58 4.62L21.59 4.64L23.17 7.32C23.39 7.66 23.46 8.03 23.41 8.43C23.35 8.8 23.19 9.13 22.92 9.4C22.59 9.74 22.33 10.13 22.15 10.58C21.96 11.04 21.86 11.52 21.86 12C21.86 12.5 21.95 12.98 22.14 13.44C22.33 13.87 22.58 14.25 22.92 14.6C23.19 14.87 23.35 15.2 23.41 15.57C23.46 15.97 23.39 16.34 23.17 16.68L21.59 19.36L21.58 19.38C21.38 19.7 21.1 19.93 20.74 20.07C20.4 20.2 20.06 20.23 19.72 20.16L19.7 20.16L19.69 20.15C19.22 20.04 18.73 20.02 18.22 20.09ZM3.12 9.79C3.42 10.49 3.57 11.23 3.57 12Q3.57 13.125 3.12 14.19C2.87 14.8 2.52 15.36 2.08 15.85L3.44 18.17C4.1 18.03 4.77 18.01 5.46 18.11C6.21 18.21 6.92 18.44 7.61 18.81C8.3 19.18 8.89 19.67 9.37 20.28C9.78 20.79 10.1 21.37 10.32 22L13.11 22C13.32 21.37 13.64 20.79 14.05 20.28C14.53 19.67 15.12 19.18 15.81 18.81C16.46 18.45 17.18 18.21 17.95 18.11C18.64 18.01 19.32 18.03 19.97 18.17L21.34 15.85C20.9 15.36 20.55 14.81 20.3 14.21C20.01 13.51 19.86 12.77 19.86 12C19.86 11.25 20.01 10.52 20.3 9.82C20.56 9.2 20.9 8.64 21.34 8.15L19.97 5.83C19.32 5.97 18.65 5.99 17.97 5.89Q16.845 5.74 15.81 5.2C15.12 4.82 14.53 4.33 14.05 3.72C13.64 3.21 13.32 2.63 13.11 2L10.32 2C10.1 2.63 9.78 3.21 9.37 3.72C8.89 4.33 8.3 4.82 7.61 5.19C6.92 5.56 6.21 5.79 5.46 5.89C4.77 5.99 4.1 5.97 3.44 5.83L2.08 8.15C2.52 8.64 2.87 9.19 3.12 9.79ZM1.95 15.64C1.96 15.64 1.96 15.65 1.96 15.65L1.95 15.64Z" /></g></svg>