<svg xmlns="http://www.w3.org/2000/svg" xmlns:xlink="http://www.w3.org/1999/xlink" width="18.5999755859375" height="42.58154296875" viewBox="0 0 18.60000000000021 42.58154296875" fill="none"><g opacity="1"  transform="translate(0 0.00390625)  rotate(0)"><path id="路径 1" fill-rule="evenodd" style="fill:#FFFFFF" opacity="1" d="M11.3587 11.0854L7.8687 11.0854C7.7087 11.0854 7.5687 11.1854 7.5087 11.3354L5.4487 16.7554C5.3487 17.0154 5.5387 17.2854 5.8087 17.2854L7.8887 17.2854L6.8487 21.1854C6.7487 21.5854 7.2487 21.8554 7.5187 21.5454L13.0687 15.2154C13.2887 14.9654 13.1187 14.5754 12.7787 14.5754L10.5187 14.5754L11.7187 11.6154C11.8187 11.3654 11.6387 11.0854 11.3587 11.0854Z"></path><path id="并集" fill-rule="evenodd" style="fill:#FFFFFF" opacity="1" d="M7.44 37.6577L7.44 42.0777C7.44 42.3577 7.66 42.5777 7.94 42.5777L10.66 42.5777C10.94 42.5777 11.16 42.3577 11.16 42.0777L11.16 37.6477C11.16 37.5377 11.23 37.4477 11.34 37.4177C15.5 36.4377 18.6 32.5177 18.6 27.8177L18.6 26.6977C18.6 26.6277 18.6 26.5577 18.6 26.4877C18.55 25.8577 18.05 25.3677 17.43 25.3677L15.62 25.3677C15.34 25.3677 15.12 25.1477 15.12 24.8677L15.12 22.1877C15.12 21.9077 14.9 21.6877 14.62 21.6877L13.28 21.6877C13 21.6877 12.78 21.9077 12.78 22.1877L12.78 24.8677C12.78 25.1477 12.56 25.3677 12.28 25.3677L6.32 25.3677C6.04 25.3677 5.82 25.1477 5.82 24.8677L5.82 22.1877C5.82 21.9077 5.6 21.6877 5.32 21.6877L3.98 21.6877C3.7 21.6877 3.48 21.9077 3.48 22.1877L3.48 24.8677C3.48 25.1477 3.26 25.3677 2.98 25.3677L1.28 25.3677C1.2 25.3677 1.13 25.3677 1.05 25.3677C0.5 25.4277 0.05 25.8977 0 26.4977C0 26.5577 0 26.6277 0 26.6877L0 27.7377C0 27.7977 0 27.8577 0 27.9077C0.04 32.5677 3.12 36.4377 7.25 37.4177C7.36 37.4477 7.44 37.5477 7.44 37.6577Z"></path><path id="路径 2" fill-rule="evenodd" style="fill:#FFFFFF" opacity="1" d="M12.79 8.10596L12.79 6.64596C12.79 6.36596 13.01 6.14596 13.29 6.14596L14.61 6.14596C14.89 6.14596 15.11 6.36596 15.11 6.64596L15.11 8.10596C15.11 8.38596 15.33 8.60596 15.61 8.60596L17.33 8.60596C17.4 8.60596 17.48 8.60596 17.55 8.59596C18.14 8.54596 18.6 8.01596 18.6 7.37596L18.6 0.495957C18.6 0.215957 18.38 -0.00404263 18.1 -0.00404263L0.5 -0.00404263C0.22 -0.00404263 5.13739e-16 0.215957 4.96594e-16 0.495957L8.1439e-17 7.27596C7.71528e-17 7.34596 7.34788e-17 7.40596 6.91925e-17 7.47596C0.05 8.06596 0.49 8.54596 1.06 8.59596C1.13 8.60596 1.2 8.60596 1.27 8.60596L2.99 8.60596C3.27 8.60596 3.49 8.38596 3.49 8.10596L3.49 6.64596C3.49 6.36596 3.71 6.14596 3.99 6.14596L5.31 6.14596C5.59 6.14596 5.81 6.36596 5.81 6.64596L5.81 8.10596C5.81 8.38596 6.03 8.60596 6.31 8.60596L12.29 8.60596C12.57 8.60596 12.79 8.38596 12.79 8.10596Z"></path></g></svg>