<svg xmlns="http://www.w3.org/2000/svg" xmlns:xlink="http://www.w3.org/1999/xlink" width="42.7783203125" height="31.001953125" viewBox="0 0 42.7783203125 31.001953125" fill="none"><g opacity="1" transform="translate(0.001708984375 0)  rotate(0)"><g opacity="1" transform="translate(0 0)  rotate(0)"><mask id="bg-mask-0" fill="white"><use xlink:href="#path_0"></use></mask><g mask="url(#bg-mask-0)" ><path id="分组 1" fill-rule="evenodd" style="fill:#2AC17D" opacity="1" d="M33.0281,22.1303c-0.79,0.82 -3.09,2.94 -4.95,3.88c-0.47,0.3 -1.02,0.4 -1.56,0.28l-10.59,-14.1201l-8.97002,-0.73c0,0 -2.02,-6.43993 0.9,-11.43993l18.18002,1.42999c0,0 3.4,0.46001 5.19,2.34001l10.91,14.35003c0,0 1.86,2.25 -0.77,2.7c-2.64,0.45 -4.99,0.73 -4.99,0.73c0,0 -2.02,0.48 -3.47,-1.01c0.3,0.42 0.61,1.08 0.12,1.59zM30.0859,15.0439c0.18,0.09 0.82,0.28 0.96,0.32c0.08,0.02 0.16,0.07 0.22,0.13c0,0 2.35,2.75 2.76,3.21c0.42,0.47 0.78,0.35 0.78,0.35l3.11,-0.35h-0.01c0.48,-0.38 0.16,-0.75 0.16,-0.75l-8.4,-10.19001l-5.37,-0.55c0,0 5.6,7.73001 5.79,7.83001z"></path><path id="路径 3" fill-rule="evenodd" style="fill:#2AC17D" opacity="1" d="M0.109756 4.6082C-0.350244 9.2882 0.759756 9.8982 0.759756 9.8982L8.20975 10.4082L9.09975 1.59819L1.20976 1.14819C0.489756 1.42819 0.109756 4.6082 0.109756 4.6082Z"></path><path id="路径 4" fill-rule="evenodd" style="fill:#2AC17D" opacity="1" d="M27.8943,23.6721zM33.0294,30.8799l-5.1351,-7.2078l2.6286,-1.9619l5.1351,7.2078c0.0464,0.0652 -0.0251,0.2059 -0.1614,0.3076l-2.1317,1.5911c-0.1362,0.1016 -0.289,0.1284 -0.3355,0.0632z"></path><path id="路径 1" fill-rule="evenodd" style="fill:#2AC17D" opacity="1" d="M11.2198 16.0002C11.0698 16.0002 10.9398 16.1002 10.8898 16.2602L9.01976 21.8902C8.93976 22.1602 9.10976 22.4402 9.34976 22.4402L11.2298 22.4402L10.2998 26.4902C10.1998 26.9002 10.6498 27.1802 10.8998 26.8602L15.9098 20.2902C16.1098 20.0302 15.9498 19.6202 15.6498 19.6202L13.5998 19.6202L14.6898 16.5502C14.7798 16.2902 14.6098 16.0002 14.3698 16.0002L11.2198 16.0002Z"></path></g></g></g><defs><rect id="path_0" x="0" y="0" width="43.99999237060547" height="30.999984741210938" /></defs></svg>