<svg xmlns="http://www.w3.org/2000/svg" xmlns:xlink="http://www.w3.org/1999/xlink" width="26" height="29" viewBox="0 0 26 29" fill="none"><defs><linearGradient id="linear_0" x1="11.774%" y1="100%" x2="100%" y2="13.5%" gradientUnits="objectBoundingBox"><stop offset="0" stop-color="#0090FF" stop-opacity="1" /><stop offset="1" stop-color="#BAFFF0" stop-opacity="1" /></linearGradient><linearGradient id="linear_1" x1="11.774%" y1="100%" x2="100%" y2="13.5%" gradientUnits="objectBoundingBox"><stop offset="0" stop-color="#0090FF" stop-opacity="1" /><stop offset="1" stop-color="#BAFFF0" stop-opacity="1" /></linearGradient><rect id="path_0" x="0" y="0" width="10" height="10" /></defs><g opacity="1" transform="translate(0 0)  rotate(0 12.5 14.5)"><g opacity="1" transform="translate(0 0)  rotate(0 12.5 14.5)"><path id="路径 3 (轮廓)" fill-rule="evenodd" style="fill:#0091FF" transform="translate(17.581632653061206 3.366071500296812)  rotate(0 3.709183673469388 10.098214249851601)" opacity="1" d="M4.1,0.78L3.51,1.27L5.12,3.23C5.37,3.53 5.56,3.86 5.69,4.24C5.82,4.61 5.89,4.99 5.89,5.39L5.89,17.61C5.89,17.74 5.86,17.88 5.81,18C5.76,18.13 5.68,18.24 5.58,18.34C5.49,18.44 5.38,18.51 5.26,18.56C5.13,18.62 5,18.64 4.87,18.64C4.73,18.64 4.6,18.62 4.48,18.56C4.35,18.51 4.24,18.43 4.14,18.33C4.05,18.24 3.98,18.13 3.92,18C3.87,17.88 3.85,17.74 3.85,17.61L3.85,11.13C3.85,10.75 3.77,10.38 3.63,10.02C3.48,9.68 3.28,9.38 3.03,9.12C2.77,8.86 2.47,8.65 2.13,8.51C1.79,8.36 1.42,8.29 1.04,8.29L0,8.29L0,9.84L1.04,9.84C1.21,9.84 1.38,9.87 1.54,9.94C1.69,10.01 1.83,10.1 1.94,10.22C2.06,10.34 2.15,10.48 2.22,10.63C2.28,10.79 2.32,10.96 2.32,11.13L2.32,17.61C2.32,17.95 2.38,18.28 2.51,18.6C2.64,18.92 2.83,19.2 3.07,19.44C3.3,19.68 3.58,19.87 3.89,20C4.2,20.13 4.53,20.2 4.87,20.2C5.21,20.2 5.53,20.13 5.85,20C6.16,19.87 6.43,19.68 6.67,19.43C6.91,19.2 7.09,18.92 7.22,18.6C7.35,18.28 7.42,17.95 7.42,17.61L7.42,5.39C7.42,4.81 7.32,4.25 7.13,3.71C6.94,3.17 6.66,2.67 6.3,2.23L4.69,0.28L4.69,0.28C4.67,0.26 4.66,0.24 4.64,0.22C4.62,0.2 4.6,0.19 4.58,0.17C4.56,0.16 4.54,0.14 4.52,0.13C4.5,0.11 4.48,0.1 4.46,0.09C4.43,0.08 4.41,0.07 4.39,0.06C4.37,0.05 4.34,0.04 4.32,0.03C4.29,0.02 4.27,0.02 4.25,0.01C4.22,0.01 4.2,0.01 4.17,0C4.15,0 4.12,0 4.1,0C4.07,0 4.05,0 4.02,0C4,0.01 3.97,0.01 3.95,0.02C3.92,0.02 3.9,0.03 3.87,0.04C3.85,0.04 3.83,0.05 3.8,0.06C3.78,0.07 3.76,0.08 3.74,0.09C3.71,0.11 3.69,0.12 3.67,0.13C3.65,0.15 3.63,0.16 3.61,0.18C3.59,0.2 3.57,0.21 3.56,0.23C3.54,0.25 3.52,0.27 3.51,0.29C3.49,0.31 3.48,0.33 3.46,0.35C3.45,0.37 3.44,0.39 3.42,0.42C3.41,0.44 3.4,0.46 3.39,0.48C3.38,0.51 3.38,0.53 3.37,0.56C3.36,0.58 3.36,0.61 3.35,0.63C3.35,0.66 3.34,0.68 3.34,0.71C3.34,0.73 3.34,0.76 3.34,0.78C3.34,0.81 3.34,0.83 3.34,0.86C3.34,0.88 3.35,0.91 3.35,0.93C3.36,0.96 3.36,0.98 3.37,1.01C3.38,1.03 3.39,1.06 3.4,1.08C3.41,1.1 3.42,1.13 3.43,1.15C3.44,1.17 3.45,1.19 3.47,1.21C3.48,1.23 3.5,1.25 3.51,1.27L4.1,0.78Z " /><path id="矩形 2 (轮廓)" fill-rule="evenodd" fill="url(#linear_0)" transform="translate(1.5306122448978385 0)  rotate(0 8.673469387755103 14.5)" opacity="1" d="M15.31 0C16.43 0 17.35 0.93 17.35 2.07L17.35 29L0 29L0 2.07C0 0.93 0.91 0 2.04 0L15.31 0ZM15.82 2.07Q15.82 1.86 15.67 1.71C15.57 1.6 15.45 1.55 15.31 1.55L2.04 1.55C1.9 1.55 1.78 1.6 1.68 1.71Q1.53 1.86 1.53 2.07L1.53 27.45L15.82 27.45L15.82 2.07Z" /><path id="矩形 1" fill-rule="evenodd" fill="url(#linear_1)" transform="translate(3 1)  rotate(0 7.5 13.5)" opacity="1" d="M0,27L15,27L15,0L0,0L0,27Z " /><path id="直线 1 (轮廓)" fill-rule="evenodd" style="fill:#0090FF" transform="translate(0 27.44642857142857)  rotate(0 12.5 0.7767857142857143)" opacity="1" d="M0 0.78C0 0.98 0.08 1.18 0.22 1.33C0.37 1.47 0.56 1.55 0.77 1.55L24.23 1.55C24.44 1.55 24.63 1.47 24.78 1.33C24.92 1.18 25 0.98 25 0.78C25 0.57 24.92 0.37 24.78 0.23C24.63 0.08 24.44 0 24.23 0L0.77 0C0.56 0 0.37 0.08 0.22 0.23C0.08 0.37 0 0.57 0 0.78Z" /></g><g opacity="1" transform="translate(5.204081632653015 9.5)  rotate(0 5 5)"><mask id="bg-mask-0" fill="white"><use xlink:href="#path_0"></use></mask><g mask="url(#bg-mask-0)" ><path id="路径 1" fill-rule="evenodd" style="fill:#FFFFFF" transform="translate(0.5836849450385571 0.787109375000008)  rotate(0 4.419276754183747 4.213587608942548)" opacity="1" d="M5.81,2.6L4.56,0.09C4.5,-0.03 4.33,-0.03 4.28,0.09L3.03,2.61C3.01,2.66 2.96,2.69 2.92,2.7L0.14,3.1C0,3.12 -0.04,3.28 0.05,3.37L2.06,5.33C2.1,5.37 2.12,5.42 2.11,5.47L1.64,8.24C1.61,8.37 1.74,8.47 1.86,8.41L4.35,7.1C4.39,7.07 4.44,7.07 4.49,7.1L6.98,8.4C7.1,8.46 7.23,8.36 7.21,8.24L6.73,5.46C6.72,5.42 6.74,5.36 6.78,5.32L8.79,3.36C8.89,3.27 8.83,3.11 8.71,3.1L5.92,2.69C5.87,2.68 5.83,2.65 5.81,2.6Z " /></g></g></g></svg>