<svg xmlns="http://www.w3.org/2000/svg" xmlns:xlink="http://www.w3.org/1999/xlink" width="25" height="25" viewBox="0 0 25 25" fill="none"><g opacity="1" transform="translate(0 0)  rotate(0 12.5 12.5)"><path id="直线 1 (轮廓)" fill-rule="evenodd" style="fill:#387EFE" transform="translate(9.183418367346803 4.591836727627367)  rotate(0 0.7653061224489796 2.168367350472045)" opacity="1" d="M1.53,0.69C1.52,0.67 1.52,0.64 1.52,0.62C1.51,0.59 1.5,0.57 1.5,0.54C1.49,0.52 1.48,0.5 1.47,0.47C1.46,0.45 1.45,0.43 1.44,0.4C1.43,0.38 1.42,0.36 1.4,0.34C1.39,0.32 1.37,0.3 1.36,0.28C1.34,0.26 1.32,0.24 1.31,0.22C1.29,0.21 1.27,0.19 1.25,0.17C1.23,0.16 1.21,0.14 1.19,0.13C1.17,0.11 1.15,0.1 1.13,0.09C1.1,0.08 1.08,0.07 1.06,0.06C1.03,0.05 1.01,0.04 0.99,0.03C0.96,0.03 0.94,0.02 0.91,0.01C0.89,0.01 0.87,0.01 0.84,0C0.82,0 0.79,0 0.77,0C0.74,0 0.72,0 0.69,0C0.67,0.01 0.64,0.01 0.62,0.01C0.59,0.02 0.57,0.03 0.54,0.03C0.52,0.04 0.5,0.05 0.47,0.06C0.45,0.07 0.43,0.08 0.4,0.09C0.38,0.1 0.36,0.12 0.34,0.13C0.32,0.14 0.3,0.16 0.28,0.17C0.26,0.19 0.24,0.21 0.22,0.22C0.21,0.24 0.19,0.26 0.17,0.28C0.16,0.3 0.14,0.32 0.13,0.34C0.12,0.36 0.1,0.38 0.09,0.4C0.08,0.43 0.07,0.45 0.06,0.47C0.05,0.5 0.04,0.52 0.03,0.54C0.03,0.57 0.02,0.59 0.01,0.62C0.01,0.64 0.01,0.67 0,0.69C0,0.72 0,0.74 0,0.77L0,4.34L1.53,4.34L1.53,0.77L0.77,0.77L1.53,0.77C1.53,0.74 1.53,0.72 1.53,0.69Z " /><path id="直线 1 (轮廓)" fill-rule="evenodd" style="fill:#387EFE" transform="translate(14.28545918367331 4.591836727627367)  rotate(0 0.7653061224489796 2.168367350472045)" opacity="1" d="M1.5,0.54C1.49,0.52 1.48,0.5 1.47,0.47C1.46,0.45 1.45,0.43 1.44,0.4C1.43,0.38 1.42,0.36 1.4,0.34C1.39,0.32 1.37,0.3 1.36,0.28C1.34,0.26 1.32,0.24 1.31,0.22C1.29,0.21 1.27,0.19 1.25,0.17C1.23,0.16 1.21,0.14 1.19,0.13C1.17,0.11 1.15,0.1 1.13,0.09C1.1,0.08 1.08,0.07 1.06,0.06C1.03,0.05 1.01,0.04 0.99,0.03C0.96,0.03 0.94,0.02 0.91,0.01C0.89,0.01 0.87,0.01 0.84,0C0.82,0 0.79,0 0.77,0C0.74,0 0.72,0 0.69,0C0.67,0.01 0.64,0.01 0.62,0.01C0.59,0.02 0.57,0.03 0.54,0.03C0.52,0.04 0.5,0.05 0.47,0.06C0.45,0.07 0.43,0.08 0.4,0.09C0.38,0.1 0.36,0.12 0.34,0.13C0.32,0.14 0.3,0.16 0.28,0.17C0.26,0.19 0.24,0.21 0.22,0.22C0.21,0.24 0.19,0.26 0.17,0.28C0.16,0.3 0.14,0.32 0.13,0.34C0.12,0.36 0.1,0.38 0.09,0.4C0.08,0.43 0.07,0.45 0.06,0.47C0.05,0.5 0.04,0.52 0.03,0.54C0.03,0.57 0.02,0.59 0.01,0.62C0.01,0.64 0.01,0.67 0,0.69C0,0.72 0,0.74 0,0.77L0,4.34L1.53,4.34L1.53,0.77L0.77,0.77L1.53,0.77C1.53,0.74 1.53,0.72 1.53,0.69C1.52,0.67 1.52,0.64 1.52,0.62C1.51,0.59 1.5,0.57 1.5,0.54Z " /><path id="圆形 1 (轮廓)" fill-rule="evenodd" style="fill:#383838" transform="translate(0 0)  rotate(0 12.5 12.5)" opacity="1" d="M4.35,21.55C4.4,21.54 4.45,21.52 4.5,21.5C4.54,21.49 4.59,21.46 4.63,21.43C4.67,21.41 4.71,21.37 4.74,21.34C4.76,21.32 4.78,21.3 4.79,21.28C4.81,21.26 4.82,21.24 4.84,21.22C4.85,21.2 4.87,21.18 4.88,21.16C4.89,21.14 4.9,21.11 4.91,21.09C4.92,21.07 4.93,21.04 4.93,21.02C4.94,21 4.95,20.97 4.95,20.95C4.96,20.92 4.96,20.9 4.96,20.87C4.97,20.85 4.97,20.82 4.97,20.8C4.97,20.77 4.97,20.75 4.96,20.72C4.96,20.7 4.96,20.67 4.95,20.65C4.95,20.62 4.94,20.6 4.93,20.58C4.93,20.55 4.92,20.53 4.91,20.5C4.9,20.48 4.89,20.46 4.88,20.44C4.87,20.41 4.85,20.39 4.84,20.37C4.82,20.35 4.81,20.33 4.79,20.31C4.78,20.29 4.76,20.27 4.74,20.26L4.2,20.8L4.74,20.25C3.73,19.24 2.95,18.08 2.39,16.77C1.82,15.41 1.53,13.99 1.53,12.5C1.53,11.01 1.82,9.59 2.39,8.23C2.95,6.92 3.73,5.76 4.74,4.74C5.76,3.73 6.92,2.95 8.23,2.39C9.59,1.82 11.01,1.53 12.5,1.53C13.99,1.53 15.41,1.82 16.77,2.39C18.08,2.95 19.24,3.73 20.26,4.74C21.27,5.76 22.05,6.92 22.61,8.23C23.18,9.59 23.47,11.01 23.47,12.5C23.47,13.99 23.18,15.41 22.61,16.77C22.05,18.08 21.27,19.24 20.26,20.26C19.24,21.27 18.08,22.05 16.77,22.61C15.41,23.18 13.99,23.47 12.5,23.47C12.47,23.47 12.45,23.47 12.43,23.47C12.4,23.48 12.38,23.48 12.35,23.48C12.33,23.49 12.3,23.5 12.28,23.5C12.25,23.51 12.23,23.52 12.21,23.53C12.18,23.54 12.16,23.55 12.14,23.56C12.12,23.57 12.1,23.58 12.07,23.6C12.05,23.61 12.03,23.63 12.01,23.64C12,23.66 11.98,23.68 11.96,23.69C11.94,23.71 11.92,23.73 11.91,23.75C11.89,23.77 11.88,23.79 11.86,23.81C11.85,23.83 11.84,23.85 11.83,23.87C11.81,23.9 11.8,23.92 11.79,23.94C11.78,23.96 11.77,23.99 11.77,24.01C11.76,24.04 11.75,24.06 11.75,24.09C11.74,24.11 11.74,24.13 11.74,24.16C11.74,24.18 11.73,24.21 11.73,24.23C11.73,24.26 11.74,24.28 11.74,24.31C11.74,24.33 11.74,24.36 11.75,24.38C11.75,24.41 11.76,24.43 11.77,24.46C11.77,24.48 11.78,24.5 11.79,24.53C11.8,24.55 11.81,24.57 11.83,24.6C11.84,24.62 11.85,24.64 11.86,24.66C11.88,24.68 11.89,24.7 11.91,24.72C11.92,24.74 11.94,24.76 11.96,24.78C11.98,24.79 12,24.81 12.01,24.83C12.03,24.84 12.05,24.86 12.07,24.87C12.1,24.88 12.12,24.9 12.14,24.91C12.16,24.92 12.18,24.93 12.21,24.94C12.23,24.95 12.25,24.96 12.28,24.97C12.3,24.97 12.33,24.98 12.35,24.99C12.38,24.99 12.4,24.99 12.43,25C12.45,25 12.47,25 12.5,25C14.19,25 15.82,24.67 17.37,24.02C18.86,23.38 20.19,22.49 21.34,21.34C22.49,20.19 23.38,18.86 24.02,17.37C24.67,15.82 25,14.19 25,12.5C25,10.81 24.67,9.18 24.02,7.63C23.38,6.14 22.49,4.81 21.34,3.66C20.19,2.51 18.86,1.62 17.37,0.98C15.82,0.33 14.19,0 12.5,0C10.81,0 9.18,0.33 7.63,0.98C6.14,1.62 4.81,2.51 3.66,3.66C2.51,4.81 1.62,6.14 0.98,7.63C0.33,9.18 0,10.81 0,12.5C0,14.2 0.33,15.82 0.98,17.37C1.61,18.86 2.51,20.19 3.66,21.34L3.66,21.34C3.7,21.37 3.74,21.41 3.78,21.43C3.82,21.46 3.86,21.49 3.91,21.5C3.96,21.52 4,21.54 4.05,21.55C4.1,21.56 4.15,21.56 4.2,21.56C4.25,21.56 4.3,21.56 4.35,21.55Z " /><path id="矩形 2 (轮廓)" fill-rule="evenodd" style="fill:#383838" transform="translate(6.632653061224491 8.16326530612245)  rotate(0 5.867346938775509 4.591836734693878)" opacity="1" d="M9.42,8.79C9.87,8.57 10.28,8.27 10.63,7.9C10.98,7.53 11.25,7.11 11.44,6.63C11.64,6.14 11.73,5.63 11.73,5.1L11.73,1.79C11.73,1.54 11.69,1.31 11.59,1.09C11.5,0.88 11.38,0.69 11.21,0.52C11.05,0.36 10.86,0.23 10.64,0.14C10.42,0.05 10.19,0 9.95,0L1.79,0C1.54,0 1.31,0.05 1.09,0.14C0.88,0.23 0.69,0.36 0.52,0.52C0.36,0.69 0.23,0.88 0.14,1.09C0.05,1.31 0,1.54 0,1.79L0,4.99L0,5.22L0,5.24C0.02,5.76 0.13,6.27 0.34,6.75C0.55,7.22 0.83,7.63 1.19,7.99L1.2,7.99C1.21,8.01 1.23,8.02 1.25,8.04C1.27,8.05 1.29,8.07 1.31,8.08C1.33,8.1 1.35,8.11 1.38,8.12C1.4,8.13 1.42,8.14 1.44,8.15C1.47,8.16 1.49,8.17 1.51,8.18C1.54,8.19 1.56,8.19 1.59,8.2C1.61,8.2 1.64,8.21 1.66,8.21C1.69,8.21 1.71,8.21 1.74,8.21C1.76,8.21 1.79,8.21 1.81,8.21C1.84,8.21 1.86,8.2 1.89,8.2C1.91,8.19 1.93,8.19 1.96,8.18C1.98,8.17 2.01,8.16 2.03,8.15C2.05,8.14 2.08,8.13 2.1,8.12C2.12,8.11 2.14,8.1 2.16,8.08C2.18,8.07 2.2,8.05 2.22,8.04C2.24,8.02 2.26,8.01 2.28,7.99C2.3,7.97 2.31,7.95 2.33,7.93C2.34,7.91 2.36,7.89 2.37,7.87C2.39,7.85 2.4,7.83 2.41,7.81C2.42,7.79 2.43,7.76 2.44,7.74C2.45,7.72 2.46,7.69 2.47,7.67C2.48,7.65 2.48,7.62 2.49,7.6C2.49,7.57 2.5,7.55 2.5,7.52C2.5,7.5 2.5,7.47 2.5,7.45C2.5,7.42 2.5,7.4 2.5,7.37C2.5,7.35 2.49,7.32 2.49,7.3C2.48,7.27 2.48,7.25 2.47,7.22C2.46,7.2 2.45,7.18 2.44,7.15C2.43,7.13 2.42,7.11 2.41,7.09C2.4,7.06 2.39,7.04 2.37,7.02C2.36,7 2.34,6.98 2.33,6.96C2.31,6.94 2.3,6.92 2.28,6.91L2.28,6.91C2.05,6.68 1.87,6.42 1.75,6.13C1.62,5.84 1.54,5.52 1.53,5.19L1.53,4.99L1.53,1.79C1.53,1.72 1.56,1.66 1.61,1.61C1.66,1.56 1.72,1.53 1.79,1.53L9.95,1.53C10.02,1.53 10.08,1.56 10.13,1.61C10.18,1.66 10.2,1.72 10.2,1.79L10.2,5.1C10.2,5.44 10.14,5.75 10.02,6.06C9.9,6.35 9.73,6.62 9.51,6.85C9.29,7.08 9.04,7.27 8.75,7.41C8.46,7.55 8.16,7.63 7.83,7.65C7.74,7.65 7.61,7.65 7.43,7.65L5.87,7.65L5.87,9.18L7.43,9.18C7.64,9.18 7.79,9.18 7.9,9.18L7.91,9.18L7.92,9.18C8.45,9.14 8.94,9.01 9.42,8.79Z " /><path id="直线 1 (轮廓)" fill-rule="evenodd" style="fill:#383838" transform="translate(11.734693877551019 15.816326530612244)  rotate(0 0.7653061224489796 4.336734693877551)" opacity="1" d="M1.53,0.51C1.53,0.23 1.3,0 1.02,0L0.51,0C0.23,0 0,0.23 0,0.51L0,8.16C0,8.44 0.23,8.67 0.51,8.67L1.02,8.67C1.3,8.67 1.53,8.44 1.53,8.16L1.53,0.51Z " /><g opacity="1" transform="translate(9.183418367346885 4.591836727627341)  rotate(0 0.5 0.5)"></g></g></svg>