<svg xmlns="http://www.w3.org/2000/svg" xmlns:xlink="http://www.w3.org/1999/xlink" width="14" height="14" viewBox="0 0 14.000000000000002 14" fill="none"><path id="分组 1" fill-rule="evenodd" style="fill:#387EFE" opacity="1" d="M0,10.82v-7.64c0,-1.75 1.43,-3.18 3.18,-3.18h7.64c1.76,0 3.18,1.43 3.18,3.18v7.64c0,1.76 -1.43,3.18 -3.18,3.18h-7.64c-1.76,0 -3.18,-1.43 -3.18,-3.18zM7.69141,4.77164c0,0.88 0.71,1.59 1.59,1.59c0.87999,0 1.58999,-0.71 1.58999,-1.59c0,-0.88 -0.71,-1.59 -1.58999,-1.59c-0.88,0 -1.59,0.71 -1.59,1.59zM3.1814,4.86873c0,0.17 0.07,0.33 0.19,0.45l1.03,1.03c0.25,0.25 0.65,0.25 0.9,0l1.03,-1.03c0.12,-0.12 0.19,-0.28 0.19,-0.45c0,-0.17 -0.07,-0.33 -0.19,-0.45l-1.03,-1.03c-0.25,-0.25 -0.65,-0.25 -0.9,0l-1.03,1.03c-0.12,0.12 -0.19,0.28 -0.19,0.45zM3.87755,10.8172h1.91c0.35,0 0.63,-0.28 0.63,-0.63v-1.90999c0,-0.36 -0.28,-0.64 -0.63,-0.64h-1.91c-0.36,0 -0.64,0.28 -0.64,0.64v1.90999c0,0.35 0.28,0.63 0.64,0.63zM8.33141,10.8172h1.90999c0.35,0 0.63,-0.28 0.63,-0.63v-1.90999c0,-0.36 -0.28,-0.64 -0.63,-0.64h-1.90999c-0.36,0 -0.64,0.28 -0.64,0.64v1.90999c0,0.35 0.28,0.63 0.64,0.63z"></path></svg>