<svg xmlns="http://www.w3.org/2000/svg" xmlns:xlink="http://www.w3.org/1999/xlink" width="13" height="16" viewBox="0 0 13 16" fill="none"><g opacity="1"  transform="translate(0 0)  rotate(0)"><path id="路径 1" fill-rule="evenodd" style="fill:#2B2F38" opacity="1" d="M10.56,0c1.35,0 2.44,1.08 2.44,2.4v11.2c0,1.32 -1.09,2.4 -2.44,2.4h-8.12c-1.35,0 -2.44,-1.08 -2.44,-2.4v-11.2c0,-1.32 1.09,-2.4 2.44,-2.4zM11.38,10.4h-9.75v3.2c0,0.44 0.36,0.8 0.81,0.8h8.12c0.45,0 0.82,-0.36 0.82,-0.8zM11.38,8.8v-6.4c0,-0.44 -0.37,-0.8 -0.82,-0.8h-8.12c-0.45,0 -0.81,0.36 -0.81,0.8v6.4z"></path><path id="路径 2" fill-rule="evenodd" style="fill:#457DFF" opacity="1" d="M6.50125 13.6C7.17125 13.6 7.72125 13.06 7.72125 12.4C7.72125 11.74 7.17125 11.2 6.50125 11.2C5.83125 11.2 5.28125 11.74 5.28125 12.4C5.28125 13.06 5.83125 13.6 6.50125 13.6Z"></path></g></svg>