<svg xmlns="http://www.w3.org/2000/svg" xmlns:xlink="http://www.w3.org/1999/xlink" width="14.404052734375" height="16" viewBox="0 0 14.404052734375 16" fill="none"><g opacity="1"  transform="translate(0 0)  rotate(0)"><path id="路径 1" fill-rule="evenodd" style="fill:#333333" opacity="1" d="M8.79995 8.00002C8.79995 7.56002 8.43995 7.20001 7.99996 7.20001L4.79999 7.20001C4.36 7.20001 4 7.56002 4 8.00002C4 8.44003 4.36 8.80004 4.79999 8.80004L7.99996 8.80004C8.43995 8.80004 8.79995 8.44003 8.79995 8.00002Z"></path><path id="路径 2" fill-rule="evenodd" style="fill:#333333" opacity="1" d="M4 4.80001C4 5.33002 4.27 5.60002 4.80001 5.60002L9.60008 5.60002C10.1301 5.60002 10.4001 5.33002 10.4001 4.80001C10.4001 4.27 10.1301 4 9.60008 4L4.80001 4C4.27 4 4 4.27 4 4.80001Z"></path><path id="路径 3" fill-rule="evenodd" style="fill:#457DFF" opacity="1" d="M14.1127 10.7978C13.9427 10.6678 13.7327 10.5978 13.5227 10.6178C13.3127 10.6378 13.1127 10.7478 12.9827 10.9078L10.4026 14.0678L9.23263 13.0978C8.89262 12.8178 8.39261 12.8578 8.11261 13.1978C7.97261 13.3678 7.90261 13.5778 7.92261 13.7878C7.94261 13.9978 8.05261 14.1878 8.21261 14.3278L10.0026 15.8178C10.3426 16.0978 10.8427 16.0478 11.1227 15.7078L14.2227 11.9278C14.5027 11.5778 14.4527 11.0778 14.1127 10.7978Z"></path><path id="路径 4" fill-rule="evenodd" style="fill:#333333" opacity="1" d="M2.40002 0C1.08001 0 0 1.08 0 2.4L0 13.6C0 14.92 1.08001 16 2.40002 16L5.60004 16C6.04004 16 6.40004 15.64 6.40004 15.2C6.40004 14.76 6.04004 14.4 5.60004 14.4L2.40002 14.4C1.96001 14.4 1.60001 14.04 1.60001 13.6L1.60001 2.4C1.60001 1.96 1.96001 1.6 2.40002 1.6L12.0001 1.6C12.4401 1.6 12.8001 1.96 12.8001 2.4L12.8001 8C12.8001 8.44 13.1601 8.8 13.6001 8.8C14.0401 8.8 14.4001 8.44 14.4001 8L14.4001 2.4C14.4001 1.08 13.3201 0 12.0001 0L2.40002 0Z"></path></g></svg>