<?xml version="1.0" standalone="no"?><!DOCTYPE svg PUBLIC "-//W3C//DTD SVG 1.1//EN" "http://www.w3.org/Graphics/SVG/1.1/DTD/svg11.dtd"><svg t="1689139863726" class="icon" viewBox="0 0 1251 1024" version="1.1" xmlns="http://www.w3.org/2000/svg" p-id="1935" xmlns:xlink="http://www.w3.org/1999/xlink" width="78.1875" height="64"><path d="M624.896305 1024c-79.332539 0-162.326579-19.52801-245.32062-59.804529-64.686532-30.512515-129.373063-73.230036-194.059594-126.932062C78.112038 746.946365 12.205006 657.849821 9.764005 654.188319a48.820024 48.820024 0 0 1 0-57.363528c2.441001-3.661502 69.568534-92.758045 176.972586-183.075089 63.466031-53.702026 129.373063-96.419547 194.059595-126.932062 82.994041-39.056019 164.76758-59.804529 245.32062-59.804529s162.326579 19.52801 245.32062 59.804529c64.686532 30.512515 129.373063 73.230036 194.059594 126.932062 107.404052 90.317044 173.311085 179.413588 176.972587 183.075089a48.820024 48.820024 0 0 1 0 57.363528c-2.441001 3.661502-69.568534 92.758045-176.972587 183.07509-63.466031 53.702026-129.373063 96.419547-194.059594 126.932062-84.214541 40.27652-167.208582 59.804529-246.541121 59.804529zM111.065554 624.896305a1150.932062 1150.932062 0 0 0 139.137068 139.137068c89.096544 74.450536 225.79261 162.326579 374.693683 162.326579 237.997616 0 445.482718-220.910608 513.830751-301.463647a1150.932062 1150.932062 0 0 0-139.137068-139.137068c-89.096544-74.450536-225.79261-162.326579-374.693683-162.326579-237.997616 0-445.482718 220.910608-513.830751 301.463647z" fill="#666666" p-id="1936"></path><path d="M624.896305 842.145411c-119.609058 0-217.249106-97.640048-217.249106-217.249106s97.640048-217.249106 217.249106-217.249106 217.249106 97.640048 217.249106 217.249106-97.640048 217.249106-217.249106 217.249106z m0-336.858164a119.609058 119.609058 0 1 0 119.609059 119.609058 119.609058 119.609058 0 0 0-119.609059-119.609058z" fill="#666666" p-id="1937"></path><path d="M624.896305 705.449344a79.332539 79.332539 0 1 1 79.332539-79.332538 79.332539 79.332539 0 0 1-79.332539 79.332538z m0-97.640047a18.307509 18.307509 0 1 0 18.307509 18.307509 18.307509 18.307509 0 0 0-18.307509-18.307509zM624.896305 189.177592a48.820024 48.820024 0 0 1-48.820024-48.820023V48.820024a48.820024 48.820024 0 0 1 97.640048 0v91.537545a48.820024 48.820024 0 0 1-48.820024 48.820023zM950.769964 273.392133a48.820024 48.820024 0 0 1-34.174016-82.99404l64.686531-64.686532a49.192277 49.192277 0 1 1 69.568534 69.568534l-64.686531 64.686532a48.820024 48.820024 0 0 1-35.394518 13.425506zM308.786651 273.392133a48.820024 48.820024 0 0 1-34.174017-14.646007l-64.686531-64.686531a49.192277 49.192277 0 0 1 69.568533-69.568534l64.686532 64.686531a48.820024 48.820024 0 0 1-34.174017 82.994041z" fill="#666666" p-id="1938"></path></svg>