<svg xmlns="http://www.w3.org/2000/svg" xmlns:xlink="http://www.w3.org/1999/xlink" width="23" height="23" viewBox="0 0 23 23" fill="none"><defs><linearGradient id="linear_0" x1="17.477000000000004%" y1="78.786%" x2="87.14899999999999%" y2="14.392999999999997%" gradientUnits="objectBoundingBox"><stop offset="0" stop-color="#387EFE" stop-opacity="1" /><stop offset="1" stop-color="#52B4FF" stop-opacity="1" /></linearGradient><linearGradient id="linear_1" x1="17.477000000000004%" y1="78.786%" x2="87.14899999999999%" y2="14.392999999999997%" gradientUnits="objectBoundingBox"><stop offset="0" stop-color="#387EFE" stop-opacity="1" /><stop offset="1" stop-color="#52B4FF" stop-opacity="1" /></linearGradient></defs><g opacity="1" transform="translate(0 0)  rotate(0 11.500000000000002 11.499999999999986)"><path id="路径 5" fill-rule="evenodd" style="fill:#FFFFFF" transform="translate(0 0)  rotate(0 11.500000000000002 11.499999999999986)" opacity="1" d="M0,11.5C0,17.85 5.15,23 11.5,23C17.85,23 23,17.85 23,11.5C23,5.15 17.85,0 11.5,0C5.15,0 0,5.15 0,11.5Z " /><path id="路径 6" fill-rule="evenodd" fill="url(#linear_0)" transform="translate(4.050000012634483 5.333333317989519)  rotate(0 5.291666662177781 4.883333342866086)" opacity="1" d="M10.58,3.75C10.13,1.6 7.85,0 5.27,0C2.38,0 0,2 0,4.55C0,6 0.8,7.22 2.12,8.15L1.6,9.77L3.43,8.83C4.07,8.98 4.6,9.12 5.27,9.12C5.43,9.12 5.62,9.1 5.78,9.08C5.68,8.72 5.62,8.35 5.62,7.97C5.62,5.63 7.58,3.75 10.08,3.72C10.25,3.72 10.42,3.73 10.58,3.75Z " /><path id="路径 7" fill-rule="evenodd" fill="url(#linear_1)" transform="translate(9.999895733726863 9.36666665027808)  rotate(0 4.475052138082367 4.141666675693401)" opacity="1" d="M8.95,3.88C8.95,1.75 6.85,0 4.47,0C1.97,0 -0.02,1.73 0,3.87C0,6.02 1.98,7.75 4.5,7.75C5.03,7.75 5.57,7.62 6.08,7.48L7.52,8.28L7.12,6.95C8.17,6.15 8.95,5.08 8.95,3.88Z " /><path id="路径 1" fill-rule="evenodd" style="fill:#FFFFFF" transform="translate(6.799999994515256 7.633333336010362)  rotate(0 0.7333333382629453 0.6666666619329333)" opacity="1" d="M0,0.67C0,1.07 0.4,1.33 0.8,1.33C1.2,1.33 1.47,1.07 1.47,0.67C1.47,0.25 1.2,0 0.8,0C0.4,0 0,0.27 0,0.67Z " /><path id="路径 2" fill-rule="evenodd" style="fill:#FFFFFF" transform="translate(12.50000000979406 11.500000000000034)  rotate(0 0.5916666679562008 0.5333333317989506)" opacity="1" d="M0,0.53C0,0.82 0.27,1.07 0.52,1.07C0.92,1.07 1.18,0.8 1.18,0.53C1.18,0.27 0.92,0 0.52,0C0.25,0 0,0.28 0,0.53Z " /><path id="路径 3" fill-rule="evenodd" style="fill:#FFFFFF" transform="translate(10.500000012732254 7.633333336010362)  rotate(0 0.7333333269999252 0.6666666619329329)" opacity="1" d="M1.47,0.67C1.47,0.27 1.2,0 0.8,0C0.4,0 0,0.27 0,0.67C0,1.07 0.4,1.33 0.8,1.33C1.2,1.33 1.47,1.05 1.47,0.67Z " /><path id="路径 4" fill-rule="evenodd" style="fill:#FFFFFF" transform="translate(15.400000002154353 11.500000000000034)  rotate(0 0.5916666679562008 0.5333333317989506)" opacity="1" d="M0,0.53C0,0.82 0.27,1.07 0.52,1.07C0.92,1.07 1.18,0.8 1.18,0.53C1.18,0.27 0.92,0 0.52,0C0.25,0 0,0.28 0,0.53Z " /></g></svg>