<svg xmlns="http://www.w3.org/2000/svg" xmlns:xlink="http://www.w3.org/1999/xlink" width="17" height="14" viewBox="0 0 17 14" fill="none"><path id="微信" fill-rule="evenodd" style="fill:#43CF7C" transform="translate(0 0.00008138020848491578)  rotate(0 8.005211726384365 6.666666666666667)" opacity="1" d="M15.1,3.38L7.22,9.07L7.16,9.1C7.08,9.14 7,9.16 6.92,9.16C6.73,9.16 6.55,9.06 6.45,8.9L6.42,8.82L3.63,5.14C3.61,5.11 3.6,5.07 3.6,5.03C3.6,4.89 3.72,4.78 3.87,4.78C3.93,4.78 3.98,4.8 4.03,4.83L7.08,6.65C7.29,6.78 7.55,6.81 7.79,6.73L14.54,2.67C13.09,1.05 10.71,0 8.01,0C3.58,0 0,2.82 0,6.3C0,8.19 1.08,9.9 2.77,11.06C2.9,11.15 2.99,11.3 2.99,11.47C2.99,11.52 2.98,11.58 2.96,11.63L2.6,12.9C2.58,12.96 2.56,13.02 2.56,13.08C2.56,13.22 2.68,13.33 2.82,13.33C2.88,13.33 2.93,13.31 2.98,13.29L4.73,12.33C4.86,12.26 5,12.22 5.16,12.22C5.24,12.22 5.32,12.23 5.39,12.25C6.21,12.47 7.09,12.59 8,12.59C12.43,12.59 16.01,9.77 16.01,6.3C16.01,5.24 15.68,4.25 15.1,3.38Z " /></svg>