<svg xmlns="http://www.w3.org/2000/svg" xmlns:xlink="http://www.w3.org/1999/xlink" width="13" height="13" viewBox="0 0 13 13" fill="none"><g opacity="1" transform="translate(0 -4.5776367230132564e-7)  rotate(0 6.48 6.48)"><path id="分组 1" fill-rule="evenodd" style="fill:#E5E5E5" transform="translate(0 0)  rotate(0 6.48 6.48)" opacity="1" d="M6.48 0C2.9 0 0 2.9 0 6.48C0 10.06 2.9 12.96 6.48 12.96C10.06 12.96 12.96 10.06 12.96 6.48C12.96 2.9 10.06 0 6.48 0Z M0.968 6.496C0.968 9.556 3.438 12.026 6.498 12.026C9.548 12.026 12.028 9.556 12.028 6.496C12.028 3.576 9.468 0.976 6.498 0.976C3.548 0.976 0.968 3.556 0.968 6.496Z " /><path id="分组 2" fill-rule="evenodd" style="fill:#E5E5E5" transform="translate(4.39200000000028 3.0160000000000196)  rotate(0 2.12 3.556)" opacity="1" d="M2.5 5.24L2.5 5.02C2.52 4.76 2.55 4.55 2.67 4.34C2.78 4.18 2.92 4.03 3.13 3.86C3.54 3.49 3.78 3.26 3.88 3.15C4.15 2.8 4.24 2.44 4.24 2.02C4.24 1.44 4.04 0.93 3.69 0.61C3.32 0.23 2.78 0 2.18 0C1.5 0 0.94 0.28 0.54 0.75C0.18 1.16 0 1.73 0 2.38L0.83 2.39C0.83 1.94 0.96 1.57 1.17 1.3C1.39 0.99 1.7 0.83 2.18 0.83C2.57 0.83 2.88 0.94 3.1 1.16C3.3 1.37 3.42 1.66 3.42 2.03C3.42 2.3 3.32 2.54 3.14 2.78C3.08 2.85 2.98 2.93 2.82 3.11C2.31 3.58 2 3.92 1.87 4.2C1.76 4.43 1.7 4.67 1.7 5.02L1.7 5.24L2.5 5.24Z M1.692 6.068C1.572 6.178 1.512 6.318 1.512 6.498C1.512 6.668 1.562 6.818 1.692 6.938C1.812 7.048 1.952 7.108 2.132 7.108C2.302 7.108 2.452 7.048 2.572 6.938C2.692 6.828 2.752 6.678 2.752 6.498C2.752 6.318 2.692 6.178 2.572 6.068C2.452 5.938 2.292 5.888 2.132 5.888C1.952 5.888 1.812 5.938 1.692 6.068Z " /></g></svg>