<svg xmlns="http://www.w3.org/2000/svg" xmlns:xlink="http://www.w3.org/1999/xlink" width="16" height="15" viewBox="0 0 16 15" fill="none"><g opacity="1" transform="translate(0.00000865244305714441 0.000032357234886148944)  rotate(0 7.583563137951733 7.499089383989634)"><path id="圆形 4 (轮廓)" fill-rule="evenodd" style="fill:#808080" transform="translate(0 0)  rotate(0 7.583563137951733 7.499089383989634)" opacity="1" d="M7.58 0C11.77 0 15.17 3.36 15.17 7.5C15.17 11.64 11.77 15 7.58 15C3.4 15 0 11.64 0 7.5C0 3.36 3.4 0 7.58 0ZM7.58 14C8.47 14 9.33 13.83 10.14 13.49C10.93 13.16 11.62 12.69 12.23 12.09C12.84 11.49 13.31 10.8 13.64 10.03C13.98 9.22 14.16 8.38 14.16 7.5C14.16 6.62 13.98 5.77 13.64 4.97Q13.145 3.8 12.23 2.9C11.62 2.3 10.93 1.84 10.14 1.51C9.33 1.17 8.47 1 7.58 1Q6.245 1 5.03 1.51C4.24 1.84 3.54 2.3 2.94 2.9Q2.025 3.8 1.53 4.97C1.18 5.77 1.01 6.62 1.01 7.5C1.01 8.38 1.18 9.22 1.53 10.03C1.86 10.8 2.33 11.49 2.94 12.09C3.54 12.69 4.24 13.16 5.03 13.49Q6.245 14 7.58 14Z" /><g opacity="1" transform="translate(6.235374140915155 2.9996357535965217)  rotate(0 1.3481889970361673 4.499453630393781)"><path id="路径 4" fill-rule="evenodd" style="fill:#808080" transform="translate(1.7763568394002505e-15 0)  rotate(0 1.3481889970361673 2.879046567774664)" opacity="1" d="M0,1.33L1.15,5.61C1.18,5.7 1.26,5.76 1.35,5.76C1.44,5.76 1.52,5.7 1.54,5.61L2.7,1.33C2.7,0.6 2.09,0 1.35,0C0.6,0 0,0.6 0,1.33Z " /><path id="圆形 3" fill-rule="evenodd" style="fill:#808080" transform="translate(0.3336767780707124 6.999150091723658)  rotate(0 1.0111417517268977 0.9998785845319513)" opacity="1" d="M1.01,0C0.45,0 0,0.45 0,1C0,1.55 0.45,2 1.01,2C1.57,2 2.02,1.55 2.02,1C2.02,0.45 1.57,0 1.01,0Z " /></g></g></svg>