<svg xmlns="http://www.w3.org/2000/svg" xmlns:xlink="http://www.w3.org/1999/xlink" width="25" height="25" viewBox="0 0 25 25" fill="none"><g opacity="1" transform="translate(0 0)  rotate(0 12.5 12.5)"><path id="圆形 1 (轮廓)" fill-rule="evenodd" style="fill:#A6A6A6" transform="translate(4.846938775510203 0)  rotate(0 7.653061224489796 7.767857142857144)" opacity="1" d="M14.7 10.79C14.32 11.72 13.77 12.55 13.07 13.26C12.36 13.98 11.55 14.53 10.63 14.93C9.68 15.33 8.69 15.54 7.65 15.54C6.61 15.54 5.62 15.33 4.67 14.93C3.76 14.53 2.95 13.98 2.24 13.26C1.53 12.55 0.99 11.72 0.6 10.79C0.2 9.83 0 8.82 0 7.77C0 6.71 0.2 5.71 0.6 4.74C0.99 3.81 1.53 2.99 2.24 2.27C2.95 1.56 3.76 1 4.67 0.61C5.62 0.2 6.61 0 7.65 0C8.69 0 9.68 0.2 10.63 0.61C11.55 1 12.36 1.56 13.07 2.27C13.77 2.99 14.32 3.81 14.7 4.74C15.11 5.71 15.31 6.71 15.31 7.77C15.31 8.82 15.11 9.83 14.7 10.79ZM2.01 10.19C2.32 10.93 2.76 11.59 3.32 12.16C3.89 12.74 4.54 13.18 5.27 13.49C6.03 13.82 6.82 13.98 7.65 13.98C8.48 13.98 9.28 13.82 10.04 13.49C10.77 13.18 11.42 12.74 11.98 12.16C12.55 11.59 12.99 10.93 13.29 10.19C13.62 9.42 13.78 8.61 13.78 7.77C13.78 6.92 13.62 6.12 13.29 5.35C12.99 4.6 12.55 3.95 11.98 3.37C11.42 2.8 10.77 2.36 10.04 2.04C9.28 1.72 8.48 1.55 7.65 1.55C6.82 1.55 6.03 1.72 5.27 2.04C4.54 2.36 3.89 2.8 3.32 3.37C2.76 3.95 2.32 4.6 2.01 5.35C1.69 6.12 1.53 6.92 1.53 7.77C1.53 8.61 1.69 9.42 2.01 10.19Z" /><path id="矩形 2 (轮廓)" fill-rule="evenodd" style="fill:#A6A6A6" transform="translate(0 14)  rotate(0 12.5 5.5)" opacity="1" d="M0.06 2.14C-0.09 1.62 0.05 1.08 0.45 0.66C0.85 0.24 1.45 0 2.09 0L4.21 0C4.58 0 4.93 0.07 5.24 0.22L11.47 3.05C12.11 3.34 12.89 3.34 13.53 3.05L19.76 0.22C20.07 0.07 20.42 0 20.79 0L22.91 0C23.55 0 24.15 0.24 24.55 0.66C24.95 1.08 25.09 1.62 24.94 2.14L22.7 9.66C22.47 10.45 21.61 11 20.63 11L4.37 11C3.39 11 2.53 10.45 2.3 9.66L0.06 2.14ZM4.21 1.32L2.09 1.32C1.93 1.32 1.8 1.37 1.7 1.48C1.66 1.52 1.63 1.58 1.61 1.64C1.6 1.7 1.6 1.76 1.61 1.82L3.85 9.34C3.88 9.44 3.94 9.52 4.04 9.59C4.14 9.65 4.25 9.68 4.37 9.68L20.63 9.68C20.75 9.68 20.86 9.65 20.96 9.59C21.06 9.52 21.12 9.44 21.15 9.34L23.38 1.82C23.4 1.76 23.4 1.7 23.39 1.64C23.37 1.58 23.34 1.52 23.29 1.47C23.2 1.37 23.07 1.32 22.91 1.32L20.79 1.32C20.7 1.32 20.61 1.34 20.54 1.37L14.3 4.21C13.74 4.46 13.14 4.59 12.5 4.59C11.86 4.59 11.26 4.46 10.7 4.21L4.47 1.38C4.39 1.34 4.3 1.32 4.21 1.32Z" /></g></svg>