<svg xmlns="http://www.w3.org/2000/svg" xmlns:xlink="http://www.w3.org/1999/xlink" width="11.999999999999972" height="11.998407925573645" viewBox="0 0 11.999999999999972 11.998407925573645" fill="none"><path id="路径 1" fill-rule="evenodd" style="fill:#0090FF" opacity="1" d="M8.91,12c-0.21,0 -0.42,-0.06 -0.6,-0.16l-2.26,-1.23c-0.03,-0.02 -0.07,-0.02 -0.1,0l-2.26,1.23c-0.43,0.24 -0.96,0.2 -1.36,-0.1c-0.4,-0.31 -0.6,-0.82 -0.51,-1.32l0.43,-2.61c0.01,-0.03 0,-0.07 -0.03,-0.1l-1.83,-1.85c-0.35,-0.36 -0.48,-0.88 -0.33,-1.36c0.14,-0.48 0.55,-0.84 1.05,-0.92l2.52,-0.38c0.03,-0.01 0.06,-0.03 0.08,-0.06l1.13,-2.39c0.2,-0.46 0.66,-0.75 1.16,-0.75c0.5,0 0.95,0.29 1.16,0.75l1.13,2.37c0.01,0.04 0.04,0.06 0.08,0.06l2.52,0.39c0.5,0.08 0.91,0.44 1.05,0.93c0.15,0.48 0.02,1.01 -0.33,1.38l-1.83,1.85c-0.02,0.02 -0.03,0.06 -0.03,0.1l0.43,2.61c0.09,0.5 -0.11,1.01 -0.51,1.32c-0.22,0.16 -0.49,0.24 -0.76,0.24zM6.6,9.54l2.25,1.26c0.03,0.02 0.08,0.02 0.11,0c0.04,-0.03 0.06,-0.07 0.04,-0.12l-0.42,-2.62c-0.08,-0.44 0.06,-0.88 0.37,-1.2l1.82,-1.86c0.03,-0.03 0.04,-0.08 0.02,-0.12c-0.01,-0.04 -0.04,-0.07 -0.09,-0.08l-2.51,-0.38c-0.43,-0.07 -0.79,-0.35 -0.97,-0.74l-1.12,-2.4c-0.01,-0.05 -0.05,-0.08 -0.1,-0.08c-0.04,0 -0.08,0.02 -0.1,0.06l-1.12,2.4c-0.18,0.4 -0.55,0.67 -0.97,0.74l-2.52,0.37c-0.04,0.01 -0.07,0.04 -0.09,0.09c-0.01,0.04 0,0.08 0.03,0.11l1.82,1.86c0.31,0.32 0.44,0.77 0.37,1.2l-0.42,2.63c-0.01,0.04 0.01,0.09 0.04,0.11c0.03,0.03 0.08,0.03 0.12,0l2.24,-1.23c0.18,-0.1 0.39,-0.15 0.6,-0.15c0.21,0 0.41,0.05 0.6,0.15z"></path></svg>