<svg xmlns="http://www.w3.org/2000/svg" xmlns:xlink="http://www.w3.org/1999/xlink" width="13" height="13" viewBox="0 0 13 13" fill="none"><g opacity="1" transform="translate(0.00009960937495634425 0)  rotate(0 6.4921875 6.492187500000273)"><path id="路径 1" fill-rule="evenodd" style="fill:#0090FF" transform="translate(5.762500000000273 5.114062482314694)  rotate(0 0.7296875000000003 0.7296875176853574)" opacity="1" d="M0.36,1.36C0.59,1.49 0.87,1.49 1.09,1.36C1.32,1.23 1.46,0.99 1.46,0.73C1.46,0.47 1.32,0.23 1.09,0.1C0.87,-0.03 0.59,-0.03 0.36,0.1C0.14,0.23 0,0.47 0,0.73C0,0.99 0.14,1.23 0.36,1.36Z " /><path id="路径 2" fill-rule="evenodd" style="fill:#0090FF" transform="translate(0 0)  rotate(0 6.4921875 5.9828125)" opacity="1" d="M9.25,11.68C9.38,11.87 9.58,11.97 9.79,11.97C9.92,11.97 10.05,11.93 10.16,11.85C11.93,10.64 12.98,8.63 12.98,6.49C12.98,2.91 10.07,0 6.49,0C2.91,0 0,2.91 0,6.49C0,8.64 1.06,10.64 2.83,11.85C3.12,12.05 3.53,11.98 3.73,11.68C3.93,11.39 3.85,10.98 3.56,10.78C2.14,9.81 1.3,8.21 1.3,6.49C1.3,3.63 3.63,1.3 6.49,1.3C9.36,1.3 11.69,3.63 11.69,6.49C11.69,8.21 10.84,9.81 9.42,10.78C9.13,10.98 9.05,11.39 9.25,11.68Z " /><path id="路径 3" fill-rule="evenodd" style="fill:#0090FF" transform="translate(7.882577570472222 3.251327570472313)  rotate(0 1.2774612147640205 3.23058621476402)" opacity="1" d="M1.05,0.14C0.77,-0.08 0.36,-0.03 0.14,0.25C-0.08,0.53 -0.03,0.94 0.25,1.16C0.89,1.67 1.26,2.43 1.26,3.24C1.26,4.05 0.9,4.8 0.27,5.31C-0.01,5.53 -0.06,5.94 0.17,6.22C0.3,6.38 0.48,6.46 0.68,6.46C0.82,6.46 0.96,6.41 1.08,6.32C2.02,5.56 2.55,4.44 2.55,3.24C2.55,2.02 2.01,0.89 1.05,0.14Z " /><path id="路径 4" fill-rule="evenodd" style="fill:#0090FF" transform="translate(2.543750000000273 3.3054416040486103)  rotate(0 1.2455129000827818 3.183997947975677)" opacity="1" d="M2.34,0.23C2.11,-0.04 1.7,-0.08 1.43,0.15C0.52,0.9 0,2.01 0,3.19C0,4.36 0.52,5.46 1.42,6.22C1.54,6.32 1.69,6.37 1.83,6.37C2.02,6.37 2.2,6.29 2.33,6.14C2.56,5.86 2.53,5.45 2.25,5.22C1.65,4.71 1.3,3.97 1.3,3.19C1.3,2.4 1.65,1.65 2.26,1.15C2.53,0.92 2.57,0.51 2.34,0.23Z " /><path id="路径 5" fill-rule="evenodd" style="fill:#0090FF" transform="translate(5.843750000000455 7.142187500000546)  rotate(0 0.6484374999999996 2.92109375)" opacity="1" d="M1.3,5.19L1.3,0.65C1.3,0.29 1.01,0 0.65,0C0.29,0 0,0.29 0,0.65L0,5.19C0,5.55 0.29,5.84 0.65,5.84C1.01,5.84 1.3,5.55 1.3,5.19Z " /></g></svg>