<svg xmlns="http://www.w3.org/2000/svg" xmlns:xlink="http://www.w3.org/1999/xlink" width="20" height="20" viewBox="0 0 20 20" fill="none"><g opacity="1" transform="translate(-0.00004993823722543311 0)  rotate(0 9.587404318195048 9.674134655465544)"><path id="路径 2" fill-rule="evenodd" style="fill:#387EFE" transform="translate(6.454682857546231 4.674581861943352)  rotate(0 3.13272146064847 4.999552793522245)" opacity="1" d="M2.44,7.48L2.44,9.33C2.44,9.75 2.69,10 3.09,10C3.5,10 3.74,9.66 3.74,9.33L3.74,7.48L5.61,7.48C6.02,7.48 6.27,7.15 6.27,6.81C6.27,6.39 5.94,6.14 5.61,6.14L3.74,6.14L3.74,4.88L5.61,4.88C6.02,4.88 6.27,4.55 6.27,4.21C6.27,3.79 5.94,3.54 5.61,3.54L3.74,3.54L6.02,1.11C6.27,0.86 6.27,0.52 6.02,0.19C5.78,-0.06 5.37,-0.06 5.13,0.19L3.17,2.28L1.14,0.19C0.9,-0.06 0.49,-0.06 0.24,0.19C0,0.44 0,0.86 0.24,1.11L2.44,3.46L2.44,3.54L0.65,3.54C0.24,3.54 0,3.88 0,4.21C0,4.63 0.33,4.88 0.65,4.88L2.44,4.88L2.44,6.14L0.65,6.14C0.24,6.14 0,6.48 0,6.81C0,7.23 0.33,7.48 0.65,7.48L2.44,7.48Z " /><path id="路径 3" fill-rule="evenodd" style="fill:#387EFE" transform="translate(0 0)  rotate(0 9.587404318195048 9.674134655465544)" opacity="1" d="M17.82 9.72C17.82 14.3 14.11 18.06 9.59 18.06C5.07 18.06 1.36 14.3 1.36 9.72C1.36 5.14 5.07 1.38 9.59 1.38L9.86 1.38C10.22 1.38 10.49 1.1 10.58 0.73C10.58 0.28 10.22 0 9.86 0L9.59 0C4.34 0 0 4.4 0 9.63C0 15.04 4.34 19.35 9.59 19.35C14.9 19.35 19.14 14.99 19.17 9.7C19.17 9.34 18.9 9.08 18.54 9.08C18.09 9.08 17.82 9.35 17.82 9.72Z" /><path id="直线 1"  style="fill:#000000" transform="translate(13.820971939505398 1.3332587989202693)  rotate(0 0.0005431419039645391 2.1818766460988797)" opacity="100" d="M-0.748914 -0.000186689Q-0.748895 -0.0740552 -0.734466 -0.146501Q-0.720037 -0.218946 -0.691752 -0.287185Q-0.663467 -0.355424 -0.622412 -0.416833Q-0.581358 -0.478242 -0.529112 -0.530462Q-0.476866 -0.582682 -0.415436 -0.623706Q-0.354006 -0.66473 -0.285754 -0.692981Q-0.217501 -0.721232 -0.145048 -0.735625Q-0.0725956 -0.750018 0.00127298 -0.75Q0.150457 -0.749963 0.288271 -0.692838Q0.426085 -0.635713 0.531548 -0.530198Q0.637011 -0.424683 0.694067 -0.28684Q0.751123 -0.148998 0.751086 0.000186711L0.75 0.00018644L0.75 4.36L-0.75 4.36L-0.75 0L0.00104321 0L-0.748914 -0.000186689ZM-0.000186443 5.11375Q0.0736821 5.11377 0.146135 5.09938Q0.218588 5.08499 0.28684 5.05673Q0.355093 5.02848 0.416523 4.98746Q0.477952 4.94643 0.530198 4.89422Q0.582444 4.84199 0.623499 4.78059Q0.664553 4.71918 0.692838 4.65094Q0.721124 4.5827 0.735553 4.51025Q0.749982 4.43781 0.75 4.36394L-0.75 4.36357Q-0.750018 4.43744 -0.735625 4.50989Q-0.721232 4.58234 -0.692981 4.65059Q-0.664729 4.71885 -0.623706 4.78028Q-0.582682 4.84171 -0.530462 4.89395Q-0.478242 4.9462 -0.416833 4.98725Q-0.355423 5.02831 -0.287185 5.05659Q-0.218946 5.08488 -0.146501 5.09931Q-0.074055 5.11373 -0.000186443 5.11375Z " /><path  id="直线 1" style="stroke:#387EFE; stroke-width:1.5; stroke-opacity:1; stroke-dasharray:0 0" transform="translate(13.820971939505398 1.3332587989202693)  rotate(0 0.0005431419039645391 2.1818766460988797)" d="" /><path id="直线 1"  style="fill:#000000" transform="translate(11.64840425575403 3.5151354450192684)  rotate(0 2.1725676837509944 0.0005454691444621851)" opacity="100" d="M0 -0.75L4.35 -0.75L4.35 -0.748893Q4.49797 -0.747933 4.63448 -0.690848Q4.77099 -0.633762 4.8756 -0.529106Q4.98106 -0.42359 5.03812 -0.285748Q5.09517 -0.147905 5.09513 0.00127925Q5.0951 0.150463 5.03797 0.288277Q4.98085 0.426091 4.87533 0.531554Q4.76982 0.637017 4.63197 0.694073Q4.49413 0.751128 4.34495 0.751091L4.34495 0.75L0 0.75L0 0L-0.000188303 0.75Q-0.0740568 0.749981 -0.146502 0.735552Q-0.218948 0.721123 -0.287186 0.692837Q-0.355425 0.664552 -0.416834 0.623497Q-0.478243 0.582443 -0.530463 0.530197Q-0.582683 0.477951 -0.623707 0.416521Q-0.66473 0.355091 -0.692982 0.286839Q-0.721233 0.218586 -0.735626 0.146133Q-0.750018 0.0736802 -0.75 -0.000188303Q-0.749981 -0.074045 -0.735557 -0.146479Q-0.721132 -0.218914 -0.692856 -0.287143Q-0.664579 -0.355372 -0.623537 -0.416776Q-0.582495 -0.478179 -0.530263 -0.530397Q-0.478032 -0.582615 -0.416619 -0.623641Q-0.355206 -0.664668 -0.286969 -0.692928Q-0.218733 -0.721187 -0.146295 -0.735594Q-0.0738567 -0.75 0 -0.75Z " /><path  id="直线 1" style="stroke:#387EFE; stroke-width:1.5; stroke-opacity:1; stroke-dasharray:0 0" transform="translate(11.64840425575403 3.5151354450192684)  rotate(0 2.1725676837509944 0.0005454691444621851)" d="" /></g></svg>