<svg xmlns="http://www.w3.org/2000/svg" xmlns:xlink="http://www.w3.org/1999/xlink" width="17" height="11" viewBox="0 0 17 11" fill="none"><g opacity="1" transform="translate(0.0011528884938343253 0.00048828125)  rotate(0 8.000000000000092 5.000000000000002)"><path id="路径 1" fill-rule="evenodd" style="fill:#E60012" transform="translate(0 0.007993897484957824)  rotate(0 4.210949069429531 4.996003051257519)" opacity="1" d="M0.61,9.97C0.75,10 5.34,10 5.49,9.97C5.93,9.88 6.34,9.54 6.49,9.12C6.55,8.96 8.42,0.95 8.42,0.82C8.45,0.44 8.22,0.13 7.86,0.02C7.77,0 3.19,-0.01 3,0.01C2.53,0.07 2.07,0.46 1.92,0.9C1.82,1.18 0.01,9.04 0,9.18C-0.02,9.59 0.22,9.89 0.61,9.97Z " /><path id="路径 2" fill-rule="evenodd" style="fill:#00508E" transform="translate(4.2894658991231625 0.007993897484957824)  rotate(0 4.210934972675681 4.996003051257519)" opacity="1" d="M2.99,0.01C2.52,0.07 2.06,0.46 1.91,0.9C1.82,1.18 0,9.04 0,9.18C-0.02,9.59 0.22,9.89 0.61,9.97C0.75,10 5.34,10 5.49,9.97C5.93,9.88 6.34,9.54 6.49,9.12C6.55,8.96 8.42,0.95 8.42,0.82C8.45,0.44 8.22,0.13 7.86,0.02C7.76,0 3.18,-0.01 2.99,0.01Z " /><path id="路径 3" fill-rule="evenodd" style="fill:#00908C" transform="translate(8.755549753304859 0)  rotate(0 3.622225123347664 5.000000000000002)" opacity="1" d="M6.68,0.03C6.59,0 2.76,-0.01 2.57,0.01L2.99,0.01L2.99,0.02C2.52,0.08 2.06,0.47 1.91,0.91C1.82,1.19 0,9.04 0,9.19C-0.02,9.6 0.22,9.9 0.61,9.97C0.75,10.01 4.16,10.01 4.32,9.97C4.75,9.89 5.17,9.55 5.32,9.13C5.38,8.97 7.24,0.96 7.24,0.83C7.27,0.45 7.04,0.14 6.68,0.03Z " /><path id="分组 1" fill-rule="evenodd" style="fill:#FFFFFF" transform="translate(1.7990801032956614 2.5436522140365874)  rotate(0 6.4776986544031905 2.7042393093825927)" opacity="1" d="M1.05 0.03ZM1.05 0.03C1.05 0.01 0.38 0 0.38 0.02C0.25 0.41 -0.02 1.87 0 1.99C0.1 2.57 1.4 2.59 1.78 2.02C1.9 1.84 1.93 1.75 2.15 0.86C2.26 0.44 2.35 0.09 2.36 0.06C2.37 0.04 2.37 0.01 2.37 0.01C2.37 0 1.79 0 1.79 0C1.79 0.11 1.43 1.65 1.38 1.74C1.21 2.08 0.73 2.11 0.67 1.78C0.64 1.67 0.83 0.79 1.03 0.14C1.04 0.09 1.05 0.04 1.05 0.03ZM1.05 0.03C1.05 0.03 1.05 0.03 1.05 0.03ZM1.05 0.03C1.05 0.03 1.05 0.03 1.05 0.03C1.05 0.03 1.05 0.03 1.05 0.03ZM8.3583 0.00348842L8.3483 0.0334884C8.3483 0.0434884 8.29831 0.233488 7.79831 2.38349C7.7883 2.43349 8.3883 2.43349 8.3983 2.38349C8.3983 2.37349 8.41831 2.26349 8.44831 2.14349C8.56831 1.51349 8.5583 1.54349 8.7583 1.54349C9.41831 1.54349 9.79831 1.34349 9.9783 0.883488C10.1583 0.423488 10.0383 0.113488 9.6483 0.0334884C9.56831 0.0134884 9.4383 0.0134884 8.95831 0.00348842L8.3583 0.00348842ZM4.45458 0.858053C4.18458 0.788053 3.86458 1.03805 4.01458 1.19805C4.17458 1.35805 4.60458 1.20805 4.60458 0.998053C4.60458 0.948053 4.54458 0.878053 4.45458 0.858053ZM2.8662 0.989621C2.8362 0.999621 2.7262 1.01962 2.6162 1.03962C2.3862 1.06962 2.4062 1.03962 2.3662 1.29962C2.3362 1.52962 2.2762 1.78962 2.1862 2.15962C2.1162 2.44962 2.0962 2.41962 2.4162 2.40962L2.6762 2.39962L2.6962 2.31962C2.7062 2.24962 2.8562 1.51962 2.8662 1.45962C2.8762 1.43962 2.9662 1.39962 3.0362 1.39962C3.1562 1.39962 3.1462 1.47962 3.0162 2.07962C2.9762 2.23962 2.9462 2.36962 2.9462 2.38962C2.9362 2.40962 2.9362 2.40962 3.1962 2.40962C3.4962 2.40962 3.4762 2.41962 3.5062 2.24962C3.5162 2.17962 3.5462 2.02962 3.5762 1.91962C3.7062 1.29962 3.7162 1.23962 3.6662 1.13962C3.5862 0.969621 3.3262 0.939621 3.0562 1.07962L2.9562 1.12962L2.9662 1.08962C2.9662 1.06962 2.9662 1.03962 2.9662 1.01962C2.9662 0.979621 2.9562 0.969621 2.8662 0.989621ZM6.96193 1.08623C6.96193 1.05623 6.96193 1.02623 6.96193 1.00623C6.96193 0.976231 6.94193 0.966231 6.85193 1.00623C6.81193 1.01623 6.69193 1.03623 6.60193 1.05623C6.39193 1.08623 6.42193 1.05623 6.38193 1.27623C6.34193 1.50623 6.28193 1.81623 6.20193 2.15623C6.12193 2.46623 6.10193 2.42623 6.42193 2.41623L6.68193 2.41623L6.69193 2.31623C6.71193 2.20623 6.84193 1.60623 6.86193 1.51623C6.88193 1.43623 6.93193 1.40623 7.03193 1.40623C7.16193 1.40623 7.16193 1.47623 7.01193 2.09623C6.98193 2.24623 6.95193 2.37623 6.95193 2.39623C6.94193 2.41623 7.43193 2.42623 7.47193 2.39623C7.48193 2.38623 7.50193 2.29623 7.52193 2.18623C7.54193 2.08623 7.59193 1.86623 7.62193 1.71623C7.77193 1.02623 7.57193 0.806231 7.05193 1.07623L6.95193 1.12623L6.96193 1.08623ZM11.5309 2.67217C11.4609 2.80217 11.3809 2.94217 11.3609 2.98217C11.3409 3.02217 11.3009 3.09217 11.2709 3.13217C11.2009 3.25217 11.1909 3.27217 11.1109 3.27217L11.0409 3.27217L11.0209 3.36217C11.0109 3.41217 10.9909 3.48217 10.9809 3.51217L10.9609 3.57217L11.1809 3.56217C11.5409 3.55217 11.5409 3.55217 11.9709 2.77217C12.1109 2.52217 12.5109 1.82217 12.7909 1.33217C13.0009 0.962171 13.0009 0.972171 12.8209 1.01217C12.7409 1.03217 12.6409 1.04217 12.5909 1.05217C12.4109 1.08217 12.4409 1.04217 12.2709 1.38217C12.1909 1.55217 12.1109 1.68217 12.1109 1.67217C12.1109 1.66217 12.1009 1.51217 12.0709 1.00217C12.0609 0.982171 12.0409 0.982171 11.8909 1.03217C11.8309 1.04217 11.7209 1.07217 11.6509 1.08217C11.5009 1.09217 11.5009 1.09217 11.5209 1.21217C11.5409 1.34217 11.5909 1.76217 11.6309 2.12217L11.6709 2.44217L11.5309 2.67217ZM5.72599 1.01338C5.12599 0.903383 4.64599 1.32338 4.63599 1.96338C4.63599 2.33338 4.96599 2.52338 5.44599 2.41338C6.14599 2.25338 6.37599 1.12338 5.72599 1.01338ZM10.7229 1.14096C10.7229 1.16096 10.7229 1.16096 10.6829 1.12096C10.6629 1.09096 10.6029 1.06096 10.5729 1.04096C10.0829 0.820959 9.42293 1.81096 9.73293 2.28096C9.86293 2.46096 10.3129 2.52096 10.4029 2.37096C10.4229 2.34096 10.4429 2.36096 10.4429 2.39096L10.4429 2.43096L10.7129 2.43096C11.0429 2.44096 11.0029 2.47096 11.0629 2.17096C11.1029 1.97096 11.1929 1.56096 11.3029 1.09096C11.3229 1.01096 11.3329 1.01096 11.0629 1.05096C10.7229 1.10096 10.7329 1.10096 10.7229 1.14096ZM4.16007 1.34205C3.92007 1.37205 3.95007 1.34205 3.92007 1.55205C3.89007 1.81205 3.83007 2.04205 3.77007 2.23205C3.70007 2.44205 3.69007 2.42205 4.01007 2.41205L4.29007 2.40205L4.32007 2.28205C4.34007 2.18205 4.46006 1.63205 4.53007 1.36205C4.53007 1.33205 4.53007 1.29205 4.53007 1.29205C4.53007 1.28205 4.48007 1.28205 4.42006 1.29205C4.39007 1.30205 4.27007 1.32205 4.16007 1.34205ZM6.00924 3.02301C6.00924 3.01301 5.91924 3.01301 5.47924 3.01301L5.38924 3.17301C5.28924 3.35301 5.26924 3.37301 5.14924 3.37301L5.07924 3.37301L4.98924 3.68301C4.98924 3.74301 5.47924 3.63301 5.56924 3.55301L5.60924 3.52301L6.33924 3.52301L6.42924 3.21301C6.43924 3.19301 6.41924 3.19301 5.91924 3.18301C5.91924 3.18301 5.94924 3.15301 5.96924 3.11301C5.98924 3.06301 6.00924 3.03301 6.00924 3.02301ZM7.10832 3.02813C7.10832 3.02813 7.10832 3.02813 7.10832 3.02813C7.10832 3.02813 7.10832 3.02813 7.10832 3.02813ZM6.66832 3.01813C6.65832 3.03813 6.05832 5.02813 6.02832 5.13813C5.97832 5.35813 6.04832 5.38813 6.57832 5.38813L6.81832 5.38813L6.86832 5.21813C6.92832 5.01813 6.93832 5.02813 6.74832 5.04813C6.49832 5.06813 6.49832 5.11813 6.66832 4.56813L6.75832 4.28813L7.23832 4.27813L7.71832 4.26813L7.79832 4.23813C7.88832 4.18813 7.94832 4.12813 8.00832 4.02813C8.04832 3.93813 8.32832 3.03813 8.31832 3.01813C8.30832 3.00813 8.14832 3.00813 7.96832 3.00813C7.49832 3.00813 7.33832 3.03813 7.14832 3.15813C7.09832 3.19813 7.05832 3.21813 7.05832 3.21813C7.05832 3.20813 7.06832 3.16813 7.08832 3.12813C7.09832 3.07813 7.10832 3.03813 7.10832 3.02813C7.10832 3.00813 6.67832 3.00813 6.66832 3.01813ZM10.098 3.66813L10.008 3.97813L10.278 3.97813C10.428 3.97813 10.548 3.97813 10.548 3.97813C10.548 3.98813 10.528 4.03813 10.478 4.21813L9.92798 4.21813L9.88798 4.34813C9.83798 4.51813 9.80798 4.49813 10.088 4.49813L10.318 4.49813L10.208 4.65813C9.93798 5.03813 9.93798 5.02813 9.87798 5.06813C9.83798 5.08813 9.79798 5.09813 9.73798 5.09813C9.65798 5.09813 9.65798 5.09813 9.67798 5.01813C9.70798 4.95813 9.70798 4.95813 9.62798 4.95813C9.57798 4.95813 9.57798 4.94813 9.57798 4.92813C9.63798 4.73813 10.048 3.36813 10.048 3.36813C10.048 3.35813 10.098 3.35813 10.138 3.35813L10.218 3.35813L10.248 3.27813L10.268 3.19813L10.268 3.30813C10.278 3.53813 10.338 3.57813 10.728 3.56813L10.878 3.56813L10.918 3.41813L10.958 3.26813L10.888 3.25813C10.788 3.23813 10.778 3.23813 10.778 3.11813L10.778 3.01813L10.558 3.01813C9.86798 3.01813 9.52798 3.03813 9.38798 3.11813C9.27798 3.17813 9.27798 3.17813 9.30798 3.08813C9.30798 3.05813 9.31798 3.03813 9.31798 3.02813C9.31798 3.01813 9.20798 3.00813 9.05798 3.00813L8.82798 3.00813L8.78798 3.11813C8.77798 3.17813 8.64798 3.59813 8.24798 4.91813C8.23798 4.96813 8.23798 4.96813 8.19798 4.96813C8.14798 4.96813 8.14798 4.96813 8.09798 5.12813L8.05798 5.27813C8.04798 5.29813 8.07798 5.29813 8.51798 5.29813C9.03798 5.29813 8.98798 5.28813 8.96798 5.37813L8.95798 5.39813L9.42798 5.39813L9.43798 5.34813C9.45798 5.29813 9.45798 5.29813 9.51798 5.29813C9.58798 5.29813 9.58798 5.29813 9.57798 5.32813C9.54798 5.39813 9.54798 5.39813 9.77798 5.39813C10.128 5.39813 10.148 5.38813 10.418 5.01813L10.528 4.87813L10.548 5.06813C10.598 5.34813 10.648 5.38813 10.928 5.38813L11.088 5.38813L11.138 5.22813C11.198 5.01813 11.198 5.03813 11.108 5.03813C10.998 5.03813 10.998 5.03813 10.968 4.80813L10.938 4.60813L10.718 4.60813L10.798 4.50813L11.358 4.50813L11.398 4.37813C11.458 4.20813 11.478 4.22813 11.188 4.22813L10.948 4.22813L10.948 4.18813C10.958 4.17813 10.978 4.11813 11.018 3.98813L11.268 3.97813L11.528 3.97813L11.568 3.82813C11.588 3.75813 11.608 3.68813 11.608 3.67813C11.608 3.66813 11.268 3.66813 10.848 3.66813L10.098 3.66813ZM5.03576 4.29913C4.90576 4.29913 4.88576 4.30913 4.87576 4.32913C4.87576 4.33913 4.85576 4.40913 4.79576 4.61913C4.79576 4.62913 4.86576 4.62913 4.93576 4.62913C5.02576 4.62913 5.08576 4.63913 5.08576 4.63913C5.08576 4.63913 5.03576 4.75913 4.99576 4.90913C4.84576 5.38913 4.85576 5.40913 5.40576 5.40913L5.76576 5.40913L5.81576 5.23913C5.87576 5.03913 5.87576 5.05913 5.74576 5.06913C5.42576 5.11913 5.41576 5.10913 5.50576 4.81913L5.56576 4.61913L6.08576 4.61913L6.11576 4.50913C6.13576 4.43913 6.14576 4.37913 6.15576 4.35913C6.16576 4.33913 6.17576 4.31913 6.17576 4.30913C6.17576 4.30913 6.05576 4.29913 5.91576 4.29913C5.66576 4.29913 5.65576 4.29913 5.66576 4.27913C5.66576 4.25913 5.68576 4.20913 5.73576 4.03913L6.24576 4.03913L6.33576 3.74913C6.34576 3.72913 5.07576 3.71913 5.05576 3.73913C5.04576 3.75913 4.97576 4.00913 4.97576 4.01913C4.97576 4.03913 5.00576 4.03913 5.10576 4.03913L5.24576 4.03913L5.17576 4.29913L5.03576 4.29913ZM7.55556 4.76576C7.82556 4.74576 7.89556 4.69576 7.94556 4.45576C7.94556 4.41576 7.96556 4.36576 7.96556 4.35576C7.97556 4.33576 7.95556 4.33576 7.80556 4.32576L7.63556 4.32576L7.61556 4.39576C7.57556 4.50576 7.56556 4.51576 7.46556 4.51576L7.38556 4.51576L7.38556 4.34576L6.95556 4.34576L6.94556 4.80576C6.93556 5.33576 6.93556 5.32576 7.04556 5.35576C7.10556 5.38576 7.62556 5.39576 7.63556 5.37576C7.64556 5.36576 7.73556 5.07576 7.73556 5.05576C7.73556 5.05576 7.66556 5.05576 7.57556 5.06576L7.40556 5.07576L7.37556 5.03576C7.36556 5.00576 7.36556 4.80576 7.37556 4.77576C7.37556 4.77576 7.46556 4.76576 7.55556 4.76576ZM8.66467 1.16429L8.79467 1.16429C9.43467 1.17429 9.70467 0.434288 9.07467 0.384288C8.97467 0.374288 8.88467 0.364288 8.87467 0.364288C8.85467 0.364288 8.85467 0.394288 8.75467 0.754288L8.66467 1.16429ZM5.22787 2.09596C5.31787 2.16596 5.44787 2.04596 5.51787 1.83596C5.62787 1.44596 5.59787 1.26596 5.40787 1.32596C5.24787 1.39596 5.09787 2.00596 5.22787 2.09596ZM10.2531 2.12162C10.4231 2.21162 10.6431 1.89162 10.6431 1.55162C10.6431 1.39162 10.5531 1.31162 10.4231 1.37162C10.2531 1.45162 10.1331 2.05162 10.2531 2.12162ZM6.98212 3.51511C6.96212 3.59511 6.94212 3.66511 6.93212 3.67511C6.93212 3.67511 6.97212 3.66511 7.03212 3.62511C7.20212 3.54511 7.25212 3.52511 7.49212 3.51511L7.70212 3.51511C7.74212 3.41511 7.75212 3.36511 7.75212 3.36511C7.75212 3.35511 7.03212 3.35511 7.02212 3.36511L6.98212 3.51511ZM6.84796 3.98736L7.56796 3.97736L7.61796 3.84736C7.03796 3.84736 6.87796 3.84736 6.87796 3.85736L6.84796 3.98736ZM9.11728 3.74903L9.21728 3.70903C9.26728 3.69903 9.36728 3.66903 9.41728 3.65903C9.46728 3.65903 9.50728 3.64903 9.51728 3.64903C9.51728 3.64903 9.59728 3.38903 9.59728 3.37903C9.59728 3.37903 9.51728 3.36903 9.41728 3.36903L9.22728 3.36903L9.16728 3.54903C9.13728 3.65903 9.10728 3.74903 9.11728 3.74903ZM9.41702 3.97327L9.22702 3.97327C9.12702 3.97327 9.03702 3.97327 9.03702 3.98327C9.03702 3.99327 8.99702 4.07327 8.97702 4.17327C8.94702 4.27327 8.91702 4.36327 8.91702 4.36327C8.91702 4.37327 8.95702 4.36327 9.01702 4.33327C9.07702 4.31327 9.15702 4.28327 9.20702 4.27327C9.31702 4.26327 9.32702 4.25327 9.33702 4.21327C9.34702 4.19327 9.36702 4.12327 9.37702 4.07327L9.41702 3.97327ZM9.1104 4.95438C9.1904 4.70438 9.2104 4.62438 9.2104 4.61438L8.8404 4.59438L8.7404 4.94438L9.1104 4.95438Z " /></g></svg>