<svg xmlns="http://www.w3.org/2000/svg" xmlns:xlink="http://www.w3.org/1999/xlink" width="23" height="23" viewBox="0 0 23 23" fill="none"><defs><linearGradient id="linear_0" x1="14.21%" y1="100%" x2="90.778%" y2="-15.633%" gradientUnits="objectBoundingBox"><stop offset="0" stop-color="#387EFE" stop-opacity="1" /><stop offset="1" stop-color="#75CFFF" stop-opacity="1" /></linearGradient></defs><g opacity="1" transform="translate(0 0)  rotate(0 11.499999999999998 11.500000000000005)"><path id="路径 1" fill-rule="evenodd" style="fill:#FFFFFF" transform="translate(0 0)  rotate(0 11.499999999999998 11.500000000000005)" opacity="1" d="M11.5,23C17.87,23 23,17.87 23,11.5C23,5.13 17.87,0 11.5,0C5.13,0 0,5.13 0,11.5C0,17.87 5.13,23 11.5,23Z " /><path id="分组 1" fill-rule="evenodd" fill="url(#linear_0)" transform="translate(4.295254317605213 5.5857142833764115)  rotate(0 7.997015702918458 5.893749993522428)" opacity="1" d="M9.63 7.35C9.63 7.35 10.04 6.78 10.45 5.63C10.9 4.48 10.94 3.82 10.94 3.82L7.66 3.78L7.66 2.67L11.64 2.63L11.64 1.81L7.62 1.81L7.62 0L5.64 0L5.64 1.81L1.87 1.81L1.87 2.63L5.6 2.59L5.6 3.82L2.65 3.82L2.65 4.48L8.81 4.48C8.77 4.89 8.64 5.26 8.52 5.63C8.27 6.24 8.03 6.82 8.03 6.82C8.03 6.82 5.15 5.79 3.59 5.79C2.07 5.79 0.22 6.41 0.02 8.17C-0.15 9.94 0.88 10.92 2.36 11.25C3.8 11.58 5.15 11.25 6.34 10.68C7.53 10.1 8.68 8.79 8.68 8.79L14.8 11.79C14.8 11.79 15.17 11.21 15.46 10.68C15.67 10.31 15.83 9.9 15.99 9.53L9.63 7.35Z M7.32546 8.04822C7.32546 8.04822 4.82546 6.60822 3.01546 6.73822C1.16546 6.85822 0.71546 7.71822 0.71546 8.45822C0.71546 9.19822 1.12546 10.2682 3.30546 10.2682C5.47546 10.2682 7.32546 8.04822 7.32546 8.04822Z " /></g></svg>