<svg xmlns="http://www.w3.org/2000/svg" xmlns:xlink="http://www.w3.org/1999/xlink" width="10" height="6" viewBox="0 0 10 6" fill="none"><defs><rect id="path_0" x="0" y="0" width="10" height="6" /></defs><g opacity="1" transform="translate(0 0)  rotate(0 5 3)"><mask id="bg-mask-0" fill="white"><use xlink:href="#path_0"></use></mask><g mask="url(#bg-mask-0)" ><path id="路径 1" fill-rule="evenodd" style="fill:#FFFFFF" transform="translate(-0.000053710937545581316 0)  rotate(0 4.510632936187792 2.65)" opacity="1" d="M8.28,0L0.77,0.05C0.56,0.05 0.37,0.1 0.23,0.25C-0.07,0.55 -0.07,1 0.23,1.3L3.97,5.05C4.03,5.1 4.13,5.15 4.18,5.2L4.22,5.25C4.47,5.35 4.83,5.3 5.02,5.1L8.77,1.3C9.13,0.95 9.07,0.5 8.82,0.2C8.67,0.05 8.48,0 8.28,0Z " /></g></g></svg>