<svg xmlns="http://www.w3.org/2000/svg" xmlns:xlink="http://www.w3.org/1999/xlink" width="17" height="16" viewBox="0 0 17 16" fill="none"><g opacity="1" transform="translate(-0.00001005095919026644 0)  rotate(0 8.0004 8)"><path id="路径 1" fill-rule="evenodd" style="fill:#0090FF" transform="translate(0 0)  rotate(0 8.0004 8)" opacity="1" d="M3.08,0C1.38,0 0,1.38 0,3.08L0,12.92C0,14.62 1.38,16 3.08,16L12.92,16C14.41,16 15.69,14.93 15.95,13.47C15.14,13.11 11.6,11.59 9.76,10.71C8.36,12.41 6.89,13.42 4.68,13.42C2.46,13.42 0.98,12.06 1.16,10.39C1.28,9.3 2.03,7.51 5.29,7.82C7.01,7.98 7.8,8.3 9.2,8.76C9.56,8.1 9.86,7.36 10.09,6.58L3.88,6.58L3.88,5.97L6.95,5.97L6.95,4.86L3.2,4.86L3.2,4.18L6.95,4.18L6.95,2.59C6.95,2.59 6.99,2.34 7.26,2.34L8.8,2.34L8.8,4.18L12.8,4.18L12.8,4.86L8.8,4.86L8.8,5.97L12.06,5.97C11.78,7.13 11.34,8.25 10.74,9.29C11.69,9.64 16,10.95 16,10.95L16,10.95L16,3.08C16,1.38 14.62,0 12.92,0L3.08,0Z " /><path id="路径 2" fill-rule="evenodd" style="fill:#0090FF" transform="translate(1.8253543428988905 8.860000000000014)  rotate(0 3.27972282855059 1.7544000000000004)" opacity="1" d="M6.56,1.16C4.95,0.38 3.61,0 2.12,0C0.82,0 0.14,0.8 0.02,1.42C-0.1,2.03 0.27,3.51 2.61,3.51C4.05,3.51 5.43,2.63 6.56,1.16Z " /></g></svg>