<svg xmlns="http://www.w3.org/2000/svg" xmlns:xlink="http://www.w3.org/1999/xlink" width="24" height="24" viewBox="0 0 24 24" fill="none"><defs><path id="path_0"
        transform="translate(0 0) rotate(0 11 11.000000000000002)"
        d="M11,0C4.92,0 0,4.92 0,11C0,17.08 4.92,22 11,22C17.08,22 22,17.08 22,11C22,4.92 17.08,0 11,0Z" /><linearGradient id="linear_0" x1="0%" y1="6.314%" x2="74.886%" y2="68.708%" gradientUnits="objectBoundingBox"><stop offset="0" stop-color="#75CFFF" stop-opacity="1" /><stop offset="1" stop-color="#FFFFFF" stop-opacity="0" /></linearGradient></defs><g opacity="1" transform="translate(0.0000875257119332673 0)  rotate(0 12 11.999999999999998)"><g opacity="1" transform="translate(1 1.000000000000563)  rotate(0 11 11.000000000000002)"><mask id="mask-0" fill="white"><use xlink:href="#path_0"></use></mask><g mask="url(#mask-0)"><path id="圆形 3" fill-rule="evenodd" fill="url(#linear_0)" transform="translate(8.535144056129866 -1.617550034395208)  rotate(-45.109728464584094 7.46896029244464 7.46896029244464)" opacity="1" d="M7.47,0C3.34,0 0,3.34 0,7.47C0,11.59 3.34,14.94 7.47,14.94C11.59,14.94 14.94,11.59 14.94,7.47C14.94,3.34 11.59,0 7.47,0Z " /></g></g><path id="路径 5 (轮廓)" fill-rule="evenodd" style="fill:#383838" transform="translate(0 0)  rotate(0 12 11.999999999999998)" opacity="1" d="M0.94 7.33C1.55 5.89 2.41 4.62 3.51 3.51C4.62 2.41 5.89 1.55 7.33 0.94C8.81 0.31 10.37 0 12 0C13.63 0 15.19 0.31 16.67 0.94C18.11 1.55 19.38 2.41 20.49 3.51C21.59 4.62 22.45 5.89 23.06 7.33C23.69 8.81 24 10.37 24 12C24 13.63 23.69 15.19 23.06 16.67C22.45 18.11 21.59 19.38 20.49 20.49C19.38 21.59 18.11 22.45 16.67 23.06C15.19 23.69 13.63 24 12 24C10.37 24 8.81 23.69 7.33 23.06C5.89 22.45 4.62 21.59 3.51 20.49C2.41 19.38 1.55 18.11 0.94 16.67C0.31 15.19 0 13.63 0 12C0 10.37 0.31 8.81 0.94 7.33ZM12 2C10.64 2 9.34 2.26 8.11 2.78C6.91 3.29 5.85 4 4.93 4.93C4 5.85 3.29 6.91 2.78 8.11C2.26 9.34 2 10.64 2 12C2 13.36 2.26 14.66 2.78 15.89C3.29 17.09 4 18.15 4.93 19.07C5.85 20 6.91 20.71 8.11 21.22C9.34 21.74 10.64 22 12 22C13.36 22 14.66 21.74 15.89 21.22C17.09 20.71 18.15 20 19.07 19.07C20 18.15 20.71 17.09 21.22 15.89C21.74 14.66 22 13.36 22 12C22 10.64 21.74 9.34 21.22 8.11C20.71 6.91 20 5.85 19.07 4.93C18.15 4 17.09 3.29 15.89 2.78C14.66 2.26 13.36 2 12 2Z" /><g opacity="1" transform="translate(10.153645516899815 5.647612516598555)  rotate(0 1.8463544831002456 6.3523874834014835)"><path id="路径 4" fill-rule="evenodd" style="fill:#383838" transform="translate(0 0)  rotate(0 1.8463544831002456 4.064675599215185)" opacity="1" d="M0,1.88L1.58,7.92C1.61,8.04 1.72,8.13 1.85,8.13C1.97,8.13 2.08,8.04 2.11,7.92L3.69,1.88C3.69,0.84 2.87,0 1.85,0C0.83,0 0,0.84 0,1.88Z " /><path id="圆形 3" fill-rule="evenodd" style="fill:#383838" transform="translate(0.4569727363534515 9.881491640846752)  rotate(0 1.3847658677344257 1.411641662978108)" opacity="1" d="M1.38,0C0.62,0 0,0.63 0,1.41C0,2.19 0.62,2.82 1.38,2.82C2.15,2.82 2.77,2.19 2.77,1.41C2.77,0.63 2.15,0 1.38,0Z " /></g></g></svg>