<svg xmlns="http://www.w3.org/2000/svg" xmlns:xlink="http://www.w3.org/1999/xlink" width="14.344827586206897" height="16" viewBox="0 0 14.344827586206897 16" fill="none"><g opacity="1"  transform="translate(0 0)  rotate(0)"><path id="路径 1" fill-rule="evenodd" style="fill:#457DFF" opacity="1" d="M6.37573 10.3999L6.37573 11.9998C6.37573 12.4398 6.73576 12.7998 7.17579 12.7998C7.61583 12.7998 7.96585 12.4398 7.96585 11.9998L7.96585 10.3999C7.96585 9.95985 7.61583 9.59985 7.17579 9.59985C6.73576 9.59985 6.37573 9.95985 6.37573 10.3999Z"></path><path id="路径 2" fill-rule="evenodd" style="fill:#333333" opacity="1" d="M11.9501,6.4c1.32,0 2.39,1.08 2.39,2.4v4.8c0,1.32 -1.07,2.4 -2.39,2.4h-9.56008c-1.32001,0 -2.39002,-1.08 -2.39002,-2.4v-4.8c0,-1.33 1.07001,-2.4 2.39002,-2.4v-1.6c0,-2.65 2.14001,-4.8 4.78003,-4.8c2.64001,0 4.78005,2.15 4.78005,4.8zM3.98003,6.4h6.38007v-1.6c0,-1.77 -1.43004,-3.2 -3.19005,-3.2c-1.76001,0 -3.19002,1.43 -3.19002,3.2zM12.7501,8.8c0,-0.44 -0.36,-0.8 -0.8,-0.8h-9.56008c-0.44001,0 -0.80001,0.36 -0.80001,0.8v4.8c0,0.44 0.36,0.8 0.80001,0.8h9.56008c0.44,0 0.8,-0.36 0.8,-0.8z"></path></g></svg>