<svg xmlns="http://www.w3.org/2000/svg" xmlns:xlink="http://www.w3.org/1999/xlink" width="16" height="15" viewBox="0 0 16 15" fill="none"><g opacity="1" transform="translate(0 0)  rotate(0 7.5159461328125 7.185306586399185)"><path id="路径 1" fill-rule="evenodd" style="fill:#FFFFFF" transform="translate(0 3.8594706415483713)  rotate(0 1.006385984375 2.2444004921875003)" opacity="1" d="M0,3.5C0,3.78 0.1,4.01 0.3,4.2C0.49,4.39 0.73,4.49 1.01,4.49L2.01,4.49L2.01,0L1.01,0C0.73,0 0.49,0.1 0.3,0.29C0.1,0.48 0,0.71 0,0.99L0,3.5Z " /><path id="路径 2" fill-rule="evenodd" style="fill:#FFFFFF" transform="translate(3.019157968749998 0)  rotate(0 6.006367148437501 6.052214710398412)" opacity="1" d="M11.13,1.36C10.93,0.9 10.69,0.54 10.4,0.31C10.11,0.07 9.78,-0.03 9.41,0.01C9.04,0.05 8.62,0.29 8.16,0.73C7.7,1.15 7.19,1.5 6.63,1.77C6.06,2.05 5.49,2.27 4.9,2.45C4.31,2.62 3.72,2.76 3.15,2.86C2.59,2.96 2.07,3.06 1.62,3.14C1.17,3.23 0.8,3.32 0.5,3.41C0.21,3.51 0.04,3.63 0,3.78L0,8.78C0.04,8.89 0.24,8.98 0.6,9.05C0.96,9.13 1.4,9.2 1.93,9.28C2.47,9.36 3.05,9.45 3.69,9.55C4.33,9.66 4.96,9.79 5.58,9.95C6.21,10.12 6.78,10.32 7.31,10.56C7.84,10.8 8.25,11.1 8.56,11.46C8.88,11.83 9.19,12.03 9.48,12.09C9.77,12.14 10.05,12.08 10.3,11.89C10.56,11.71 10.79,11.44 11,11.06C11.21,10.69 11.39,10.26 11.54,9.76C11.7,9.27 11.81,8.74 11.89,8.17C11.97,7.61 12.01,7.04 12.01,6.48C12.01,5.91 11.98,5.32 11.92,4.7C11.85,4.08 11.76,3.48 11.63,2.91C11.5,2.34 11.34,1.82 11.13,1.36Z " /><path id="路径 3" fill-rule="evenodd" style="fill:#FFFFFF" transform="translate(3.0351323359374995 9.91376096967337)  rotate(0 2.15238805895625 2.2284261015624995)" opacity="1" d="M2.4,0.61C2.29,0.56 2.17,0.52 2.04,0.48C1.93,0.44 1.8,0.4 1.65,0.36C1.51,0.32 1.35,0.28 1.17,0.24C0.99,0.21 0.83,0.18 0.69,0.14C0.55,0.11 0.43,0.09 0.34,0.06C0.22,0.03 0.12,0.01 0.03,0C-0.01,0.17 -0.01,0.37 0.03,0.61C0.06,0.81 0.13,1.06 0.22,1.37C0.32,1.67 0.49,2.02 0.73,2.43C0.94,2.78 1.13,3.08 1.3,3.34C1.48,3.59 1.65,3.8 1.81,3.97C1.98,4.13 2.15,4.26 2.33,4.34C2.51,4.42 2.71,4.46 2.92,4.46L3.83,4.46C4.1,4.46 4.25,4.38 4.29,4.23C4.33,4.08 4.3,3.9 4.2,3.67C4.11,3.44 3.96,3.18 3.78,2.9C3.59,2.62 3.41,2.35 3.23,2.09C3.08,1.88 2.95,1.68 2.84,1.5C2.74,1.32 2.65,1.16 2.59,1.02C2.51,0.87 2.45,0.73 2.4,0.61Z " /></g></svg>