<svg xmlns="http://www.w3.org/2000/svg" xmlns:xlink="http://www.w3.org/1999/xlink" width="10" height="11" viewBox="0 0 10 11" fill="none"><g opacity="1" transform="translate(0 0)  rotate(0 4.500000000000008 5.0000000000000036)"><path id="分组 1" fill-rule="evenodd" style="fill:#E5E5E5" transform="translate(0 0)  rotate(0 4.500000000000008 5.0000000000000036)" opacity="1" d="M7.21 3.12438C7.21 3.00438 7.18 2.87438 7.12 2.73438C7.06 2.58438 6.98 2.44438 6.87 2.32438C6.76 2.19438 6.63 2.09438 6.48 2.00438C6.33 1.91438 6.16 1.87438 5.97 1.87438L1.12 1.87438C0.98 1.87438 0.83 1.91438 0.7 1.99438C0.57 2.08438 0.45 2.18438 0.35 2.31438C0.24 2.43438 0.16 2.57438 0.1 2.72438C0.03 2.87438 0 3.02438 0 3.16438L0 8.71438C0 8.87438 0.04 9.03438 0.12 9.18438C0.21 9.34438 0.31 9.48438 0.44 9.60438C0.56 9.72438 0.7 9.81438 0.84 9.89438C0.98 9.96438 1.12 10.0044 1.24 10.0044L5.97 10.0044C6.12 10.0044 6.26 9.97438 6.41 9.91438C6.56 9.85438 6.69 9.76438 6.81 9.66438C6.93 9.55438 7.02 9.42438 7.1 9.27438C7.17 9.11438 7.21 8.94438 7.21 8.75438L7.21 3.12438ZM1.37936 7.03942C1.25936 7.16942 1.19936 7.31942 1.19936 7.48942C1.19936 7.65942 1.25936 7.80942 1.37936 7.92942C1.49936 8.04942 1.63936 8.10942 1.79936 8.10942L5.39936 8.10942C5.56936 8.10942 5.70936 8.04942 5.82936 7.92942C5.94936 7.80942 6.00936 7.65942 6.00936 7.48942C6.00936 7.31942 5.94936 7.16942 5.82936 7.03942C5.70936 6.91942 5.56936 6.85942 5.39936 6.85942L1.79936 6.85942C1.63936 6.85942 1.49936 6.91942 1.37936 7.03942ZM1.79936 4.3669C1.63936 4.3669 1.49936 4.4269 1.37936 4.5469C1.25936 4.6769 1.19936 4.8269 1.19936 4.9969C1.19936 5.1669 1.25936 5.3169 1.37936 5.4369C1.49936 5.5569 1.63936 5.6169 1.79936 5.6169L5.39936 5.6169C5.56936 5.6169 5.70936 5.5569 5.82936 5.4369C5.94936 5.3169 6.00936 5.1669 6.00936 4.9969C6.00936 4.8269 5.94936 4.6769 5.82936 4.5469C5.70936 4.4269 5.56936 4.3669 5.39936 4.3669L1.79936 4.3669ZM8.45343 0.88C8.28343 0.63 8.09343 0.42 7.85343 0.25C7.62343 0.08 7.37343 -9.76563e-09 7.10343 -9.76563e-09L3.11343 -9.76563e-09C2.96343 -9.76563e-09 2.81343 0.04 2.65343 0.11C2.50343 0.18 2.36343 0.28 2.24343 0.39C2.11343 0.5 2.01343 0.63 1.93343 0.77C1.86343 0.91 1.82343 1.04 1.82343 1.18C1.82343 1.21 1.82343 1.23 1.81343 1.25L6.49343 1.25C6.86343 1.32 7.16343 1.48 7.38343 1.72C7.61343 1.97 7.75343 2.32 7.80343 2.78L7.80343 8.73L7.84343 8.73C7.95343 8.73 8.08343 8.71 8.21343 8.66C8.34343 8.61 8.47343 8.54 8.58343 8.46C8.70343 8.38 8.80343 8.28 8.88343 8.16C8.96343 8.04 9.00343 7.92 9.00343 7.78L9.00343 2.48C9.00343 2.24 8.95343 1.98 8.85343 1.69C8.76343 1.4 8.62343 1.13 8.45343 0.88Z " /></g></svg>