<svg xmlns="http://www.w3.org/2000/svg" xmlns:xlink="http://www.w3.org/1999/xlink" width="16" height="15" viewBox="0 0 16 15" fill="none"><g opacity="1" transform="translate(0.000051785279993055156 0.000011652347893686965)  rotate(0 7.58356313795176 7.499089383989566)"><path id="矩形 5 (轮廓)" fill-rule="evenodd" style="fill:#808080" transform="translate(1.5167126275903229 0)  rotate(0 6.066850510361387 3.9995143381278053)" opacity="1" d="M4.13,1.38C4.75,1.13 5.4,1 6.07,1C6.74,1 7.38,1.13 8,1.38C8.62,1.63 9.17,2 9.64,2.47C10.12,2.93 10.48,3.47 10.74,4.09C10.99,4.7 11.12,5.34 11.12,6L11.12,6.72L12.13,6.72L12.13,6C12.13,4.41 11.5,2.88 10.35,1.76C9.22,0.63 7.67,0 6.07,0C4.46,0 2.91,0.63 1.78,1.76C0.64,2.88 0,4.41 0,6L0,6.72L1.01,6.72L1.01,6C1.01,5.34 1.14,4.7 1.4,4.09C1.65,3.47 2.02,2.93 2.5,2.46C2.97,2 3.51,1.63 4.13,1.38Z " /><path id="矩形 5 (轮廓)" fill-rule="evenodd" style="fill:#808080" transform="translate(0 5.999271507191224)  rotate(0 2.022283503453796 2.4996964613298784)" opacity="1" d="M4.04 2L4.04 3C4.04 3.53 3.83 4.04 3.45 4.41C3.07 4.79 2.56 5 2.02 5C1.49 5 0.97 4.79 0.6 4.41C0.21 4.04 0 3.53 0 3L0 2C0 1.47 0.21 0.96 0.6 0.59C0.97 0.21 1.49 0 2.02 0C2.56 0 3.07 0.21 3.45 0.59C3.83 0.96 4.04 1.47 4.04 2ZM3.03 2C3.03 1.72 2.94 1.49 2.74 1.31L2.72 1.29C2.53 1.1 2.3 1 2.02 1C1.74 1 1.51 1.1 1.32 1.29L1.31 1.3L1.3 1.31C1.11 1.49 1.01 1.72 1.01 2L1.01 3C1.01 3.28 1.11 3.51 1.3 3.69L1.31 3.7L1.32 3.71C1.51 3.9 1.74 4 2.02 4C2.3 4 2.53 3.9 2.72 3.71L2.74 3.69C2.94 3.51 3.03 3.28 3.03 3L3.03 2Z" /><path id="矩形 5 (轮廓)" fill-rule="evenodd" style="fill:#808080" transform="translate(7.583563137951842 10.20858362256331)  rotate(0 3.0334252551806933 2.144827926574882)" opacity="1" d="M5.06,0C5.06,0.66 4.93,-0.41 4.67,0.2C4.41,0.82 4.05,1.36 3.57,1.83C3.1,2.29 2.55,2.66 1.93,2.91C1.32,3.16 0.67,3.29 0,3.29L0,4.29C1.61,4.29 3.15,3.66 4.29,2.53C4.85,1.97 5.3,1.42 5.6,0.81C5.91,0.19 6.07,0.8 6.07,0L5.06,0Z " /><path id="矩形 5 (轮廓)" fill-rule="evenodd" style="fill:#808080" transform="translate(11.122559268995929 5.999271507191224)  rotate(0 2.022283503453796 2.4996964613298784)" opacity="1" d="M0.6 4.41C0.97 4.79 1.49 5 2.02 5C2.56 5 3.07 4.79 3.45 4.41C3.83 4.04 4.04 3.53 4.04 3L4.04 2C4.04 1.47 3.83 0.96 3.45 0.59C3.07 0.21 2.56 0 2.02 0C1.49 0 0.97 0.21 0.6 0.59C0.21 0.96 0 1.47 0 2L0 3C0 3.53 0.21 4.04 0.6 4.41ZM1.32 3.71L1.31 3.7L1.3 3.69C1.11 3.51 1.01 3.28 1.01 3L1.01 2C1.01 1.72 1.11 1.49 1.3 1.31L1.31 1.3L1.32 1.29C1.51 1.1 1.74 1 2.02 1C2.3 1 2.53 1.1 2.72 1.29L2.74 1.31C2.94 1.49 3.03 1.72 3.03 2L3.03 3C3.03 3.28 2.94 3.51 2.74 3.69L2.72 3.71C2.53 3.9 2.3 4 2.02 4C1.74 4 1.51 3.9 1.32 3.71Z" /><path id="圆形 3" fill-rule="evenodd" style="fill:#808080" transform="translate(6.5724213862247325 12.998421598915229)  rotate(0 1.011141751726898 0.9998785845319516)" opacity="1" d="M1.01,0C0.45,0 0,0.45 0,1C0,1.55 0.45,2 1.01,2C1.57,2 2.02,1.55 2.02,1C2.02,0.45 1.57,0 1.01,0Z " /></g></svg>