<svg xmlns="http://www.w3.org/2000/svg" xmlns:xlink="http://www.w3.org/1999/xlink" width="12" height="12" viewBox="0 0 12 12" fill="none"><g opacity="1" transform="translate(0 0)  rotate(0 6 6)"><path id="导航" fill-rule="evenodd" style="fill:#0090FF" transform="translate(0 0)  rotate(0 6 6)" opacity="1" d="M0 6C0 9.31 2.69 12 6 12C9.31 12 12 9.31 12 6C12 2.69 9.31 0 6 0C2.69 0 0 2.69 0 6ZM8.59938 3.22624L2.36938 5.92624C2.27938 5.96624 2.27938 6.09624 2.36938 6.14625L4.71938 7.24625C4.73938 7.25624 4.74938 7.26624 4.75938 7.27625L5.85938 9.63624C5.89938 9.72624 6.02938 9.72624 6.06938 9.63624L8.76938 3.39625C8.81938 3.29624 8.69938 3.17624 8.59938 3.22624Z " /></g></svg>