<svg xmlns="http://www.w3.org/2000/svg" xmlns:xlink="http://www.w3.org/1999/xlink" width="18" height="17" viewBox="0 0 18 17" fill="none"><defs><linearGradient id="linear_0" x1="11.774%" y1="100%" x2="100%" y2="13.5%" gradientUnits="objectBoundingBox"><stop offset="0" stop-color="#0090FF" stop-opacity="1" /><stop offset="1" stop-color="#BAFFF0" stop-opacity="1" /></linearGradient></defs><g opacity="1" transform="translate(0 0)  rotate(0 9 8.5)"><g opacity="1" transform="translate(0 0)  rotate(0 9 8.5)"><path id="矩形 5" fill-rule="evenodd" fill="url(#linear_0)" transform="translate(0 0.5)  rotate(0 9 8)" opacity="1" d="M4,16L14,16C16.21,16 18,14.21 18,12L18,4C18,1.79 16.21,0 14,0L4,0C1.79,0 0,1.79 0,4L0,12C0,14.21 1.79,16 4,16Z " /><g opacity="1" transform="translate(3 0)  rotate(0 6 8.5)"><text><tspan x="0" y="12.72" font-size="12" line-height="0" fill="#FFFFFF" opacity="1" font-family=".PingFang SC Semibold; 10.11d9e1; 2015-05-20∞10.11d9e1∞.PingFang∞Semibold" letter-spacing="0" >慢</tspan></text></g></g></g></svg>