<svg xmlns="http://www.w3.org/2000/svg" xmlns:xlink="http://www.w3.org/1999/xlink" width="16" height="12" viewBox="0 0 16 12" fill="none"><g opacity="1" transform="translate(0.00244140625 0.00250244140625)  rotate(0 7.949634116813064 5.98789062500001)"><path id="路径 1" fill-rule="evenodd" style="fill:#FFFFFF" transform="translate(0 0.025781250000022737)  rotate(0 3.474817058406534 5.974999999999999)" opacity="1" d="M0.29,1.71L4.56,5.97L0.29,10.24C-0.1,10.63 -0.1,11.27 0.29,11.66C0.68,12.05 1.32,12.05 1.71,11.66L6.66,6.71C6.86,6.51 6.96,6.24 6.95,5.98C6.96,5.71 6.86,5.44 6.66,5.24L1.71,0.29C1.32,-0.1 0.69,-0.1 0.29,0.29C-0.1,0.68 -0.1,1.32 0.29,1.71Z " /><path id="路径 1" fill-rule="evenodd" style="fill:#FFFFFF" transform="translate(8.949634116813058 0)  rotate(0 3.474817058406534 5.974999999999999)" opacity="1" d="M0.29,1.71L4.56,5.97L0.29,10.24C-0.1,10.63 -0.1,11.27 0.29,11.66C0.68,12.05 1.32,12.05 1.71,11.66L6.66,6.71C6.86,6.51 6.96,6.24 6.95,5.98C6.96,5.71 6.86,5.44 6.66,5.24L1.71,0.29C1.32,-0.1 0.69,-0.1 0.29,0.29C-0.1,0.68 -0.1,1.32 0.29,1.71Z " /></g></svg>