<svg xmlns="http://www.w3.org/2000/svg" xmlns:xlink="http://www.w3.org/1999/xlink" width="26" height="29" viewBox="0 0 26 29" fill="none"><g opacity="1" transform="translate(0.000023437499976353138 0)  rotate(0 12.5 14.5)"><path id="路径 3 (轮廓)" fill-rule="evenodd" style="fill:#383838" transform="translate(17.581632653061206 3.366071500296812)  rotate(0 3.709183673469388 10.098214249851601)" opacity="1" d="M5.69,4.24C5.82,4.61 5.89,4.99 5.89,5.39L5.89,17.61C5.89,17.74 5.86,17.88 5.81,18C5.76,18.13 5.68,18.24 5.58,18.34C5.49,18.44 5.38,18.51 5.26,18.56C5.13,18.62 5,18.64 4.87,18.64C4.73,18.64 4.6,18.62 4.48,18.56C4.35,18.51 4.24,18.43 4.14,18.33C4.05,18.24 3.98,18.13 3.92,18C3.87,17.88 3.85,17.74 3.85,17.61L3.85,11.13C3.85,10.75 3.77,10.38 3.63,10.02C3.48,9.68 3.28,9.38 3.03,9.12C2.77,8.86 2.47,8.65 2.13,8.51C1.79,8.36 1.42,8.29 1.04,8.29L0,8.29L0,9.84L1.04,9.84C1.21,9.84 1.38,9.87 1.54,9.94C1.69,10.01 1.83,10.1 1.94,10.22C2.06,10.34 2.15,10.48 2.22,10.63C2.28,10.79 2.32,10.96 2.32,11.13L2.32,17.61C2.32,17.95 2.38,18.28 2.51,18.6C2.64,18.92 2.83,19.2 3.07,19.44C3.3,19.68 3.58,19.87 3.89,20C4.2,20.13 4.53,20.2 4.87,20.2C5.21,20.2 5.53,20.13 5.85,20C6.16,19.87 6.43,19.68 6.67,19.43C6.91,19.2 7.09,18.92 7.22,18.6C7.35,18.28 7.42,17.95 7.42,17.61L7.42,5.39C7.42,4.81 7.32,4.25 7.13,3.71C6.94,3.17 6.66,2.67 6.3,2.23L4.69,0.28L4.69,0.28C4.67,0.26 4.66,0.24 4.64,0.22C4.62,0.2 4.6,0.19 4.58,0.17C4.56,0.16 4.54,0.14 4.52,0.13C4.5,0.11 4.48,0.1 4.46,0.09C4.43,0.08 4.41,0.07 4.39,0.06C4.37,0.05 4.34,0.04 4.32,0.03C4.29,0.02 4.27,0.02 4.25,0.01C4.22,0.01 4.2,0.01 4.17,0C4.15,0 4.12,0 4.1,0C4.07,0 4.05,0 4.02,0C4,0.01 3.97,0.01 3.95,0.02C3.92,0.02 3.9,0.03 3.87,0.04C3.85,0.04 3.83,0.05 3.8,0.06C3.78,0.07 3.76,0.08 3.74,0.09C3.71,0.11 3.69,0.12 3.67,0.13C3.65,0.15 3.63,0.16 3.61,0.18C3.59,0.2 3.57,0.21 3.56,0.23C3.54,0.25 3.52,0.27 3.51,0.29C3.49,0.31 3.48,0.33 3.46,0.35C3.45,0.37 3.44,0.39 3.42,0.42C3.41,0.44 3.4,0.46 3.39,0.48C3.38,0.51 3.38,0.53 3.37,0.56C3.36,0.58 3.36,0.61 3.35,0.63C3.35,0.66 3.34,0.68 3.34,0.71C3.34,0.73 3.34,0.76 3.34,0.78C3.34,0.81 3.34,0.83 3.34,0.86C3.34,0.88 3.35,0.91 3.35,0.93C3.36,0.96 3.36,0.98 3.37,1.01C3.38,1.03 3.39,1.06 3.4,1.08C3.41,1.1 3.42,1.13 3.43,1.15C3.44,1.17 3.45,1.19 3.47,1.21C3.48,1.23 3.5,1.25 3.51,1.27L4.1,0.78L3.51,1.27L5.12,3.23C5.37,3.53 5.56,3.86 5.69,4.24Z " /><path id="矩形 2 (轮廓)" fill-rule="evenodd" style="fill:#383838" transform="translate(1.530612244898066 0)  rotate(0 8.673469387755103 14.5)" opacity="1" d="M15.31 0C16.43 0 17.35 0.93 17.35 2.07L17.35 29L0 29L0 2.07C0 0.93 0.91 0 2.04 0L15.31 0ZM1.68 1.71C1.78 1.6 1.9 1.55 2.04 1.55L15.31 1.55C15.45 1.55 15.57 1.6 15.67 1.71C15.77 1.81 15.82 1.93 15.82 2.07L15.82 27.45L1.53 27.45L1.53 2.07Q1.53 1.86 1.68 1.71Z" /><path id="路径 2 (轮廓)" fill-rule="evenodd" style="fill:#387EFE" transform="translate(6.887754847645404 8.544642452847711)  rotate(0 3.316326657809938 5.9553577033833545)" opacity="1" d="M6.41,5.41C6.39,5.39 6.37,5.37 6.35,5.35C6.33,5.34 6.31,5.32 6.29,5.31C6.27,5.3 6.25,5.28 6.23,5.27C6.21,5.26 6.18,5.25 6.16,5.24C6.14,5.23 6.11,5.22 6.09,5.21C6.07,5.2 6.04,5.2 6.02,5.19C5.99,5.19 5.97,5.18 5.94,5.18C5.92,5.18 5.89,5.18 5.87,5.18L2.2,5.18L4.81,1.21L4.8,1.21C4.82,1.19 4.83,1.16 4.84,1.14C4.85,1.12 4.86,1.1 4.87,1.07C4.88,1.05 4.89,1.03 4.9,1C4.91,0.98 4.91,0.95 4.92,0.93C4.92,0.9 4.93,0.88 4.93,0.85C4.93,0.83 4.93,0.8 4.93,0.78C4.93,0.75 4.93,0.72 4.93,0.7C4.93,0.67 4.92,0.65 4.92,0.62C4.91,0.6 4.91,0.57 4.9,0.55C4.89,0.53 4.88,0.5 4.87,0.48C4.86,0.46 4.85,0.43 4.84,0.41C4.83,0.39 4.82,0.37 4.8,0.34C4.79,0.32 4.77,0.3 4.76,0.28C4.74,0.26 4.72,0.24 4.71,0.23C4.69,0.21 4.67,0.19 4.65,0.18C4.63,0.16 4.61,0.14 4.59,0.13C4.55,0.1 4.51,0.08 4.46,0.06C4.41,0.04 4.36,0.02 4.32,0.01C4.27,0 4.22,0 4.17,0C4.12,0 4.07,0.01 4.02,0.02C3.97,0.03 3.92,0.04 3.87,0.06C3.83,0.08 3.78,0.1 3.74,0.13C3.7,0.16 3.66,0.19 3.62,0.23C3.59,0.26 3.56,0.3 3.53,0.35L3.53,0.35L0.13,5.52C0.11,5.55 0.1,5.57 0.09,5.59C0.08,5.61 0.07,5.64 0.06,5.66C0.05,5.68 0.04,5.71 0.03,5.73C0.03,5.75 0.02,5.78 0.01,5.8C0.01,5.83 0.01,5.85 0,5.88C0,5.91 0,5.93 0,5.96C0,5.98 0,6.01 0,6.03C0.01,6.06 0.01,6.08 0.01,6.11C0.02,6.13 0.03,6.16 0.03,6.18C0.04,6.21 0.05,6.23 0.06,6.25C0.07,6.28 0.08,6.3 0.09,6.32C0.1,6.34 0.12,6.37 0.13,6.39C0.14,6.41 0.16,6.43 0.17,6.45C0.19,6.47 0.21,6.49 0.22,6.51C0.24,6.52 0.26,6.54 0.28,6.56C0.3,6.57 0.32,6.59 0.34,6.6C0.4,6.64 0.47,6.68 0.54,6.7C0.62,6.72 0.69,6.73 0.77,6.73L4.44,6.73L1.83,10.7L1.83,10.7C1.81,10.72 1.8,10.75 1.79,10.77C1.78,10.79 1.77,10.81 1.76,10.84C1.75,10.86 1.74,10.89 1.73,10.91C1.73,10.93 1.72,10.96 1.72,10.98C1.71,11.01 1.71,11.03 1.7,11.06C1.7,11.08 1.7,11.11 1.7,11.14C1.7,11.16 1.7,11.19 1.7,11.21C1.71,11.24 1.71,11.26 1.72,11.29C1.72,11.31 1.73,11.34 1.73,11.36C1.74,11.38 1.75,11.41 1.76,11.43C1.77,11.46 1.78,11.48 1.79,11.5C1.8,11.52 1.82,11.55 1.83,11.57C1.84,11.59 1.86,11.61 1.87,11.63C1.89,11.65 1.91,11.67 1.93,11.68C1.94,11.7 1.96,11.72 1.98,11.73C2,11.75 2.02,11.77 2.04,11.78C2.08,11.81 2.13,11.83 2.17,11.85C2.22,11.87 2.27,11.89 2.32,11.9C2.37,11.91 2.42,11.91 2.47,11.91C2.52,11.91 2.57,11.91 2.62,11.9C2.67,11.89 2.71,11.87 2.76,11.85C2.81,11.83 2.85,11.81 2.89,11.78C2.93,11.75 2.97,11.72 3.01,11.68C3.04,11.65 3.07,11.61 3.1,11.56L3.1,11.56L6.5,6.39C6.55,6.32 6.58,6.25 6.6,6.18C6.62,6.11 6.63,6.03 6.63,5.96C6.63,5.93 6.63,5.9 6.63,5.88C6.63,5.85 6.62,5.83 6.62,5.8C6.61,5.78 6.61,5.75 6.6,5.73C6.59,5.71 6.58,5.68 6.57,5.66C6.56,5.63 6.55,5.61 6.54,5.59C6.53,5.57 6.52,5.54 6.5,5.52C6.49,5.5 6.47,5.48 6.46,5.46C6.44,5.44 6.43,5.42 6.41,5.41Z " /><path id="直线 1 (轮廓)" fill-rule="evenodd" style="fill:#383838" transform="translate(0 27.44642857142857)  rotate(0 12.5 0.7767857142857143)" opacity="1" d="M25 0.78C25 0.57 24.92 0.37 24.78 0.23C24.63 0.08 24.44 0 24.23 0L0.77 0C0.56 0 0.37 0.08 0.22 0.23C0.08 0.37 0 0.57 0 0.78C0 0.98 0.08 1.18 0.22 1.33C0.37 1.47 0.56 1.55 0.77 1.55L24.23 1.55C24.44 1.55 24.63 1.47 24.78 1.33C24.92 1.18 25 0.98 25 0.78Z" /></g></svg>