<svg xmlns="http://www.w3.org/2000/svg" xmlns:xlink="http://www.w3.org/1999/xlink" width="7" height="8" viewBox="0 0 7 8" fill="none"><g opacity="1" transform="translate(0 0)  rotate(0 3.4999999999999982 4.000000000000007)"><path id="路径 1" fill-rule="evenodd" style="fill:#FFFFFF" transform="translate(0 0)  rotate(0 3.4999999999999982 4.000000000000007)" opacity="1" d="M1.8,1.7C0.76,2.13 0,3.44 0,4.98C0,5.27 0.03,5.56 0.08,5.84L0.09,5.83C0.32,7.06 1.77,8 3.53,8C5.45,8 7,6.88 7,5.49C7,5.08 6.86,4.69 6.62,4.35C6.45,4.02 6.37,3.55 6.37,3.28C6.37,2.79 6.45,2.32 6.59,1.89C6.63,1.8 6.66,1.71 6.66,1.61C6.66,1.48 6.61,1.35 6.54,1.25C6.56,1.41 6.49,1.58 6.37,1.69L6.37,1.69C6.22,1.8 6.08,1.94 5.96,2.09L5.95,2.09C5.95,2.09 5.95,2.1 5.94,2.11C5.72,2.37 5.54,2.69 5.41,3.05L5.33,3.29C5.32,3.35 5.27,3.4 5.21,3.4C5.15,3.41 5.09,3.38 5.07,3.32L4.94,3.11C4.59,2.6 4.4,1.98 4.4,1.34C4.4,0.88 4.5,0.42 4.69,0C3.45,0.37 2.55,1.55 2.55,2.95C2.55,3.01 2.55,3.08 2.55,3.14C2.54,3.83 2.3,4.17 1.83,4.18C1.82,4.18 1.8,4.18 1.79,4.18C1.52,4.18 1.29,3.96 1.27,3.68C1.29,2.94 1.48,2.25 1.8,1.7Z " /></g></svg>