<svg xmlns="http://www.w3.org/2000/svg" xmlns:xlink="http://www.w3.org/1999/xlink" width="26" height="29" viewBox="0 0 26 29" fill="none"><g opacity="1" transform="translate(0 0)  rotate(0 12.99999999999998 14.499999999999995)"><path id="路径 1 (轮廓)" fill-rule="evenodd" style="fill:#383838" transform="translate(4.376237623762336 5.696428571428555)  rotate(0 10.811881188118813 11.651785714285717)" opacity="1" d="M21.34,22.87C21.36,22.85 21.38,22.84 21.4,22.82C21.42,22.8 21.43,22.78 21.45,22.76C21.46,22.74 21.48,22.72 21.49,22.7C21.51,22.68 21.52,22.66 21.53,22.63C21.54,22.61 21.56,22.59 21.56,22.57C21.57,22.54 21.58,22.52 21.59,22.49C21.6,22.47 21.6,22.44 21.61,22.42C21.61,22.39 21.62,22.37 21.62,22.34C21.62,22.32 21.62,22.29 21.62,22.27L21.62,5.96C21.62,5.17 21.47,4.41 21.17,3.68C20.87,2.94 20.44,2.3 19.89,1.74C19.34,1.19 18.7,0.76 17.97,0.45C17.24,0.15 16.49,0 15.7,0C14.92,0 14.16,0.15 13.44,0.45C12.71,0.76 12.07,1.19 11.52,1.75C10.96,2.3 10.53,2.94 10.23,3.68C9.93,4.41 9.78,5.17 9.78,5.96L9.78,17.61C9.78,18.17 9.67,18.71 9.46,19.22C9.25,19.72 8.96,20.15 8.58,20.54C8.2,20.92 7.76,21.22 7.27,21.42C6.76,21.64 6.22,21.75 5.66,21.75C5.1,21.75 4.57,21.64 4.06,21.42C3.57,21.22 3.13,20.92 2.75,20.54C2.37,20.15 2.08,19.72 1.87,19.22C1.65,18.71 1.54,18.17 1.54,17.61L0,17.61C0,18.38 0.15,19.12 0.45,19.83C0.73,20.51 1.14,21.11 1.66,21.64C2.18,22.16 2.78,22.57 3.46,22.86C4.16,23.15 4.9,23.3 5.66,23.3C6.43,23.3 7.17,23.15 7.87,22.86C8.55,22.57 9.15,22.16 9.67,21.64C10.19,21.11 10.6,20.51 10.88,19.83C11.18,19.12 11.33,18.38 11.33,17.61L11.33,5.96C11.33,5.37 11.44,4.81 11.66,4.27C11.88,3.73 12.2,3.25 12.61,2.84C13.02,2.43 13.49,2.11 14.03,1.89C14.56,1.67 15.12,1.55 15.7,1.55C16.28,1.55 16.84,1.67 17.38,1.89C17.92,2.11 18.39,2.43 18.8,2.84C19.21,3.26 19.52,3.73 19.75,4.27C19.97,4.81 20.08,5.37 20.08,5.96L20.08,22.27C20.08,22.29 20.08,22.32 20.08,22.34C20.09,22.37 20.09,22.39 20.09,22.42C20.1,22.44 20.11,22.47 20.11,22.49C20.12,22.52 20.13,22.54 20.14,22.57C20.15,22.59 20.16,22.61 20.17,22.63C20.18,22.66 20.2,22.68 20.21,22.7C20.22,22.72 20.24,22.74 20.25,22.76C20.27,22.78 20.29,22.8 20.31,22.82C20.32,22.84 20.34,22.85 20.36,22.87C20.38,22.88 20.4,22.9 20.42,22.91C20.44,22.93 20.47,22.94 20.49,22.95C20.51,22.96 20.53,22.98 20.56,22.99C20.58,23 20.6,23 20.63,23.01C20.65,23.02 20.68,23.02 20.7,23.03C20.73,23.03 20.75,23.04 20.78,23.04C20.8,23.04 20.83,23.04 20.85,23.04C20.88,23.04 20.9,23.04 20.93,23.04C20.95,23.04 20.98,23.03 21,23.03C21.03,23.02 21.05,23.02 21.08,23.01C21.1,23 21.12,23 21.15,22.99C21.17,22.98 21.19,22.96 21.22,22.95C21.24,22.94 21.26,22.93 21.28,22.91C21.3,22.9 21.32,22.88 21.34,22.87Z " /><g opacity="1" transform="translate(4.376237623762377 0)  rotate(0 2.317089112476364 1.3303571500296805)"><path id="直线 1 (轮廓)" fill-rule="evenodd" style="fill:#383838" transform="translate(0 0)  rotate(0 0.7725346570308003 1.3303571500296805)" opacity="1" d="M0.06,2.18C0.07,2.2 0.08,2.23 0.09,2.25C0.1,2.27 0.12,2.29 0.13,2.32C0.14,2.34 0.16,2.36 0.18,2.38C0.19,2.4 0.21,2.42 0.23,2.43C0.24,2.45 0.26,2.47 0.28,2.48C0.3,2.5 0.32,2.52 0.34,2.53C0.36,2.54 0.39,2.56 0.41,2.57C0.43,2.58 0.45,2.59 0.48,2.6C0.5,2.61 0.52,2.62 0.55,2.63C0.57,2.63 0.6,2.64 0.62,2.65C0.65,2.65 0.67,2.65 0.7,2.66C0.72,2.66 0.75,2.66 0.77,2.66C0.8,2.66 0.82,2.66 0.85,2.66C0.87,2.65 0.9,2.65 0.92,2.65C0.95,2.64 0.97,2.63 1,2.63C1.02,2.62 1.04,2.61 1.07,2.6C1.09,2.59 1.11,2.58 1.14,2.57C1.16,2.56 1.18,2.54 1.2,2.53C1.22,2.52 1.24,2.5 1.26,2.48C1.28,2.47 1.3,2.45 1.32,2.43C1.34,2.42 1.35,2.4 1.37,2.38C1.39,2.36 1.4,2.34 1.41,2.32C1.43,2.29 1.44,2.27 1.45,2.25C1.47,2.23 1.48,2.2 1.49,2.18C1.5,2.16 1.5,2.13 1.51,2.11C1.52,2.09 1.52,2.06 1.53,2.04C1.53,2.01 1.54,1.99 1.54,1.96C1.54,1.93 1.54,1.91 1.54,1.88L0.77,1.88L1.54,1.88L1.54,0.78L1.55,0.78C1.55,0.75 1.54,0.73 1.54,0.7C1.54,0.68 1.54,0.65 1.53,0.63C1.53,0.6 1.52,0.58 1.51,0.55C1.5,0.53 1.5,0.5 1.49,0.48C1.48,0.46 1.47,0.43 1.45,0.41C1.44,0.39 1.43,0.37 1.41,0.35C1.4,0.32 1.39,0.3 1.37,0.28C1.35,0.26 1.34,0.25 1.32,0.23C1.3,0.21 1.28,0.19 1.26,0.18C1.24,0.16 1.22,0.15 1.2,0.13C1.18,0.12 1.16,0.1 1.14,0.09C1.11,0.08 1.09,0.07 1.07,0.06C1.05,0.05 1.02,0.04 1,0.03C0.97,0.03 0.95,0.02 0.92,0.01C0.9,0.01 0.87,0.01 0.85,0C0.82,0 0.8,0 0.77,0C0.75,0 0.72,0 0.7,0C0.67,0.01 0.65,0.01 0.62,0.01C0.6,0.02 0.57,0.03 0.55,0.03C0.52,0.04 0.5,0.05 0.48,0.06C0.45,0.07 0.43,0.08 0.41,0.09C0.39,0.1 0.36,0.12 0.34,0.13C0.32,0.14 0.3,0.16 0.28,0.18C0.26,0.19 0.24,0.21 0.23,0.23C0.21,0.25 0.19,0.26 0.18,0.28C0.16,0.3 0.14,0.32 0.13,0.35C0.12,0.37 0.1,0.39 0.09,0.41C0.08,0.43 0.07,0.46 0.06,0.48C0.05,0.5 0.04,0.53 0.03,0.55C0.03,0.58 0.02,0.6 0.02,0.63C0.01,0.65 0.01,0.68 0,0.7C0,0.73 0,0.75 0,0.78L0.77,0.78L0,0.78L0,1.88C0,1.91 0,1.93 0,1.96C0.01,1.99 0.01,2.01 0.01,2.04C0.02,2.06 0.03,2.09 0.03,2.11C0.04,2.13 0.05,2.16 0.06,2.18Z " /><path id="直线 1 (轮廓)" fill-rule="evenodd" style="fill:#383838" transform="translate(3.0891089108911274 0)  rotate(0 0.7725346570308003 1.3303571500296805)" opacity="1" d="M0.77,2.66C0.8,2.66 0.82,2.66 0.85,2.66C0.87,2.65 0.9,2.65 0.92,2.65C0.95,2.64 0.97,2.63 1,2.63C1.02,2.62 1.04,2.61 1.07,2.6C1.09,2.59 1.11,2.58 1.14,2.57C1.16,2.56 1.18,2.54 1.2,2.53C1.22,2.52 1.24,2.5 1.26,2.48C1.28,2.47 1.3,2.45 1.32,2.43C1.34,2.42 1.35,2.4 1.37,2.38C1.39,2.36 1.4,2.34 1.41,2.32C1.43,2.29 1.44,2.27 1.45,2.25C1.47,2.23 1.48,2.2 1.49,2.18C1.5,2.16 1.5,2.13 1.51,2.11C1.52,2.09 1.52,2.06 1.53,2.04C1.53,2.01 1.54,1.99 1.54,1.96C1.54,1.93 1.54,1.91 1.54,1.88L0.77,1.88L1.54,1.88L1.54,0.78L1.55,0.78C1.55,0.75 1.54,0.73 1.54,0.7C1.54,0.68 1.54,0.65 1.53,0.63C1.53,0.6 1.52,0.58 1.51,0.55C1.5,0.53 1.5,0.5 1.49,0.48C1.48,0.46 1.47,0.43 1.45,0.41C1.44,0.39 1.43,0.37 1.41,0.35C1.4,0.32 1.39,0.3 1.37,0.28C1.35,0.26 1.34,0.25 1.32,0.23C1.3,0.21 1.28,0.19 1.26,0.18C1.24,0.16 1.22,0.15 1.2,0.13C1.18,0.12 1.16,0.1 1.14,0.09C1.11,0.08 1.09,0.07 1.07,0.06C1.05,0.05 1.02,0.04 1,0.03C0.97,0.03 0.95,0.02 0.92,0.01C0.9,0.01 0.87,0.01 0.85,0C0.82,0 0.8,0 0.77,0C0.75,0 0.72,0 0.7,0C0.67,0.01 0.65,0.01 0.62,0.01C0.6,0.02 0.57,0.03 0.55,0.03C0.52,0.04 0.5,0.05 0.48,0.06C0.45,0.07 0.43,0.08 0.41,0.09C0.39,0.1 0.36,0.12 0.34,0.13C0.32,0.14 0.3,0.16 0.28,0.18C0.26,0.19 0.24,0.21 0.23,0.23C0.21,0.25 0.19,0.26 0.18,0.28C0.16,0.3 0.14,0.32 0.13,0.35C0.12,0.37 0.1,0.39 0.09,0.41C0.08,0.43 0.07,0.46 0.06,0.48C0.05,0.5 0.04,0.53 0.03,0.55C0.03,0.58 0.02,0.6 0.02,0.63C0.01,0.65 0.01,0.68 0,0.7C0,0.73 0,0.75 0,0.78L0.77,0.78L0,0.78L0,1.88C0,1.91 0,1.93 0,1.96C0.01,1.99 0.01,2.01 0.01,2.04C0.02,2.06 0.03,2.09 0.03,2.11C0.04,2.13 0.05,2.16 0.06,2.18C0.07,2.2 0.08,2.23 0.09,2.25C0.1,2.27 0.12,2.29 0.13,2.32C0.14,2.34 0.16,2.36 0.18,2.38C0.19,2.4 0.21,2.42 0.23,2.43C0.24,2.45 0.26,2.47 0.28,2.48C0.3,2.5 0.32,2.52 0.34,2.53C0.36,2.54 0.39,2.56 0.41,2.57C0.43,2.58 0.45,2.59 0.48,2.6C0.5,2.61 0.52,2.62 0.55,2.63C0.57,2.63 0.6,2.64 0.62,2.65C0.65,2.65 0.67,2.65 0.7,2.66C0.72,2.66 0.75,2.66 0.77,2.66Z " /></g><path id="矩形 2 (轮廓)" fill-rule="evenodd" style="fill:#383838" transform="translate(2.0594059405941607 1.5535714285714448)  rotate(0 4.633663366336633 2.6428571428571432)" opacity="1" d="M9.27 2.07L9.27 5.29L0 5.29L0 2.07C0 0.93 0.92 0 2.06 0L7.21 0C8.35 0 9.27 0.93 9.27 2.07ZM1.7 1.71C1.59 1.81 1.54 1.93 1.54 2.07L1.54 4.73L7.72 4.73L7.72 2.07Q7.72 1.86 7.57 1.71C7.47 1.6 7.35 1.55 7.21 1.55L2.06 1.55C1.92 1.55 1.8 1.6 1.7 1.71Z" /><path id="矩形 2 (轮廓)" fill-rule="evenodd" style="fill:#000000" transform="translate(0 5.696428571428569)  rotate(0 6.693069306930693 9.580357142857144)" opacity="1" d="M2.06 19.16C0.92 19.16 0 18.23 0 17.09L0 2.07C0 0.93 0.92 0 2.06 0L11.33 0C12.46 0 13.39 0.93 13.39 2.07L13.39 17.09C13.39 18.23 12.46 19.16 11.33 19.16L2.06 19.16ZM11.84 17.09C11.84 17.23 11.79 17.35 11.69 17.46C11.59 17.56 11.47 17.61 11.33 17.61L2.06 17.61Q1.85 17.61 1.7 17.46C1.59 17.35 1.54 17.23 1.54 17.09L1.54 2.07C1.54 1.93 1.59 1.81 1.7 1.71C1.8 1.6 1.92 1.55 2.06 1.55L11.33 1.55C11.47 1.55 11.59 1.6 11.69 1.71Q11.84 1.86 11.84 2.07L11.84 17.09Z" /><path id="路径 2 (轮廓)" fill-rule="evenodd" style="fill:#387EFE" transform="translate(3.346534396752668 8.544642452847711)  rotate(0 3.3465347818216724 5.955357703383355)" opacity="1" d="M1.94,11.68C1.96,11.7 1.98,11.72 2,11.73C2.02,11.75 2.04,11.77 2.06,11.78C2.1,11.81 2.15,11.83 2.19,11.85C2.24,11.87 2.29,11.89 2.34,11.9C2.39,11.91 2.44,11.91 2.49,11.91C2.54,11.91 2.59,11.91 2.64,11.9C2.69,11.89 2.74,11.87 2.78,11.85C2.83,11.83 2.88,11.81 2.92,11.78C2.96,11.75 3,11.72 3.04,11.68C3.07,11.65 3.1,11.61 3.13,11.56L3.13,11.56L6.56,6.39C6.61,6.32 6.64,6.25 6.66,6.18C6.68,6.11 6.69,6.03 6.69,5.96C6.69,5.93 6.69,5.9 6.69,5.88C6.69,5.85 6.68,5.83 6.68,5.8C6.67,5.78 6.67,5.75 6.66,5.73C6.65,5.71 6.64,5.68 6.63,5.66C6.62,5.63 6.61,5.61 6.6,5.59C6.59,5.57 6.58,5.54 6.56,5.52C6.55,5.5 6.53,5.48 6.52,5.46C6.5,5.44 6.48,5.42 6.47,5.41C6.45,5.39 6.43,5.37 6.41,5.35C6.39,5.34 6.37,5.32 6.35,5.31C6.33,5.3 6.31,5.28 6.28,5.27C6.26,5.26 6.24,5.25 6.22,5.24C6.19,5.23 6.17,5.22 6.14,5.21C6.12,5.2 6.1,5.2 6.07,5.19C6.05,5.19 6.02,5.18 6,5.18C5.97,5.18 5.95,5.18 5.92,5.18L2.22,5.18L4.85,1.21L4.85,1.21C4.86,1.19 4.87,1.16 4.89,1.14C4.9,1.12 4.91,1.1 4.92,1.07C4.93,1.05 4.94,1.03 4.94,1C4.95,0.98 4.96,0.95 4.96,0.93C4.97,0.9 4.97,0.88 4.97,0.85C4.98,0.83 4.98,0.8 4.98,0.78C4.98,0.75 4.98,0.72 4.97,0.7C4.97,0.67 4.97,0.65 4.96,0.62C4.96,0.6 4.95,0.57 4.94,0.55C4.94,0.53 4.93,0.5 4.92,0.48C4.91,0.46 4.9,0.43 4.89,0.41C4.87,0.39 4.86,0.37 4.85,0.34C4.83,0.32 4.82,0.3 4.8,0.28C4.78,0.26 4.77,0.24 4.75,0.23C4.73,0.21 4.71,0.19 4.69,0.18C4.67,0.16 4.65,0.14 4.63,0.13C4.59,0.1 4.55,0.08 4.5,0.06C4.45,0.04 4.4,0.02 4.35,0.01C4.3,0 4.25,0 4.2,0C4.15,0 4.1,0.01 4.05,0.02C4,0.03 3.96,0.04 3.91,0.06C3.86,0.08 3.82,0.1 3.77,0.13C3.73,0.16 3.69,0.19 3.66,0.23C3.62,0.26 3.59,0.3 3.56,0.35L3.56,0.35L0.13,5.52C0.12,5.55 0.1,5.57 0.09,5.59C0.08,5.61 0.07,5.64 0.06,5.66C0.05,5.68 0.04,5.71 0.03,5.73C0.03,5.75 0.02,5.78 0.01,5.8C0.01,5.83 0.01,5.85 0,5.88C0,5.91 0,5.93 0,5.96C0,5.98 0,6.01 0,6.03C0.01,6.06 0.01,6.08 0.01,6.11C0.02,6.13 0.03,6.16 0.03,6.18C0.04,6.21 0.05,6.23 0.06,6.25C0.07,6.28 0.08,6.3 0.09,6.32C0.1,6.34 0.12,6.37 0.13,6.39C0.14,6.41 0.16,6.43 0.18,6.45C0.19,6.47 0.21,6.49 0.23,6.51C0.24,6.52 0.26,6.54 0.28,6.56C0.3,6.57 0.32,6.59 0.34,6.6C0.41,6.64 0.48,6.68 0.55,6.7C0.62,6.72 0.7,6.73 0.77,6.73L4.48,6.73L1.84,10.7L1.85,10.7C1.83,10.72 1.82,10.75 1.81,10.77C1.79,10.79 1.78,10.81 1.77,10.84C1.76,10.86 1.76,10.89 1.75,10.91C1.74,10.93 1.74,10.96 1.73,10.98C1.73,11.01 1.72,11.03 1.72,11.06C1.72,11.08 1.72,11.11 1.72,11.14C1.72,11.16 1.72,11.19 1.72,11.21C1.72,11.24 1.73,11.26 1.73,11.29C1.74,11.31 1.74,11.34 1.75,11.36C1.76,11.38 1.77,11.41 1.78,11.43C1.79,11.46 1.8,11.48 1.81,11.5C1.82,11.52 1.83,11.55 1.85,11.57C1.86,11.59 1.88,11.61 1.89,11.63C1.91,11.65 1.93,11.67 1.94,11.68Z " /></g></svg>