<svg xmlns="http://www.w3.org/2000/svg" xmlns:xlink="http://www.w3.org/1999/xlink" fill="none" version="1.1" width="42" height="42" viewBox="0 0 42 42"><defs><mask id="master_svg0_28_25514"><g><rect x="0" y="0" width="42" height="42" rx="0" fill="#FFFFFF" fill-opacity="1"/></g></mask></defs><g mask="url(#master_svg0_28_25514)"><g><rect x="0" y="0" width="42" height="42" rx="0" fill="#D8D8D8" fill-opacity="0.009999999776482582"/></g><g><g><path d="M14.009702682495117,42.037353515625L27.987002682495117,42.037353515625L27.987002682495117,0.037353515625L14.009702682495117,0.067353515625L14.009702682495117,42.037353515625Z" fill-rule="evenodd" fill="#409EFF" fill-opacity="1"/></g><g><path d="M23.32400123260498,6.0823540687561035L18.66102123260498,6.0823540687561035L18.66102123260498,9.067354068756103L21.004171232604982,9.067354068756103L21.004171232604982,15.067354068756103L18.66102123260498,15.067354068756103L18.66102123260498,18.082354068756104L21.004171232604982,18.082354068756104L21.004171232604982,24.067354068756103L18.66102123260498,24.067354068756103L18.66102123260498,27.082354068756104L21.004171232604982,27.082354068756104L21.004171232604982,33.0823540687561L18.66102123260498,33.0823540687561L18.66102123260498,36.0673540687561L23.32400123260498,36.0673540687561L23.32400123260498,6.0823540687561035Z" fill-rule="evenodd" fill="#409EFF" fill-opacity="1"/></g></g><g><path d="M7.70557,19.92046875C6.34165,19.95046875,5.0127,19.39546875,3.94021,18.33046875L3.24077,17.76046875L0,21.93046875C0.559557,22.23046875,1.08414,22.59046875,1.58541,23.04046875C3.35734,24.69046875,5.50231,25.56046875,7.70557,25.53046875C9.88551,25.57546875,12.0305,24.70546875,13.8024,23.05546875L14.0122,22.89046875L14.0122,16.60546875C13.103,17.04046875,12.252,17.62546875,11.4476,18.33046875C10.3751,19.39546875,9.05783,19.95046875,7.70557,19.92046875Z" fill-rule="evenodd" fill="#409EFF" fill-opacity="1"/></g><g><path d="M11.4476,7.87734375C10.3751,8.94234375,9.05783,9.49734375,7.70557,9.46734375C6.34165,9.49734375,5.0127,8.94234375,3.94021,7.87734375L3.24077,7.30734375L0,11.47734375C0.559557,11.77734375,1.08414,12.13734375,1.58541,12.587343749999999C3.35734,14.23734375,5.50231,15.10734375,7.70557,15.07734375C9.88551,15.12234375,12.0305,14.25234375,13.8024,12.60234375L14.0122,12.43734375L14.0122,6.15234375C13.103,6.58734375,12.252,7.17234375,11.4476,7.87734375Z" fill-rule="evenodd" fill="#409EFF" fill-opacity="1"/></g><g><path d="M7.70557,30.39263671875C6.34165,30.42263671875,5.0127,29.86763671875,3.94021,28.80263671875L3.24077,28.23263671875L0,32.40263671875C0.559557,32.70263671875,1.08414,33.06263671875,1.58541,33.51263671875C3.35734,35.16263671875,5.50231,36.03263671875,7.70557,36.00263671875C9.88551,36.04763671875,12.0305,35.17763671875,13.8024,33.52763671875L14.0122,33.36263671875L14.0122,27.07763671875C13.103,27.51263671875,12.252,28.09763671875,11.4476,28.80263671875C10.3751,29.86763671875,9.05783,30.42263671875,7.70557,30.39263671875Z" fill-rule="evenodd" fill="#409EFF" fill-opacity="1"/></g><g><path d="M34.297045518798825,21.447155948791504C35.660965518798825,21.402155948791503,36.989915518798824,21.972155948791503,38.06237551879883,23.037155948791504L38.76187551879883,23.592155948791504L42.00257551879883,19.422155948791506C41.44307551879883,19.137155948791502,40.906775518798824,18.762155948791502,40.41717551879883,18.327155948791503C38.63357551879883,16.662157948791503,36.488645518798826,15.792157848791504,34.297045518798825,15.837157798791504C32.10545551879883,15.792157848791504,29.97213551879883,16.662157948791503,28.18855151879883,18.312155948791503L27.990375518798828,18.477155948791506L27.990375518798828,24.762155948791502C28.899655518798827,24.327155948791503,29.750645518798827,23.742155948791503,30.543355518798826,23.037155948791504C31.61583551879883,21.972155948791503,32.94478551879883,21.417155948791503,34.297045518798825,21.447155948791504Z" fill-rule="evenodd" fill="#409EFF" fill-opacity="1"/></g><g><path d="M30.543355518798826,33.509324871215824C31.61583551879883,32.44432487121582,32.94478551879883,31.88932487121582,34.297045518798825,31.91932487121582C35.660965518798825,31.87432487121582,36.989915518798824,32.44432487121582,38.06237551879883,33.509324871215824L38.76187551879883,34.06432487121582L42.00257551879883,29.894324871215822C41.44307551879883,29.60932487121582,40.906775518798824,29.23432487121582,40.41717551879883,28.79932487121582C38.63357551879883,27.13432687121582,36.488645518798826,26.26432677121582,34.297045518798825,26.30932672121582C32.10545551879883,26.26432677121582,29.97213551879883,27.13432687121582,28.18855151879883,28.78432487121582L27.990375518798828,28.949324871215822L27.990375518798828,35.21932487121582C28.887998518798828,34.78432487121582,29.750645518798827,34.21432487121582,30.543355518798826,33.509324871215824Z" fill-rule="evenodd" fill="#409EFF" fill-opacity="1"/></g><g><path d="M34.297045518798825,10.974987980041504C35.660965518798825,10.929987980041503,36.989915518798824,11.499987980041503,38.06237551879883,12.564987980041504L38.76187551879883,13.119987980041504L42.00257551879883,8.949987980041504C41.44307551879883,8.664987980041504,40.906775518798824,8.289987980041504,40.41717551879883,7.8549879800415034C38.63357551879883,6.189989980041504,36.488645518798826,5.319989880041504,34.297045518798825,5.3649898300415035C32.10545551879883,5.319989880041504,29.97213551879883,6.189989980041504,28.18855151879883,7.839987980041504L27.990375518798828,8.004987980041504L27.990375518798828,14.289987980041504C28.899655518798827,13.854987980041503,29.750645518798827,13.269987980041503,30.543355518798826,12.564987980041504C31.61583551879883,11.499987980041503,32.94478551879883,10.944987980041503,34.297045518798825,10.974987980041504Z" fill-rule="evenodd" fill="#409EFF" fill-opacity="1"/></g></g></svg>