<svg xmlns="http://www.w3.org/2000/svg" xmlns:xlink="http://www.w3.org/1999/xlink" fill="none" version="1.1" width="42" height="42" viewBox="0 0 42 42"><g><g><path d="M37.324,19.18280299255371L36.778,19.55896299255371C35.616,20.40154299255371,34.216,20.837872992553713,32.816,20.77769299255371C31.178,20.82283299255371,29.596,20.26612299255371,28.308,19.18280299255371C26.18,17.542783992553712,23.618,16.67011199255371,21,16.71525017255371C18.368,16.67011199255371,15.806,17.542783992553712,13.678,19.18280299255371C12.404,20.26612299255371,10.808,20.82283299255371,9.184,20.77769299255371C7.784,20.837872992553713,6.384,20.40154299255371,5.222,19.55896299255371L4.676,19.18280299255371C3.276,18.114532992553713,1.68,17.362230992553712,0,16.986079992553712L0,22.80891299255371C0.658,23.109832992553713,1.274,23.485982992553712,1.862,23.92232299255371C2.898,24.68967299255371,4.032,25.32160299255371,5.222,25.78803299255371C6.496,26.23941299255371,7.84,26.45006299255371,9.184,26.41997299255371C11.802,26.46510299255371,14.364,25.59243299255371,16.492,23.95241299255371C17.78,22.884142992553713,19.376,22.32743299255371,21,22.35753299255371C22.624,22.32743299255371,24.22,22.884142992553713,25.508,23.95241299255371C27.622,25.607482992553713,30.198,26.480152992553712,32.816,26.41997299255371C34.16,26.45006299255371,35.504,26.23941299255371,36.778,25.78803299255371C37.968,25.32160299255371,39.102,24.68967299255371,40.138,23.92232299255371C40.726,23.485982992553712,41.342,23.109832992553713,42,22.80891299255371L42,16.986079992553712C40.32,17.362230992553712,38.724,18.114532992553713,37.324,19.18280299255371Z" fill-rule="evenodd" fill="#409EFF" fill-opacity="1"/></g><g><g><path d="M12.631444931030273,41.9936L29.375444931030273,41.9936L29.375444931030273,0L12.631444931030273,0L12.631444931030273,41.9936Z" fill-rule="evenodd" fill="#409EFF" fill-opacity="1"/></g><g><path d="M23.789444957733153,6.003384113311768L18.203444957733154,6.003384113311768L18.203444957733154,8.997554113311768L21.003444957733155,8.997554113311768L21.003444957733155,15.000934113311768L18.203444957733154,15.000934113311768L18.203444957733154,18.010184113311766L21.003444957733155,18.010184113311766L21.003444957733155,23.983484113311768L18.203444957733154,23.983484113311768L18.203444957733154,27.007684113311768L21.003444957733155,27.007684113311768L21.003444957733155,32.99608411331177L18.203444957733154,32.99608411331177L18.203444957733154,35.99018411331177L23.789444957733153,35.99018411331177L23.789444957733153,6.003384113311768Z" fill-rule="evenodd" fill="#409EFF" fill-opacity="1"/></g></g><g><path d="M36.778,9.199557304382324L36.778,36.38785730438232L5.222,36.38785730438232L5.222,9.199557304382324L0,9.199557304382324L0,41.99995730438233L42,41.99995730438233L42,9.199557304382324L36.778,9.199557304382324Z" fill-rule="evenodd" fill="#409EFF" fill-opacity="1"/></g></g></svg>