<svg xmlns="http://www.w3.org/2000/svg" xmlns:xlink="http://www.w3.org/1999/xlink" fill="none" version="1.1" width="42.0006103515625" height="42" viewBox="0 0 42.0006103515625 42"><g><g><g><path d="M5.195979442254394,30.43838056716919C5.181937973254395,31.725980567169188,5.841887773254395,32.93148056716919,6.937129773254394,33.64388056716919C8.144689773254395,34.43838056716919,9.689259773254395,34.52058056716919,10.981079773254393,33.86298056716919C12.258849773254394,33.20548056716919,13.073259773254396,31.90408056716919,13.087299773254394,30.49318056716919C13.087299773254394,29.97258056716919,12.834549773254395,29.46578056716919,12.834549773254395,28.94518056716919L34.94995977325439,7.369860567169189C35.202659773254396,7.13699056716919,35.343059773254396,6.808220567169189,35.343059773254396,6.47945056716919C35.343059773254396,6.136986567169189,35.202659773254396,5.80821856716919,34.94995977325439,5.57534256716919C34.711159773254394,5.32876656716919,34.374259773254394,5.1917805671691895,34.03725977325439,5.1917805671691895C33.686159773254396,5.1917805671691895,33.3491597732544,5.32876656716919,33.11045977325439,5.57534256716919L10.995119773254395,26.89038056716919C10.433459773254395,26.56168056716919,9.801589773254396,26.36988056716919,9.141639773254393,26.32878056716919C6.923079773254394,26.46578056716919,5.195979442254394,28.26028056716919,5.195979442254394,30.43838056716919Z" fill-rule="evenodd" fill="#409EFF" fill-opacity="1"/></g><g><path d="M2.556176278202161,24.0548C0.8852402782021612,25.7123,-0.027457421797838808,27.9589,0.0006256102021611929,30.274C-0.04149892179783881,34.1644,2.471926278202161,37.6438,6.235046278202161,38.9315C9.043346278202161,39.8356,12.132496278202161,39.3836,14.54759627820216,37.7123C16.94869627820216,36.0274,18.39499627820216,33.3288,18.423096278202163,30.4384L38.10929627820216,10.9178C40.73499627820216,8.60274,40.468196278202164,4.49315,38.10929627820216,1.93151C36.91569627820216,0.69863,35.24479627820216,0,33.50359627820216,0C31.76249627820216,0,30.09159627820216,0.69863,28.89799627820216,1.93151L8.874856278202161,21.4521C6.501836278202161,21.4658,4.213076278202161,22.3973,2.556176278202161,24.0548Z" fill-rule="evenodd" fill="#409EFF" fill-opacity="1"/></g><g><path d="M41.99873014831543,35.31510662536621C41.99873014831543,33.43835662536621,40.59463014831543,30.082186625366212,37.78629014831543,25.21917662536621C37.29484014831543,24.410957625366212,36.41022014831543,23.91780662536621,35.45540014831543,23.91780662536621C34.48654014831543,23.91780662536621,33.60192014831543,24.410957625366212,33.11047014831543,25.21917662536621C30.30217014831543,30.082186625366212,28.89802307631543,33.45205662536621,28.89802307631543,35.31510662536621C28.84185704831543,38.93150662536621,31.77653014831543,41.90410662536621,35.46944014831543,42.00000662536621C39.14833014831543,41.89040662536621,42.06893014831543,38.90410662536621,41.99873014831543,35.31510662536621Z" fill-rule="evenodd" fill="#409EFF" fill-opacity="1"/></g><g><path d="M35.46943994750976,29.150686264038086C34.851614947509766,30.726026264038087,34.416327947509764,32.35616626403809,34.149539947509766,34.02739626403809C34.149539947509766,35.57534626403809,34.68311694750977,36.602736264038086,35.46943994750976,36.602736264038086C36.255759947509766,36.602736264038086,36.78933994750977,35.57534626403809,36.78933994750977,34.02739626403809C36.48042994750976,32.36986626403809,36.031099947509766,30.739726264038087,35.46943994750976,29.150686264038086Z" fill-rule="evenodd" fill="#409EFF" fill-opacity="1"/></g></g><g transform="matrix(0.7157919406890869,0.6983135938644409,-0.7157920002937317,0.6983136534690857,11.062324663684038,-22.55554578716918)"><path d="M33.269805908203125,23.245655029678346L39.26213590820313,23.245655029678346L39.26213590820313,2.2447550296783447L33.269805908203125,2.2447550296783447L33.269805908203125,23.245655029678346Z" fill-rule="evenodd" fill="#409EFF" fill-opacity="1"/></g></g></svg>